<?xml version="1.0" standalone="no"?>
<!DOCTYPE svg PUBLIC "-//W3C//DTD SVG 20010904//EN"
 "http://www.w3.org/TR/2001/REC-SVG-20010904/DTD/svg10.dtd">
<svg version="1.0" xmlns="http://www.w3.org/2000/svg"
 width="16.000000pt" height="16.000000pt" viewBox="0 0 16.000000 16.000000"
 preserveAspectRatio="xMidYMid meet">
<metadata>
Created by potrace 1.11, written by Peter Selinger 2001-2013
</metadata>
<g transform="translate(0.000000,16.000000) scale(0.002286,-0.002286)"
fill="#000000" stroke="none">
<path d="M2680 5860 l0 -880 875 0 875 0 0 880 0 880 -875 0 -875 0 0 -880z
m1067 679 c275 -85 460 -299 504 -582 22 -139 -6 -291 -79 -432 -55 -106 -191
-238 -302 -293 -108 -53 -197 -73 -319 -73 -194 1 -360 69 -496 206 -137 138
-205 301 -205 495 0 351 242 636 595 700 74 13 224 3 302 -21z"/>
<path d="M2020 5099 l0 -612 83 6 c45 4 199 11 342 17 143 6 275 13 293 16
l32 5 0 209 0 210 -65 0 -65 0 0 225 0 225 -310 155 -310 155 0 -611z"/>
<path d="M4640 4994 l-195 -93 -135 -1 -135 -1 -66 -103 -67 -103 -253 128
-254 128 -172 1 -173 0 0 -319 0 -320 425 -413 424 -413 1 -204 0 -204 -107
104 c-60 56 -249 240 -421 408 -172 169 -316 307 -320 309 -4 1 -6 -162 -4
-363 l3 -366 -80 41 c-44 22 -84 40 -88 40 -13 -1 991 -509 1005 -510 9 0 13
41 14 168 l2 167 6 -157 5 -157 397 603 398 603 0 556 c0 306 -4 558 -8 560
-4 2 -95 -38 -202 -89z"/>
<path d="M2480 4104 c-157 -6 -324 -12 -372 -13 l-88 -1 0 -173 0 -172 375
-188 375 -187 0 375 c0 206 -1 374 -2 373 -2 0 -131 -7 -288 -14z"/>
<path d="M1300 2698 l0 -1023 82 -73 82 -73 22 23 c13 13 111 120 218 238
l196 215 -1 595 0 595 -291 260 c-160 143 -295 262 -300 263 -4 2 -8 -457 -8
-1020z"/>
<path d="M5105 2991 c-308 -97 -566 -179 -573 -182 -6 -2 251 -267 573 -589
l585 -585 0 768 c0 607 -3 767 -12 766 -7 0 -265 -80 -573 -178z"/>
<path d="M2170 2352 l0 -599 260 -659 260 -659 62 -55 c35 -30 83 -73 107 -96
l44 -40 306 96 306 96 3 252 c1 139 -1 252 -5 252 -5 0 -141 -43 -303 -95
-162 -52 -295 -93 -296 -92 -1 1 247 427 552 946 305 519 553 945 552 946 -2
1 -214 -64 -473 -146 -258 -82 -509 -161 -557 -175 l-87 -27 -133 119 c-73 66
-238 213 -365 327 l-233 208 0 -599z"/>
<path d="M4488 2793 c7 -3 16 -2 19 1 4 3 -2 6 -13 5 -11 0 -14 -3 -6 -6z"/>
<path d="M1848 1503 l-167 -168 377 -336 c207 -185 378 -334 379 -330 4 10
-405 995 -414 998 -4 2 -83 -72 -175 -164z"/>
<path d="M5470 1564 c-113 -36 -256 -80 -317 -100 l-113 -35 0 -254 c0 -140 3
-255 6 -255 4 0 153 46 330 102 l324 101 0 126 c0 159 -11 381 -19 380 -3 0
-98 -30 -211 -65z"/>
<path d="M4273 1192 l-243 -77 0 -259 c0 -202 3 -257 13 -254 6 3 119 38 249
79 l238 74 0 258 c0 141 -3 257 -7 256 -5 0 -117 -35 -250 -77z"/>
</g>
</svg>
