<svg xmlns="http://www.w3.org/2000/svg" stroke-linecap="square" version="1.1" stroke-miterlimit="10" xmlns:xlink="http://www.w3.org/1999/xlink" viewBox="0.0 0.0 1333.3333333333333 533.3333333333334" fill="none">
 <clipPath id="p.0">
  <path d="m0 0h1333.3v533.33h-1333.3v-533.33z"/>
 </clipPath>
 <g clip-path="url(#p.0)">
  <path fill-opacity="0" d="m0 0h1333.3v533.33h-1333.3z" fill="#000"/>
  <path fill-rule="evenodd" fill-opacity="0" d="m1303.5 115.57c-13.656-17.063-37.654-23.587-58.856-28.892-29.879-7.4766-59.24-18.335-89.887-21.402-72.029-7.2082-167.42-24.517-215.09 29.963-19.964 22.818-29.61 53.417-38.522 82.396-3.915 12.73-12.891 24.175-13.913 37.454-1.9713 25.608 6.1127 51.86 1.0709 77.045-2.1741 10.86-7.338 21.097-8.559 32.105-3.298 29.731 0.5351 62.061-12.843 88.816-18.111 36.222-64.511 53.309-103.8 63.137-71.162 17.801-152.69 4.992-218.3-27.824-51.602-25.812-99.652-58.491-146.6-92.026-23.518-16.798-44.316-38.331-70.625-50.294-91.428-41.575-210.88-64.223-300.7-19.262" fill="#000"/>
  <path stroke-linejoin="round" d="m1303.5 115.57c-13.656-17.063-37.654-23.587-58.856-28.892-29.879-7.4766-59.24-18.335-89.887-21.402-72.029-7.2082-167.42-24.517-215.09 29.963-19.964 22.818-29.61 53.417-38.522 82.396-3.915 12.73-12.891 24.175-13.913 37.454-1.9713 25.608 6.1127 51.86 1.0709 77.045-2.1741 10.86-7.338 21.097-8.559 32.105-3.298 29.731 0.5351 62.061-12.843 88.816-18.111 36.222-64.511 53.309-103.8 63.137-71.162 17.801-152.69 4.992-218.3-27.824-51.602-25.812-99.652-58.491-146.6-92.026-23.518-16.798-44.316-38.331-70.625-50.294-91.428-41.575-210.88-64.223-300.7-19.262" fill-rule="evenodd" stroke="#d9d9d9" stroke-linecap="butt" stroke-width="8"/>
  <path fill-rule="evenodd" fill-opacity="0" d="m37.454 345.64c83.62-27.896 188.17-35.861 264.31 8.5591 75.68 44.152 134.6 114.87 212.95 154.09" fill="#000"/>
  <path stroke-linejoin="round" d="m37.454 345.64c83.62-27.896 188.17-35.861 264.31 8.5591 75.68 44.152 134.6 114.87 212.95 154.09" fill-rule="evenodd" stroke="#d9d9d9" stroke-linecap="butt" stroke-width="8"/>
  <path fill-rule="evenodd" fill-opacity="0" d="m865.85 502.94c79.716-22.764 93.157-145.27 99.52-227.93 3.4891-45.323 4.9805-104.27 42.803-129.48 58.516-39.011 142.58-8.4946 210.81 8.5591 22.311 5.5767 44.418 14.459 63.134 27.824 6.3929 4.5651 11.907 10.269 18.192 14.982 2.229 1.6715 9.2086 5.3491 6.4225 5.3491" fill="#000"/>
  <path stroke-linejoin="round" d="m865.85 502.94c79.716-22.764 93.157-145.27 99.52-227.93 3.4891-45.323 4.9805-104.27 42.803-129.48 58.516-39.011 142.58-8.4946 210.81 8.5591 22.311 5.5767 44.418 14.459 63.134 27.824 6.3929 4.5651 11.907 10.269 18.192 14.982 2.229 1.6715 9.2086 5.3491 6.4225 5.3491" fill-rule="evenodd" stroke="#d9d9d9" stroke-linecap="butt" stroke-width="8"/>
  <path fill-rule="evenodd" fill-opacity="0" d="m684.86 482.61c17.424-26.131 10.836-66.076-3.21-94.168-8.2719-16.544-26.139-26.742-35.312-42.803-6.808-11.92-3.6626-34.761-17.123-37.454-8.052-1.6112-16.45 1.9784-24.612 1.0709-10.287-1.1439-22.157-6.3965-31.031-1.0709-22.709 13.628-36.914 37.991-55.646 56.714-14.276 14.269-32.715 25.817-41.732 43.874" fill="#000"/>
  <path stroke-linejoin="round" d="m684.86 482.61c17.424-26.131 10.836-66.076-3.21-94.168-8.2719-16.544-26.139-26.742-35.312-42.803-6.808-11.92-3.6626-34.761-17.123-37.454-8.052-1.6112-16.45 1.9784-24.612 1.0709-10.287-1.1439-22.157-6.3965-31.031-1.0709-22.709 13.628-36.914 37.991-55.646 56.714-14.276 14.269-32.715 25.817-41.732 43.874" fill-rule="evenodd" stroke="#000" stroke-linecap="butt"/>
  <path fill-rule="evenodd" fill-opacity="0" d="m461.21 401.28c10.536-10.536 19.425-22.637 29.961-33.173 2.1699-2.1699 7.0534-4.9372 5.3517-7.4908-7.3615-11.047-22.717-13.747-34.244-20.331-5.2742-3.0123-5.8134-15.103-11.769-13.911-5.4413 1.0893-7.8466 7.849-11.772 11.772-9.1839 9.1783-21.847 14.365-31.034 23.541" fill="#000"/>
  <path stroke-linejoin="round" d="m461.21 401.28c10.536-10.536 19.425-22.637 29.961-33.173 2.1699-2.1699 7.0534-4.9372 5.3517-7.4908-7.3615-11.047-22.717-13.747-34.244-20.331-5.2742-3.0123-5.8134-15.103-11.769-13.911-5.4413 1.0893-7.8466 7.849-11.772 11.772-9.1839 9.1783-21.847 14.365-31.034 23.541" fill-rule="evenodd" stroke="#000" stroke-linecap="butt" stroke-width="2"/>
  <path fill-rule="evenodd" fill-opacity="0" d="m543.61 319.96c-9.8517 9.8469-18.173 26.751-32.102 26.751-10.784 0-17.39-12.841-26.753-18.192-6.7986-3.8853-23.836-4.767-20.331-11.769 4.3846-8.7584 16.961-9.9366 24.612-16.052 4.3518-3.4789 8.2054-13.793 12.84-10.701 6.1745 4.1197 6.4779 14.372 12.842 18.192 6.3052 3.7837 13.197 6.7772 20.331 8.5617 2.1053 0.52667 8.5928 1.0683 6.4225 1.0683" fill="#000"/>
  <path stroke-linejoin="round" d="m543.61 319.96c-9.8517 9.8469-18.173 26.751-32.102 26.751-10.784 0-17.39-12.841-26.753-18.192-6.7986-3.8853-23.836-4.767-20.331-11.769 4.3846-8.7584 16.961-9.9366 24.612-16.052 4.3518-3.4789 8.2054-13.793 12.84-10.701 6.1745 4.1197 6.4779 14.372 12.842 18.192 6.3052 3.7837 13.197 6.7772 20.331 8.5617 2.1053 0.52667 8.5928 1.0683 6.4225 1.0683" fill-rule="evenodd" stroke="#000" stroke-linecap="butt" stroke-width="4"/>
  <path fill-rule="evenodd" fill-opacity="0" d="m584.27 296.42c9.9274-1.5266 19.917-3.21 29.961-3.21 5.3508 0 12.269 3.7836 16.052 0 9.8397-9.8396-0.89838-27.957 1.0709-41.732 0.70856-4.9562 5.5452-12.74 1.0682-14.982-4.3375-2.1714-7.4302 6.3902-11.769 8.5591-11.131 5.564-22.502 10.721-33.173 17.123-2.7357 1.6413-7.9354 1.1499-8.5616 4.2782-1.854 9.261 1.1279 19.377 5.3517 27.824" fill="#000"/>
  <path stroke-linejoin="round" d="m584.27 296.42c9.9274-1.5266 19.917-3.21 29.961-3.21 5.3508 0 12.269 3.7836 16.052 0 9.8397-9.8396-0.89838-27.957 1.0709-41.732 0.70856-4.9562 5.5452-12.74 1.0682-14.982-4.3375-2.1714-7.4302 6.3902-11.769 8.5591-11.131 5.564-22.502 10.721-33.173 17.123-2.7357 1.6413-7.9354 1.1499-8.5616 4.2782-1.854 9.261 1.1279 19.377 5.3517 27.824" fill-rule="evenodd" stroke="#000" stroke-linecap="butt" stroke-width="3"/>
  <path fill-rule="evenodd" fill-opacity="0" d="m650.61 312.47c7.4863 7.4863 10.772 18.28 17.123 26.751 15.728 20.975 34.129 40.937 43.874 65.276 5.1727 12.919-10.508 34.011 1.0682 41.735 8.3294 5.5575 20.086-0.49423 29.963-2.1417 34.422-5.7417 70.717-34.631 79.186-68.486 1.1613-4.6421-8.0547-6.42-12.84-6.42-23.053 0-45.747-5.837-68.486-9.6299-16.759-2.7955-27.579-20.088-39.593-32.102-12.204-12.204-31.967-16.052-49.226-16.052" fill="#000"/>
  <path stroke-linejoin="round" d="m650.61 312.47c7.4863 7.4863 10.772 18.28 17.123 26.751 15.728 20.975 34.129 40.937 43.874 65.276 5.1727 12.919-10.508 34.011 1.0682 41.735 8.3294 5.5575 20.086-0.49423 29.963-2.1417 34.422-5.7417 70.717-34.631 79.186-68.486 1.1613-4.6421-8.0547-6.42-12.84-6.42-23.053 0-45.747-5.837-68.486-9.6299-16.759-2.7955-27.579-20.088-39.593-32.102-12.204-12.204-31.967-16.052-49.226-16.052" fill-rule="evenodd" stroke="#000" stroke-linecap="butt"/>
  <path fill-rule="evenodd" fill-opacity="0" d="m704.12 483.68c2.3538-7.0671-0.646-19.047 6.42-21.404 24.784-8.268 55.904-2.5357 75.976-19.26 15.707-13.087 28.958-28.983 41.732-44.945 5.85-7.3098 1.9415-20.13 8.5617-26.751 9.0938-9.0938 25.662 2.1391 38.522 2.1391" fill="#000"/>
  <path stroke-linejoin="round" d="m704.12 483.68c2.3538-7.0671-0.646-19.047 6.42-21.404 24.784-8.268 55.904-2.5357 75.976-19.26 15.707-13.087 28.958-28.983 41.732-44.945 5.85-7.3098 1.9415-20.13 8.5617-26.751 9.0938-9.0938 25.662 2.1391 38.522 2.1391" fill-rule="evenodd" stroke="#000" stroke-linecap="butt"/>
  <path fill-rule="evenodd" fill-opacity="0" d="m876.4 359.55c-37.509-10.724-80.417 4.8533-116.64-9.6325-11.265-4.505-23.852-7.2122-33.173-14.979-11.046-9.2047-17.683-24.619-31.031-29.963-14.049-5.6253-32.356 1.9795-44.945-6.42-5.6458-3.7669-1.0682-13.546-1.0682-20.333 0-16.051-3.1418-32.412 0-48.152 2.3408-11.727 22.445-8.7406 34.241-10.703 20.411-3.3963 44.325-9.5787 62.066 1.0709 7.0934 4.2581-1.0456 17.517 3.21 24.612 11.961 19.942 25.219 42.031 46.016 52.436 17.098 8.5544 37.69 6.6579 56.714 8.5617 8.1708 0.81769 16.4 1.0682 24.612 1.0682h7.4908" fill="#000"/>
  <path stroke-linejoin="round" d="m876.4 359.55c-37.509-10.724-80.417 4.8533-116.64-9.6325-11.265-4.505-23.852-7.2122-33.173-14.979-11.046-9.2047-17.683-24.619-31.031-29.963-14.049-5.6253-32.356 1.9795-44.945-6.42-5.6458-3.7669-1.0682-13.546-1.0682-20.333 0-16.051-3.1418-32.412 0-48.152 2.3408-11.727 22.445-8.7406 34.241-10.703 20.411-3.3963 44.325-9.5787 62.066 1.0709 7.0934 4.2581-1.0456 17.517 3.21 24.612 11.961 19.942 25.219 42.031 46.016 52.436 17.098 8.5544 37.69 6.6579 56.714 8.5617 8.1708 0.81769 16.4 1.0682 24.612 1.0682h7.4908" fill-rule="evenodd" stroke="#000" stroke-linecap="butt" stroke-width="2"/>
  <path fill-rule="evenodd" fill-opacity="0" d="m559.66 271.8c-10.546-2.1102-23.503-3.2456-32.105 3.21-6.2833 4.7154-5.1091 16.806-1.0682 23.543 6.0657 10.113 27.944 7.0653 35.312-2.1417 5.85-7.3098-1.9374-20.134-8.5616-26.751" fill="#000"/>
  <path stroke-linejoin="round" d="m559.66 271.8c-10.546-2.1102-23.503-3.2456-32.105 3.21-6.2833 4.7154-5.1091 16.806-1.0682 23.543 6.0657 10.113 27.944 7.0653 35.312-2.1417 5.85-7.3098-1.9374-20.134-8.5616-26.751" fill-rule="evenodd" stroke="#e60000" stroke-linecap="butt" stroke-width="8"/>
  <path fill-rule="evenodd" fill-opacity="0" d="m379.88 408.77c-11.314 5.6606-17.908 18.334-28.892 24.612-8.2461 4.7125-20.538 7.0419-23.541 16.052-3.3845 10.158 1.0683 21.396 1.0683 32.102 0 10.345-4.6172 21.777 0 31.034" fill="#000"/>
  <path stroke-linejoin="round" d="m379.88 408.77c-11.314 5.6606-17.908 18.334-28.892 24.612-8.2461 4.7125-20.538 7.0419-23.541 16.052-3.3845 10.158 1.0683 21.396 1.0683 32.102 0 10.345-4.6172 21.777 0 31.034" fill-rule="evenodd" stroke="#000" stroke-linecap="butt"/>
  <path fill-rule="evenodd" fill-opacity="0" d="m346.71 508.29c-1.8103-16.324-9.4842-34.536-2.1391-49.226 8.9172-17.835 26.031-31.762 43.874-40.661" fill="#000"/>
  <path stroke-linejoin="round" d="m346.71 508.29c-1.8103-16.324-9.4842-34.536-2.1391-49.226 8.9172-17.835 26.031-31.762 43.874-40.661" fill-rule="evenodd" stroke="#000" stroke-linecap="butt"/>
  <path fill-rule="evenodd" fill-opacity="0" d="m1241.3 162.65c-27.581 13.79-52.674 32.223-80.255 46.013-8.2775 4.1387-16.336 8.7059-24.614 12.843-4.8705 2.4338-8.7454 10.283-13.911 8.5617-5.3506-1.7836-3.2548-10.816-5.349-16.052-10.678-26.702 2.1473-59.878-10.701-85.606" fill="#000"/>
  <path stroke-linejoin="round" d="m1241.3 162.65c-27.581 13.79-52.674 32.223-80.255 46.013-8.2775 4.1387-16.336 8.7059-24.614 12.843-4.8705 2.4338-8.7454 10.283-13.911 8.5617-5.3506-1.7836-3.2548-10.816-5.349-16.052-10.678-26.702 2.1473-59.878-10.701-85.606" fill-rule="evenodd" stroke="#000" stroke-linecap="butt"/>
  <path fill-rule="evenodd" fill-opacity="0" d="m1089.4 131.62c0.35718-0.71382 1.2441-2.9209 1.0709-2.1417-3.4883 15.684 2.139 32.087 2.139 48.155 0 15.142 8.0972 29.185 11.772 43.874 1.2869 5.1444 9.1014 11.232 5.3517 14.982-9.4978 9.4978-26.728 3.6315-39.593 7.4908-36.087 10.825-75.671 15.473-107.01 36.383" fill="#000"/>
  <path stroke-linejoin="round" d="m1089.4 131.62c0.35718-0.71382 1.2441-2.9209 1.0709-2.1417-3.4883 15.684 2.139 32.087 2.139 48.155 0 15.142 8.0972 29.185 11.772 43.874 1.2869 5.1444 9.1014 11.232 5.3517 14.982-9.4978 9.4978-26.728 3.6315-39.593 7.4908-36.087 10.825-75.671 15.473-107.01 36.383" fill-rule="evenodd" stroke="#000" stroke-linecap="butt"/>
  <path fill-rule="evenodd" fill-opacity="0" d="m963.08 298.56c24.869-15.545 55.376-19.398 83.467-27.824 18.069-5.4203 35.899-12.318 54.575-14.982 5.1415-0.73322 10.055-5.9218 14.982-4.2782 12.719 4.2431 13.266 23.32 19.262 35.312 14.752 29.503 30.964 59.489 36.383 92.026 2.1549 12.937 12.827 23.446 14.979 36.383 1.3462 8.0935-3.2317 17.073 0 24.614 3.6121 8.429 11.924 19.414 6.4226 26.751-21.911 29.221-70.853 28.7-107.01 23.543-14.869-2.1203-31.511 9.9299-44.942 3.21-7.0615-3.533-4.9921-14.982-7.4908-22.472-4.4655-13.386-7.7163-27.496-14.982-39.593-9.0939-15.142-21.238-29.434-36.383-38.522-9.5796-5.7487-22.112-4.6313-32.102-9.6325" fill="#000"/>
  <path stroke-linejoin="round" d="m963.08 298.56c24.869-15.545 55.376-19.398 83.467-27.824 18.069-5.4203 35.899-12.318 54.575-14.982 5.1415-0.73322 10.055-5.9218 14.982-4.2782 12.719 4.2431 13.266 23.32 19.262 35.312 14.752 29.503 30.964 59.489 36.383 92.026 2.1549 12.937 12.827 23.446 14.979 36.383 1.3462 8.0935-3.2317 17.073 0 24.614 3.6121 8.429 11.924 19.414 6.4226 26.751-21.911 29.221-70.853 28.7-107.01 23.543-14.869-2.1203-31.511 9.9299-44.942 3.21-7.0615-3.533-4.9921-14.982-7.4908-22.472-4.4655-13.386-7.7163-27.496-14.982-39.593-9.0939-15.142-21.238-29.434-36.383-38.522-9.5796-5.7487-22.112-4.6313-32.102-9.6325" fill-rule="evenodd" stroke="#000" stroke-linecap="butt"/>
  <path fill-rule="evenodd" fill-opacity="0" d="m1256.3 170.14c-27.77 15.149-54.103 32.937-82.396 47.084-15.127 7.5636-39.593 7.4999-44.945 23.543-1.1117 3.3323 2.7104 6.4877 4.2809 9.6299 9.9958 20 25.05 37.043 37.454 55.646 12.766 19.146 13.408 44.124 22.472 65.276 11.248 26.249 6.9806 56.832 13.911 84.535 2.377 9.5018 17.686 9.1266 24.612 16.052 6.9761 6.9761 8.8141 19.322 6.4199 28.892-0.77417 3.0946-4.2809 11.749-4.2809 8.5591" fill="#000"/>
  <path stroke-linejoin="round" d="m1256.3 170.14c-27.77 15.149-54.103 32.937-82.396 47.084-15.127 7.5636-39.593 7.4999-44.945 23.543-1.1117 3.3323 2.7104 6.4877 4.2809 9.6299 9.9958 20 25.05 37.043 37.454 55.646 12.766 19.146 13.408 44.124 22.472 65.276 11.248 26.249 6.9806 56.832 13.911 84.535 2.377 9.5018 17.686 9.1266 24.612 16.052 6.9761 6.9761 8.8141 19.322 6.4199 28.892-0.77417 3.0946-4.2809 11.749-4.2809 8.5591" fill-rule="evenodd" stroke="#000" stroke-linecap="butt"/>
  <path fill-rule="evenodd" fill-opacity="0" d="m1217.8 490.1c1.483-7.4113-16.058-12.836-21.401-7.4908-6.0575 6.0599-3.6826 18.554 1.0708 25.682 3.6967 5.5438 15.096-0.14938 19.26-5.3517 3.8149-4.767 3.3206-15.458-2.1392-18.192" fill="#000"/>
  <path stroke-linejoin="round" d="m1217.8 490.1c1.483-7.4113-16.058-12.836-21.401-7.4908-6.0575 6.0599-3.6826 18.554 1.0708 25.682 3.6967 5.5438 15.096-0.14938 19.26-5.3517 3.8149-4.767 3.3206-15.458-2.1392-18.192" fill-rule="evenodd" stroke="#e60000" stroke-linecap="butt" stroke-width="8"/>
  <path fill-rule="evenodd" fill-opacity="0" d="m1186.7 515.78c0-22.542-45.099-8.5419-67.415-5.3517-23.661 3.3825-50.323-9.6286-71.696 1.0709" fill="#000"/>
  <path stroke-linejoin="round" d="m1186.7 515.78c0-22.542-45.099-8.5419-67.415-5.3517-23.661 3.3825-50.323-9.6286-71.696 1.0709" fill-rule="evenodd" stroke="#000" stroke-linecap="butt"/>
  <path fill-rule="evenodd" fill-opacity="0" d="m949.17 403.42c-5.1442-5.1442 14.895 1.0247 21.402 4.2782 18.504 9.2522 35.54 25.573 42.803 44.945 4.6179 12.317 5.9808 25.624 8.5617 38.522 0.98981 4.9465 2.1391 20.026 2.1391 14.982" fill="#000"/>
  <path stroke-linejoin="round" d="m949.17 403.42c-5.1442-5.1442 14.895 1.0247 21.402 4.2782 18.504 9.2522 35.54 25.573 42.803 44.945 4.6179 12.317 5.9808 25.624 8.5617 38.522 0.98981 4.9465 2.1391 20.026 2.1391 14.982" fill-rule="evenodd" stroke="#000" stroke-linecap="butt"/>
  <path fill-rule="evenodd" fill-opacity="0" d="m1249.9 33.173c-4.3911 17.57-12.698 37.906-28.892 46.013" fill="#000"/>
  <path stroke-linejoin="round" d="m1249.9 33.173c-4.3911 17.57-12.698 37.906-28.892 46.013" fill-rule="evenodd" stroke="#000" stroke-linecap="butt"/>
  <path fill-rule="evenodd" fill-opacity="0" d="m1264.8 35.312c-6.3284 16.879-16.558 32.027-24.612 48.155" fill="#000"/>
  <path stroke-linejoin="round" d="m1264.8 35.312c-6.3284 16.879-16.558 32.027-24.612 48.155" fill-rule="evenodd" stroke="#000" stroke-linecap="butt"/>
  <path fill-rule="evenodd" fill-opacity="0" d="m1070.1 24.612c13.929 2.7885 26.751 18.968 26.751 33.173" fill="#000"/>
  <path stroke-linejoin="round" d="m1070.1 24.612c13.929 2.7885 26.751 18.968 26.751 33.173" fill-rule="evenodd" stroke="#000" stroke-linecap="butt"/>
  <path fill-rule="evenodd" fill-opacity="0" d="m1094.7 25.682c12.262 4.0856 18.192 21.317 18.192 34.241" fill="#000"/>
  <path stroke-linejoin="round" d="m1094.7 25.682c12.262 4.0856 18.192 21.317 18.192 34.241" fill-rule="evenodd" stroke="#000" stroke-linecap="butt"/>
  <path fill-rule="evenodd" fill-opacity="0" d="m808.99 32.102c5.9494 10.411 13.911 21.183 13.911 33.173 0 11.991-21.056 11.542-31.034 18.192-15.48 10.317-31.604 19.646-47.084 29.963-4.868 3.2445-8.0607 10.701-13.911 10.701-16.769 0-15.509-29.955-20.331-46.016-5.0005-16.656-22.472-29.693-22.472-47.084" fill="#000"/>
  <path stroke-linejoin="round" d="m808.99 32.102c5.9494 10.411 13.911 21.183 13.911 33.173 0 11.991-21.056 11.542-31.034 18.192-15.48 10.317-31.604 19.646-47.084 29.963-4.868 3.2445-8.0607 10.701-13.911 10.701-16.769 0-15.509-29.955-20.331-46.016-5.0005-16.656-22.472-29.693-22.472-47.084" fill-rule="evenodd" stroke="#000" stroke-linecap="butt"/>
  <path fill-rule="evenodd" fill-opacity="0" d="m829.32 29.963c-5.7631 3.8405 1.1846 14.136 4.2808 20.331 10.845 21.699 48.495 9.3654 69.556 21.402 8.6049 4.9175 18.674 7.9735 25.682 14.982 2.14 2.14 9.1262 7.7747 6.42 6.42" fill="#000"/>
  <path stroke-linejoin="round" d="m829.32 29.963c-5.7631 3.8405 1.1846 14.136 4.2808 20.331 10.845 21.699 48.495 9.3654 69.556 21.402 8.6049 4.9175 18.674 7.9735 25.682 14.982 2.14 2.14 9.1262 7.7747 6.42 6.42" fill-rule="evenodd" stroke="#000" stroke-linecap="butt"/>
  <path fill-rule="evenodd" fill-opacity="0" d="m972.71 71.696c-19.948-13.296-35.484-32.272-52.436-49.223" fill="#000"/>
  <path stroke-linejoin="round" d="m972.71 71.696c-19.948-13.296-35.484-32.272-52.436-49.223" fill-rule="evenodd" stroke="#000" stroke-linecap="butt"/>
  <path fill-rule="evenodd" fill-opacity="0" d="m938.47 21.402c18.667 11.668 30.599 32.968 50.294 42.803" fill="#000"/>
  <path stroke-linejoin="round" d="m938.47 21.402c18.667 11.668 30.599 32.968 50.294 42.803" fill-rule="evenodd" stroke="#000" stroke-linecap="butt"/>
  <path fill-rule="evenodd" fill-opacity="0" d="m927.77 105.94c-20.911-17.432-48.963-33.342-75.976-29.963-5.3564 0.66996-12.235-1.6779-16.052 2.1391-5.3506 5.3506 4.452 15.008 3.21 22.472-4.3325 26.037 7.2502 53.806 0 79.186-4.9899 17.468-19.983 34.605-37.451 39.593-11.109 3.1724-27.313-3.8916-34.244 5.3517-3.1158 4.1553 3.2618 9.8888 4.2808 14.982 1.7286 8.6386 9.3776 14.918 13.911 22.472 3.1201 5.1992 3.1376 13.339 8.5616 16.05 28.169 14.076 61.607 16.052 93.097 16.052" fill="#000"/>
  <path stroke-linejoin="round" d="m927.77 105.94c-20.911-17.432-48.963-33.342-75.976-29.963-5.3564 0.66996-12.235-1.6779-16.052 2.1391-5.3506 5.3506 4.452 15.008 3.21 22.472-4.3325 26.037 7.2502 53.806 0 79.186-4.9899 17.468-19.983 34.605-37.451 39.593-11.109 3.1724-27.313-3.8916-34.244 5.3517-3.1158 4.1553 3.2618 9.8888 4.2808 14.982 1.7286 8.6386 9.3776 14.918 13.911 22.472 3.1201 5.1992 3.1376 13.339 8.5616 16.05 28.169 14.076 61.607 16.052 93.097 16.052" fill-rule="evenodd" stroke="#000" stroke-linecap="butt"/>
  <path fill-rule="evenodd" fill-opacity="0" d="m821.83 90.959c0.9707-1.9403 1.0709-8.5895 1.0709-6.4199 0 8.5904 0.9234 17.178 2.1391 25.682 1.1024 7.7115 7.2835 14.728 6.4226 22.47-2.4598 22.12-8.8768 46.328-24.614 62.066-8.1496 8.1496-20.922 10.046-32.102 12.843-3.8066 0.95222-9.7526 3.3645-11.772 0-9.0012-15-11.301-33.147-18.192-49.226-2.7672-6.4574-12.643-13.544-8.5591-19.26 15.413-21.573 45.64-27.313 66.344-43.874 5.981-4.7842 16.905-3.852 20.333-10.701" fill="#000"/>
  <path stroke-linejoin="round" d="m821.83 90.959c0.9707-1.9403 1.0709-8.5895 1.0709-6.4199 0 8.5904 0.9234 17.178 2.1391 25.682 1.1024 7.7115 7.2835 14.728 6.4226 22.47-2.4598 22.12-8.8768 46.328-24.614 62.066-8.1496 8.1496-20.922 10.046-32.102 12.843-3.8066 0.95222-9.7526 3.3645-11.772 0-9.0012-15-11.301-33.147-18.192-49.226-2.7672-6.4574-12.643-13.544-8.5591-19.26 15.413-21.573 45.64-27.313 66.344-43.874 5.981-4.7842 16.905-3.852 20.333-10.701" fill-rule="evenodd" stroke="#000" stroke-linecap="butt" stroke-width="2"/>
  <path fill-rule="evenodd" fill-opacity="0" d="m674.16 29.962c16.606 23.255 29.704 50.096 35.312 78.115 1.5732 7.8602 14.232 16.806 8.5617 22.472-19.595 19.583-53.902 13.21-81.328 17.121-12.027 1.7151-26.669 5.1558-36.383-2.1391-21.695-16.291-21.249-50.02-34.241-73.837-5.5954-10.258-8.8434-22.954-18.192-29.963-3.5753-2.6809-10.417-13.768-6.42-11.769" fill="#000"/>
  <path stroke-linejoin="round" d="m674.16 29.962c16.606 23.255 29.704 50.096 35.312 78.115 1.5732 7.8602 14.232 16.806 8.5617 22.472-19.595 19.583-53.902 13.21-81.328 17.121-12.027 1.7151-26.669 5.1558-36.383-2.1391-21.695-16.291-21.249-50.02-34.241-73.837-5.5954-10.258-8.8434-22.954-18.192-29.963-3.5753-2.6809-10.417-13.768-6.42-11.769" fill-rule="evenodd" stroke="#000" stroke-linecap="butt"/>
  <path fill-rule="evenodd" fill-opacity="0" d="m721.24 145.53c3.7117 22.252 31.49 44.027 21.402 64.205-0.92993 1.8599-1.4045-4.3173-3.21-5.3491-14.559-8.32-33.754-3.8287-50.294-1.0709-15.806 2.6354-29.992 13.911-46.016 13.911-7.8228 0-13.812-7.733-21.402-9.6299-9.9089-2.4767-20.398-2.8334-29.961-6.4226-4.7812-1.7946-13.073-1.3822-13.911-6.42-1.8151-10.913 2.7675-24.6 11.769-31.031 15.963-11.405 39.335 1.9531 58.856 0 25.31-2.5322 51.086-7.8871 73.837-19.262" fill="#000"/>
  <path stroke-linejoin="round" d="m721.24 145.53c3.7117 22.252 31.49 44.027 21.402 64.205-0.92993 1.8599-1.4045-4.3173-3.21-5.3491-14.559-8.32-33.754-3.8287-50.294-1.0709-15.806 2.6354-29.992 13.911-46.016 13.911-7.8228 0-13.812-7.733-21.402-9.6299-9.9089-2.4767-20.398-2.8334-29.961-6.4226-4.7812-1.7946-13.073-1.3822-13.911-6.42-1.8151-10.913 2.7675-24.6 11.769-31.031 15.963-11.405 39.335 1.9531 58.856 0 25.31-2.5322 51.086-7.8871 73.837-19.262" fill-rule="evenodd" stroke="#000" stroke-linecap="butt" stroke-width="2"/>
  <path fill-rule="evenodd" fill-opacity="0" d="m620.65 225.79c-12.621-6.3107-26.827-9.0016-40.664-11.772-4.3825-0.87737-8.4083-9.3635-11.772-6.42-6.0019 5.2528-7.5571 14.071-10.701 21.402-3.2059 7.4751-8.6313 14.178-14.982 19.26-3.1507 2.5215-11.917 6.3239-8.5591 8.5617 4.4914 2.993 10.757-1.0826 16.05-2.1391 6.1983-1.2372 12.933 8.8556 18.192 5.3491 17.287-11.527 31.655-28.737 51.365-35.312" fill="#000"/>
  <path stroke-linejoin="round" d="m620.65 225.79c-12.621-6.3107-26.827-9.0016-40.664-11.772-4.3825-0.87737-8.4083-9.3635-11.772-6.42-6.0019 5.2528-7.5571 14.071-10.701 21.402-3.2059 7.4751-8.6313 14.178-14.982 19.26-3.1507 2.5215-11.917 6.3239-8.5591 8.5617 4.4914 2.993 10.757-1.0826 16.05-2.1391 6.1983-1.2372 12.933 8.8556 18.192 5.3491 17.287-11.527 31.655-28.737 51.365-35.312" fill-rule="evenodd" stroke="#000" stroke-linecap="butt" stroke-width="3"/>
  <path fill-rule="evenodd" fill-opacity="0" d="m551.1 203.32c-8.2904 13.818-14.649 28.715-22.472 42.803-3.1788 5.7243-3.0822 17.121-9.6299 17.121-15.988 0-25.08-19.838-37.454-29.961-7.0391-5.7584-12.368-13.348-18.192-20.333-3.1064-3.7265-11.772-3.7076-11.772-8.5591 0-7.2752 14.136-3.8992 21.402-4.2808 24.945-1.3105 52.566 13.31 74.908 2.1391" fill="#000"/>
  <path stroke-linejoin="round" d="m551.1 203.32c-8.2904 13.818-14.649 28.715-22.472 42.803-3.1788 5.7243-3.0822 17.121-9.6299 17.121-15.988 0-25.08-19.838-37.454-29.961-7.0391-5.7584-12.368-13.348-18.192-20.333-3.1064-3.7265-11.772-3.7076-11.772-8.5591 0-7.2752 14.136-3.8992 21.402-4.2808 24.945-1.3105 52.566 13.31 74.908 2.1391" fill-rule="evenodd" stroke="#000" stroke-linecap="butt" stroke-width="3"/>
  <path fill-rule="evenodd" fill-opacity="0" d="m527.55 28.891c0-13.952 16.234 22.833 22.472 35.312 8.5739 17.152 12.678 36.209 18.192 54.575 3.6378 12.117 16.387 22.906 13.911 35.312-1.1849 5.9363-9.2069 8.0005-12.84 12.843-5.3519 7.133-7.7025 18.271-16.052 21.402-17.38 6.5162-37.082 2.1391-55.643 2.1391-18.936 0-40.959 7.2907-56.717-3.21-7.9203-5.278 3.8091-18.67 6.4225-27.822 3.4448-12.063 4.0195-25.162 9.6299-36.383 6.2295-12.459 19.842-20.008 26.753-32.102 10.591-18.533 20.228-44.035 10.701-63.136" fill="#000"/>
  <path stroke-linejoin="round" d="m527.55 28.891c0-13.952 16.234 22.833 22.472 35.312 8.5739 17.152 12.678 36.209 18.192 54.575 3.6378 12.117 16.387 22.906 13.911 35.312-1.1849 5.9363-9.2069 8.0005-12.84 12.843-5.3519 7.133-7.7025 18.271-16.052 21.402-17.38 6.5162-37.082 2.1391-55.643 2.1391-18.936 0-40.959 7.2907-56.717-3.21-7.9203-5.278 3.8091-18.67 6.4225-27.822 3.4448-12.063 4.0195-25.162 9.6299-36.383 6.2295-12.459 19.842-20.008 26.753-32.102 10.591-18.533 20.228-44.035 10.701-63.136" fill-rule="evenodd" stroke="#000" stroke-linecap="butt"/>
  <path fill-rule="evenodd" fill-opacity="0" d="m476.19 29.963c18.336 27.515-19.457 63.523-34.244 93.097-7.4293 14.859-8.2783 32.181-12.84 48.155-1.752 6.1355-2.2452 16.218-8.5617 17.121-24.958 3.568-54.498-11.126-68.486-32.102-10.956-16.43-10.535-38.5-20.333-55.646-11.732-20.529-32.119-36.423-39.593-58.856-1.0209-3.0641-3.9569-8.1856-1.0682-9.6299" fill="#000"/>
  <path stroke-linejoin="round" d="m476.19 29.963c18.336 27.515-19.457 63.523-34.244 93.097-7.4293 14.859-8.2783 32.181-12.84 48.155-1.752 6.1355-2.2452 16.218-8.5617 17.121-24.958 3.568-54.498-11.126-68.486-32.102-10.956-16.43-10.535-38.5-20.333-55.646-11.732-20.529-32.119-36.423-39.593-58.856-1.0209-3.0641-3.9569-8.1856-1.0682-9.6299" fill-rule="evenodd" stroke="#000" stroke-linecap="butt"/>
  <path fill-rule="evenodd" fill-opacity="0" d="m271.8 35.312c10.814 28.842 30.099 53.777 43.874 81.328 4.5706 9.1411 22.208 19.524 14.982 26.751-6.386 6.386-17.722 4.2808-26.753 4.2808-16.768 0-33.583 2.4642-50.294 1.0709-20.518-1.7109-39.615-11.595-59.924-14.982-13.69-2.2827-28.784-7.3531-37.454-18.192-12.05-15.065-4.7755-40.224 3.21-57.785 3.3702-7.4115 3.8732-19.426 11.772-21.402" fill="#000"/>
  <path stroke-linejoin="round" d="m271.8 35.312c10.814 28.842 30.099 53.777 43.874 81.328 4.5706 9.1411 22.208 19.524 14.982 26.751-6.386 6.386-17.722 4.2808-26.753 4.2808-16.768 0-33.583 2.4642-50.294 1.0709-20.518-1.7109-39.615-11.595-59.924-14.982-13.69-2.2827-28.784-7.3531-37.454-18.192-12.05-15.065-4.7755-40.224 3.21-57.785 3.3702-7.4115 3.8732-19.426 11.772-21.402" fill-rule="evenodd" stroke="#000" stroke-linecap="butt"/>
  <path fill-rule="evenodd" fill-opacity="0" d="m465.49 237.56c11.078 11.083 22.779 21.628 35.312 31.034 1.2759 0.95749 5.3019 0.91357 4.2809 2.1391-12.417 14.902-33.915 19.124-49.226 31.034-16.186 12.59-26.976 35.57-47.084 39.593-8.7649 1.7538-16.268-7.6463-23.541-12.843-10.867-7.7639-23.729-13.026-33.173-22.47-4.1058-4.1058 7.5338-9.4135 12.84-11.772 14.845-6.5974 31.486-8.7875 46.016-16.053 15.25-7.6249 26.042-22.258 40.661-31.031 4.6693-2.802 9.0428-10.997 13.913-8.5617" fill="#000"/>
  <path stroke-linejoin="round" d="m465.49 237.56c11.078 11.083 22.779 21.628 35.312 31.034 1.2759 0.95749 5.3019 0.91357 4.2809 2.1391-12.417 14.902-33.915 19.124-49.226 31.034-16.186 12.59-26.976 35.57-47.084 39.593-8.7649 1.7538-16.268-7.6463-23.541-12.843-10.867-7.7639-23.729-13.026-33.173-22.47-4.1058-4.1058 7.5338-9.4135 12.84-11.772 14.845-6.5974 31.486-8.7875 46.016-16.053 15.25-7.6249 26.042-22.258 40.661-31.031 4.6693-2.802 9.0428-10.997 13.913-8.5617" fill-rule="evenodd" stroke="#000" stroke-linecap="butt" stroke-width="3"/>
  <path fill-rule="evenodd" fill-opacity="0" d="m453.72 223.65c-20.773 20.782-47.554 35.016-73.837 48.155-14.286 7.1418-27.902 19.262-43.874 19.262-31.698 0-59.138-23.337-89.887-31.034-13.513-3.3823-26.875-7.6586-40.664-9.6299-5.2961-0.75713-12.267 3.783-16.05 0-6.6635-6.6635 10.408-15.863 13.911-24.612 6.6507-16.611 4.2808-35.614 4.2808-53.507 0-3.2882-0.59685-7.806 2.1391-9.6299 5.6473-3.7648 13.574 1.6857 20.333 1.0709 11.389-1.0361 22.862-3.2777 34.241-2.1417 20.944 2.0909 43.593-8.8838 63.136-1.0682 19.719 7.8856 36.123 22.667 55.643 31.031 10.368 4.4428 22.429 4.8989 32.102 10.701 11.135 6.6789 44.019 23.543 31.034 23.543" fill="#000"/>
  <path stroke-linejoin="round" d="m453.72 223.65c-20.773 20.782-47.554 35.016-73.837 48.155-14.286 7.1418-27.902 19.262-43.874 19.262-31.698 0-59.138-23.337-89.887-31.034-13.513-3.3823-26.875-7.6586-40.664-9.6299-5.2961-0.75713-12.267 3.783-16.05 0-6.6635-6.6635 10.408-15.863 13.911-24.612 6.6507-16.611 4.2808-35.614 4.2808-53.507 0-3.2882-0.59685-7.806 2.1391-9.6299 5.6473-3.7648 13.574 1.6857 20.333 1.0709 11.389-1.0361 22.862-3.2777 34.241-2.1417 20.944 2.0909 43.593-8.8838 63.136-1.0682 19.719 7.8856 36.123 22.667 55.643 31.031 10.368 4.4428 22.429 4.8989 32.102 10.701 11.135 6.6789 44.019 23.543 31.034 23.543" fill-rule="evenodd" stroke="#000" stroke-linecap="butt"/>
  <path fill-rule="evenodd" fill-opacity="0" d="m189.41 149.81c-6.0539-4.5395-24.309-4.1307-22.472 3.21 1.278 5.109 9.0216 9.4484 13.911 7.4908 4.0015-1.6022 7.2775-7.9154 5.3517-11.772" fill="#000"/>
  <path stroke-linejoin="round" d="m189.41 149.81c-6.0539-4.5395-24.309-4.1307-22.472 3.21 1.278 5.109 9.0216 9.4484 13.911 7.4908 4.0015-1.6022 7.2775-7.9154 5.3517-11.772" fill-rule="evenodd" stroke="#e60000" stroke-linecap="butt" stroke-width="8"/>
  <path fill-rule="evenodd" fill-opacity="0" d="m150.88 37.454c-16.338 16.338-18.007 46.566-10.701 68.486 3.5039 10.512 16.017 16.957 18.192 27.822 0.94199 4.7053-8.1128 6.1483-9.6299 10.701-1.5948 4.7858 1.8002 11.831-2.1391 14.982-10.322 8.2565-27.056 2.0397-39.596-2.1391-24.885-8.2928-49.308-18.221-72.764-29.963" fill="#000"/>
  <path stroke-linejoin="round" d="m150.88 37.454c-16.338 16.338-18.007 46.566-10.701 68.486 3.5039 10.512 16.017 16.957 18.192 27.822 0.94199 4.7053-8.1128 6.1483-9.6299 10.701-1.5948 4.7858 1.8002 11.831-2.1391 14.982-10.322 8.2565-27.056 2.0397-39.596-2.1391-24.885-8.2928-49.308-18.221-72.764-29.963" fill-rule="evenodd" stroke="#000" stroke-linecap="butt"/>
  <path fill-rule="evenodd" fill-opacity="0" d="m36.383 149.81c-1.5797-6.3148 13.087 1.1523 19.262 3.21 17.665 5.8859 35.137 12.994 53.504 16.05 20.807 3.4621 42.253 1.2958 63.134 4.2808 6.7927 0.97105 13.676-4.8713 20.333-3.21 4.1818 1.0435 4.505 7.5451 5.3491 11.772 2.6599 13.319-9.9747 25.304-16.05 37.451-5.9742 11.945-9.1163 33.173-22.472 33.173-45.929 0-95.901-5.5788-136.97 14.982" fill="#000"/>
  <path stroke-linejoin="round" d="m36.383 149.81c-1.5797-6.3148 13.087 1.1523 19.262 3.21 17.665 5.8859 35.137 12.994 53.504 16.05 20.807 3.4621 42.253 1.2958 63.134 4.2808 6.7927 0.97105 13.676-4.8713 20.333-3.21 4.1818 1.0435 4.505 7.5451 5.3491 11.772 2.6599 13.319-9.9747 25.304-16.05 37.451-5.9742 11.945-9.1163 33.173-22.472 33.173-45.929 0-95.901-5.5788-136.97 14.982" fill-rule="evenodd" stroke="#000" stroke-linecap="butt"/>
  <path fill-rule="evenodd" fill-opacity="0" d="m166.93 323.17c-5.0352 13.426 2.6965 28.552 4.2808 42.803 2.877 25.879 0 52.077 0 78.115 0 13.573-2.1417 27.091-2.1417 40.664 0 6.7872 1.0709 27.12 1.0709 20.333" fill="#000"/>
  <path stroke-linejoin="round" d="m166.93 323.17c-5.0352 13.426 2.6965 28.552 4.2808 42.803 2.877 25.879 0 52.077 0 78.115 0 13.573-2.1417 27.091-2.1417 40.664 0 6.7872 1.0709 27.12 1.0709 20.333" fill-rule="evenodd" stroke="#000" stroke-linecap="butt"/>
  <path fill-rule="evenodd" fill-opacity="0" d="m150.88 327.45c-7.1274-4.7555-1.009 17.37 1.0709 25.682 4.6183 18.456 6.42 37.689 6.42 56.714 0 7.4993 5.2296 16.232 1.0709 22.472-3.3627 5.0461-12.245-1.1887-18.192 0-24.484 4.8944-49.937 0-74.906 0-9.7945 0-38.553 3.7383-28.892 5.3491" fill="#000"/>
  <path stroke-linejoin="round" d="m150.88 327.45c-7.1274-4.7555-1.009 17.37 1.0709 25.682 4.6183 18.456 6.42 37.689 6.42 56.714 0 7.4993 5.2296 16.232 1.0709 22.472-3.3627 5.0461-12.245-1.1887-18.192 0-24.484 4.8944-49.937 0-74.906 0-9.7945 0-38.553 3.7383-28.892 5.3491" fill-rule="evenodd" stroke="#000" stroke-linecap="butt"/>
  <path fill-rule="evenodd" fill-opacity="0" d="m31.031 455.86c21.568-8.6281 46.442-1.9734 69.556-4.2808 17.482-1.7452 38.379-15.889 52.436-5.3491 8.354 6.2643 4.2808 20.59 4.2808 31.031 0 5.0066 3.3094 10.505 1.0682 14.982-1.7634 3.5225-8.491-1.1136-11.769 1.0709-3.6232 2.4145-5.5474 6.8045-7.4908 10.701" fill="#000"/>
  <path stroke-linejoin="round" d="m31.031 455.86c21.568-8.6281 46.442-1.9734 69.556-4.2808 17.482-1.7452 38.379-15.889 52.436-5.3491 8.354 6.2643 4.2808 20.59 4.2808 31.031 0 5.0066 3.3094 10.505 1.0682 14.982-1.7634 3.5225-8.491-1.1136-11.769 1.0709-3.6232 2.4145-5.5474 6.8045-7.4908 10.701" fill-rule="evenodd" stroke="#000" stroke-linecap="butt"/>
  <path fill-rule="evenodd" fill-opacity="0" d="m360.62 425.89c-6.899-11.497-21.905-19.26-35.312-19.26-16.654 0-35.365 17.795-49.223 8.5591-7.5677-5.0437-15.655-10.393-20.333-18.192-5.1118-8.5204-3.0102-21.53-10.701-27.822-18.903-15.464-48.344-8.5617-72.766-8.5617" fill="#000"/>
  <path stroke-linejoin="round" d="m360.62 425.89c-6.899-11.497-21.905-19.26-35.312-19.26-16.654 0-35.365 17.795-49.223 8.5591-7.5677-5.0437-15.655-10.393-20.333-18.192-5.1118-8.5204-3.0102-21.53-10.701-27.822-18.903-15.464-48.344-8.5617-72.766-8.5617" fill-rule="evenodd" stroke="#000" stroke-linecap="butt"/>
  <path fill-rule="evenodd" fill-opacity="0" d="m172.28 376.67c11.873-7.9137 28.815-2.8009 42.806 0 5.6394 1.129 12.522-1.3144 17.121 2.1391 7.311 5.49 5.0944 17.744 9.6299 25.682 6.3012 11.029 17.914 19.524 29.963 23.543 19.14 6.3854 41.192-16.062 59.924-8.5617 6.16 2.4664 22.347 9.6718 16.053 11.772" fill="#000"/>
  <path stroke-linejoin="round" d="m172.28 376.67c11.873-7.9137 28.815-2.8009 42.806 0 5.6394 1.129 12.522-1.3144 17.121 2.1391 7.311 5.49 5.0944 17.744 9.6299 25.682 6.3012 11.029 17.914 19.524 29.963 23.543 19.14 6.3854 41.192-16.062 59.924-8.5617 6.16 2.4664 22.347 9.6718 16.053 11.772" fill-rule="evenodd" stroke="#000" stroke-linecap="butt"/>
  <path fill-rule="evenodd" fill-opacity="0" d="m19.802 27.226c4.03 43.671 14.219 87.281 11.606 131.06-1.9514 32.683-9.4941 65.032-9.4941 97.771 0 34.191 9.7834 67.789 11.603 101.93 1.4213 26.669 2.8827 53.841-2.1089 80.089-4.3085 22.656-15.84 46.784-8.441 68.65 0.32096 0.94855 15.749-3.1201 15.826-3.1201 15.86 0 31.615 3.1201 47.476 3.1201 37.982 0 75.989-0.45312 113.94 1.0409 132.47 5.215 265.3 5.0291 397.73-1.0409 38.316-1.7562 76.654 5.2418 115 4.161 102.29-2.8835 205.07-9.9079 307.01-1.0409 69.033 6.0047 138.85 11.674 207.84 5.1993 19.632-1.8425 39.556-0.36853 59.079-3.1201 6.6241-0.93362 15.313 5.7039 20.047 1.0409 8.213-8.0906 1.0558-22.877 1.0558-34.324 0-31.327-6.9285-62.321-8.4409-93.613-1.3163-27.234 6.0042-54.236 10.55-81.13 5.9542-35.226 2.947-71.638-1.0558-107.13-1.369-12.139 4.2205-24.191 4.2205-36.405 0-26.588-13.067-51.689-16.879-78.01-2.3208-16.025 6.1147-31.82 8.4384-47.845 0.53589-3.6963-0.43066-10.401-4.2179-10.401-18.103 0-35.71 7.8221-53.805 7.2811-76.459-2.286-152.48-13.089-228.94-15.603-66.171-2.176-132.17 8.3003-198.34 10.401-128.64 4.0842-257.5-3.3356-386.13 1.0409-82.98 2.8232-166.04 3.3847-248.98 7.2811-34.075 1.6008-68.485 3.1332-102.33-1.0409-20.314-2.505-42.875 3.8183-61.19-5.1993" fill="#000"/>
  <path stroke-linejoin="round" d="m19.802 27.226c4.03 43.671 14.219 87.281 11.606 131.06-1.9514 32.683-9.4941 65.032-9.4941 97.771 0 34.191 9.7834 67.789 11.603 101.93 1.4213 26.669 2.8827 53.841-2.1089 80.089-4.3085 22.656-15.84 46.784-8.441 68.65 0.32096 0.94855 15.749-3.1201 15.826-3.1201 15.86 0 31.615 3.1201 47.476 3.1201 37.982 0 75.989-0.45312 113.94 1.0409 132.47 5.215 265.3 5.0291 397.73-1.0409 38.316-1.7562 76.654 5.2418 115 4.161 102.29-2.8835 205.07-9.9079 307.01-1.0409 69.033 6.0047 138.85 11.674 207.84 5.1993 19.632-1.8425 39.556-0.36853 59.079-3.1201 6.6241-0.93362 15.313 5.7039 20.047 1.0409 8.213-8.0906 1.0558-22.877 1.0558-34.324 0-31.327-6.9285-62.321-8.4409-93.613-1.3163-27.234 6.0042-54.236 10.55-81.13 5.9542-35.226 2.947-71.638-1.0558-107.13-1.369-12.139 4.2205-24.191 4.2205-36.405 0-26.588-13.067-51.689-16.879-78.01-2.3208-16.025 6.1147-31.82 8.4384-47.845 0.53589-3.6963-0.43066-10.401-4.2179-10.401-18.103 0-35.71 7.8221-53.805 7.2811-76.459-2.286-152.48-13.089-228.94-15.603-66.171-2.176-132.17 8.3003-198.34 10.401-128.64 4.0842-257.5-3.3356-386.13 1.0409-82.98 2.8232-166.04 3.3847-248.98 7.2811-34.075 1.6008-68.485 3.1332-102.33-1.0409-20.314-2.505-42.875 3.8183-61.19-5.1993" fill-rule="evenodd" stroke="#888" stroke-linecap="butt" stroke-width="4"/>
 </g>
</svg>