<svg xmlns="http://www.w3.org/2000/svg" stroke-linecap="square" version="1.1" stroke-miterlimit="10" xmlns:xlink="http://www.w3.org/1999/xlink" viewBox="0.0 0.0 1333.3333333333333 266.6666666666667" fill="none">
 <clipPath id="p.0">
  <path d="m0 0h1333.3v266.67h-1333.3v-266.67z"/>
 </clipPath>
 <g clip-path="url(#p.0)">
  <path fill-opacity="0" d="m0 0h1333.3v266.67h-1333.3z" fill="#000"/>
  <path fill-rule="evenodd" fill-opacity="0" d="m501.69 34.208c4.1665-3.0551-8.1881 6.2997-12.142 9.6141-10.332 8.661-21.058 16.933-32.381 24.315-17.5 11.411-31.256 27.549-47.415 40.716-7.0238 5.7234-15.609 9.4492-22.55 15.268-6.9519 5.8284-12.625 13.528-20.816 17.53" fill="#000"/>
  <path stroke-linejoin="round" d="m501.69 34.208c4.1665-3.0551-8.1881 6.2997-12.142 9.6141-10.332 8.661-21.058 16.933-32.381 24.315-17.5 11.411-31.256 27.549-47.415 40.716-7.0238 5.7234-15.609 9.4492-22.55 15.268-6.9519 5.8284-12.625 13.528-20.816 17.53" fill-rule="evenodd" stroke="#ccc" stroke-linecap="round" stroke-width="16"/>
  <path fill-rule="evenodd" fill-opacity="0" d="m1311 251.66c-26.486-1.7928-53.555 1.2978-80.257 0.50706-35.856-1.0618-71.121-5.308-107.01-6.0809-69.95-1.5065-139.76 4.3458-209.74 5.5739-95.902 1.6831-191.93-1.1566-287.85-2.534-74.16-1.0649-148.41 0.46802-222.58-0.50581-86.288-1.133-172.81 2.0412-258.96-0.50705-31.703-0.9377-63.605 0.15898-95.239 1.5199-8.9449 0.38483-23.418 5.4687-26.753 1.5199-4.209-4.9837 10.326-9.6014 13.911-14.693 7.1954-10.221 7.8798-21.231 10.701-31.922 1.5634-5.925-4.6858-11.77-5.3491-17.733-2.3126-20.789-6.6551-41.524-8.5617-62.323-0.89832-9.7999-3.21-19.579-3.21-29.388 0-9.9704 6.4803-20.137 2.1417-29.894-4.2304-9.5132-5.1843-19.293-8.5617-28.882-1.7602-4.9978-8.7084-12.256 0-15.2 15.605-5.2764 38.421 1.8385 56.714 4.561 25.073 3.7316 51.836 5.0668 78.118 5.0668 69.079 0 137.65-5.5975 206.53-8.1079 25.606-0.93329 51.4 0.65602 77.045 0 77.65-1.9864 155.66-3.2393 233.28-1.0129 52.792 1.5142 105.64 6.4796 158.37 4.5598 42.574-1.5499 84.679-5.7444 127.34-6.5867 75.608-1.4928 151.19 4.054 226.86 4.054 29.964 0 60.072 0.90575 89.887-0.50706 8.7804-0.41606 17.029-3.8581 25.682-3.0398 5.9567 0.56327-0.39954 5.7551-1.0709 8.6137-1.4591 6.2131 2.264 12.522 1.0709 18.747-3.2277 16.841 5.349 33.758 5.349 50.668 0 11.834 3.2101 23.635 3.2101 35.469 0 14.405-9.8259 28.706-7.4908 43.069 4.0837 25.119 7.4908 50.303 7.4908 75.497" fill="#000"/>
  <path stroke-linejoin="round" d="m1311 251.66c-26.486-1.7928-53.555 1.2978-80.257 0.50706-35.856-1.0618-71.121-5.308-107.01-6.0809-69.95-1.5065-139.76 4.3458-209.74 5.5739-95.902 1.6831-191.93-1.1566-287.85-2.534-74.16-1.0649-148.41 0.46802-222.58-0.50581-86.288-1.133-172.81 2.0412-258.96-0.50705-31.703-0.9377-63.605 0.15898-95.239 1.5199-8.9449 0.38483-23.418 5.4687-26.753 1.5199-4.209-4.9837 10.326-9.6014 13.911-14.693 7.1954-10.221 7.8798-21.231 10.701-31.922 1.5634-5.925-4.6858-11.77-5.3491-17.733-2.3126-20.789-6.6551-41.524-8.5617-62.323-0.89832-9.7999-3.21-19.579-3.21-29.388 0-9.9704 6.4803-20.137 2.1417-29.894-4.2304-9.5132-5.1843-19.293-8.5617-28.882-1.7602-4.9978-8.7084-12.256 0-15.2 15.605-5.2764 38.421 1.8385 56.714 4.561 25.073 3.7316 51.836 5.0668 78.118 5.0668 69.079 0 137.65-5.5975 206.53-8.1079 25.606-0.93329 51.4 0.65602 77.045 0 77.65-1.9864 155.66-3.2393 233.28-1.0129 52.792 1.5142 105.64 6.4796 158.37 4.5598 42.574-1.5499 84.679-5.7444 127.34-6.5867 75.608-1.4928 151.19 4.054 226.86 4.054 29.964 0 60.072 0.90575 89.887-0.50706 8.7804-0.41606 17.029-3.8581 25.682-3.0398 5.9567 0.56327-0.39954 5.7551-1.0709 8.6137-1.4591 6.2131 2.264 12.522 1.0709 18.747-3.2277 16.841 5.349 33.758 5.349 50.668 0 11.834 3.2101 23.635 3.2101 35.469 0 14.405-9.8259 28.706-7.4908 43.069 4.0837 25.119 7.4908 50.303 7.4908 75.497" fill-rule="evenodd" stroke="#888" stroke-linecap="butt" stroke-width="3"/>
  <path fill-rule="evenodd" fill-opacity="0" d="m366.39 92.709c-7.0821-5.057-13.097-11.462-19.647-17.192-1.7565-1.5364-3.2104-4.5873-5.5261-4.2982-5.2445 0.65492 1.6966 0.73091-6.1406 4.9115-8.0859 4.3133-15.958 9.0162-23.945 13.509-23.003 12.939-47.543 23.208-72.453 31.927-18.937 6.6282-37.138 17.04-57.102 19.034-5.9619 0.59549-11.851 1.796-17.806 2.457-2.9126 0.32326-9.5231-0.93884-8.5964 1.8412 1.2815 3.8444 5.6545 5.8094 8.5964 8.5964 5.9894 5.674 11.358 11.972 17.192 17.806 24.773 24.773 47.681 51.364 72.453 76.137" fill="#000"/>
  <path stroke-linejoin="round" d="m366.39 92.709c-7.0821-5.057-13.097-11.462-19.647-17.192-1.7565-1.5364-3.2104-4.5873-5.5261-4.2982-5.2445 0.65492 1.6966 0.73091-6.1406 4.9115-8.0859 4.3133-15.958 9.0162-23.945 13.509-23.003 12.939-47.543 23.208-72.453 31.927-18.937 6.6282-37.138 17.04-57.102 19.034-5.9619 0.59549-11.851 1.796-17.806 2.457-2.9126 0.32326-9.5231-0.93884-8.5964 1.8412 1.2815 3.8444 5.6545 5.8094 8.5964 8.5964 5.9894 5.674 11.358 11.972 17.192 17.806 24.773 24.773 47.681 51.364 72.453 76.137" fill-rule="evenodd" stroke="#000" stroke-linecap="butt"/>
  <path fill-rule="evenodd" fill-opacity="0" d="m195.69 162.71c14.871-11.153 31.247-21.295 49.12-26.401 6.9882-1.9964 14.989-0.43484 21.49-3.6848 11.06-5.5293 21.146-13.008 32.542-17.806 13.666-5.7534 30.419-8.2551 39.91-19.647" fill="#000"/>
  <path stroke-linejoin="round" d="m195.69 162.71c14.871-11.153 31.247-21.295 49.12-26.401 6.9882-1.9964 14.989-0.43484 21.49-3.6848 11.06-5.5293 21.146-13.008 32.542-17.806 13.666-5.7534 30.419-8.2551 39.91-19.647" fill-rule="evenodd" stroke="#000" stroke-linecap="butt" stroke-width="3"/>
  <path fill-rule="evenodd" fill-opacity="0" d="m220.25 176.21c9.8921-12.715 27.977-16.233 42.979-22.103 13.212-5.1699 25.232-12.994 38.069-19.035 4.4015-2.0715 9.8438-1.3667 14.121-3.6836 9.3858-5.084 16.661-14.605 27.017-17.192" fill="#000"/>
  <path stroke-linejoin="round" d="m220.25 176.21c9.8921-12.715 27.977-16.233 42.979-22.103 13.212-5.1699 25.232-12.994 38.069-19.035 4.4015-2.0715 9.8438-1.3667 14.121-3.6836 9.3858-5.084 16.661-14.605 27.017-17.192" fill-rule="evenodd" stroke="#000" stroke-linecap="butt" stroke-width="3"/>
  <path fill-rule="evenodd" fill-opacity="0" d="m237.45 189.72c27.021-12.474 51.968-29.067 78.593-42.366" fill="#000"/>
  <path stroke-linejoin="round" d="m237.45 189.72c27.021-12.474 51.968-29.067 78.593-42.366" fill-rule="evenodd" stroke="#000" stroke-linecap="butt" stroke-width="2"/>
  <path fill-rule="evenodd" fill-opacity="0" d="m250.95 203.23c4.1362 8.2724 16.974-7.3889 25.175-11.667 8.4434-4.4047 16.421-9.7565 25.175-13.508 6.3094-2.7041 13.565-4.3558 18.419-9.2097" fill="#000"/>
  <path stroke-linejoin="round" d="m250.95 203.23c4.1362 8.2724 16.974-7.3889 25.175-11.667 8.4434-4.4047 16.421-9.7565 25.175-13.508 6.3094-2.7041 13.565-4.3558 18.419-9.2097" fill-rule="evenodd" stroke="#000" stroke-linecap="butt"/>
  <path fill-rule="evenodd" fill-opacity="0" d="m266.31 221.04c14.176-7.6787 28.217-15.988 40.525-26.402 6.1491-5.2031 15.794-5.3563 21.49-11.052" fill="#000"/>
  <path stroke-linejoin="round" d="m266.31 221.04c14.176-7.6787 28.217-15.988 40.525-26.402 6.1491-5.2031 15.794-5.3563 21.49-11.052" fill-rule="evenodd" stroke="#000" stroke-linecap="butt"/>
  <path fill-rule="evenodd" fill-opacity="0" d="m282.27 228.4c7.4063-4.4433 14.208-9.8583 20.875-15.349 3.3328-2.7449 8.8705 0.33707 12.895-1.2279 6.4546-2.5102 11.336-7.9686 17.192-11.667 4.0362-2.549 10.148-3.0971 12.28-7.3685" fill="#000"/>
  <path stroke-linejoin="round" d="m282.27 228.4c7.4063-4.4433 14.208-9.8583 20.875-15.349 3.3328-2.7449 8.8705 0.33707 12.895-1.2279 6.4546-2.5102 11.336-7.9686 17.192-11.667 4.0362-2.549 10.148-3.0971 12.28-7.3685" fill-rule="evenodd" stroke="#000" stroke-linecap="butt"/>
  <path fill-rule="evenodd" fill-opacity="0" d="m166.22 138.15c1.7533 1.1689 4.0346 4.5589 5.5261 3.0703 1.6388-1.6356-6.7955-3.5657-4.9115-4.9115 2.1343-1.5246 2.5009-0.80894 4.9115-1.8424 8.5006-3.6443 16.131-9.7284 25.175-11.667 15.764-3.3787 30.142-11.48 45.436-16.578 10.135-3.3785 21.018-4.6919 30.699-9.2097 3.8594-1.8009 6.7409-5.2545 10.439-7.3673 11.621-6.6394 25.703-8.5427 36.84-15.965 3.6406-2.4263 8.5183 2.4558 12.893 2.4558" fill="#000"/>
  <path stroke-linejoin="round" d="m166.22 138.15c1.7533 1.1689 4.0346 4.5589 5.5261 3.0703 1.6388-1.6356-6.7955-3.5657-4.9115-4.9115 2.1343-1.5246 2.5009-0.80894 4.9115-1.8424 8.5006-3.6443 16.131-9.7284 25.175-11.667 15.764-3.3787 30.142-11.48 45.436-16.578 10.135-3.3785 21.018-4.6919 30.699-9.2097 3.8594-1.8009 6.7409-5.2545 10.439-7.3673 11.621-6.6394 25.703-8.5427 36.84-15.965 3.6406-2.4263 8.5183 2.4558 12.893 2.4558" fill-rule="evenodd" stroke="#666" stroke-linecap="butt"/>
  <path fill-rule="evenodd" fill-opacity="0" d="m175.43 131.39c-1.8143-0.5183-5.4306-2.1743-4.2982-3.6836 2.5323-3.3753 7.7283-3.398 11.667-4.9127 6.534-2.513 13.66-3.1956 20.262-5.5261 8.1174-2.8657 14.442-9.9152 22.719-12.28 21.708-6.202 41.489-17.859 62.628-25.788 6.9756-2.6164 13.809-5.6259 20.876-7.9818 4.8698-1.6233 8.9892-6.1406 14.122-6.1406 5.59 0 9.7592 6.7551 15.349 6.7551" fill="#000"/>
  <path stroke-linejoin="round" d="m175.43 131.39c-1.8143-0.5183-5.4306-2.1743-4.2982-3.6836 2.5323-3.3753 7.7283-3.398 11.667-4.9127 6.534-2.513 13.66-3.1956 20.262-5.5261 8.1174-2.8657 14.442-9.9152 22.719-12.28 21.708-6.202 41.489-17.859 62.628-25.788 6.9756-2.6164 13.809-5.6259 20.876-7.9818 4.8698-1.6233 8.9892-6.1406 14.122-6.1406 5.59 0 9.7592 6.7551 15.349 6.7551" fill-rule="evenodd" stroke="#999" stroke-linecap="butt"/>
  <path fill-rule="evenodd" fill-opacity="0" d="m180.34 123.41c-1.4735-1.1786-5.6324-2.3494-4.2982-3.6836 4.9988-4.9988 13.06-5.4207 19.648-7.983 9.9811-3.8817 18.83-10.362 28.858-14.121 13.576-5.0895 28.308-7.3702 41.138-14.122 14.891-7.8371 31.929-21.288 47.892-15.964" fill="#000"/>
  <path stroke-linejoin="round" d="m180.34 123.41c-1.4735-1.1786-5.6324-2.3494-4.2982-3.6836 4.9988-4.9988 13.06-5.4207 19.648-7.983 9.9811-3.8817 18.83-10.362 28.858-14.121 13.576-5.0895 28.308-7.3702 41.138-14.122 14.891-7.8371 31.929-21.288 47.892-15.964" fill-rule="evenodd" stroke="#b7b7b7" stroke-linecap="butt"/>
  <path fill-rule="evenodd" fill-opacity="0" d="m436.48 72.919c-22.703 5.2335-46.5 6.8098-68.093 15.769-11.316 4.6953-17.313 17.878-24.926 27.753-5.5482 7.1964-10.628 14.806-15.2 22.707-1.5647 2.7041-4.8763 4.4767-5.4718 7.5695-0.73203 3.8017 7.4739-3.9623 10.944-2.5228 3.5948 1.4915 8.0881 3.0577 11.551 1.2614 5.6397-2.9255 8.9178-9.2507 13.376-13.876 10.235-10.618 18.926-23.013 30.398-32.169 8.5494-6.8237 19.533-9.5057 29.183-14.506" fill="#000"/>
  <path stroke-linejoin="round" d="m436.48 72.919c-22.703 5.2335-46.5 6.8098-68.093 15.769-11.316 4.6953-17.313 17.878-24.926 27.753-5.5482 7.1964-10.628 14.806-15.2 22.707-1.5647 2.7041-4.8763 4.4767-5.4718 7.5695-0.73203 3.8017 7.4739-3.9623 10.944-2.5228 3.5948 1.4915 8.0881 3.0577 11.551 1.2614 5.6397-2.9255 8.9178-9.2507 13.376-13.876 10.235-10.618 18.926-23.013 30.398-32.169 8.5494-6.8237 19.533-9.5057 29.183-14.506" fill-rule="evenodd" stroke="#000" stroke-linecap="butt"/>
  <path fill-rule="evenodd" fill-opacity="0" d="m336.72 146.73c-6.1152-3.2953-17.591 4.5321-17.591 10.936 0 4.9275-0.93973 10.899 2.7061 14.581 4.0898 4.1312 10.154 7.0577 16.238 7.8982 6.2773 0.86717 12.658 1.0159 18.945 1.8231 4.6456 0.59647 7.3992 5.2446 11.501 7.2913 10.054 5.0164 21.897 7.6722 30.446 14.581 8.1472 6.584 16.582 13.219 26.386 17.62 25.139 11.285 55.371 11.201 80.514 22.48" fill="#000"/>
  <path stroke-linejoin="round" d="m336.72 146.73c-6.1152-3.2953-17.591 4.5321-17.591 10.936 0 4.9275-0.93973 10.899 2.7061 14.581 4.0898 4.1312 10.154 7.0577 16.238 7.8982 6.2773 0.86717 12.658 1.0159 18.945 1.8231 4.6456 0.59647 7.3992 5.2446 11.501 7.2913 10.054 5.0164 21.897 7.6722 30.446 14.581 8.1472 6.584 16.582 13.219 26.386 17.62 25.139 11.285 55.371 11.201 80.514 22.48" fill-rule="evenodd" stroke="#000" stroke-linecap="butt"/>
  <path fill-rule="evenodd" fill-opacity="0" d="m347.35 144.9c14.346 0 28.143 5.9022 41.753 10.439 5.4503 1.8168 12.596 4.6757 17.192 1.2279 8.2396-6.1817 8.0936-18.991 11.052-28.858 3.3875-11.298 11.553-22.36 22.104-27.63" fill="#000"/>
  <path stroke-linejoin="round" d="m347.35 144.9c14.346 0 28.143 5.9022 41.753 10.439 5.4503 1.8168 12.596 4.6757 17.192 1.2279 8.2396-6.1817 8.0936-18.991 11.052-28.858 3.3875-11.298 11.553-22.36 22.104-27.63" fill-rule="evenodd" stroke="#000" stroke-linecap="butt"/>
  <path fill-rule="evenodd" fill-opacity="0" d="m457.03 83.464c9.4069 9.4069 13.954 22.671 20.262 34.384 2.6397 4.902 8.1635 8.1938 9.8242 13.508 2.8772 9.2063 1.7748 20.81 8.5952 27.63 12.487 12.487 30.622 17.747 44.823 28.244 7.2493 5.3583 13.375 12.192 20.876 17.192 3.0178 2.0112 7.2675 1.3089 10.438 3.0703 15.802 8.7795 33.882 14.848 46.664 27.63" fill="#000"/>
  <path stroke-linejoin="round" d="m457.03 83.464c9.4069 9.4069 13.954 22.671 20.262 34.384 2.6397 4.902 8.1635 8.1938 9.8242 13.508 2.8772 9.2063 1.7748 20.81 8.5952 27.63 12.487 12.487 30.622 17.747 44.823 28.244 7.2493 5.3583 13.375 12.192 20.876 17.192 3.0178 2.0112 7.2675 1.3089 10.438 3.0703 15.802 8.7795 33.882 14.848 46.664 27.63" fill-rule="evenodd" stroke="#000" stroke-linecap="butt"/>
  <path fill-rule="evenodd" fill-opacity="0" d="m494.1 28.238c4.4243-3.3172-8.6948 6.8401-12.893 10.439-10.972 9.404-22.361 18.385-34.384 26.401-18.583 12.389-33.19 29.912-50.349 44.208-7.4584 6.2144-16.575 10.26-23.945 16.578-7.382 6.3284-13.406 14.689-22.104 19.034" fill="#000"/>
  <path stroke-linejoin="round" d="m494.1 28.238c4.4243-3.3172-8.6948 6.8401-12.893 10.439-10.972 9.404-22.361 18.385-34.384 26.401-18.583 12.389-33.19 29.912-50.349 44.208-7.4584 6.2144-16.575 10.26-23.945 16.578-7.382 6.3284-13.406 14.689-22.104 19.034" fill-rule="evenodd" stroke="#000" stroke-linecap="butt"/>
  <path fill-rule="evenodd" fill-opacity="0" d="m529.08 28.219c-13.426 5.7953-24.32 16.37-35.798 25.48-22.7 18.017-45.225 36.259-67.923 54.277-11.773 9.3459-24.432 17.715-35.055 28.374-3.8857 3.8992-7.0202 8.6967-11.555 11.8-1.0742 0.73503-2.8403 3.6807-1.5441 3.6085" fill="#000"/>
  <path stroke-linejoin="round" d="m529.08 28.219c-13.426 5.7953-24.32 16.37-35.798 25.48-22.7 18.017-45.225 36.259-67.923 54.277-11.773 9.3459-24.432 17.715-35.055 28.374-3.8857 3.8992-7.0202 8.6967-11.555 11.8-1.0742 0.73503-2.8403 3.6807-1.5441 3.6085" fill-rule="evenodd" stroke="#000" stroke-linecap="butt"/>
  <path fill-rule="evenodd" fill-opacity="0" d="m335.69 149.81c-7.2794 1.2117-13.271 16.448-7.3685 20.876 5.6548 4.2425 15.051-19.648 7.9818-19.648" fill="#000"/>
  <path stroke-linejoin="round" d="m335.69 149.81c-7.2794 1.2117-13.271 16.448-7.3685 20.876 5.6548 4.2425 15.051-19.648 7.9818-19.648" fill-rule="evenodd" stroke="#e60000" stroke-linecap="butt" stroke-width="8"/>
  <path fill-rule="evenodd" fill-opacity="0" d="m333.86 131.39c1.0435-2.0871-1.8412 4.4205-1.8412 6.754 0 0.14307-3.8487 2.9064-3.0703 3.6848 3.3758 3.3758 5.2326-8.0116 7.3685-12.281" fill="#000"/>
  <path stroke-linejoin="round" d="m333.86 131.39c1.0435-2.0871-1.8412 4.4205-1.8412 6.754 0 0.14307-3.8487 2.9064-3.0703 3.6848 3.3758 3.3758 5.2326-8.0116 7.3685-12.281" fill-rule="evenodd" stroke="#e60000" stroke-linecap="butt" stroke-width="4"/>
 </g>
</svg>