<svg version="1.1" viewBox="0.0 0.0 1333.3333333333333 533.3333333333334" fill="none" stroke="none" stroke-linecap="square" stroke-miterlimit="10" xmlns="http://www.w3.org/2000/svg" xmlns:xlink="http://www.w3.org/1999/xlink"><clipPath id="p.0"><path d="m0 0l1333.3334 0l0 533.3333l-1333.3334 0l0 -533.3333z" clip-rule="nonzero"></path></clipPath><g clip-path="url(#p.0)"><path fill="#000000" fill-opacity="0.0" d="m0 0l1333.3334 0l0 533.3333l-1333.3334 0z" fill-rule="nonzero"></path><path fill="#000000" fill-opacity="0.0" d="m20.33071 21.400562c26.485518 3.7862968 53.554596 -2.7408028 80.25722 -1.0708656c35.85607 2.2423782 71.12148 11.21011 107.01049 12.842518c69.950226 3.1816826 139.76303 -9.17812 209.73755 -11.771652c95.9017 -3.5544968 191.92953 2.4427738 287.853 5.3517056c74.160095 2.2489471 148.41437 -0.98840714 222.58008 1.068243c86.28778 2.3927994 172.80762 -4.31081 258.96057 1.0708656c31.702515 1.9803448 63.60486 -0.3357582 95.23889 -3.2099743c8.944824 -0.81271744 23.418213 -11.549575 26.753296 -3.2099724c4.2089844 10.525198 -10.326172 20.277597 -13.910767 31.031496c-7.1954346 21.58611 -7.8797607 44.839108 -10.700806 67.41733c-1.5634766 12.5132065 4.685791 24.85839 5.349121 37.45144c2.312622 43.90587 6.6551514 87.69667 8.5616455 131.62206c0.8983154 20.696686 3.209961 41.349426 3.209961 62.065613c0 21.056732 -6.4803467 42.52893 -2.1417236 63.13385c4.2304688 20.091217 5.184326 40.7453 8.5616455 60.997375c1.7602539 10.555023 8.708496 25.88382 0 32.102356c-15.605103 11.143402 -38.4209 -3.882721 -56.713867 -9.632538c-25.07312 -7.8809204 -51.83557 -10.700775 -78.118164 -10.700775c-69.078735 0 -137.65259 11.821625 -206.52753 17.123352c-25.605774 1.9710388 -51.40045 -1.3854675 -77.04462 0c-77.65027 4.195221 -155.65955 6.841156 -233.28082 2.1390991c-52.791626 -3.197937 -105.63995 -13.684357 -158.37271 -9.629913c-42.573914 3.2733765 -84.67868 12.131897 -127.34119 13.910767c-75.60846 3.152588 -151.18678 -8.561676 -226.8609 -8.561676c-29.964516 0 -60.071564 -1.9129028 -89.887146 1.0708618c-8.780365 0.8786926 -17.029064 8.148041 -25.682415 6.4199524c-5.9567413 -1.1896057 0.39952278 -12.154449 1.0708675 -18.19162c1.4591541 -13.121674 -2.2640553 -26.444641 -1.0708675 -39.59317c3.2276592 -35.567688 -5.349081 -71.29404 -5.349081 -107.00787c0 -24.99228 -3.2099743 -49.915833 -3.2099743 -74.90814c0 -30.421967 9.825825 -60.625763 7.490814 -90.95799c-4.0838127 -53.049522 -7.490814 -106.23709 -7.490814 -159.44357" fill-rule="evenodd"></path><path stroke="#888888" stroke-width="4.0" stroke-linejoin="round" stroke-linecap="butt" d="m20.33071 21.400562c26.485518 3.7862968 53.554596 -2.7408028 80.25722 -1.0708656c35.85607 2.2423782 71.12148 11.21011 107.01049 12.842518c69.950226 3.1816826 139.76303 -9.17812 209.73755 -11.771652c95.9017 -3.5544968 191.92953 2.4427738 287.853 5.3517056c74.160095 2.2489471 148.41437 -0.98840714 222.58008 1.068243c86.28778 2.3927994 172.80762 -4.31081 258.96057 1.0708656c31.702515 1.9803448 63.60486 -0.3357582 95.23889 -3.2099743c8.944824 -0.81271744 23.418213 -11.549575 26.753296 -3.2099724c4.2089844 10.525198 -10.326172 20.277597 -13.910767 31.031496c-7.1954346 21.58611 -7.8797607 44.839108 -10.700806 67.41733c-1.5634766 12.5132065 4.685791 24.85839 5.349121 37.45144c2.312622 43.90587 6.6551514 87.69667 8.5616455 131.62206c0.8983154 20.696686 3.209961 41.349426 3.209961 62.065613c0 21.056732 -6.4803467 42.52893 -2.1417236 63.13385c4.2304688 20.091217 5.184326 40.7453 8.5616455 60.997375c1.7602539 10.555023 8.708496 25.88382 0 32.102356c-15.605103 11.143402 -38.4209 -3.882721 -56.713867 -9.632538c-25.07312 -7.8809204 -51.83557 -10.700775 -78.118164 -10.700775c-69.078735 0 -137.65259 11.821625 -206.52753 17.123352c-25.605774 1.9710388 -51.40045 -1.3854675 -77.04462 0c-77.65027 4.195221 -155.65955 6.841156 -233.28082 2.1390991c-52.791626 -3.197937 -105.63995 -13.684357 -158.37271 -9.629913c-42.573914 3.2733765 -84.67868 12.131897 -127.34119 13.910767c-75.60846 3.152588 -151.18678 -8.561676 -226.8609 -8.561676c-29.964516 0 -60.071564 -1.9129028 -89.887146 1.0708618c-8.780365 0.8786926 -17.029064 8.148041 -25.682415 6.4199524c-5.9567413 -1.1896057 0.39952278 -12.154449 1.0708675 -18.19162c1.4591541 -13.121674 -2.2640553 -26.444641 -1.0708675 -39.59317c3.2276592 -35.567688 -5.349081 -71.29404 -5.349081 -107.00787c0 -24.99228 -3.2099743 -49.915833 -3.2099743 -74.90814c0 -30.421967 9.825825 -60.625763 7.490814 -90.95799c-4.0838127 -53.049522 -7.490814 -106.23709 -7.490814 -159.44357" fill-rule="evenodd"></path><path fill="#000000" fill-opacity="0.0" d="m616.41565 172.86322c-15.456421 -11.036575 -28.58374 -25.015915 -42.879272 -37.519684c-3.833496 -3.3530273 -7.006592 -10.011673 -12.060364 -9.380577c-11.445984 1.4293442 3.7028198 1.5951767 -13.40155 10.719154c-17.647217 9.413528 -34.827515 19.677368 -52.259857 29.48294c-50.2023 28.238419 -103.76068 50.65114 -158.126 69.679794c-41.329193 14.465836 -81.05112 37.18872 -124.62204 41.54068c-13.011612 1.2996521 -25.864319 3.9197083 -38.860886 5.362213c-6.3565216 0.7055054 -20.783615 -2.0489807 -18.761154 4.0183716c2.796753 8.390228 12.340622 12.678833 18.761154 18.761139c13.071686 12.383148 24.787628 26.128845 37.519684 38.8609c54.06517 54.065155 104.06084 112.10019 158.12599 166.16534" fill-rule="evenodd"></path><path stroke="#000000" stroke-width="1.0" stroke-linejoin="round" stroke-linecap="butt" d="m616.41565 172.86322c-15.456421 -11.036575 -28.58374 -25.015915 -42.879272 -37.519684c-3.833496 -3.3530273 -7.006592 -10.011673 -12.060364 -9.380577c-11.445984 1.4293442 3.7028198 1.5951767 -13.40155 10.719154c-17.647217 9.413528 -34.827515 19.677368 -52.259857 29.48294c-50.2023 28.238419 -103.76068 50.65114 -158.126 69.679794c-41.329193 14.465836 -81.05112 37.18872 -124.62204 41.54068c-13.011612 1.2996521 -25.864319 3.9197083 -38.860886 5.362213c-6.3565216 0.7055054 -20.783615 -2.0489807 -18.761154 4.0183716c2.796753 8.390228 12.340622 12.678833 18.761154 18.761139c13.071686 12.383148 24.787628 26.128845 37.519684 38.8609c54.06517 54.065155 104.06084 112.10019 158.12599 166.16534" fill-rule="evenodd"></path><path fill="#000000" fill-opacity="0.0" d="m243.88715 325.6273c32.454865 -24.341156 68.19403 -46.4758 107.20209 -57.619415c15.251465 -4.3569336 32.71295 -0.94903564 46.90027 -8.041992c24.13739 -12.06752 46.14926 -28.390198 71.020996 -38.8609c29.826294 -12.556488 66.38739 -18.016403 87.102356 -42.879257" fill-rule="evenodd"></path><path stroke="#000000" stroke-width="3.0" stroke-linejoin="round" stroke-linecap="butt" d="m243.88715 325.6273c32.454865 -24.341156 68.19403 -46.4758 107.20209 -57.619415c15.251465 -4.3569336 32.71295 -0.94903564 46.90027 -8.041992c24.13739 -12.06752 46.14926 -28.390198 71.020996 -38.8609c29.826294 -12.556488 66.38739 -18.016403 87.102356 -42.879257" fill-rule="evenodd"></path><path fill="#000000" fill-opacity="0.0" d="m297.4882 355.1076c21.58902 -27.750397 61.058685 -35.427063 93.80054 -48.23883c28.834839 -11.2829895 55.06775 -28.358246 83.083984 -41.543304c9.606079 -4.5208435 21.483673 -2.9828186 30.818878 -8.039368c20.48413 -11.09552 36.36139 -31.874756 58.963257 -37.5197" fill-rule="evenodd"></path><path stroke="#000000" stroke-width="3.0" stroke-linejoin="round" stroke-linecap="butt" d="m297.4882 355.1076c21.58902 -27.750397 61.058685 -35.427063 93.80054 -48.23883c28.834839 -11.2829895 55.06775 -28.358246 83.083984 -41.543304c9.606079 -4.5208435 21.483673 -2.9828186 30.818878 -8.039368c20.48413 -11.09552 36.36139 -31.874756 58.963257 -37.5197" fill-rule="evenodd"></path><path fill="#000000" fill-opacity="0.0" d="m335.00787 384.59055c58.972076 -27.2247 113.41785 -63.43686 171.52493 -92.461945" fill-rule="evenodd"></path><path stroke="#000000" stroke-width="2.0" stroke-linejoin="round" stroke-linecap="butt" d="m335.00787 384.59055c58.972076 -27.2247 113.41785 -63.43686 171.52493 -92.461945" fill-rule="evenodd"></path><path fill="#000000" fill-opacity="0.0" d="m364.4882 414.07086c9.027069 18.054138 37.04593 -16.125916 54.94226 -25.461945c18.427216 -9.612976 35.838806 -21.293121 54.94226 -29.480316c13.770142 -5.9014893 29.605988 -9.506226 40.199493 -20.099731" fill-rule="evenodd"></path><path stroke="#000000" stroke-width="1.0" stroke-linejoin="round" stroke-linecap="butt" d="m364.4882 414.07086c9.027069 18.054138 37.04593 -16.125916 54.94226 -25.461945c18.427216 -9.612976 35.838806 -21.293121 54.94226 -29.480316c13.770142 -5.9014893 29.605988 -9.506226 40.199493 -20.099731" fill-rule="evenodd"></path><path fill="#000000" fill-opacity="0.0" d="m397.9895 452.93176c30.938904 -16.758484 61.58313 -34.893677 88.44357 -57.62204c13.420105 -11.355652 34.46945 -11.689941 46.900238 -24.120758" fill-rule="evenodd"></path><path stroke="#000000" stroke-width="1.0" stroke-linejoin="round" stroke-linecap="butt" d="m397.9895 452.93176c30.938904 -16.758484 61.58313 -34.893677 88.44357 -57.62204c13.420105 -11.355652 34.46945 -11.689941 46.900238 -24.120758" fill-rule="evenodd"></path><path fill="#000000" fill-opacity="0.0" d="m432.83203 469.0105c16.16388 -9.697388 31.008911 -21.515228 45.55905 -33.498688c7.273651 -5.99057 19.359467 0.7356262 28.141724 -2.679779c14.086761 -5.478363 24.740326 -17.391205 37.519684 -25.461945c8.808716 -5.563141 22.14862 -6.7592773 26.800537 -16.08136" fill-rule="evenodd"></path><path stroke="#000000" stroke-width="1.0" stroke-linejoin="round" stroke-linecap="butt" d="m432.83203 469.0105c16.16388 -9.697388 31.008911 -21.515228 45.55905 -33.498688c7.273651 -5.99057 19.359467 0.7356262 28.141724 -2.679779c14.086761 -5.478363 24.740326 -17.391205 37.519684 -25.461945c8.808716 -5.563141 22.14862 -6.7592773 26.800537 -16.08136" fill-rule="evenodd"></path><path fill="#000000" fill-opacity="0.0" d="m179.5643 272.02643c3.8265686 2.5510254 8.805237 9.949524 12.060364 6.700775c3.5765533 -3.5695496 -14.830917 -7.782013 -10.719147 -10.719147c4.6579285 -3.327301 5.4579926 -1.7655029 10.719147 -4.020996c18.552155 -7.9535217 35.205338 -21.231827 54.94226 -25.46196c34.40442 -7.373749 65.78262 -25.054398 99.16272 -36.18109c22.120148 -7.3733826 45.870636 -10.239929 67.0 -20.099747c8.422943 -3.930481 14.71167 -11.467682 22.782166 -16.078735c25.361267 -14.490128 56.095886 -18.644028 80.40158 -34.84253c7.9454956 -5.2952576 18.59076 5.3595886 28.1391 5.3595886" fill-rule="evenodd"></path><path stroke="#666666" stroke-width="1.0" stroke-linejoin="round" stroke-linecap="butt" d="m179.5643 272.02643c3.8265686 2.5510254 8.805237 9.949524 12.060364 6.700775c3.5765533 -3.5695496 -14.830917 -7.782013 -10.719147 -10.719147c4.6579285 -3.327301 5.4579926 -1.7655029 10.719147 -4.020996c18.552155 -7.9535217 35.205338 -21.231827 54.94226 -25.46196c34.40442 -7.373749 65.78262 -25.054398 99.16272 -36.18109c22.120148 -7.3733826 45.870636 -10.239929 67.0 -20.099747c8.422943 -3.930481 14.71167 -11.467682 22.782166 -16.078735c25.361267 -14.490128 56.095886 -18.644028 80.40158 -34.84253c7.9454956 -5.2952576 18.59076 5.3595886 28.1391 5.3595886" fill-rule="evenodd"></path><path fill="#000000" fill-opacity="0.0" d="m199.663 257.2861c-3.9596558 -1.1311951 -11.851929 -4.7453156 -9.380569 -8.039383c5.5266113 -7.3664093 16.866638 -7.4160004 25.461945 -10.7217865c14.260208 -5.4845276 29.813385 -6.9741516 44.220474 -12.060364c17.71585 -6.2543335 31.518036 -21.63945 49.582672 -26.800522c47.376434 -13.535492 90.548706 -38.977173 136.6824 -56.280838c15.223816 -5.7100983 30.136627 -12.278275 45.561676 -17.419952c10.628143 -3.5427094 19.61853 -13.401581 30.821564 -13.401581c12.199768 0 21.29889 14.742783 33.498657 14.742783" fill-rule="evenodd"></path><path stroke="#999999" stroke-width="1.0" stroke-linejoin="round" stroke-linecap="butt" d="m199.663 257.2861c-3.9596558 -1.1311951 -11.851929 -4.7453156 -9.380569 -8.039383c5.5266113 -7.3664093 16.866638 -7.4160004 25.461945 -10.7217865c14.260208 -5.4845276 29.813385 -6.9741516 44.220474 -12.060364c17.71585 -6.2543335 31.518036 -21.63945 49.582672 -26.800522c47.376434 -13.535492 90.548706 -38.977173 136.6824 -56.280838c15.223816 -5.7100983 30.136627 -12.278275 45.561676 -17.419952c10.628143 -3.5427094 19.61853 -13.401581 30.821564 -13.401581c12.199768 0 21.29889 14.742783 33.498657 14.742783" fill-rule="evenodd"></path><path fill="#000000" fill-opacity="0.0" d="m210.38489 239.8656c-3.2159271 -2.572235 -12.292496 -5.1274567 -9.380585 -8.039368c10.909744 -10.909744 28.502335 -11.830353 42.881897 -17.422577c21.783234 -8.471527 41.096466 -22.614197 62.98163 -30.818893c29.628082 -11.107513 61.781464 -16.085083 89.782135 -30.821518c32.499268 -17.103989 69.6839 -46.46028 104.52231 -34.839905" fill-rule="evenodd"></path><path stroke="#b7b7b7" stroke-width="1.0" stroke-linejoin="round" stroke-linecap="butt" d="m210.38489 239.8656c-3.2159271 -2.572235 -12.292496 -5.1274567 -9.380585 -8.039368c10.909744 -10.909744 28.502335 -11.830353 42.881897 -17.422577c21.783234 -8.471527 41.096466 -22.614197 62.98163 -30.818893c29.628082 -11.107513 61.781464 -16.085083 89.782135 -30.821518c32.499268 -17.103989 69.6839 -46.46028 104.52231 -34.839905" fill-rule="evenodd"></path><path fill="#000000" fill-opacity="0.0" d="m769.4006 129.67192c-49.548462 11.420944 -101.48535 14.860855 -148.61316 34.412537c-24.698181 10.246414 -37.786316 39.015457 -54.401245 60.56436c-12.108826 15.704651 -23.195251 32.31166 -33.172974 49.553635c-3.414917 5.901062 -10.642517 9.76944 -11.9422 16.518799c-1.5976562 8.296417 16.311829 -8.646942 23.884338 -5.505371c7.845581 3.2548523 17.65216 6.672699 25.209839 2.7526855c12.308716 -6.3843384 19.463074 -20.187683 29.19397 -30.282196c22.337341 -23.171997 41.305725 -50.220947 66.343445 -70.202774c18.659058 -14.891251 42.631775 -20.74405 63.692444 -31.65718" fill-rule="evenodd"></path><path stroke="#000000" stroke-width="1.0" stroke-linejoin="round" stroke-linecap="butt" d="m769.4006 129.67192c-49.548462 11.420944 -101.48535 14.860855 -148.61316 34.412537c-24.698181 10.246414 -37.786316 39.015457 -54.401245 60.56436c-12.108826 15.704651 -23.195251 32.31166 -33.172974 49.553635c-3.414917 5.901062 -10.642517 9.76944 -11.9422 16.518799c-1.5976562 8.296417 16.311829 -8.646942 23.884338 -5.505371c7.845581 3.2548523 17.65216 6.672699 25.209839 2.7526855c12.308716 -6.3843384 19.463074 -20.187683 29.19397 -30.282196c22.337341 -23.171997 41.305725 -50.220947 66.343445 -70.202774c18.659058 -14.891251 42.631775 -20.74405 63.692444 -31.65718" fill-rule="evenodd"></path><path fill="#000000" fill-opacity="0.0" d="m551.671 290.7684c-13.345825 -7.1923523 -38.390076 9.891815 -38.390076 23.869873c0 10.754852 -2.0508728 23.787842 5.9057007 31.825653c8.92572 9.016846 22.159424 15.404358 35.437256 17.23877c13.699646 1.8927002 27.624512 2.2172852 41.345825 3.979187c10.138672 1.3018494 16.14801 11.446869 25.100769 15.914124c21.942505 10.948883 47.78778 16.745453 66.446594 31.825623c17.780579 14.370392 36.188965 28.851349 57.585083 38.456757c54.864197 24.63031 120.841736 24.448547 175.71399 49.064392" fill-rule="evenodd"></path><path stroke="#000000" stroke-width="1.0" stroke-linejoin="round" stroke-linecap="butt" d="m551.671 290.7684c-13.345825 -7.1923523 -38.390076 9.891815 -38.390076 23.869873c0 10.754852 -2.0508728 23.787842 5.9057007 31.825653c8.92572 9.016846 22.159424 15.404358 35.437256 17.23877c13.699646 1.8927002 27.624512 2.2172852 41.345825 3.979187c10.138672 1.3018494 16.14801 11.446869 25.100769 15.914124c21.942505 10.948883 47.78778 16.745453 66.446594 31.825623c17.780579 14.370392 36.188965 28.851349 57.585083 38.456757c54.864197 24.63031 120.841736 24.448547 175.71399 49.064392" fill-rule="evenodd"></path><path fill="#000000" fill-opacity="0.0" d="m574.874 286.76642c31.309387 0 61.420654 12.881256 91.12335 22.782135c11.89502 3.9649963 27.490112 10.204407 37.519714 2.679779c17.982544 -13.4913025 17.664001 -41.447937 24.120728 -62.981613c7.3931274 -24.6568 25.213196 -48.79898 48.241455 -60.301834" fill-rule="evenodd"></path><path stroke="#000000" stroke-width="1.0" stroke-linejoin="round" stroke-linecap="butt" d="m574.874 286.76642c31.309387 0 61.420654 12.881256 91.12335 22.782135c11.89502 3.9649963 27.490112 10.204407 37.519714 2.679779c17.982544 -13.4913025 17.664001 -41.447937 24.120728 -62.981613c7.3931274 -24.6568 25.213196 -48.79898 48.241455 -60.301834" fill-rule="evenodd"></path><path fill="#000000" fill-opacity="0.0" d="m814.22833 152.68636c20.530151 20.53012 30.454773 49.478775 44.22046 75.04199c5.7610474 10.6983795 17.816406 17.882584 21.440979 29.4803c6.279297 20.092377 3.873413 45.416748 18.758545 60.30185c27.25299 27.253052 66.83002 38.731415 97.8241 61.64041c15.821289 11.694153 29.190308 26.609009 45.561768 37.519684c6.5861816 4.3894043 15.860718 2.8567505 22.779419 6.7008057c34.486694 19.160889 73.94568 32.405 101.84253 60.30182" fill-rule="evenodd"></path><path stroke="#000000" stroke-width="1.0" stroke-linejoin="round" stroke-linecap="butt" d="m814.22833 152.68636c20.530151 20.53012 30.454773 49.478775 44.22046 75.04199c5.7610474 10.6983795 17.816406 17.882584 21.440979 29.4803c6.279297 20.092377 3.873413 45.416748 18.758545 60.30185c27.25299 27.253052 66.83002 38.731415 97.8241 61.64041c15.821289 11.694153 29.190308 26.609009 45.561768 37.519684c6.5861816 4.3894043 15.860718 2.8567505 22.779419 6.7008057c34.486694 19.160889 73.94568 32.405 101.84253 60.30182" fill-rule="evenodd"></path><path fill="#000000" fill-opacity="0.0" d="m895.1417 32.15937c9.655945 -7.23958 -18.975891 14.928223 -28.1391 22.78215c-23.945068 20.523705 -48.802002 40.12513 -75.04199 57.619423c-40.55658 27.039185 -72.436035 65.280975 -109.88452 96.48294c-16.27771 13.562561 -36.174072 22.391403 -52.259827 36.181107c-16.111023 13.811356 -29.257385 32.057938 -48.241455 41.540665" fill-rule="evenodd"></path><path stroke="#000000" stroke-width="1.0" stroke-linejoin="round" stroke-linecap="butt" d="m895.1417 32.15937c9.655945 -7.23958 -18.975891 14.928223 -28.1391 22.78215c-23.945068 20.523705 -48.802002 40.12513 -75.04199 57.619423c-40.55658 27.039185 -72.436035 65.280975 -109.88452 96.48294c-16.27771 13.562561 -36.174072 22.391403 -52.259827 36.181107c-16.111023 13.811356 -29.257385 32.057938 -48.241455 41.540665" fill-rule="evenodd"></path><path fill="#000000" fill-opacity="0.0" d="m971.50806 32.154373c-29.303528 12.64502 -53.08258 35.721764 -78.13483 55.60034c-49.54773 39.31543 -98.71112 79.12265 -148.25525 118.44269c-25.697205 20.394226 -53.328125 38.65735 -76.513306 61.91777c-8.481384 8.508881 -15.32312 18.978577 -25.221985 25.750336c-2.3445435 1.6039124 -6.199585 8.032318 -3.3704834 7.8750305" fill-rule="evenodd"></path><path stroke="#000000" stroke-width="1.0" stroke-linejoin="round" stroke-linecap="butt" d="m971.50806 32.154373c-29.303528 12.64502 -53.08258 35.721764 -78.13483 55.60034c-49.54773 39.31543 -98.71112 79.12265 -148.25525 118.44269c-25.697205 20.394226 -53.328125 38.65735 -76.513306 61.91777c-8.481384 8.508881 -15.32312 18.978577 -25.221985 25.750336c-2.3445435 1.6039124 -6.199585 8.032318 -3.3704834 7.8750305" fill-rule="evenodd"></path><path fill="#000000" fill-opacity="0.0" d="m549.41437 297.4882c-15.886902 2.6443481 -28.964233 35.896362 -16.08136 45.561676c12.341248 9.258972 32.848328 -42.881897 17.419922 -42.881897" fill-rule="evenodd"></path><path stroke="#e60000" stroke-width="8.0" stroke-linejoin="round" stroke-linecap="butt" d="m549.41437 297.4882c-15.886902 2.6443481 -28.964233 35.896362 -16.08136 45.561676c12.341248 9.258972 32.848328 -42.881897 17.419922 -42.881897" fill-rule="evenodd"></path><path fill="#000000" fill-opacity="0.0" d="m545.434 257.28485c2.2775269 -4.5550385 -4.0183716 9.647461 -4.0183716 14.740173c0 0.31222534 -8.399658 6.343109 -6.7008057 8.041992c7.3674316 7.367401 11.419983 -17.484955 16.08142 -26.803162" fill-rule="evenodd"></path><path stroke="#e60000" stroke-width="4.0" stroke-linejoin="round" stroke-linecap="butt" d="m545.434 257.28485c2.2775269 -4.5550385 -4.0183716 9.647461 -4.0183716 14.740173c0 0.31222534 -8.399658 6.343109 -6.7008057 8.041992c7.3674316 7.367401 11.419983 -17.484955 16.08142 -26.803162" fill-rule="evenodd"></path><path fill="#000000" fill-opacity="0.0" d="m911.73206 45.189293c9.093933 -6.667656 -17.871521 13.748894 -26.501465 20.98236c-22.551453 18.902336 -45.96167 36.955246 -70.6745 53.06749c-38.196167 24.903084 -68.220276 60.12377 -103.48926 88.86079c-15.330383 12.491104 -34.068787 20.622482 -49.218323 33.3228c-15.17334 12.720261 -27.554565 29.52536 -45.433838 38.258972" fill-rule="evenodd"></path><path stroke="#cccccc" stroke-width="24.0" stroke-linejoin="round" stroke-linecap="round" d="m911.73206 45.189293c9.093933 -6.667656 -17.871521 13.748894 -26.501465 20.98236c-22.551453 18.902336 -45.96167 36.955246 -70.6745 53.06749c-38.196167 24.903084 -68.220276 60.12377 -103.48926 88.86079c-15.330383 12.491104 -34.068787 20.622482 -49.218323 33.3228c-15.17334 12.720261 -27.554565 29.52536 -45.433838 38.258972" fill-rule="evenodd"></path></g></svg>