<svg xmlns="http://www.w3.org/2000/svg" stroke-linecap="square" version="1.1" stroke-miterlimit="10" xmlns:xlink="http://www.w3.org/1999/xlink" viewBox="0.0 0.0 1333.3333333333333 266.6666666666667" fill="none">
 <clipPath id="p.0">
  <path d="m0 0h1333.3v266.67h-1333.3v-266.67z"/>
 </clipPath>
 <g clip-path="url(#p.0)">
  <path fill-opacity="0" d="m0 0h1333.3v266.67h-1333.3z" fill="#000"/>
  <path fill-rule="evenodd" fill-opacity="0" d="m859.6 138.35c52.51-9.8077 105.21-18.937 157.62-29.109 19.285-3.7432 38.161-8.765 57.09-13.551 7.2429-1.8311 14.356-4.0315 21.718-5.5209 1.9039-0.3852 5.5859 0.081825 5.5859-1.5055" fill="#000"/>
  <path stroke-linejoin="round" d="m859.6 138.35c52.51-9.8077 105.21-18.937 157.62-29.109 19.285-3.7432 38.161-8.765 57.09-13.551 7.2429-1.8311 14.356-4.0315 21.718-5.5209 1.9039-0.3852 5.5859 0.081825 5.5859-1.5055" fill-rule="evenodd" stroke="#ccc" stroke-linecap="round" stroke-width="12"/>
  <path fill-rule="evenodd" fill-opacity="0" d="m1081.8 17.413c0 19.803 5.2328 39.506 11.17 58.719 1.5122 4.8932 7.0507 12.259 1.8615 15.056-10.399 5.6056-24.436 4.2516-36.613 6.5241-28.07 5.2385-56.534 9.1271-84.393 15.057-28.916 6.1552-57.277 14.645-86.877 18.067-7.9122 0.91478-15.744 2.2443-23.581 3.5132-2.7209 0.44055-4.8129 3.7196-7.4459 3.011-2.0015-0.53871-0.89575-3.3357-1.2419-5.0187-1.6187-7.8675-1.2979-16.184-4.9634-23.588-10.372-20.95-16.863-43.116-22.341-65.244-1.6771-6.7753 0.71136-14.394-3.1019-20.577" fill="#000"/>
  <path stroke-linejoin="round" d="m1081.8 17.413c0 19.803 5.2328 39.506 11.17 58.719 1.5122 4.8932 7.0507 12.259 1.8615 15.056-10.399 5.6056-24.436 4.2516-36.613 6.5241-28.07 5.2385-56.534 9.1271-84.393 15.057-28.916 6.1552-57.277 14.645-86.877 18.067-7.9122 0.91478-15.744 2.2443-23.581 3.5132-2.7209 0.44055-4.8129 3.7196-7.4459 3.011-2.0015-0.53871-0.89575-3.3357-1.2419-5.0187-1.6187-7.8675-1.2979-16.184-4.9634-23.588-10.372-20.95-16.863-43.116-22.341-65.244-1.6771-6.7753 0.71136-14.394-3.1019-20.577" fill-rule="evenodd" stroke="#000" stroke-linecap="butt" stroke-width="2"/>
  <path fill-rule="evenodd" fill-opacity="0" d="m1131.4 105.23c-9.6274-5.8397-20.231-10.973-31.646-14.053-18.798-5.0719-38.388 7.9903-57.711 11.543-31.848 5.8549-64.363 10.3-94.944 19.574-19.213 5.8265-40.105 7.2994-59.571 12.547-6.1466 1.657-12.189 3.8661-18.618 4.5164-3.3094 0.33476-11.419-1.4095-9.9283 1.0032 2.0282 3.2819 7.2599 4.5614 9.9283 7.5286 8.0997 9.0068 15.16 18.601 22.341 28.104 8.4001 11.117 11.316 24.586 19.857 35.633 6.3265 8.183 12.093 16.762 19.858 24.09 3.2557 3.0723 12.449 10.54 7.4459 10.54" fill="#000"/>
  <path stroke-linejoin="round" d="m1131.4 105.23c-9.6274-5.8397-20.231-10.973-31.646-14.053-18.798-5.0719-38.388 7.9903-57.711 11.543-31.848 5.8549-64.363 10.3-94.944 19.574-19.213 5.8265-40.105 7.2994-59.571 12.547-6.1466 1.657-12.189 3.8661-18.618 4.5164-3.3094 0.33476-11.419-1.4095-9.9283 1.0032 2.0282 3.2819 7.2599 4.5614 9.9283 7.5286 8.0997 9.0068 15.16 18.601 22.341 28.104 8.4001 11.117 11.316 24.586 19.857 35.633 6.3265 8.183 12.093 16.762 19.858 24.09 3.2557 3.0723 12.449 10.54 7.4459 10.54" fill-rule="evenodd" stroke="#000" stroke-linecap="butt"/>
  <path fill-rule="evenodd" fill-opacity="0" d="m1055.1 242.23c40.24-14.215 79.146-30.884 116.03-49.685" fill="#000"/>
  <path stroke-linejoin="round" d="m1055.1 242.23c40.24-14.215 79.146-30.884 116.03-49.685" fill-rule="evenodd" stroke="#000" stroke-linecap="butt"/>
  <path fill-rule="evenodd" fill-opacity="0" d="m1307.6 130.82c-26.721-2.703-53.989-0.57094-80.672-3.5132-26.346-2.9052-52.002-9.1443-77.568-15.056-28.2-6.5209-60.122-0.98989-87.496 7.5274-7.6083 2.3673-18.517 5.0409-19.858 11.544-1.3312 6.4547 16.765 1.072 24.202-1.5055 15.632-5.4175 33.962-4.3818 50.884-3.0122 4.1368 0.33482 8.2532 1.0045 12.411 1.0045 1.8619 0 6.9031-1.0644 5.5858 0-2.3414 1.8921-6.7471 0.73505-9.9298 0-7.5812-1.7509-15.695-1.5055-23.579-1.5055-10.662 0-20.293 5.3007-30.407 8.0296-10.198 2.7514-26.156 4.4724-27.925 13.048-2.4589 11.922 29.735 3.011 44.68 3.011 27.43 0 59.389 6.5459 76.949 23.589 4.1112 3.9903 3.4049 10.017 4.9634 15.056 1.1089 3.5849 2.327 8.7316-1.2405 11.041-7.3176 4.7363-17.926 4.7708-26.063 8.5319-9.766 4.5137-26.994 17.629-17.995 23.087 7.021 4.2579 17.996-0.21585 26.062-3.0122 15.815-5.4829 31.165-11.911 45.92-19.07 13.589-6.5935 23.442-18.529 38.474-22.585 16.678-4.5 36.058 0.75098 52.126 6.5242 7.526 2.7041 18.654 2.576 22.341 8.5319" fill="#000"/>
  <path stroke-linejoin="round" d="m1307.6 130.82c-26.721-2.703-53.989-0.57094-80.672-3.5132-26.346-2.9052-52.002-9.1443-77.568-15.056-28.2-6.5209-60.122-0.98989-87.496 7.5274-7.6083 2.3673-18.517 5.0409-19.858 11.544-1.3312 6.4547 16.765 1.072 24.202-1.5055 15.632-5.4175 33.962-4.3818 50.884-3.0122 4.1368 0.33482 8.2532 1.0045 12.411 1.0045 1.8619 0 6.9031-1.0644 5.5858 0-2.3414 1.8921-6.7471 0.73505-9.9298 0-7.5812-1.7509-15.695-1.5055-23.579-1.5055-10.662 0-20.293 5.3007-30.407 8.0296-10.198 2.7514-26.156 4.4724-27.925 13.048-2.4589 11.922 29.735 3.011 44.68 3.011 27.43 0 59.389 6.5459 76.949 23.589 4.1112 3.9903 3.4049 10.017 4.9634 15.056 1.1089 3.5849 2.327 8.7316-1.2405 11.041-7.3176 4.7363-17.926 4.7708-26.063 8.5319-9.766 4.5137-26.994 17.629-17.995 23.087 7.021 4.2579 17.996-0.21585 26.062-3.0122 15.815-5.4829 31.165-11.911 45.92-19.07 13.589-6.5935 23.442-18.529 38.474-22.585 16.678-4.5 36.058 0.75098 52.126 6.5242 7.526 2.7041 18.654 2.576 22.341 8.5319" fill-rule="evenodd" stroke="#000" stroke-linecap="butt"/>
  <path fill-rule="evenodd" fill-opacity="0" d="m866.16 51.885c-3.3129 0.44688-9.8845 2.0909-8.3832 4.5206 2.376 3.8453 11.997 2.2234 13.973 6.2141 1.5413 3.1131-6.0736 7.7166-9.7815 6.2154" fill="#000"/>
  <path stroke-linejoin="round" d="m866.16 51.885c-3.3129 0.44688-9.8845 2.0909-8.3832 4.5206 2.376 3.8453 11.997 2.2234 13.973 6.2141 1.5413 3.1131-6.0736 7.7166-9.7815 6.2154" fill-rule="evenodd" stroke="#e60000" stroke-linecap="butt" stroke-width="2"/>
  <path fill-rule="evenodd" fill-opacity="0" d="m859.87 47.931c2.4766 6.8114 8.6919 12.731 9.7815 19.776 0.14734 0.95269 0.13983 3.5036-0.69916 2.8243" fill="#000"/>
  <path stroke-linejoin="round" d="m859.87 47.931c2.4766 6.8114 8.6919 12.731 9.7815 19.776 0.14734 0.95269 0.13983 3.5036-0.69916 2.8243" fill-rule="evenodd" stroke="#e60000" stroke-linecap="butt" stroke-width="2"/>
  <path fill-rule="evenodd" fill-opacity="0" d="m859.17 49.06c-1.0421 8.4227 11.178 15.266 11.178 23.731" fill="#000"/>
  <path stroke-linejoin="round" d="m859.17 49.06c-1.0421 8.4227 11.178 15.266 11.178 23.731" fill-rule="evenodd" stroke="#e60000" stroke-linecap="butt" stroke-width="2"/>
  <path fill-rule="evenodd" fill-opacity="0" d="m881.53 58.1c1.2333 2.2436 2.0103 6.9902 4.8907 6.214 3.858-1.0396 2.7932-6.3152 2.7932-9.6038" fill="#000"/>
  <path stroke-linejoin="round" d="m881.53 58.1c1.2333 2.2436 2.0103 6.9902 4.8907 6.214 3.858-1.0396 2.7932-6.3152 2.7932-9.6038" fill-rule="evenodd" stroke="#e60000" stroke-linecap="butt" stroke-width="2"/>
  <path fill-rule="evenodd" fill-opacity="0" d="m900.39 54.145c-2.7946 1.13-5.8007 4.6127-4.1932 6.7795 1.562 2.1055 1.9453-6.8099 4.8907-6.214 3.3583 0.67938 4.7706 4.0632 6.9865 6.214" fill="#000"/>
  <path stroke-linejoin="round" d="m900.39 54.145c-2.7946 1.13-5.8007 4.6127-4.1932 6.7795 1.562 2.1055 1.9453-6.8099 4.8907-6.214 3.3583 0.67938 4.7706 4.0632 6.9865 6.214" fill-rule="evenodd" stroke="#e60000" stroke-linecap="butt" stroke-width="2"/>
  <path fill-rule="evenodd" fill-opacity="0" d="m912.27 54.146c1.0479 2.5423 0.10785 2.9406 2.0958 5.0846 1.0476 1.1298-0.28699-1.4314 0-2.8243 0.62305-3.0245 4.2945-5.4096 7.6857-6.7808" fill="#000"/>
  <path stroke-linejoin="round" d="m912.27 54.146c1.0479 2.5423 0.10785 2.9406 2.0958 5.0846 1.0476 1.1298-0.28699-1.4314 0-2.8243 0.62305-3.0245 4.2945-5.4096 7.6857-6.7808" fill-rule="evenodd" stroke="#e60000" stroke-linecap="butt" stroke-width="2"/>
  <path fill-rule="evenodd" fill-opacity="0" d="m945.8 47.931c-2.7255 0.97954-7.1708 3.6047-5.5899 5.65 1.571 2.0325 5.4357-7.3804 6.2874-5.0846 1.1914 3.2119 4.5378 5.7276 7.6857 7.9103" fill="#000"/>
  <path stroke-linejoin="round" d="m945.8 47.931c-2.7255 0.97954-7.1708 3.6047-5.5899 5.65 1.571 2.0325 5.4357-7.3804 6.2874-5.0846 1.1914 3.2119 4.5378 5.7276 7.6857 7.9103" fill-rule="evenodd" stroke="#e60000" stroke-linecap="butt" stroke-width="2"/>
  <path fill-rule="evenodd" fill-opacity="0" d="m965.36 50.756c4.1411-0.7734 8.3264-1.6963 12.576-1.6963" fill="#000"/>
  <path stroke-linejoin="round" d="m965.36 50.756c4.1411-0.7734 8.3264-1.6963 12.576-1.6963" fill-rule="evenodd" stroke="#e60000" stroke-linecap="butt" stroke-width="2"/>
  <path fill-rule="evenodd" fill-opacity="0" d="m985.62 37.198c1.9139 4.2551 2.3844 8.9461 4.8907 12.995 0.98895 1.5975-2.8713-3.4118-2.0958-5.0846 1.6854-3.6354 9.6611-7.0776 13.274-4.5206 3.6469 2.5811-3.6328 8.8362-8.3848 9.6052" fill="#000"/>
  <path stroke-linejoin="round" d="m985.62 37.198c1.9139 4.2551 2.3844 8.9461 4.8907 12.995 0.98895 1.5975-2.8713-3.4118-2.0958-5.0846 1.6854-3.6354 9.6611-7.0776 13.274-4.5206 3.6469 2.5811-3.6328 8.8362-8.3848 9.6052" fill-rule="evenodd" stroke="#e60000" stroke-linecap="butt" stroke-width="2"/>
  <path fill-rule="evenodd" fill-opacity="0" d="m994.88 25.442c-0.15045 0.20276-0.32709 0.50224-0.61945 0.50224" fill="#000"/>
  <path stroke-linejoin="round" d="m994.88 25.442c-0.15045 0.20276-0.32709 0.50224-0.61945 0.50224" fill-rule="evenodd" stroke="#ccc" stroke-linecap="butt" stroke-width="2"/>
  <path fill-rule="evenodd" fill-opacity="0" d="m1053.8 142.36c-3.571 1.0832-11.383 3.842-8.6863 6.0231 2.7595 2.2319 9.9282-1.8623 9.9282-5.0187" fill="#000"/>
  <path stroke-linejoin="round" d="m1053.8 142.36c-3.571 1.0832-11.383 3.842-8.6863 6.0231 2.7595 2.2319 9.9282-1.8623 9.9282-5.0187" fill-rule="evenodd" stroke="#e60000" stroke-linecap="butt" stroke-width="4"/>
  <path fill-rule="evenodd" fill-opacity="0" d="m1053.8 125.11c-3.571 1.0832-11.383 3.842-8.6863 6.0231 2.7595 2.2319 9.9282-1.8623 9.9282-5.0187" fill="#000"/>
  <path stroke-linejoin="round" d="m1053.8 125.11c-3.571 1.0832-11.383 3.842-8.6863 6.0231 2.7595 2.2319 9.9282-1.8623 9.9282-5.0187" fill-rule="evenodd" stroke="#e60000" stroke-linecap="butt" stroke-width="4"/>
  <path fill-rule="evenodd" fill-opacity="0" d="m1133.7 218.64c-4.411 2.5938-11.447 8.0273-7.3394 10.846 4.2605 2.9232 14.805 0.59827 17.502-3.0984" fill="#000"/>
  <path stroke-linejoin="round" d="m1133.7 218.64c-4.411 2.5938-11.447 8.0273-7.3394 10.846 4.2605 2.9232 14.805 0.59827 17.502-3.0984" fill-rule="evenodd" stroke="#e60000" stroke-linecap="butt" stroke-width="8"/>
  <path fill-rule="evenodd" fill-opacity="0" d="m904.26 143.42c5.6118-1.6223 14.769-4.6684 18.136-1.1234 1.1245 1.184 5.4188 2.5804 3.7327 3.3702-4.0234 1.8847-10.091 5.1175-13.869 2.9963-2.7562-1.5478-5.3558-3.4015-6.9343-5.6179" fill="#000"/>
  <path stroke-linejoin="round" d="m904.26 143.42c5.6118-1.6223 14.769-4.6684 18.136-1.1234 1.1245 1.184 5.4188 2.5804 3.7327 3.3702-4.0234 1.8847-10.091 5.1175-13.869 2.9963-2.7562-1.5478-5.3558-3.4015-6.9343-5.6179" fill-rule="evenodd" stroke="#000" stroke-linecap="butt"/>
  <path fill-rule="evenodd" fill-opacity="0" d="m927.46 150.92c5.6118-1.6223 14.769-4.6684 18.136-1.1234 1.1245 1.184 5.4188 2.5804 3.7327 3.3702-4.0234 1.8847-10.091 5.1175-13.869 2.9963-2.7562-1.5478-5.3558-3.4015-6.9343-5.6178" fill="#000"/>
  <path stroke-linejoin="round" d="m927.46 150.92c5.6118-1.6223 14.769-4.6684 18.136-1.1234 1.1245 1.184 5.4188 2.5804 3.7327 3.3702-4.0234 1.8847-10.091 5.1175-13.869 2.9963-2.7562-1.5478-5.3558-3.4015-6.9343-5.6178" fill-rule="evenodd" stroke="#000" stroke-linecap="butt"/>
  <path fill-rule="evenodd" fill-opacity="0" d="m941.38 158.42c5.6118-1.6223 14.769-4.6684 18.136-1.1234 1.1245 1.184 5.4188 2.5804 3.7327 3.3702-4.0234 1.8847-10.091 5.1175-13.869 2.9963-2.7562-1.5478-5.3558-3.4016-6.9343-5.6179" fill="#000"/>
  <path stroke-linejoin="round" d="m941.38 158.42c5.6118-1.6223 14.769-4.6684 18.136-1.1234 1.1245 1.184 5.4188 2.5804 3.7327 3.3702-4.0234 1.8847-10.091 5.1175-13.869 2.9963-2.7562-1.5478-5.3558-3.4016-6.9343-5.6179" fill-rule="evenodd" stroke="#000" stroke-linecap="butt"/>
  <path fill-rule="evenodd" fill-opacity="0" d="m955.29 165.93c5.6118-1.6223 14.769-4.6684 18.136-1.1234 1.1245 1.184 5.4188 2.5804 3.7327 3.3702-4.0234 1.8847-10.091 5.1175-13.869 2.9963-2.7562-1.5478-5.3558-3.4015-6.9343-5.6179" fill="#000"/>
  <path stroke-linejoin="round" d="m955.29 165.93c5.6118-1.6223 14.769-4.6684 18.136-1.1234 1.1245 1.184 5.4188 2.5804 3.7327 3.3702-4.0234 1.8847-10.091 5.1175-13.869 2.9963-2.7562-1.5478-5.3558-3.4015-6.9343-5.6179" fill-rule="evenodd" stroke="#000" stroke-linecap="butt"/>
  <path fill-rule="evenodd" fill-opacity="0" d="m946.02 147.17c5.6118-1.6223 14.769-4.6684 18.136-1.1234 1.1245 1.184 5.4188 2.5804 3.7328 3.3702-4.0234 1.8847-10.091 5.1175-13.869 2.9963-2.7562-1.5478-5.3559-3.4015-6.9343-5.6178" fill="#000"/>
  <path stroke-linejoin="round" d="m946.02 147.17c5.6118-1.6223 14.769-4.6684 18.136-1.1234 1.1245 1.184 5.4188 2.5804 3.7328 3.3702-4.0234 1.8847-10.091 5.1175-13.869 2.9963-2.7562-1.5478-5.3559-3.4015-6.9343-5.6178" fill-rule="evenodd" stroke="#000" stroke-linecap="butt"/>
  <path fill-rule="evenodd" fill-opacity="0" d="m927.46 139.66c5.6118-1.6223 14.769-4.6684 18.136-1.1234 1.1245 1.184 5.4188 2.5804 3.7327 3.3702-4.0234 1.8847-10.091 5.1175-13.869 2.9963-2.7562-1.5478-5.3558-3.4015-6.9343-5.6179" fill="#000"/>
  <path stroke-linejoin="round" d="m927.46 139.66c5.6118-1.6223 14.769-4.6684 18.136-1.1234 1.1245 1.184 5.4188 2.5804 3.7327 3.3702-4.0234 1.8847-10.091 5.1175-13.869 2.9963-2.7562-1.5478-5.3558-3.4015-6.9343-5.6179" fill-rule="evenodd" stroke="#000" stroke-linecap="butt"/>
  <path fill-rule="evenodd" fill-opacity="0" d="m959.93 154.67c5.6118-1.6223 14.769-4.6684 18.136-1.1234 1.1245 1.184 5.4188 2.5804 3.7327 3.3702-4.0234 1.8847-10.091 5.1175-13.869 2.9963-2.7562-1.5478-5.3558-3.4015-6.9343-5.6178" fill="#000"/>
  <path stroke-linejoin="round" d="m959.93 154.67c5.6118-1.6223 14.769-4.6684 18.136-1.1234 1.1245 1.184 5.4188 2.5804 3.7327 3.3702-4.0234 1.8847-10.091 5.1175-13.869 2.9963-2.7562-1.5478-5.3558-3.4015-6.9343-5.6178" fill-rule="evenodd" stroke="#000" stroke-linecap="butt"/>
  <path fill-rule="evenodd" fill-opacity="0" d="m973.85 162.18c5.6118-1.6223 14.769-4.6684 18.136-1.1234 1.1245 1.184 5.4188 2.5804 3.7327 3.3702-4.0234 1.8847-10.091 5.1175-13.869 2.9963-2.7562-1.5478-5.3558-3.4015-6.9343-5.6179" fill="#000"/>
  <path stroke-linejoin="round" d="m973.85 162.18c5.6118-1.6223 14.769-4.6684 18.136-1.1234 1.1245 1.184 5.4188 2.5804 3.7327 3.3702-4.0234 1.8847-10.091 5.1175-13.869 2.9963-2.7562-1.5478-5.3558-3.4015-6.9343-5.6179" fill-rule="evenodd" stroke="#000" stroke-linecap="butt"/>
  <path fill-rule="evenodd" fill-opacity="0" d="m946.08 135.38c5.1783-1.4964 13.628-4.306 16.735-1.0362 1.0376 1.0921 5.0002 2.3801 3.4443 3.1086-3.7126 1.7384-9.3118 4.7203-12.797 2.7638-2.5433-1.4277-4.9421-3.1375-6.3986-5.1819" fill="#000"/>
  <path stroke-linejoin="round" d="m946.08 135.38c5.1783-1.4964 13.628-4.306 16.735-1.0362 1.0376 1.0921 5.0002 2.3801 3.4443 3.1086-3.7126 1.7384-9.3118 4.7203-12.797 2.7638-2.5433-1.4277-4.9421-3.1375-6.3986-5.1819" fill-rule="evenodd" stroke="#000" stroke-linecap="butt"/>
  <path fill-rule="evenodd" fill-opacity="0" d="m967.49 142.3c5.1783-1.4964 13.628-4.306 16.735-1.0362 1.0376 1.0921 5.0002 2.3801 3.4443 3.1086-3.7126 1.7384-9.3118 4.7203-12.797 2.7637-2.5433-1.4277-4.9421-3.1375-6.3986-5.1818" fill="#000"/>
  <path stroke-linejoin="round" d="m967.49 142.3c5.1783-1.4964 13.628-4.306 16.735-1.0362 1.0376 1.0921 5.0002 2.3801 3.4443 3.1086-3.7126 1.7384-9.3118 4.7203-12.797 2.7637-2.5433-1.4277-4.9421-3.1375-6.3986-5.1818" fill-rule="evenodd" stroke="#000" stroke-linecap="butt"/>
  <path fill-rule="evenodd" fill-opacity="0" d="m980.33 149.22c5.1783-1.4964 13.628-4.306 16.735-1.0362 1.0376 1.0921 5.0002 2.3801 3.4443 3.1086-3.7126 1.7384-9.3118 4.7203-12.797 2.7637-2.5433-1.4277-4.9421-3.1375-6.3986-5.1818" fill="#000"/>
  <path stroke-linejoin="round" d="m980.33 149.22c5.1783-1.4964 13.628-4.306 16.735-1.0362 1.0376 1.0921 5.0002 2.3801 3.4443 3.1086-3.7126 1.7384-9.3118 4.7203-12.797 2.7637-2.5433-1.4277-4.9421-3.1375-6.3986-5.1818" fill-rule="evenodd" stroke="#000" stroke-linecap="butt"/>
  <path fill-rule="evenodd" fill-opacity="0" d="m993.17 156.14c5.1783-1.4964 13.628-4.306 16.735-1.0362 1.0377 1.0921 5.0002 2.3801 3.4444 3.1086-3.7126 1.7384-9.3118 4.7203-12.797 2.7637-2.5433-1.4277-4.9421-3.1375-6.3986-5.1818" fill="#000"/>
  <path stroke-linejoin="round" d="m993.17 156.14c5.1783-1.4964 13.628-4.306 16.735-1.0362 1.0377 1.0921 5.0002 2.3801 3.4444 3.1086-3.7126 1.7384-9.3118 4.7203-12.797 2.7637-2.5433-1.4277-4.9421-3.1375-6.3986-5.1818" fill-rule="evenodd" stroke="#000" stroke-linecap="butt"/>
  <path fill-rule="evenodd" fill-opacity="0" d="m984.61 138.84c5.1782-1.4964 13.628-4.306 16.735-1.0362 1.0377 1.0921 5.0002 2.3801 3.4444 3.1086-3.7126 1.7384-9.3119 4.7203-12.797 2.7638-2.5433-1.4277-4.9421-3.1375-6.3986-5.1819" fill="#000"/>
  <path stroke-linejoin="round" d="m984.61 138.84c5.1782-1.4964 13.628-4.306 16.735-1.0362 1.0377 1.0921 5.0002 2.3801 3.4444 3.1086-3.7126 1.7384-9.3119 4.7203-12.797 2.7638-2.5433-1.4277-4.9421-3.1375-6.3986-5.1819" fill-rule="evenodd" stroke="#000" stroke-linecap="butt"/>
  <path fill-rule="evenodd" fill-opacity="0" d="m967.49 131.92c5.1783-1.4964 13.628-4.306 16.735-1.0362 1.0376 1.0921 5.0002 2.3801 3.4443 3.1086-3.7126 1.7384-9.3118 4.7203-12.797 2.7638-2.5433-1.4277-4.9421-3.1375-6.3986-5.1819" fill="#000"/>
  <path stroke-linejoin="round" d="m967.49 131.92c5.1783-1.4964 13.628-4.306 16.735-1.0362 1.0376 1.0921 5.0002 2.3801 3.4443 3.1086-3.7126 1.7384-9.3118 4.7203-12.797 2.7638-2.5433-1.4277-4.9421-3.1375-6.3986-5.1819" fill-rule="evenodd" stroke="#000" stroke-linecap="butt"/>
  <path fill-rule="evenodd" fill-opacity="0" d="m997.45 145.76c5.1782-1.4964 13.628-4.306 16.735-1.0362 1.0377 1.0921 5.0002 2.3801 3.4443 3.1086-3.7126 1.7384-9.3118 4.7203-12.797 2.7637-2.5432-1.4277-4.9421-3.1375-6.3986-5.1818" fill="#000"/>
  <path stroke-linejoin="round" d="m997.45 145.76c5.1782-1.4964 13.628-4.306 16.735-1.0362 1.0377 1.0921 5.0002 2.3801 3.4443 3.1086-3.7126 1.7384-9.3118 4.7203-12.797 2.7637-2.5432-1.4277-4.9421-3.1375-6.3986-5.1818" fill-rule="evenodd" stroke="#000" stroke-linecap="butt"/>
  <path fill-rule="evenodd" fill-opacity="0" d="m1010.3 152.68c5.1782-1.4964 13.628-4.306 16.735-1.0362 1.0376 1.0921 5.0002 2.3801 3.4443 3.1086-3.7126 1.7384-9.3118 4.7203-12.797 2.7637-2.5432-1.4277-4.9421-3.1375-6.3986-5.1818" fill="#000"/>
  <path stroke-linejoin="round" d="m1010.3 152.68c5.1782-1.4964 13.628-4.306 16.735-1.0362 1.0376 1.0921 5.0002 2.3801 3.4443 3.1086-3.7126 1.7384-9.3118 4.7203-12.797 2.7637-2.5432-1.4277-4.9421-3.1375-6.3986-5.1818" fill-rule="evenodd" stroke="#000" stroke-linecap="butt"/>
  <path fill-rule="evenodd" fill-opacity="0" d="m983.13 127.45c4.815-1.3916 12.672-4.0045 15.561-0.96364 0.96484 1.0156 4.6494 2.2134 3.2027 2.8909-3.4521 1.6167-8.6585 4.3897-11.899 2.5702-2.3648-1.3277-4.5953-2.9178-5.9496-4.819" fill="#000"/>
  <path stroke-linejoin="round" d="m983.13 127.45c4.815-1.3916 12.672-4.0045 15.561-0.96364 0.96484 1.0156 4.6494 2.2134 3.2027 2.8909-3.4521 1.6167-8.6585 4.3897-11.899 2.5702-2.3648-1.3277-4.5953-2.9178-5.9496-4.819" fill-rule="evenodd" stroke="#000" stroke-linecap="butt"/>
  <path fill-rule="evenodd" fill-opacity="0" d="m1003 133.88c4.815-1.3916 12.672-4.0045 15.561-0.96364 0.96484 1.0156 4.6494 2.2134 3.2027 2.8909-3.4521 1.6167-8.6585 4.3897-11.899 2.5702-2.3648-1.3277-4.5953-2.9178-5.9496-4.819" fill="#000"/>
  <path stroke-linejoin="round" d="m1003 133.88c4.815-1.3916 12.672-4.0045 15.561-0.96364 0.96484 1.0156 4.6494 2.2134 3.2027 2.8909-3.4521 1.6167-8.6585 4.3897-11.899 2.5702-2.3648-1.3277-4.5953-2.9178-5.9496-4.819" fill-rule="evenodd" stroke="#000" stroke-linecap="butt"/>
  <path fill-rule="evenodd" fill-opacity="0" d="m1015 140.32c4.8149-1.3916 12.672-4.0045 15.561-0.96362 0.96484 1.0156 4.6494 2.2134 3.2028 2.8909-3.4521 1.6167-8.6586 4.3897-11.899 2.5702-2.3648-1.3277-4.5953-2.9178-5.9496-4.819" fill="#000"/>
  <path stroke-linejoin="round" d="m1015 140.32c4.8149-1.3916 12.672-4.0045 15.561-0.96362 0.96484 1.0156 4.6494 2.2134 3.2028 2.8909-3.4521 1.6167-8.6586 4.3897-11.899 2.5702-2.3648-1.3277-4.5953-2.9178-5.9496-4.819" fill-rule="evenodd" stroke="#000" stroke-linecap="butt"/>
  <path fill-rule="evenodd" fill-opacity="0" d="m1026.6 147.97c3.8401-1.2391 10.106-3.5656 12.41-0.85803 0.76941 0.9043 3.7079 1.9708 2.5542 2.5741-2.7532 1.4395-6.9054 3.9086-9.49 2.2885-1.886-1.1822-3.6648-2.598-4.7449-4.2908" fill="#000"/>
  <path stroke-linejoin="round" d="m1026.6 147.97c3.8401-1.2391 10.106-3.5656 12.41-0.85803 0.76941 0.9043 3.7079 1.9708 2.5542 2.5741-2.7532 1.4395-6.9054 3.9086-9.49 2.2885-1.886-1.1822-3.6648-2.598-4.7449-4.2908" fill-rule="evenodd" stroke="#000" stroke-linecap="butt"/>
  <path fill-rule="evenodd" fill-opacity="0" d="m1019 130.66c4.8149-1.3916 12.672-4.0045 15.561-0.96364 0.96484 1.0156 4.6493 2.2134 3.2026 2.8909-3.4521 1.6167-8.6584 4.3897-11.899 2.5702-2.3649-1.3277-4.5954-2.9178-5.9497-4.819" fill="#000"/>
  <path stroke-linejoin="round" d="m1019 130.66c4.8149-1.3916 12.672-4.0045 15.561-0.96364 0.96484 1.0156 4.6493 2.2134 3.2026 2.8909-3.4521 1.6167-8.6584 4.3897-11.899 2.5702-2.3649-1.3277-4.5954-2.9178-5.9497-4.819" fill-rule="evenodd" stroke="#000" stroke-linecap="butt"/>
  <path fill-rule="evenodd" fill-opacity="0" d="m1003 124.23c4.815-1.3916 12.672-4.0045 15.561-0.96364 0.96484 1.0156 4.6494 2.2134 3.2027 2.8909-3.4521 1.6167-8.6585 4.3897-11.899 2.5702-2.3648-1.3277-4.5953-2.9178-5.9496-4.819" fill="#000"/>
  <path stroke-linejoin="round" d="m1003 124.23c4.815-1.3916 12.672-4.0045 15.561-0.96364 0.96484 1.0156 4.6494 2.2134 3.2027 2.8909-3.4521 1.6167-8.6585 4.3897-11.899 2.5702-2.3648-1.3277-4.5953-2.9178-5.9496-4.819" fill-rule="evenodd" stroke="#000" stroke-linecap="butt"/>
  <path fill-rule="evenodd" fill-opacity="0" d="m1030.9 137.1c4.8151-1.3916 12.672-4.0045 15.561-0.96364 0.96484 1.0156 4.6494 2.2134 3.2026 2.8909-3.452 1.6167-8.6584 4.3897-11.899 2.5702-2.3649-1.3277-4.5953-2.9178-5.9497-4.819" fill="#000"/>
  <path stroke-linejoin="round" d="m1030.9 137.1c4.8151-1.3916 12.672-4.0045 15.561-0.96364 0.96484 1.0156 4.6494 2.2134 3.2026 2.8909-3.452 1.6167-8.6584 4.3897-11.899 2.5702-2.3649-1.3277-4.5953-2.9178-5.9497-4.819" fill-rule="evenodd" stroke="#000" stroke-linecap="butt"/>
  <path fill-rule="evenodd" fill-opacity="0" d="m1019 119.94c4.7181-1.3638 12.417-3.9245 15.248-0.94437 0.94543 0.99531 4.5559 2.1692 3.1383 2.8331-3.3827 1.5844-8.4844 4.302-11.66 2.5189-2.3173-1.3012-4.5029-2.8595-5.83-4.7226" fill="#000"/>
  <path stroke-linejoin="round" d="m1019 119.94c4.7181-1.3638 12.417-3.9245 15.248-0.94437 0.94543 0.99531 4.5559 2.1692 3.1383 2.8331-3.3827 1.5844-8.4844 4.302-11.66 2.5189-2.3173-1.3012-4.5029-2.8595-5.83-4.7226" fill-rule="evenodd" stroke="#000" stroke-linecap="butt"/>
  <path fill-rule="evenodd" fill-opacity="0" d="m1035.9 116.7c3.8401-1.1098 10.106-3.1935 12.41-0.76846 0.76953 0.80991 3.708 1.7651 2.5543 2.3054-2.7532 1.2892-6.9054 3.5007-9.49 2.0497-1.886-1.0588-3.6648-2.3269-4.7449-3.843" fill="#000"/>
  <path stroke-linejoin="round" d="m1035.9 116.7c3.8401-1.1098 10.106-3.1935 12.41-0.76846 0.76953 0.80991 3.708 1.7651 2.5543 2.3054-2.7532 1.2892-6.9054 3.5007-9.49 2.0497-1.886-1.0588-3.6648-2.3269-4.7449-3.843" fill-rule="evenodd" stroke="#000" stroke-linecap="butt"/>
  <path fill-rule="evenodd" fill-opacity="0" d="m1050.1 114.04c3.2885-0.94984 8.6545-2.7332 10.628-0.65772 0.65894 0.6932 3.1753 1.5107 2.1873 1.9732-2.3577 1.1035-5.9133 2.9962-8.1266 1.7543-1.6151-0.90623-3.1384-1.9915-4.0634-3.2892" fill="#000"/>
  <path stroke-linejoin="round" d="m1050.1 114.04c3.2885-0.94984 8.6545-2.7332 10.628-0.65772 0.65894 0.6932 3.1753 1.5107 2.1873 1.9732-2.3577 1.1035-5.9133 2.9962-8.1266 1.7543-1.6151-0.90623-3.1384-1.9915-4.0634-3.2892" fill-rule="evenodd" stroke="#000" stroke-linecap="butt"/>
  <path fill-rule="evenodd" fill-opacity="0" d="m1011.6 161.96c11.21-3.6265 22.503-7.241 34.214-9.6151" fill="#000"/>
  <path stroke-linejoin="round" d="m1011.6 161.96c11.21-3.6265 22.503-7.241 34.214-9.6151" fill-rule="evenodd" stroke="#000" stroke-linecap="butt"/>
  <path fill-rule="evenodd" fill-opacity="0" d="m1011.9 162.19c3.6072 1.4587 6.2801 4.191 8.6985 6.8011" fill="#000"/>
  <path stroke-linejoin="round" d="m1011.9 162.19c3.6072 1.4587 6.2801 4.191 8.6985 6.8011" fill-rule="evenodd" stroke="#000" stroke-linecap="butt"/>
  <path fill-rule="evenodd" fill-opacity="0" d="m1021.2 169.23c19.734-8.5891 42.403-11.791 63.209-18.525" fill="#000"/>
  <path stroke-linejoin="round" d="m1021.2 169.23c19.734-8.5891 42.403-11.791 63.209-18.525" fill-rule="evenodd" stroke="#000" stroke-linecap="butt"/>
  <path fill-rule="evenodd" fill-opacity="0" d="m968.97 173.92c11.375-4.5976 24.58-5.7185 35.954-10.318" fill="#000"/>
  <path stroke-linejoin="round" d="m968.97 173.92c11.375-4.5976 24.58-5.7185 35.954-10.318" fill-rule="evenodd" stroke="#000" stroke-linecap="butt"/>
  <path fill-rule="evenodd" fill-opacity="0" d="m1005.5 164.07c3.634 1.6332 7.2093 3.4856 10.149 5.8631" fill="#000"/>
  <path stroke-linejoin="round" d="m1005.5 164.07c3.634 1.6332 7.2093 3.4856 10.149 5.8631" fill-rule="evenodd" stroke="#000" stroke-linecap="butt"/>
  <path fill-rule="evenodd" fill-opacity="0" d="m1016.5 170.16c-13.28 2.8282-26.28 6.7581-38.563 11.725" fill="#000"/>
  <path stroke-linejoin="round" d="m1016.5 170.16c-13.28 2.8282-26.28 6.7581-38.563 11.725" fill-rule="evenodd" stroke="#000" stroke-linecap="butt"/>
  <path fill-rule="evenodd" fill-opacity="0" d="m979.12 181.89c-4.486-1.208-8.6144-4.0838-10.729-7.504" fill="#000"/>
  <path stroke-linejoin="round" d="m979.12 181.89c-4.486-1.208-8.6144-4.0838-10.729-7.504" fill-rule="evenodd" stroke="#000" stroke-linecap="butt"/>
  <path fill-rule="evenodd" fill-opacity="0" d="m1103.6 155.11c-18.635 5.4776-37.285 10.926-55.848 16.561-7.1051 2.1568-14.673 3.2419-21.72 5.5209-2.4965 0.80743-8.2961 0.44579-7.4459 2.5087 1.7853 4.3315 10.104 4.1044 14.892 6.5241 7.6885 3.8861 14.796 8.4807 22.341 12.547 9.7079 5.2328 16.485 18.915 27.925 17.064 8.2561-1.3361 14.808-6.4898 22.339-9.5351 9.3114-3.7654 19.688-5.551 29.165-9.0341 10.552-3.8781 18.18-11.864 28.545-16.06" fill="#000"/>
  <path stroke-linejoin="round" d="m1103.6 155.11c-18.635 5.4776-37.285 10.926-55.848 16.561-7.1051 2.1568-14.673 3.2419-21.72 5.5209-2.4965 0.80743-8.2961 0.44579-7.4459 2.5087 1.7853 4.3315 10.104 4.1044 14.892 6.5241 7.6885 3.8861 14.796 8.4807 22.341 12.547 9.7079 5.2328 16.485 18.915 27.925 17.064 8.2561-1.3361 14.808-6.4898 22.339-9.5351 9.3114-3.7654 19.688-5.551 29.165-9.0341 10.552-3.8781 18.18-11.864 28.545-16.06" fill-rule="evenodd" stroke="#ccc" stroke-linecap="round" stroke-width="8"/>
  <path fill-rule="evenodd" fill-opacity="0" d="m854.63 137.34c-2.3126 0.37445-4.7158 0.6541-6.8264 1.5055" fill="#000"/>
  <path stroke-linejoin="round" d="m854.63 137.34c-2.3126 0.37445-4.7158 0.6541-6.8264 1.5055" fill-rule="evenodd" stroke="#000" stroke-linecap="butt"/>
  <path fill-rule="evenodd" fill-opacity="0" d="m847.18 138.36c-1.1847-6.2243-5.0756-11.932-6.8264-18.068-4.6158-16.178-6.1248-33.046-13.032-48.681-7.0432-15.943-22.384-34.539-13.032-49.686" fill="#000"/>
  <path stroke-linejoin="round" d="m847.18 138.36c-1.1847-6.2243-5.0756-11.932-6.8264-18.068-4.6158-16.178-6.1248-33.046-13.032-48.681-7.0432-15.943-22.384-34.539-13.032-49.686" fill-rule="evenodd" stroke="#000" stroke-linecap="butt"/>
  <path fill-rule="evenodd" fill-opacity="0" d="m858.98 141.36c-1.259-3.0524-1.1594 7.4412 1.8615 9.5351 8.8428 6.1293 11.567 16.5 19.237 23.588 11.942 11.036 18.371 25.601 23.581 39.648 4.3682 11.777 18.643 19.617 25.443 30.614" fill="#000"/>
  <path stroke-linejoin="round" d="m858.98 141.36c-1.259-3.0524-1.1594 7.4412 1.8615 9.5351 8.8428 6.1293 11.567 16.5 19.237 23.588 11.942 11.036 18.371 25.601 23.581 39.648 4.3682 11.777 18.643 19.617 25.443 30.614" fill-rule="evenodd" stroke="#000" stroke-linecap="butt"/>
  <path fill-rule="evenodd" fill-opacity="0" d="m17.223 249.86c19.94 1.9212 40.714-0.18248 60.997 0.51562 70.163 2.4148 140.54-3.0286 210.81-4.6368 58.897-1.3481 117.6 5.1524 176.57 5.1524 128.09 0 256.13-6.6281 384.16-4.6381 104.11 1.6182 208.3-2.06 312.46-2.06 37.48 0 75.009 3.5596 112.36 2.06 12.568-0.50459 25.22 1.1024 37.454 2.5769 2.1046 0.25365 5.4501 1.4501 6.4199 0.51561 8.3156-8.0128-5.827-17.867-4.2809-26.793 1.3501-7.7947 6.4794-15.38 7.4908-23.187 2.2928-17.696-7.4908-35.339-7.4908-53.07 0-17.004 2.2822-34.082-1.0682-51.01-2.1387-10.805-8.5393-21.715-5.3517-32.46 4.0465-13.64 9.5826-27.526 6.4199-41.221-0.67139-2.9069 3.7861-6.1429 1.0709-8.7593-1.47-1.4164-6.6887 0.32314-9.63 1.0312-11.454 2.7577-24.718 3.476-37.454 4.1212-34.772 1.7616-70.155 0.97718-104.87-1.03-42.854-2.4778-86.335 0.061834-129.48-0.51562-86.647-1.1597-173.35 1.0312-260.03 1.0312-134.57 0-268.92-9.1729-403.43-7.2137-45.162 0.65783-89.835 4.7271-134.83 6.698-28.42 1.2449-57.118 1.3231-85.606 0.51562-31.763-0.9003-63.933-5.8316-95.239-3.0925-13.41 1.1733-29.326-5.7036-40.664-2.0612-5.638 1.8113-1.249 6.5829 0 9.7905 3.4583 8.8815 8.5617 17.757 8.5617 26.793 0 25.248-4.5611 50.549-1.0709 75.741 1.0482 7.5654 8.2453 14.666 10.701 22.155 7.4785 22.81-4.4799 46.22-11.769 69.044-2.4493 7.6692-1.119 15.578-4.2808 23.187-1.546 3.7201-4.4176 9.231 2.1391 11.335" fill="#000"/>
  <path stroke-linejoin="round" d="m17.223 249.86c19.94 1.9212 40.714-0.18248 60.997 0.51562 70.163 2.4148 140.54-3.0286 210.81-4.6368 58.897-1.3481 117.6 5.1524 176.57 5.1524 128.09 0 256.13-6.6281 384.16-4.6381 104.11 1.6182 208.3-2.06 312.46-2.06 37.48 0 75.009 3.5596 112.36 2.06 12.568-0.50459 25.22 1.1024 37.454 2.5769 2.1046 0.25365 5.4501 1.4501 6.4199 0.51561 8.3156-8.0128-5.827-17.867-4.2809-26.793 1.3501-7.7947 6.4794-15.38 7.4908-23.187 2.2928-17.696-7.4908-35.339-7.4908-53.07 0-17.004 2.2822-34.082-1.0682-51.01-2.1387-10.805-8.5393-21.715-5.3517-32.46 4.0465-13.64 9.5826-27.526 6.4199-41.221-0.67139-2.9069 3.7861-6.1429 1.0709-8.7593-1.47-1.4164-6.6887 0.32314-9.63 1.0312-11.454 2.7577-24.718 3.476-37.454 4.1212-34.772 1.7616-70.155 0.97718-104.87-1.03-42.854-2.4778-86.335 0.061834-129.48-0.51562-86.647-1.1597-173.35 1.0312-260.03 1.0312-134.57 0-268.92-9.1729-403.43-7.2137-45.162 0.65783-89.835 4.7271-134.83 6.698-28.42 1.2449-57.118 1.3231-85.606 0.51562-31.763-0.9003-63.933-5.8316-95.239-3.0925-13.41 1.1733-29.326-5.7036-40.664-2.0612-5.638 1.8113-1.249 6.5829 0 9.7905 3.4583 8.8815 8.5617 17.757 8.5617 26.793 0 25.248-4.5611 50.549-1.0709 75.741 1.0482 7.5654 8.2453 14.666 10.701 22.155 7.4785 22.81-4.4799 46.22-11.769 69.044-2.4493 7.6692-1.119 15.578-4.2808 23.187-1.546 3.7201-4.4176 9.231 2.1391 11.335" fill-rule="evenodd" stroke="#888" stroke-linecap="butt" stroke-width="4"/>
  <path fill-rule="evenodd" fill-opacity="0" d="m1063.7 110c3.8951-0.88958 10.252-2.5598 12.589-0.61599 0.78052 0.64922 3.7612 1.4149 2.5908 1.848-2.7926 1.0334-7.0045 2.8061-9.6262 1.643-1.9131-0.84873-3.7175-1.8652-4.8131-3.0805" fill="#000"/>
  <path stroke-linejoin="round" d="m1063.7 110c3.8951-0.88958 10.252-2.5598 12.589-0.61599 0.78052 0.64922 3.7612 1.4149 2.5908 1.848-2.7926 1.0334-7.0045 2.8061-9.6262 1.643-1.9131-0.84873-3.7175-1.8652-4.8131-3.0805" fill-rule="evenodd" stroke="#000" stroke-linecap="butt"/>
  <path fill-rule="evenodd" fill-opacity="0" d="m1078.1 107.88c3.3334-0.76164 8.7731-2.1917 10.773-0.5274 0.66797 0.55585 3.2188 1.2114 2.2173 1.5822-2.39 0.88481-5.9944 2.4025-8.238 1.4067-1.6372-0.72666-3.1814-1.5969-4.1189-2.6374" fill="#000"/>
  <path stroke-linejoin="round" d="m1078.1 107.88c3.3334-0.76164 8.7731-2.1917 10.773-0.5274 0.66797 0.55585 3.2188 1.2114 2.2173 1.5822-2.39 0.88481-5.9944 2.4025-8.238 1.4067-1.6372-0.72666-3.1814-1.5969-4.1189-2.6374" fill-rule="evenodd" stroke="#000" stroke-linecap="butt"/>
  <path fill-rule="evenodd" fill-opacity="0" d="m965.36 46.533c4.1411-0.7734 8.3264-1.6963 12.576-1.6963" fill="#000"/>
  <path stroke-linejoin="round" d="m965.36 46.533c4.1411-0.7734 8.3264-1.6963 12.576-1.6963" fill-rule="evenodd" stroke="#e60000" stroke-linecap="butt" stroke-width="2"/>
 </g>
</svg>