<svg version="1.1" viewBox="0.0 0.0 1333.3333333333333 533.3333333333334" fill="none" stroke="none" stroke-linecap="square" stroke-miterlimit="10" xmlns="http://www.w3.org/2000/svg" xmlns:xlink="http://www.w3.org/1999/xlink"><clipPath id="p.0"><path d="m0 0l1333.3334 0l0 533.3333l-1333.3334 0l0 -533.3333z" clip-rule="nonzero"></path></clipPath><g clip-path="url(#p.0)"><path fill="#000000" fill-opacity="0.0" d="m0 0l1333.3334 0l0 533.3333l-1333.3334 0z" fill-rule="nonzero"></path><path fill="#000000" fill-opacity="0.0" d="m540.3963 277.15485c90.549805 -20.911865 181.43604 -40.378204 271.80316 -62.065613c33.25598 -7.9811707 65.80615 -18.68872 98.44885 -28.89238c12.48999 -3.9042053 24.756653 -8.596008 37.451416 -11.771652c3.2832642 -0.8213196 9.632568 0.17445374 9.632568 -3.2099762" fill-rule="evenodd"></path><path stroke="#cccccc" stroke-width="12.0" stroke-linejoin="round" stroke-linecap="round" d="m540.3963 277.15485c90.549805 -20.911865 181.43604 -40.378204 271.80316 -62.065613c33.25598 -7.9811707 65.80615 -18.68872 98.44885 -28.89238c12.48999 -3.9042053 24.756653 -8.596008 37.451416 -11.771652c3.2832642 -0.8213196 9.632568 0.17445374 9.632568 -3.2099762" fill-rule="evenodd"></path><path fill="#000000" fill-opacity="0.0" d="m923.48816 19.262466c0 42.224205 9.023621 84.23549 19.262512 125.19948c2.607727 10.433182 12.158508 26.137878 3.209961 32.102356c-17.932007 11.952255 -42.13806 9.065277 -63.136475 13.910767c-48.40448 11.169556 -97.48981 19.46083 -145.53021 32.10498c-49.864136 13.124176 -98.7702 31.22528 -149.81366 38.52231c-13.643982 1.950531 -27.149414 4.785248 -40.664 7.490814c-4.6920776 0.93933105 -8.299561 7.930908 -12.839905 6.4199524c-3.451538 -1.1486511 -1.5446777 -7.1124573 -2.1417236 -10.700775c-2.7912598 -16.775055 -2.237976 -34.50673 -8.559082 -50.293976c-17.88501 -44.668762 -29.07965 -91.93278 -38.524902 -139.11285c-2.8921204 -14.446312 1.2267456 -30.689995 -5.3490906 -43.874016" fill-rule="evenodd"></path><path stroke="#000000" stroke-width="2.0" stroke-linejoin="round" stroke-linecap="butt" d="m923.48816 19.262466c0 42.224205 9.023621 84.23549 19.262512 125.19948c2.607727 10.433182 12.158508 26.137878 3.209961 32.102356c-17.932007 11.952255 -42.13806 9.065277 -63.136475 13.910767c-48.40448 11.169556 -97.48981 19.46083 -145.53021 32.10498c-49.864136 13.124176 -98.7702 31.22528 -149.81366 38.52231c-13.643982 1.950531 -27.149414 4.785248 -40.664 7.490814c-4.6920776 0.93933105 -8.299561 7.930908 -12.839905 6.4199524c-3.451538 -1.1486511 -1.5446777 -7.1124573 -2.1417236 -10.700775c-2.7912598 -16.775055 -2.237976 -34.50673 -8.559082 -50.293976c-17.88501 -44.668762 -29.07965 -91.93278 -38.524902 -139.11285c-2.8921204 -14.446312 1.2267456 -30.689995 -5.3490906 -43.874016" fill-rule="evenodd"></path><path fill="#000000" fill-opacity="0.0" d="m1009.0947 206.52771c-16.601807 -12.45137 -34.886414 -23.395966 -54.572205 -29.963242c-32.41626 -10.814285 -66.19714 17.036896 -99.51965 24.611542c-54.919006 12.48381 -110.989685 21.96141 -163.72443 41.73491c-33.131958 12.423218 -69.158325 15.563721 -102.72699 26.753265c-10.599365 3.533142 -21.018677 8.243286 -32.10504 9.629944c-5.706787 0.71377563 -19.691895 -3.0054321 -17.120728 2.1390991c3.4974365 6.9977417 12.519287 9.72583 17.120728 16.05249c13.967529 19.204254 26.142273 39.66156 38.524963 59.92389c14.485291 23.702942 19.514282 52.422943 34.241455 75.97638c10.909546 17.447815 20.85315 35.740234 34.24408 51.364838c5.614197 6.550659 21.467224 22.472443 12.839905 22.472443" fill-rule="evenodd"></path><path stroke="#000000" stroke-width="1.0" stroke-linejoin="round" stroke-linecap="butt" d="m1009.0947 206.52771c-16.601807 -12.45137 -34.886414 -23.395966 -54.572205 -29.963242c-32.41626 -10.814285 -66.19714 17.036896 -99.51965 24.611542c-54.919006 12.48381 -110.989685 21.96141 -163.72443 41.73491c-33.131958 12.423218 -69.158325 15.563721 -102.72699 26.753265c-10.599365 3.533142 -21.018677 8.243286 -32.10504 9.629944c-5.706787 0.71377563 -19.691895 -3.0054321 -17.120728 2.1390991c3.4974365 6.9977417 12.519287 9.72583 17.120728 16.05249c13.967529 19.204254 26.142273 39.66156 38.524963 59.92389c14.485291 23.702942 19.514282 52.422943 34.241455 75.97638c10.909546 17.447815 20.85315 35.740234 34.24408 51.364838c5.614197 6.550659 21.467224 22.472443 12.839905 22.472443" fill-rule="evenodd"></path><path fill="#000000" fill-opacity="0.0" d="m861.42255 513.64307c74.96265 -34.595978 147.43951 -75.16107 216.1601 -120.91867" fill-rule="evenodd"></path><path stroke="#000000" stroke-width="1.0" stroke-linejoin="round" stroke-linecap="butt" d="m861.42255 513.64307c74.96265 -34.595978 147.43951 -75.16107 216.1601 -120.91867" fill-rule="evenodd"></path><path fill="#000000" fill-opacity="0.0" d="m1313.0017 261.102c-46.0791 -5.7634277 -93.10034 -1.2173462 -139.1128 -7.4908295c-45.43286 -6.194458 -89.67456 -19.49736 -133.76123 -32.102356c-48.62903 -13.903763 -103.67694 -2.1106567 -150.88184 16.049866c-13.120056 5.0475006 -31.931213 10.7482605 -34.24408 24.614182c-2.2956543 13.762573 28.910095 2.285736 41.734924 -3.2099915c26.955994 -11.5512085 58.564392 -9.342804 87.74536 -6.4225616c7.13385 0.71391296 14.232117 2.141739 21.401611 2.141739c3.2108154 0 11.90387 -2.2694855 9.632507 0c-4.0376587 4.034363 -11.634949 1.5672913 -17.123352 0c-13.073364 -3.7332916 -27.06543 -3.2099762 -40.661377 -3.2099762c-18.386658 0 -34.99402 11.302078 -52.43573 17.120743c-17.585266 5.8665466 -45.104797 9.536102 -48.154846 27.821503c-4.2401733 25.420227 51.275818 6.4199524 77.04724 6.4199524c47.30182 0 102.412476 13.957123 132.69287 50.2966c7.0894775 8.508026 5.871582 21.358795 8.559082 32.102356c1.9121094 7.6436768 4.0126953 18.617462 -2.139038 23.54068c-12.6188965 10.098755 -30.912476 10.172333 -44.944946 18.19159c-16.84076 9.6241455 -46.55005 37.589172 -31.031494 49.22574c12.107239 9.078583 31.033447 -0.4602356 44.94226 -6.422577c27.27185 -11.690674 53.74231 -25.39624 79.1864 -40.661407c23.432983 -14.058655 40.424194 -39.50705 66.346436 -48.154877c28.760864 -9.594788 62.17932 1.6012268 89.887085 13.910767c12.9782715 5.765747 32.167725 5.4926453 38.525024 18.19162" fill-rule="evenodd"></path><path stroke="#000000" stroke-width="1.0" stroke-linejoin="round" stroke-linecap="butt" d="m1313.0017 261.102c-46.0791 -5.7634277 -93.10034 -1.2173462 -139.1128 -7.4908295c-45.43286 -6.194458 -89.67456 -19.49736 -133.76123 -32.102356c-48.62903 -13.903763 -103.67694 -2.1106567 -150.88184 16.049866c-13.120056 5.0475006 -31.931213 10.7482605 -34.24408 24.614182c-2.2956543 13.762573 28.910095 2.285736 41.734924 -3.2099915c26.955994 -11.5512085 58.564392 -9.342804 87.74536 -6.4225616c7.13385 0.71391296 14.232117 2.141739 21.401611 2.141739c3.2108154 0 11.90387 -2.2694855 9.632507 0c-4.0376587 4.034363 -11.634949 1.5672913 -17.123352 0c-13.073364 -3.7332916 -27.06543 -3.2099762 -40.661377 -3.2099762c-18.386658 0 -34.99402 11.302078 -52.43573 17.120743c-17.585266 5.8665466 -45.104797 9.536102 -48.154846 27.821503c-4.2401733 25.420227 51.275818 6.4199524 77.04724 6.4199524c47.30182 0 102.412476 13.957123 132.69287 50.2966c7.0894775 8.508026 5.871582 21.358795 8.559082 32.102356c1.9121094 7.6436768 4.0126953 18.617462 -2.139038 23.54068c-12.6188965 10.098755 -30.912476 10.172333 -44.944946 18.19159c-16.84076 9.6241455 -46.55005 37.589172 -31.031494 49.22574c12.107239 9.078583 31.033447 -0.4602356 44.94226 -6.422577c27.27185 -11.690674 53.74231 -25.39624 79.1864 -40.661407c23.432983 -14.058655 40.424194 -39.50705 66.346436 -48.154877c28.760864 -9.594788 62.17932 1.6012268 89.887085 13.910767c12.9782715 5.765747 32.167725 5.4926453 38.525024 18.19162" fill-rule="evenodd"></path><path fill="#000000" fill-opacity="0.0" d="m551.71246 92.77328c-5.711914 0.9527664 -17.042297 4.4577713 -14.453857 9.637886c4.0966187 8.198196 20.68518 4.7402954 24.091736 13.24839c2.6574707 6.6371155 -10.471802 16.451775 -16.864807 13.25135" fill-rule="evenodd"></path><path stroke="#e60000" stroke-width="2.0" stroke-linejoin="round" stroke-linecap="butt" d="m551.71246 92.77328c-5.711914 0.9527664 -17.042297 4.4577713 -14.453857 9.637886c4.0966187 8.198196 20.68518 4.7402954 24.091736 13.24839c2.6574707 6.6371155 -10.471802 16.451775 -16.864807 13.25135" fill-rule="evenodd"></path><path fill="#000000" fill-opacity="0.0" d="m540.8722 84.34073c4.2700195 14.521866 14.986206 27.142433 16.864807 42.16204c0.25408936 2.0311508 0.24108887 7.46978 -1.2054443 6.0214615" fill-rule="evenodd"></path><path stroke="#e60000" stroke-width="2.0" stroke-linejoin="round" stroke-linecap="butt" d="m540.8722 84.34073c4.2700195 14.521866 14.986206 27.142433 16.864807 42.16204c0.25408936 2.0311508 0.24108887 7.46978 -1.2054443 6.0214615" fill-rule="evenodd"></path><path fill="#000000" fill-opacity="0.0" d="m539.6667 86.748764c-1.7966309 17.957321 19.272827 32.547478 19.272827 50.59445" fill-rule="evenodd"></path><path stroke="#e60000" stroke-width="2.0" stroke-linejoin="round" stroke-linecap="butt" d="m539.6667 86.748764c-1.7966309 17.957321 19.272827 32.547478 19.272827 50.59445" fill-rule="evenodd"></path><path fill="#000000" fill-opacity="0.0" d="m578.21594 106.02473c2.1264038 4.783432 3.4660645 14.903168 8.432373 13.248398c6.6518555 -2.2163696 4.815979 -13.463966 4.815979 -20.475334" fill-rule="evenodd"></path><path stroke="#e60000" stroke-width="2.0" stroke-linejoin="round" stroke-linecap="butt" d="m578.21594 106.02473c2.1264038 4.783432 3.4660645 14.903168 8.432373 13.248398c6.6518555 -2.2163696 4.815979 -13.463966 4.815979 -20.475334" fill-rule="evenodd"></path><path fill="#000000" fill-opacity="0.0" d="m610.7413 97.5923c-4.8183594 2.409172 -10.001404 9.834389 -7.2299194 14.453865c2.6931152 4.4888763 3.354126 -14.518745 8.432434 -13.24839c5.790222 1.4484406 8.225159 8.662842 12.045837 13.24839" fill-rule="evenodd"></path><path stroke="#e60000" stroke-width="2.0" stroke-linejoin="round" stroke-linecap="butt" d="m610.7413 97.5923c-4.8183594 2.409172 -10.001404 9.834389 -7.2299194 14.453865c2.6931152 4.4888763 3.354126 -14.518745 8.432434 -13.24839c5.790222 1.4484406 8.225159 8.662842 12.045837 13.24839" fill-rule="evenodd"></path><path fill="#000000" fill-opacity="0.0" d="m631.21924 97.59214c1.8067627 5.4201965 0.18585205 6.269348 3.6134644 10.840401c1.8062134 2.40876 -0.49475098 -3.0516586 0 -6.0214615c1.0742798 -6.448181 7.404419 -11.533363 13.251343 -14.456825" fill-rule="evenodd"></path><path stroke="#e60000" stroke-width="2.0" stroke-linejoin="round" stroke-linecap="butt" d="m631.21924 97.59214c1.8067627 5.4201965 0.18585205 6.269348 3.6134644 10.840401c1.8062134 2.40876 -0.49475098 -3.0516586 0 -6.0214615c1.0742798 -6.448181 7.404419 -11.533363 13.251343 -14.456825" fill-rule="evenodd"></path><path fill="#000000" fill-opacity="0.0" d="m689.04 84.34073c-4.6991577 2.088379 -12.363525 7.685341 -9.637878 12.045876c2.7086792 4.3333054 9.372131 -15.73513 10.840454 -10.840401c2.0541992 6.8478928 7.8237915 12.211288 13.251343 16.864815" fill-rule="evenodd"></path><path stroke="#e60000" stroke-width="2.0" stroke-linejoin="round" stroke-linecap="butt" d="m689.04 84.34073c-4.6991577 2.088379 -12.363525 7.685341 -9.637878 12.045876c2.7086792 4.3333054 9.372131 -15.73513 10.840454 -10.840401c2.0541992 6.8478928 7.8237915 12.211288 13.251343 16.864815" fill-rule="evenodd"></path><path fill="#000000" fill-opacity="0.0" d="m722.7688 90.36518c7.1398315 -1.6488953 14.356018 -3.616417 21.683777 -3.616417" fill-rule="evenodd"></path><path stroke="#e60000" stroke-width="2.0" stroke-linejoin="round" stroke-linecap="butt" d="m722.7688 90.36518c7.1398315 -1.6488953 14.356018 -3.616417 21.683777 -3.616417" fill-rule="evenodd"></path><path fill="#000000" fill-opacity="0.0" d="m757.70447 61.454067c3.2998047 9.071865 4.111084 19.073124 8.432434 27.70522c1.7050781 3.4059753 -4.9506226 -7.2738953 -3.6134644 -10.840401c2.9059448 -7.7507706 16.657349 -15.089409 22.886292 -9.637886c6.2877197 5.5029526 -6.26355 18.838829 -14.456848 20.478287" fill-rule="evenodd"></path><path stroke="#e60000" stroke-width="2.0" stroke-linejoin="round" stroke-linecap="butt" d="m757.70447 61.454067c3.2998047 9.071865 4.111084 19.073124 8.432434 27.70522c1.7050781 3.4059753 -4.9506226 -7.2738953 -3.6134644 -10.840401c2.9059448 -7.7507706 16.657349 -15.089409 22.886292 -9.637886c6.2877197 5.5029526 -6.26355 18.838829 -14.456848 20.478287" fill-rule="evenodd"></path><path fill="#000000" fill-opacity="0.0" d="m773.67456 36.3832c-0.25946045 0.43232346 -0.5640869 1.0708656 -1.0682373 1.0708656" fill-rule="evenodd"></path><path stroke="#cccccc" stroke-width="2.0" stroke-linejoin="round" stroke-linecap="butt" d="m773.67456 36.3832c-0.25946045 0.43232346 -0.5640869 1.0708656 -1.0682373 1.0708656" fill-rule="evenodd"></path><path fill="#000000" fill-opacity="0.0" d="m875.3323 285.7139c-6.158081 2.3095398 -19.629578 8.191956 -14.979004 12.842529c4.758789 4.758789 17.120728 -3.9708557 17.120728 -10.700775" fill-rule="evenodd"></path><path stroke="#e60000" stroke-width="4.0" stroke-linejoin="round" stroke-linecap="butt" d="m875.3323 285.7139c-6.158081 2.3095398 -19.629578 8.191956 -14.979004 12.842529c4.758789 4.758789 17.120728 -3.9708557 17.120728 -10.700775" fill-rule="evenodd"></path><path fill="#000000" fill-opacity="0.0" d="m875.3323 248.92389c-6.158081 2.3095093 -19.629578 8.191956 -14.979004 12.842529c4.758789 4.7587585 17.120728 -3.9708862 17.120728 -10.700806" fill-rule="evenodd"></path><path stroke="#e60000" stroke-width="4.0" stroke-linejoin="round" stroke-linecap="butt" d="m875.3323 248.92389c-6.158081 2.3095093 -19.629578 8.191956 -14.979004 12.842529c4.758789 4.7587585 17.120728 -3.9708862 17.120728 -10.700806" fill-rule="evenodd"></path><path fill="#000000" fill-opacity="0.0" d="m1012.96967 448.3701c-7.6063843 5.5315857 -19.739563 17.118927 -12.656006 23.129608c7.3466797 6.2339478 25.529968 1.2758484 30.18097 -6.607605" fill-rule="evenodd"></path><path stroke="#e60000" stroke-width="8.0" stroke-linejoin="round" stroke-linecap="butt" d="m1012.96967 448.3701c-7.6063843 5.5315857 -19.739563 17.118927 -12.656006 23.129608c7.3466797 6.2339478 25.529968 1.2758484 30.18097 -6.607605" fill-rule="evenodd"></path><path fill="#000000" fill-opacity="0.0" d="m617.44354 287.92105c9.677185 -3.459137 25.468994 -9.953888 31.275024 -2.3952942c1.939148 2.524475 9.344421 5.501831 6.4368286 7.185852c-6.9381104 4.018524 -17.402039 10.911438 -23.915344 6.388733c-4.7528687 -3.3002625 -9.23584 -7.2527466 -11.957703 -11.978363" fill-rule="evenodd"></path><path stroke="#000000" stroke-width="1.0" stroke-linejoin="round" stroke-linecap="butt" d="m617.44354 287.92105c9.677185 -3.459137 25.468994 -9.953888 31.275024 -2.3952942c1.939148 2.524475 9.344421 5.501831 6.4368286 7.185852c-6.9381104 4.018524 -17.402039 10.911438 -23.915344 6.388733c-4.7528687 -3.3002625 -9.23584 -7.2527466 -11.957703 -11.978363" fill-rule="evenodd"></path><path fill="#000000" fill-opacity="0.0" d="m657.44354 303.92105c9.677185 -3.459137 25.468994 -9.953888 31.275024 -2.3952942c1.939148 2.524475 9.344421 5.501831 6.4368286 7.185852c-6.9381104 4.018524 -17.402039 10.911438 -23.915344 6.388733c-4.7528687 -3.3002625 -9.23584 -7.2527466 -11.957703 -11.978363" fill-rule="evenodd"></path><path stroke="#000000" stroke-width="1.0" stroke-linejoin="round" stroke-linecap="butt" d="m657.44354 303.92105c9.677185 -3.459137 25.468994 -9.953888 31.275024 -2.3952942c1.939148 2.524475 9.344421 5.501831 6.4368286 7.185852c-6.9381104 4.018524 -17.402039 10.911438 -23.915344 6.388733c-4.7528687 -3.3002625 -9.23584 -7.2527466 -11.957703 -11.978363" fill-rule="evenodd"></path><path fill="#000000" fill-opacity="0.0" d="m681.44354 319.92105c9.677185 -3.459137 25.468994 -9.953888 31.275024 -2.3952942c1.939148 2.524475 9.344421 5.501831 6.4368286 7.185852c-6.9381104 4.018524 -17.402039 10.911438 -23.915344 6.388733c-4.7528687 -3.3002625 -9.23584 -7.2527466 -11.957703 -11.978363" fill-rule="evenodd"></path><path stroke="#000000" stroke-width="1.0" stroke-linejoin="round" stroke-linecap="butt" d="m681.44354 319.92105c9.677185 -3.459137 25.468994 -9.953888 31.275024 -2.3952942c1.939148 2.524475 9.344421 5.501831 6.4368286 7.185852c-6.9381104 4.018524 -17.402039 10.911438 -23.915344 6.388733c-4.7528687 -3.3002625 -9.23584 -7.2527466 -11.957703 -11.978363" fill-rule="evenodd"></path><path fill="#000000" fill-opacity="0.0" d="m705.44354 335.92105c9.677185 -3.459137 25.468994 -9.953888 31.275024 -2.3952942c1.939148 2.524475 9.344421 5.501831 6.4368286 7.185852c-6.9381104 4.018524 -17.402039 10.911438 -23.915344 6.388733c-4.7528687 -3.3002625 -9.23584 -7.2527466 -11.957703 -11.978363" fill-rule="evenodd"></path><path stroke="#000000" stroke-width="1.0" stroke-linejoin="round" stroke-linecap="butt" d="m705.44354 335.92105c9.677185 -3.459137 25.468994 -9.953888 31.275024 -2.3952942c1.939148 2.524475 9.344421 5.501831 6.4368286 7.185852c-6.9381104 4.018524 -17.402039 10.911438 -23.915344 6.388733c-4.7528687 -3.3002625 -9.23584 -7.2527466 -11.957703 -11.978363" fill-rule="evenodd"></path><path fill="#000000" fill-opacity="0.0" d="m689.44354 295.92105c9.677185 -3.459137 25.468994 -9.953888 31.275024 -2.3952942c1.939148 2.524475 9.344421 5.501831 6.4368286 7.185852c-6.9381104 4.018524 -17.402039 10.911438 -23.915344 6.388733c-4.7528687 -3.3002625 -9.23584 -7.2527466 -11.957703 -11.978363" fill-rule="evenodd"></path><path stroke="#000000" stroke-width="1.0" stroke-linejoin="round" stroke-linecap="butt" d="m689.44354 295.92105c9.677185 -3.459137 25.468994 -9.953888 31.275024 -2.3952942c1.939148 2.524475 9.344421 5.501831 6.4368286 7.185852c-6.9381104 4.018524 -17.402039 10.911438 -23.915344 6.388733c-4.7528687 -3.3002625 -9.23584 -7.2527466 -11.957703 -11.978363" fill-rule="evenodd"></path><path fill="#000000" fill-opacity="0.0" d="m657.44354 279.92105c9.677185 -3.459137 25.468994 -9.953888 31.275024 -2.3952942c1.939148 2.524475 9.344421 5.501831 6.4368286 7.185852c-6.9381104 4.018524 -17.402039 10.911438 -23.915344 6.388733c-4.7528687 -3.3002625 -9.23584 -7.2527466 -11.957703 -11.978363" fill-rule="evenodd"></path><path stroke="#000000" stroke-width="1.0" stroke-linejoin="round" stroke-linecap="butt" d="m657.44354 279.92105c9.677185 -3.459137 25.468994 -9.953888 31.275024 -2.3952942c1.939148 2.524475 9.344421 5.501831 6.4368286 7.185852c-6.9381104 4.018524 -17.402039 10.911438 -23.915344 6.388733c-4.7528687 -3.3002625 -9.23584 -7.2527466 -11.957703 -11.978363" fill-rule="evenodd"></path><path fill="#000000" fill-opacity="0.0" d="m713.44354 311.92105c9.677185 -3.459137 25.468994 -9.953888 31.275024 -2.3952942c1.939148 2.524475 9.344421 5.501831 6.4368286 7.185852c-6.9381104 4.018524 -17.402039 10.911438 -23.915344 6.388733c-4.7528687 -3.3002625 -9.23584 -7.2527466 -11.957703 -11.978363" fill-rule="evenodd"></path><path stroke="#000000" stroke-width="1.0" stroke-linejoin="round" stroke-linecap="butt" d="m713.44354 311.92105c9.677185 -3.459137 25.468994 -9.953888 31.275024 -2.3952942c1.939148 2.524475 9.344421 5.501831 6.4368286 7.185852c-6.9381104 4.018524 -17.402039 10.911438 -23.915344 6.388733c-4.7528687 -3.3002625 -9.23584 -7.2527466 -11.957703 -11.978363" fill-rule="evenodd"></path><path fill="#000000" fill-opacity="0.0" d="m737.44354 327.92105c9.677185 -3.459137 25.468994 -9.953888 31.275024 -2.3952942c1.939148 2.524475 9.344421 5.501831 6.4368286 7.185852c-6.9381104 4.018524 -17.402039 10.911438 -23.915344 6.388733c-4.7528687 -3.3002625 -9.23584 -7.2527466 -11.957703 -11.978363" fill-rule="evenodd"></path><path stroke="#000000" stroke-width="1.0" stroke-linejoin="round" stroke-linecap="butt" d="m737.44354 327.92105c9.677185 -3.459137 25.468994 -9.953888 31.275024 -2.3952942c1.939148 2.524475 9.344421 5.501831 6.4368286 7.185852c-6.9381104 4.018524 -17.402039 10.911438 -23.915344 6.388733c-4.7528687 -3.3002625 -9.23584 -7.2527466 -11.957703 -11.978363" fill-rule="evenodd"></path><path fill="#000000" fill-opacity="0.0" d="m689.465 270.8419c8.928162 -3.1913757 23.49768 -9.183441 28.85431 -2.2098694c1.7890625 2.329071 8.621155 5.0759583 5.9385986 6.629669c-6.401123 3.707489 -16.055115 10.066864 -22.064331 5.894226c-4.3849487 -3.0448303 -8.520935 -6.6913757 -11.032166 -11.051239" fill-rule="evenodd"></path><path stroke="#000000" stroke-width="1.0" stroke-linejoin="round" stroke-linecap="butt" d="m689.465 270.8419c8.928162 -3.1913757 23.49768 -9.183441 28.85431 -2.2098694c1.7890625 2.329071 8.621155 5.0759583 5.9385986 6.629669c-6.401123 3.707489 -16.055115 10.066864 -22.064331 5.894226c-4.3849487 -3.0448303 -8.520935 -6.6913757 -11.032166 -11.051239" fill-rule="evenodd"></path><path fill="#000000" fill-opacity="0.0" d="m726.369 285.60352c8.928162 -3.1914062 23.49768 -9.183472 28.85431 -2.2099c1.7890625 2.329071 8.621155 5.0759583 5.9386597 6.629669c-6.401184 3.707489 -16.055176 10.066864 -22.064331 5.894226c-4.38501 -3.0448303 -8.520996 -6.6913757 -11.032166 -11.051239" fill-rule="evenodd"></path><path stroke="#000000" stroke-width="1.0" stroke-linejoin="round" stroke-linecap="butt" d="m726.369 285.60352c8.928162 -3.1914062 23.49768 -9.183472 28.85431 -2.2099c1.7890625 2.329071 8.621155 5.0759583 5.9386597 6.629669c-6.401184 3.707489 -16.055176 10.066864 -22.064331 5.894226c-4.38501 -3.0448303 -8.520996 -6.6913757 -11.032166 -11.051239" fill-rule="evenodd"></path><path fill="#000000" fill-opacity="0.0" d="m748.5114 300.3651c8.928162 -3.1914062 23.49768 -9.183441 28.85431 -2.2099c1.7890625 2.329071 8.621155 5.0759583 5.9386597 6.629669c-6.401184 3.707489 -16.055176 10.066895 -22.064331 5.894226c-4.38501 -3.0448303 -8.520996 -6.6913757 -11.032166 -11.051239" fill-rule="evenodd"></path><path stroke="#000000" stroke-width="1.0" stroke-linejoin="round" stroke-linecap="butt" d="m748.5114 300.3651c8.928162 -3.1914062 23.49768 -9.183441 28.85431 -2.2099c1.7890625 2.329071 8.621155 5.0759583 5.9386597 6.629669c-6.401184 3.707489 -16.055176 10.066895 -22.064331 5.894226c-4.38501 -3.0448303 -8.520996 -6.6913757 -11.032166 -11.051239" fill-rule="evenodd"></path><path fill="#000000" fill-opacity="0.0" d="m770.6538 315.1267c8.928162 -3.1914062 23.49768 -9.183441 28.85431 -2.2099c1.7890625 2.329071 8.621155 5.075989 5.9386597 6.629669c-6.401184 3.707489 -16.055176 10.066895 -22.064331 5.894226c-4.38501 -3.0448303 -8.520935 -6.6913757 -11.032166 -11.051239" fill-rule="evenodd"></path><path stroke="#000000" stroke-width="1.0" stroke-linejoin="round" stroke-linecap="butt" d="m770.6538 315.1267c8.928162 -3.1914062 23.49768 -9.183441 28.85431 -2.2099c1.7890625 2.329071 8.621155 5.075989 5.9386597 6.629669c-6.401184 3.707489 -16.055176 10.066895 -22.064331 5.894226c-4.38501 -3.0448303 -8.520935 -6.6913757 -11.032166 -11.051239" fill-rule="evenodd"></path><path fill="#000000" fill-opacity="0.0" d="m755.8922 278.2227c8.928162 -3.1913757 23.49768 -9.183441 28.85431 -2.2098694c1.7890625 2.329071 8.621155 5.0759583 5.9386597 6.629669c-6.401184 3.707489 -16.055176 10.066864 -22.064331 5.894226c-4.38501 -3.0448303 -8.520996 -6.6913757 -11.032166 -11.051239" fill-rule="evenodd"></path><path stroke="#000000" stroke-width="1.0" stroke-linejoin="round" stroke-linecap="butt" d="m755.8922 278.2227c8.928162 -3.1913757 23.49768 -9.183441 28.85431 -2.2098694c1.7890625 2.329071 8.621155 5.0759583 5.9386597 6.629669c-6.401184 3.707489 -16.055176 10.066864 -22.064331 5.894226c-4.38501 -3.0448303 -8.520996 -6.6913757 -11.032166 -11.051239" fill-rule="evenodd"></path><path fill="#000000" fill-opacity="0.0" d="m726.369 263.4611c8.928162 -3.1913757 23.49768 -9.183441 28.85431 -2.2098694c1.7890625 2.329071 8.621155 5.0759583 5.9386597 6.629669c-6.401184 3.707489 -16.055176 10.066864 -22.064331 5.894226c-4.38501 -3.0448303 -8.520996 -6.6913757 -11.032166 -11.051239" fill-rule="evenodd"></path><path stroke="#000000" stroke-width="1.0" stroke-linejoin="round" stroke-linecap="butt" d="m726.369 263.4611c8.928162 -3.1913757 23.49768 -9.183441 28.85431 -2.2098694c1.7890625 2.329071 8.621155 5.0759583 5.9386597 6.629669c-6.401184 3.707489 -16.055176 10.066864 -22.064331 5.894226c-4.38501 -3.0448303 -8.520996 -6.6913757 -11.032166 -11.051239" fill-rule="evenodd"></path><path fill="#000000" fill-opacity="0.0" d="m778.0346 292.9843c8.928162 -3.1914062 23.49768 -9.183472 28.85431 -2.2099c1.7890625 2.329071 8.621155 5.0759583 5.9386597 6.629669c-6.401184 3.707489 -16.055176 10.066864 -22.064331 5.894226c-4.38501 -3.0448303 -8.520935 -6.6913757 -11.032166 -11.051239" fill-rule="evenodd"></path><path stroke="#000000" stroke-width="1.0" stroke-linejoin="round" stroke-linecap="butt" d="m778.0346 292.9843c8.928162 -3.1914062 23.49768 -9.183472 28.85431 -2.2099c1.7890625 2.329071 8.621155 5.0759583 5.9386597 6.629669c-6.401184 3.707489 -16.055176 10.066864 -22.064331 5.894226c-4.38501 -3.0448303 -8.520935 -6.6913757 -11.032166 -11.051239" fill-rule="evenodd"></path><path fill="#000000" fill-opacity="0.0" d="m800.177 307.7459c8.928162 -3.1914062 23.49768 -9.183441 28.85431 -2.2099c1.7890625 2.329071 8.621155 5.0759583 5.9386597 6.629669c-6.401184 3.707489 -16.055176 10.066895 -22.064331 5.894226c-4.38501 -3.0448303 -8.520935 -6.6913757 -11.032166 -11.051239" fill-rule="evenodd"></path><path stroke="#000000" stroke-width="1.0" stroke-linejoin="round" stroke-linecap="butt" d="m800.177 307.7459c8.928162 -3.1914062 23.49768 -9.183441 28.85431 -2.2099c1.7890625 2.329071 8.621155 5.0759583 5.9386597 6.629669c-6.401184 3.707489 -16.055176 10.066895 -22.064331 5.894226c-4.38501 -3.0448303 -8.520935 -6.6913757 -11.032166 -11.051239" fill-rule="evenodd"></path><path fill="#000000" fill-opacity="0.0" d="m753.41724 253.90617c8.302063 -2.9675903 21.849792 -8.539429 26.83081 -2.0549164c1.6635742 2.165741 8.016602 4.720001 5.522156 6.164734c-5.9522095 3.4475098 -14.929199 9.360931 -20.516968 5.480896c-4.0775146 -2.8312988 -7.923401 -6.2221375 -10.258545 -10.276245" fill-rule="evenodd"></path><path stroke="#000000" stroke-width="1.0" stroke-linejoin="round" stroke-linecap="butt" d="m753.41724 253.90617c8.302063 -2.9675903 21.849792 -8.539429 26.83081 -2.0549164c1.6635742 2.165741 8.016602 4.720001 5.522156 6.164734c-5.9522095 3.4475098 -14.929199 9.360931 -20.516968 5.480896c-4.0775146 -2.8312988 -7.923401 -6.2221375 -10.258545 -10.276245" fill-rule="evenodd"></path><path fill="#000000" fill-opacity="0.0" d="m787.7332 267.63257c8.302063 -2.9675903 21.849854 -8.539429 26.83081 -2.0549011c1.6636353 2.165741 8.016602 4.720001 5.522217 6.164734c-5.9522705 3.4474792 -14.92926 9.360901 -20.517029 5.4808655c-4.0774536 -2.8312988 -7.923401 -6.222107 -10.258484 -10.276245" fill-rule="evenodd"></path><path stroke="#000000" stroke-width="1.0" stroke-linejoin="round" stroke-linecap="butt" d="m787.7332 267.63257c8.302063 -2.9675903 21.849854 -8.539429 26.83081 -2.0549011c1.6636353 2.165741 8.016602 4.720001 5.522217 6.164734c-5.9522705 3.4474792 -14.92926 9.360901 -20.517029 5.4808655c-4.0774536 -2.8312988 -7.923401 -6.222107 -10.258484 -10.276245" fill-rule="evenodd"></path><path fill="#000000" fill-opacity="0.0" d="m808.3228 281.35898c8.302063 -2.9675903 21.849854 -8.539429 26.83081 -2.0549316c1.6636353 2.165741 8.016602 4.720001 5.522217 6.164734c-5.9522705 3.4475098 -14.92926 9.360931 -20.517029 5.480896c-4.0774536 -2.8312988 -7.923401 -6.2221375 -10.258484 -10.276245" fill-rule="evenodd"></path><path stroke="#000000" stroke-width="1.0" stroke-linejoin="round" stroke-linecap="butt" d="m808.3228 281.35898c8.302063 -2.9675903 21.849854 -8.539429 26.83081 -2.0549316c1.6636353 2.165741 8.016602 4.720001 5.522217 6.164734c-5.9522705 3.4475098 -14.92926 9.360931 -20.517029 5.480896c-4.0774536 -2.8312988 -7.923401 -6.2221375 -10.258484 -10.276245" fill-rule="evenodd"></path><path fill="#000000" fill-opacity="0.0" d="m828.357 297.673c6.621826 -2.642334 17.427673 -7.603485 21.400574 -1.8297119c1.3269043 1.9283752 6.394165 4.2026978 4.404602 5.4890747c-4.7476196 3.069641 -11.907776 8.3349 -16.364624 4.8801575c-3.2522583 -2.520996 -6.319824 -5.540161 -8.182312 -9.149933" fill-rule="evenodd"></path><path stroke="#000000" stroke-width="1.0" stroke-linejoin="round" stroke-linecap="butt" d="m828.357 297.673c6.621826 -2.642334 17.427673 -7.603485 21.400574 -1.8297119c1.3269043 1.9283752 6.394165 4.2026978 4.404602 5.4890747c-4.7476196 3.069641 -11.907776 8.3349 -16.364624 4.8801575c-3.2522583 -2.520996 -6.319824 -5.540161 -8.182312 -9.149933" fill-rule="evenodd"></path><path fill="#000000" fill-opacity="0.0" d="m815.18604 260.76938c8.302063 -2.9675903 21.849792 -8.539444 26.83081 -2.0549316c1.6635742 2.165741 8.016602 4.720001 5.522156 6.164734c-5.9522095 3.4475098 -14.929199 9.360931 -20.516968 5.480896c-4.0775146 -2.8312988 -7.923401 -6.2221375 -10.258545 -10.276245" fill-rule="evenodd"></path><path stroke="#000000" stroke-width="1.0" stroke-linejoin="round" stroke-linecap="butt" d="m815.18604 260.76938c8.302063 -2.9675903 21.849792 -8.539444 26.83081 -2.0549316c1.6635742 2.165741 8.016602 4.720001 5.522156 6.164734c-5.9522095 3.4475098 -14.929199 9.360931 -20.516968 5.480896c-4.0775146 -2.8312988 -7.923401 -6.2221375 -10.258545 -10.276245" fill-rule="evenodd"></path><path fill="#000000" fill-opacity="0.0" d="m787.7332 247.04297c8.302063 -2.9675903 21.849854 -8.539429 26.83081 -2.0549164c1.6636353 2.165741 8.016602 4.720001 5.522217 6.164734c-5.9522705 3.4474945 -14.92926 9.360916 -20.517029 5.4808807c-4.0774536 -2.8312988 -7.923401 -6.222107 -10.258484 -10.27623" fill-rule="evenodd"></path><path stroke="#000000" stroke-width="1.0" stroke-linejoin="round" stroke-linecap="butt" d="m787.7332 247.04297c8.302063 -2.9675903 21.849854 -8.539429 26.83081 -2.0549164c1.6636353 2.165741 8.016602 4.720001 5.522217 6.164734c-5.9522705 3.4474945 -14.92926 9.360916 -20.517029 5.4808807c-4.0774536 -2.8312988 -7.923401 -6.222107 -10.258484 -10.27623" fill-rule="evenodd"></path><path fill="#000000" fill-opacity="0.0" d="m835.77563 274.49576c8.302063 -2.9675598 21.849792 -8.539429 26.83081 -2.0549011c1.6635742 2.165741 8.016602 4.720001 5.522156 6.164734c-5.9522095 3.4475098 -14.929199 9.360931 -20.516968 5.480896c-4.0775146 -2.8312988 -7.923401 -6.2221375 -10.258545 -10.276245" fill-rule="evenodd"></path><path stroke="#000000" stroke-width="1.0" stroke-linejoin="round" stroke-linecap="butt" d="m835.77563 274.49576c8.302063 -2.9675598 21.849792 -8.539429 26.83081 -2.0549011c1.6635742 2.165741 8.016602 4.720001 5.522156 6.164734c-5.9522095 3.4475098 -14.929199 9.360931 -20.516968 5.480896c-4.0775146 -2.8312988 -7.923401 -6.2221375 -10.258545 -10.276245" fill-rule="evenodd"></path><path fill="#000000" fill-opacity="0.0" d="m815.18634 237.90224c8.137085 -2.9079437 21.41571 -8.367813 26.29779 -2.0136108c1.6304932 2.122223 7.8573 4.6251526 5.4124146 6.040848c-5.8339844 3.3782043 -14.632629 9.172791 -20.109375 5.370743c-3.99646 -2.774414 -7.765991 -6.0970917 -10.0546875 -10.069733" fill-rule="evenodd"></path><path stroke="#000000" stroke-width="1.0" stroke-linejoin="round" stroke-linecap="butt" d="m815.18634 237.90224c8.137085 -2.9079437 21.41571 -8.367813 26.29779 -2.0136108c1.6304932 2.122223 7.8573 4.6251526 5.4124146 6.040848c-5.8339844 3.3782043 -14.632629 9.172791 -20.109375 5.370743c-3.99646 -2.774414 -7.765991 -6.0970917 -10.0546875 -10.069733" fill-rule="evenodd"></path><path fill="#000000" fill-opacity="0.0" d="m844.42535 230.98454c6.621826 -2.3665009 17.427673 -6.8097687 21.400574 -1.6386871c1.3269043 1.727066 6.394165 3.7639618 4.404602 4.9160614c-4.7476196 2.7492065 -11.907776 7.4648743 -16.364624 4.370743c-3.2522583 -2.2578278 -6.319824 -4.961838 -8.182312 -8.194794" fill-rule="evenodd"></path><path stroke="#000000" stroke-width="1.0" stroke-linejoin="round" stroke-linecap="butt" d="m844.42535 230.98454c6.621826 -2.3665009 17.427673 -6.8097687 21.400574 -1.6386871c1.3269043 1.727066 6.394165 3.7639618 4.404602 4.9160614c-4.7476196 2.7492065 -11.907776 7.4648743 -16.364624 4.370743c-3.2522583 -2.2578278 -6.319824 -4.961838 -8.182312 -8.194794" fill-rule="evenodd"></path><path fill="#000000" fill-opacity="0.0" d="m868.82416 225.3238c5.6694336 -2.025772 14.921082 -5.829315 18.32257 -1.4027557c1.1360474 1.4784241 5.4744873 3.222046 3.7710571 4.2082825c-4.0647583 2.3533783 -10.195068 6.390106 -14.010925 3.741455c-2.7844849 -1.9327545 -5.4108276 -4.247452 -7.005432 -7.0149384" fill-rule="evenodd"></path><path stroke="#000000" stroke-width="1.0" stroke-linejoin="round" stroke-linecap="butt" d="m868.82416 225.3238c5.6694336 -2.025772 14.921082 -5.829315 18.32257 -1.4027557c1.1360474 1.4784241 5.4744873 3.222046 3.7710571 4.2082825c-4.0647583 2.3533783 -10.195068 6.390106 -14.010925 3.741455c-2.7844849 -1.9327545 -5.4108276 -4.247452 -7.005432 -7.0149384" fill-rule="evenodd"></path><path fill="#000000" fill-opacity="0.0" d="m802.50134 327.5013c19.330994 -7.7323914 38.804565 -15.439209 59.0 -20.501312" fill-rule="evenodd"></path><path stroke="#000000" stroke-width="1.0" stroke-linejoin="round" stroke-linecap="butt" d="m802.50134 327.5013c19.330994 -7.7323914 38.804565 -15.439209 59.0 -20.501312" fill-rule="evenodd"></path><path fill="#000000" fill-opacity="0.0" d="m803.0 328.0c6.220337 3.1101685 10.829651 8.935944 15.0 14.501312" fill-rule="evenodd"></path><path stroke="#000000" stroke-width="1.0" stroke-linejoin="round" stroke-linecap="butt" d="m803.0 328.0c6.220337 3.1101685 10.829651 8.935944 15.0 14.501312" fill-rule="evenodd"></path><path fill="#000000" fill-opacity="0.0" d="m819.0 343.0c34.030518 -18.313538 73.12134 -25.139679 109.0 -39.498688" fill-rule="evenodd"></path><path stroke="#000000" stroke-width="1.0" stroke-linejoin="round" stroke-linecap="butt" d="m819.0 343.0c34.030518 -18.313538 73.12134 -25.139679 109.0 -39.498688" fill-rule="evenodd"></path><path fill="#000000" fill-opacity="0.0" d="m729.0 353.0c19.616089 -9.8029175 42.385925 -12.192963 62.0 -22.0" fill-rule="evenodd"></path><path stroke="#000000" stroke-width="1.0" stroke-linejoin="round" stroke-linecap="butt" d="m729.0 353.0c19.616089 -9.8029175 42.385925 -12.192963 62.0 -22.0" fill-rule="evenodd"></path><path fill="#000000" fill-opacity="0.0" d="m792.0 332.0c6.2666626 3.4822998 12.431885 7.4319153 17.501343 12.501312" fill-rule="evenodd"></path><path stroke="#000000" stroke-width="1.0" stroke-linejoin="round" stroke-linecap="butt" d="m792.0 332.0c6.2666626 3.4822998 12.431885 7.4319153 17.501343 12.501312" fill-rule="evenodd"></path><path fill="#000000" fill-opacity="0.0" d="m811.0 345.0c-22.900208 6.030365 -45.31781 14.409576 -66.49866 25.0" fill-rule="evenodd"></path><path stroke="#000000" stroke-width="1.0" stroke-linejoin="round" stroke-linecap="butt" d="m811.0 345.0c-22.900208 6.030365 -45.31781 14.409576 -66.49866 25.0" fill-rule="evenodd"></path><path fill="#000000" fill-opacity="0.0" d="m746.50134 370.0c-7.735901 -2.5756226 -14.8550415 -8.707397 -18.501343 -16.0" fill-rule="evenodd"></path><path stroke="#000000" stroke-width="1.0" stroke-linejoin="round" stroke-linecap="butt" d="m746.50134 370.0c-7.735901 -2.5756226 -14.8550415 -8.707397 -18.501343 -16.0" fill-rule="evenodd"></path><path fill="#000000" fill-opacity="0.0" d="m961.224 312.89502c-32.135803 11.67923 -64.29547 23.296936 -96.30707 35.312317c-12.252197 4.5987854 -25.302856 6.912384 -37.4541 11.7716675c-4.3050537 1.7215881 -14.306091 0.9505005 -12.839905 5.3490906c3.0785522 9.235565 17.424255 8.751343 25.67981 13.910736c13.258179 8.285858 25.515259 18.08252 38.524963 26.753296c16.7406 11.157379 28.427795 40.330536 48.154846 36.38321c14.237122 -2.848816 25.535767 -13.837463 38.522278 -20.330719c16.056946 -8.028442 33.950073 -11.835724 50.294006 -19.262451c18.197021 -8.268829 31.349976 -25.29657 49.223022 -34.24411" fill-rule="evenodd"></path><path stroke="#cccccc" stroke-width="8.0" stroke-linejoin="round" stroke-linecap="round" d="m961.224 312.89502c-32.135803 11.67923 -64.29547 23.296936 -96.30707 35.312317c-12.252197 4.5987854 -25.302856 6.912384 -37.4541 11.7716675c-4.3050537 1.7215881 -14.306091 0.9505005 -12.839905 5.3490906c3.0785522 9.235565 17.424255 8.751343 25.67981 13.910736c13.258179 8.285858 25.515259 18.08252 38.524963 26.753296c16.7406 11.157379 28.427795 40.330536 48.154846 36.38321c14.237122 -2.848816 25.535767 -13.837463 38.522278 -20.330719c16.056946 -8.028442 33.950073 -11.835724 50.294006 -19.262451c18.197021 -8.268829 31.349976 -25.29657 49.223022 -34.24411" fill-rule="evenodd"></path><path fill="#000000" fill-opacity="0.0" d="m531.83466 275.01312c-3.988037 0.7984009 -8.13208 1.3946533 -11.7716675 3.209961" fill-rule="evenodd"></path><path stroke="#000000" stroke-width="1.0" stroke-linejoin="round" stroke-linecap="butt" d="m531.83466 275.01312c-3.988037 0.7984009 -8.13208 1.3946533 -11.7716675 3.209961" fill-rule="evenodd"></path><path fill="#000000" fill-opacity="0.0" d="m518.9952 277.15485c-2.0429077 -13.271423 -8.752441 -25.440994 -11.771637 -38.524918c-7.9597473 -34.494446 -10.561737 -70.460846 -22.472443 -103.79791c-12.145538 -33.994415 -38.600525 -73.643814 -22.472443 -105.93963" fill-rule="evenodd"></path><path stroke="#000000" stroke-width="1.0" stroke-linejoin="round" stroke-linecap="butt" d="m518.9952 277.15485c-2.0429077 -13.271423 -8.752441 -25.440994 -11.771637 -38.524918c-7.9597473 -34.494446 -10.561737 -70.460846 -22.472443 -103.79791c-12.145538 -33.994415 -38.600525 -73.643814 -22.472443 -105.93963" fill-rule="evenodd"></path><path fill="#000000" fill-opacity="0.0" d="m539.3267 283.57544c-2.1712036 -6.5082397 -1.9994507 15.866028 3.209961 20.330719c15.248901 13.06897 19.946838 35.181396 33.173218 50.293976c20.593933 23.530731 31.679382 54.58673 40.664062 84.538055c7.532715 25.111176 32.149536 41.82666 43.873962 65.27557" fill-rule="evenodd"></path><path stroke="#000000" stroke-width="1.0" stroke-linejoin="round" stroke-linecap="butt" d="m539.3267 283.57544c-2.1712036 -6.5082397 -1.9994507 15.866028 3.209961 20.330719c15.248901 13.06897 19.946838 35.181396 33.173218 50.293976c20.593933 23.530731 31.679382 54.58673 40.664062 84.538055c7.532715 25.111176 32.149536 41.82666 43.873962 65.27557" fill-rule="evenodd"></path><path fill="#000000" fill-opacity="0.0" d="m1320.4924 19.263098c-19.940308 -3.990018 -40.7135 0.3789959 -60.997437 -1.0708656c-70.16284 -5.0151453 -140.54321 6.2899475 -210.80579 9.629921c-58.897095 2.7997112 -117.60327 -10.700787 -176.5669 -10.700787c-128.09448 0 -256.1349 13.765415 -384.16272 9.632545c-104.11038 -3.3607903 -208.29993 4.2782154 -312.46454 4.2782154c-37.48033 0 -75.00887 -7.392683 -112.35958 -4.2782154c-12.567879 1.047966 -25.220009 -2.2894382 -37.45407 -5.3517056c-2.10462 -0.52680016 -5.4501724 -3.0116081 -6.4199486 -1.0708656c-8.315595 16.641392 5.8270206 37.10667 4.28084 55.64567c-1.3501415 16.188461 -6.479355 31.941704 -7.4908123 48.154854c-2.2928123 36.75258 7.4908123 73.393814 7.4908123 110.21785c0 35.315018 -2.2822666 70.78392 1.0682411 105.93962c2.1386967 22.440582 8.539299 45.098938 5.3517075 67.4147c-4.0465126 28.328888 -9.582657 57.167786 -6.4199486 85.60892c0.67134285 6.0371704 -3.7860718 12.757874 -1.0708656 18.19162c1.4698982 2.9415894 6.6886826 -0.67111206 9.629921 -2.1417542c11.45451 -5.727234 24.717842 -7.218994 37.454067 -8.5590515c34.77159 -3.6585083 70.15463 -2.0294495 104.868774 2.1391296c42.853714 5.1459656 86.3354 -0.12844849 129.4803 1.0708618c86.64664 2.4084778 173.35141 -2.1417542 260.0315 -2.1417542c134.56775 0 268.919 19.050598 403.42523 14.981628c45.161865 -1.3662109 89.835205 -9.817383 134.83203 -13.910736c28.420288 -2.5854187 57.11792 -2.7478638 85.60632 -1.0708923c31.763306 1.8697815 63.933105 12.111389 95.23877 6.422577c13.410034 -2.436798 29.326416 11.845428 40.664062 4.2808533c5.6380615 -3.7617798 1.2490234 -13.671631 0 -20.333344c-3.458374 -18.445404 -8.5616455 -36.878845 -8.5616455 -55.64566c0 -52.43515 4.561035 -104.98297 1.0708008 -157.30185c-1.0480957 -15.712067 -8.245239 -30.45874 -10.700806 -46.013123c-7.4783936 -47.371933 4.4799805 -95.99223 11.769043 -143.39369c2.4493408 -15.927704 1.1190186 -32.353176 4.280884 -48.154858c1.5458984 -7.7260666 4.4176025 -19.171312 -2.1391602 -23.540682" fill-rule="evenodd"></path><path stroke="#888888" stroke-width="4.0" stroke-linejoin="round" stroke-linecap="butt" d="m1320.4924 19.263098c-19.940308 -3.990018 -40.7135 0.3789959 -60.997437 -1.0708656c-70.16284 -5.0151453 -140.54321 6.2899475 -210.80579 9.629921c-58.897095 2.7997112 -117.60327 -10.700787 -176.5669 -10.700787c-128.09448 0 -256.1349 13.765415 -384.16272 9.632545c-104.11038 -3.3607903 -208.29993 4.2782154 -312.46454 4.2782154c-37.48033 0 -75.00887 -7.392683 -112.35958 -4.2782154c-12.567879 1.047966 -25.220009 -2.2894382 -37.45407 -5.3517056c-2.10462 -0.52680016 -5.4501724 -3.0116081 -6.4199486 -1.0708656c-8.315595 16.641392 5.8270206 37.10667 4.28084 55.64567c-1.3501415 16.188461 -6.479355 31.941704 -7.4908123 48.154854c-2.2928123 36.75258 7.4908123 73.393814 7.4908123 110.21785c0 35.315018 -2.2822666 70.78392 1.0682411 105.93962c2.1386967 22.440582 8.539299 45.098938 5.3517075 67.4147c-4.0465126 28.328888 -9.582657 57.167786 -6.4199486 85.60892c0.67134285 6.0371704 -3.7860718 12.757874 -1.0708656 18.19162c1.4698982 2.9415894 6.6886826 -0.67111206 9.629921 -2.1417542c11.45451 -5.727234 24.717842 -7.218994 37.454067 -8.5590515c34.77159 -3.6585083 70.15463 -2.0294495 104.868774 2.1391296c42.853714 5.1459656 86.3354 -0.12844849 129.4803 1.0708618c86.64664 2.4084778 173.35141 -2.1417542 260.0315 -2.1417542c134.56775 0 268.919 19.050598 403.42523 14.981628c45.161865 -1.3662109 89.835205 -9.817383 134.83203 -13.910736c28.420288 -2.5854187 57.11792 -2.7478638 85.60632 -1.0708923c31.763306 1.8697815 63.933105 12.111389 95.23877 6.422577c13.410034 -2.436798 29.326416 11.845428 40.664062 4.2808533c5.6380615 -3.7617798 1.2490234 -13.671631 0 -20.333344c-3.458374 -18.445404 -8.5616455 -36.878845 -8.5616455 -55.64566c0 -52.43515 4.561035 -104.98297 1.0708008 -157.30185c-1.0480957 -15.712067 -8.245239 -30.45874 -10.700806 -46.013123c-7.4783936 -47.371933 4.4799805 -95.99223 11.769043 -143.39369c2.4493408 -15.927704 1.1190186 -32.353176 4.280884 -48.154858c1.5458984 -7.7260666 4.4176025 -19.171312 -2.1391602 -23.540682" fill-rule="evenodd"></path><path fill="#000000" fill-opacity="0.0" d="m892.4252 216.71169c6.715271 -1.8969116 17.673645 -5.458481 21.702576 -1.3135223c1.3456421 1.3843689 6.484375 3.0170746 4.466736 3.940567c-4.814575 2.2036743 -12.075745 5.983597 -16.59552 3.5034332c-3.2981567 -1.8097992 -6.4089966 -3.9772491 -8.297791 -6.56868" fill-rule="evenodd"></path><path stroke="#000000" stroke-width="1.0" stroke-linejoin="round" stroke-linecap="butt" d="m892.4252 216.71169c6.715271 -1.8969116 17.673645 -5.458481 21.702576 -1.3135223c1.3456421 1.3843689 6.484375 3.0170746 4.466736 3.940567c-4.814575 2.2036743 -12.075745 5.983597 -16.59552 3.5034332c-3.2981567 -1.8097992 -6.4089966 -3.9772491 -8.297791 -6.56868" fill-rule="evenodd"></path><path fill="#000000" fill-opacity="0.0" d="m917.16925 212.1744c5.7493286 -1.6238708 15.13147 -4.672806 18.580872 -1.124466c1.1520996 1.1851044 5.551697 2.5828094 3.8242188 3.3733673c-4.1220093 1.8864746 -10.338745 5.1223145 -14.208435 2.9991608c-2.8237305 -1.5493011 -5.4871216 -3.40477 -7.104187 -5.6231995" fill-rule="evenodd"></path><path stroke="#000000" stroke-width="1.0" stroke-linejoin="round" stroke-linecap="butt" d="m917.16925 212.1744c5.7493286 -1.6238708 15.13147 -4.672806 18.580872 -1.124466c1.1520996 1.1851044 5.551697 2.5828094 3.8242188 3.3733673c-4.1220093 1.8864746 -10.338745 5.1223145 -14.208435 2.9991608c-2.8237305 -1.5493011 -5.4871216 -3.40477 -7.104187 -5.6231995" fill-rule="evenodd"></path><path fill="#000000" fill-opacity="0.0" d="m722.7688 81.359436c7.1398315 -1.6488953 14.356018 -3.6164246 21.683777 -3.6164246" fill-rule="evenodd"></path><path stroke="#e60000" stroke-width="2.0" stroke-linejoin="round" stroke-linecap="butt" d="m722.7688 81.359436c7.1398315 -1.6488953 14.356018 -3.6164246 21.683777 -3.6164246" fill-rule="evenodd"></path></g></svg>