<svg xmlns="http://www.w3.org/2000/svg" stroke-linecap="square" version="1.1" stroke-miterlimit="10" xmlns:xlink="http://www.w3.org/1999/xlink" viewBox="0.0 0.0 1333.3333333333333 533.3333333333334" fill="none">
 <clipPath id="p.0">
  <path d="m0 0h1333.3v533.33h-1333.3v-533.33z"/>
 </clipPath>
 <g clip-path="url(#p.0)">
  <path fill-opacity="0" d="m0 0h1333.3v533.33h-1333.3z" fill="#000"/>
  <path fill-rule="evenodd" fill-opacity="0" d="m630.27 195.46c-11.055 2.6104-33.143 11.985-26.305 20.574 12.882 16.181 38.003 19.443 58.569 25.25 25.973 7.3341 51.338 16.969 77.926 21.978 14.821 2.7925 32.594 4.1591 45.169-3.7408 6.8452-4.3004 11.807-16.561 6.4512-22.445" fill="#000"/>
  <path stroke-linejoin="round" d="m630.27 195.46c-11.055 2.6104-33.143 11.985-26.305 20.574 12.882 16.181 38.003 19.443 58.569 25.25 25.973 7.3341 51.338 16.969 77.926 21.978 14.821 2.7925 32.594 4.1591 45.169-3.7408 6.8452-4.3004 11.807-16.561 6.4512-22.445" fill-rule="evenodd" stroke="#e60000" stroke-linecap="butt" stroke-width="24"/>
  <path fill-rule="evenodd" fill-opacity="0" d="m654.5 215.99c2.4051-14.93 2.259-34.293-9.4987-44.399-33.051-28.41-133-52.485-133-10.024" fill="#000"/>
  <path stroke-linejoin="round" d="m654.5 215.99c2.4051-14.93 2.259-34.293-9.4987-44.399-33.051-28.41-133-52.485-133-10.024" fill-rule="evenodd" stroke="#d9d9d9" stroke-linecap="butt" stroke-width="24"/>
  <path fill-rule="evenodd" fill-opacity="0" d="m19.262 513.64c-4.8313-24.133 0-49.223 0-73.835 0-58.143-1.0709-116.28-1.0709-174.43 0-19.67 5.7906-39.243 4.2808-58.856-3.4524-44.847-8.5508-89.967-5.3517-134.83 0.83755-11.746 0.86929-23.697-1.0682-35.312-1.1752-7.0454-7.8482-19.146-1.0709-21.402 29.801-9.9173 62.853 5.6206 94.168 3.21 82.203-6.3281 164.8 5.617 247.19 8.5617 62.554 2.2356 124.72-11.506 187.27-13.913 82.803-3.1871 165.49 8.8979 248.26 12.843 43.969 2.0955 87.671-8.2571 131.62-10.701 71.618-3.982 143.36 6.4199 215.09 6.4199 41.026 0 82.203-1.5751 123.06 2.1417 13.895 1.264 27.78-3.2126 41.732-3.2126 2.854 0 7.8691-2.7686 8.5618 0 3.5753 14.293-5.3517 29.141-5.3517 43.874 0 38.895 5.983 77.845 3.21 116.64-4.1711 58.354 6.7526 117.67-2.1392 175.5-1.6586 10.786 3.9663 21.469 6.4199 32.102 7.2186 31.282 2.9066 64.45-1.0682 96.307-1.2876 10.32 11.861 25.262 3.21 31.034-14.146 9.4385-33.373-6.8683-50.294-8.5616-21.343-2.1359-42.784 3.2089-64.207 4.2808-102.97 5.1521-206.23-8.0993-309.25-4.2808-203.89 7.557-408.29 9.7115-612.09 0-52.55-2.5041-104.96 18.066-157.3 12.84-34.518-3.4459-69.109-7.4882-103.8-7.4882" fill="#000"/>
  <path stroke-linejoin="round" d="m19.262 513.64c-4.8313-24.133 0-49.223 0-73.835 0-58.143-1.0709-116.28-1.0709-174.43 0-19.67 5.7906-39.243 4.2808-58.856-3.4524-44.847-8.5508-89.967-5.3517-134.83 0.83755-11.746 0.86929-23.697-1.0682-35.312-1.1752-7.0454-7.8482-19.146-1.0709-21.402 29.801-9.9173 62.853 5.6206 94.168 3.21 82.203-6.3281 164.8 5.617 247.19 8.5617 62.554 2.2356 124.72-11.506 187.27-13.913 82.803-3.1871 165.49 8.8979 248.26 12.843 43.969 2.0955 87.671-8.2571 131.62-10.701 71.618-3.982 143.36 6.4199 215.09 6.4199 41.026 0 82.203-1.5751 123.06 2.1417 13.895 1.264 27.78-3.2126 41.732-3.2126 2.854 0 7.8691-2.7686 8.5618 0 3.5753 14.293-5.3517 29.141-5.3517 43.874 0 38.895 5.983 77.845 3.21 116.64-4.1711 58.354 6.7526 117.67-2.1392 175.5-1.6586 10.786 3.9663 21.469 6.4199 32.102 7.2186 31.282 2.9066 64.45-1.0682 96.307-1.2876 10.32 11.861 25.262 3.21 31.034-14.146 9.4385-33.373-6.8683-50.294-8.5616-21.343-2.1359-42.784 3.2089-64.207 4.2808-102.97 5.1521-206.23-8.0993-309.25-4.2808-203.89 7.557-408.29 9.7115-612.09 0-52.55-2.5041-104.96 18.066-157.3 12.84-34.518-3.4459-69.109-7.4882-103.8-7.4882" fill-rule="evenodd" stroke="#888" stroke-linecap="butt" stroke-width="4"/>
  <path fill-rule="evenodd" fill-opacity="0" d="m1276.6 402.35c-26.549 0-73.69 14.63-68.485 40.664 2.968 14.848 17.796 25.82 31.031 33.173 24.834 13.798 49.489 27.969 74.906 40.661" fill="#000"/>
  <path stroke-linejoin="round" d="m1276.6 402.35c-26.549 0-73.69 14.63-68.485 40.664 2.968 14.848 17.796 25.82 31.031 33.173 24.834 13.798 49.489 27.969 74.906 40.661" fill-rule="evenodd" stroke="#000" stroke-linecap="butt"/>
  <path fill-rule="evenodd" fill-opacity="0" d="m1304.4 434.46c-13.403 0-41.088 4.5704-36.383 17.121 6.3619 16.969 27.665 24.001 43.874 32.105" fill="#000"/>
  <path stroke-linejoin="round" d="m1304.4 434.46c-13.403 0-41.088 4.5704-36.383 17.121 6.3619 16.969 27.665 24.001 43.874 32.105" fill-rule="evenodd" stroke="#000" stroke-linecap="butt"/>
  <path fill-rule="evenodd" fill-opacity="0" d="m1298 458c43.768-43.804-89.996-91.714-148.74-111.29-21.014-7.0026-71.209-3.8896-64.205 17.123" fill="#000"/>
  <path stroke-linejoin="round" d="m1298 458c43.768-43.804-89.996-91.714-148.74-111.29-21.014-7.0026-71.209-3.8896-64.205 17.123" fill-rule="evenodd" stroke="#000" stroke-linecap="butt"/>
  <path fill-rule="evenodd" fill-opacity="0" d="m1104.3 398.07c23.626 13.126 50.211 20.055 74.908 31.034 9.9286 4.4136 19.095 12.84 29.961 12.84" fill="#000"/>
  <path stroke-linejoin="round" d="m1104.3 398.07c23.626 13.126 50.211 20.055 74.908 31.034 9.9286 4.4136 19.095 12.84 29.961 12.84" fill-rule="evenodd" stroke="#000" stroke-linecap="butt"/>
  <path fill-rule="evenodd" fill-opacity="0" d="m1276.7 499.73c-30.304-5.2227-58.497-19.623-87.02-31.441-31.462-13.036-63.799-24.125-94.106-39.824-15.15-7.8477-26.34-22.541-41.487-30.395" fill="#000"/>
  <path stroke-linejoin="round" d="m1276.7 499.73c-30.304-5.2227-58.497-19.623-87.02-31.441-31.462-13.036-63.799-24.125-94.106-39.824-15.15-7.8477-26.34-22.541-41.487-30.395" fill-rule="evenodd" stroke="#000" stroke-linecap="butt"/>
  <path fill-rule="evenodd" fill-opacity="0" d="m1039.1 359.55c-3.9436-23.7 23.058-54.575 47.084-54.575 44.382 0 87.376 16.994 129.48 31.031 21.428 7.1443 42.934 14.508 63.136 24.612 10.566 5.2845 25.758 6.5513 31.031 17.123" fill="#000"/>
  <path stroke-linejoin="round" d="m1039.1 359.55c-3.9436-23.7 23.058-54.575 47.084-54.575 44.382 0 87.376 16.994 129.48 31.031 21.428 7.1443 42.934 14.508 63.136 24.612 10.566 5.2845 25.758 6.5513 31.031 17.123" fill-rule="evenodd" stroke="#000" stroke-linecap="butt"/>
  <path fill-rule="evenodd" fill-opacity="0" d="m1097.9 352.06c8.2819 13.801-31.816 15.794-47.084 10.701-37.668-12.566-78.7-14.146-115.57-28.892-9.2789-3.7112-16.297-11.577-24.612-17.121-4.3817-2.9217-12.244-2.495-13.911-7.4908-1.8922-5.6719 11.449-7.2439 17.121-5.3517" fill="#000"/>
  <path stroke-linejoin="round" d="m1097.9 352.06c8.2819 13.801-31.816 15.794-47.084 10.701-37.668-12.566-78.7-14.146-115.57-28.892-9.2789-3.7112-16.297-11.577-24.612-17.121-4.3817-2.9217-12.244-2.495-13.911-7.4908-1.8922-5.6719 11.449-7.2439 17.121-5.3517" fill-rule="evenodd" stroke="#000" stroke-linecap="butt"/>
  <path fill-rule="evenodd" fill-opacity="0" d="m957.73 303.91c20.137 6.0407 40.509 11.325 60.995 16.052 7.8104 1.8023 30.488 8.5591 22.472 8.5591" fill="#000"/>
  <path stroke-linejoin="round" d="m957.73 303.91c20.137 6.0407 40.509 11.325 60.995 16.052 7.8104 1.8023 30.488 8.5591 22.472 8.5591" fill-rule="evenodd" stroke="#000" stroke-linecap="butt"/>
  <path fill-rule="evenodd" fill-opacity="0" d="m1073.3 307.12c-41.902-9.3051-81.209-34.241-124.13-34.241" fill="#000"/>
  <path stroke-linejoin="round" d="m1073.3 307.12c-41.902-9.3051-81.209-34.241-124.13-34.241" fill-rule="evenodd" stroke="#000" stroke-linecap="butt"/>
  <path fill-rule="evenodd" fill-opacity="0" d="m897.81 273.94c-21.321 2.3709-58.985 26.026-47.084 43.874 12.567 18.847 40.296 20.762 60.995 29.963 38.764 17.232 77.689 38.116 119.85 42.803 30.488 3.3895 63.832 12.083 92.029 0 14.68-6.2908 38.696-36.693 23.541-41.732" fill="#000"/>
  <path stroke-linejoin="round" d="m897.81 273.94c-21.321 2.3709-58.985 26.026-47.084 43.874 12.567 18.847 40.296 20.762 60.995 29.963 38.764 17.232 77.689 38.116 119.85 42.803 30.488 3.3895 63.832 12.083 92.029 0 14.68-6.2908 38.696-36.693 23.541-41.732" fill-rule="evenodd" stroke="#000" stroke-linecap="butt"/>
  <path fill-rule="evenodd" fill-opacity="0" d="m955.59 334.94c9.1137-24.308 3.1481-59.755-17.121-75.976-24.941-19.96-58.668-25.304-87.748-38.525-27.486-12.496-58.142-28.397-87.748-22.472-11.584 2.318-24.477 7.294-31.031 17.123-5.9891 8.9818-4.2808 21.307-4.2808 32.102" fill="#000"/>
  <path stroke-linejoin="round" d="m955.59 334.94c9.1137-24.308 3.1481-59.755-17.121-75.976-24.941-19.96-58.668-25.304-87.748-38.525-27.486-12.496-58.142-28.397-87.748-22.472-11.584 2.318-24.477 7.294-31.031 17.123-5.9891 8.9818-4.2808 21.307-4.2808 32.102" fill-rule="evenodd" stroke="#000" stroke-linecap="butt"/>
  <path fill-rule="evenodd" fill-opacity="0" d="m737.29 278.22c20.411 27.22 56.959 38.35 88.816 50.294 28.595 10.721 58.278 22.472 88.816 22.472" fill="#000"/>
  <path stroke-linejoin="round" d="m737.29 278.22c20.411 27.22 56.959 38.35 88.816 50.294 28.595 10.721 58.278 22.472 88.816 22.472" fill-rule="evenodd" stroke="#000" stroke-linecap="butt"/>
  <path fill-rule="evenodd" fill-opacity="0" d="m914.93 319.96c9.0648-18.118-8.967-44.87-26.751-54.575-12.279-6.701-27.081-7.6549-39.593-13.911-24.959-12.479-74.636-32.893-83.467-6.4226" fill="#000"/>
  <path stroke-linejoin="round" d="m914.93 319.96c9.0648-18.118-8.967-44.87-26.751-54.575-12.279-6.701-27.081-7.6549-39.593-13.911-24.959-12.479-74.636-32.893-83.467-6.4226" fill-rule="evenodd" stroke="#000" stroke-linecap="butt"/>
  <path fill-rule="evenodd" fill-opacity="0" d="m781.17 271.8c2.4507 17.143 26.893 24.427 43.874 27.822 6.792 1.3577 26.527 7.3814 20.333 4.2809" fill="#000"/>
  <path stroke-linejoin="round" d="m781.17 271.8c2.4507 17.143 26.893 24.427 43.874 27.822 6.792 1.3577 26.527 7.3814 20.333 4.2809" fill-rule="evenodd" stroke="#000" stroke-linecap="butt"/>
  <path fill-rule="evenodd" fill-opacity="0" d="m777.97 236.83c1.0698 7.0319-10.197 9.7898-16.547 11.335-27.196 6.6193-55.47-9.0006-81.706-19.268-13.87-5.4278-28.867-7.2461-42.404-13.604-3.3082-1.5538-7.7957-0.61266-10.342-3.4003-4.267-4.671 9.4839-10.201 15.515-10.201" fill="#000"/>
  <path stroke-linejoin="round" d="m777.97 236.83c1.0698 7.0319-10.197 9.7898-16.547 11.335-27.196 6.6193-55.47-9.0006-81.706-19.268-13.87-5.4278-28.867-7.2461-42.404-13.604-3.3082-1.5538-7.7957-0.61266-10.342-3.4003-4.267-4.671 9.4839-10.201 15.515-10.201" fill-rule="evenodd" stroke="#000" stroke-linecap="butt"/>
  <path fill-rule="evenodd" fill-opacity="0" d="m678.44 208.67c16.396-2.0464 31.629 11.772 48.152 11.772" fill="#000"/>
  <path stroke-linejoin="round" d="m678.44 208.67c16.396-2.0464 31.629 11.772 48.152 11.772" fill-rule="evenodd" stroke="#000" stroke-linecap="butt"/>
  <path fill-rule="evenodd" fill-opacity="0" d="m754.42 199.25c-17.693-4.9107-35.58-9.1762-52.881-15.579-10.441-3.8638-22.529-12.653-32.375-7.1926" fill="#000"/>
  <path stroke-linejoin="round" d="m754.42 199.25c-17.693-4.9107-35.58-9.1762-52.881-15.579-10.441-3.8638-22.529-12.653-32.375-7.1926" fill-rule="evenodd" stroke="#000" stroke-linecap="butt"/>
  <path fill-rule="evenodd" fill-opacity="0" d="m630.69 182.5c-13.559 3.7686-30.078 5.1375-39.074 16.134-6.1008 7.4572-5.1243 22.722 2.1111 29.04 10.986 9.593 27.325 9.7471 41.186 13.982 21.645 6.6128 42.497 15.929 64.421 21.511 15.342 3.9063 29.906 10.823 45.413 13.984 28.256 5.761 78.149-8.2971 78.149-37.645" fill="#000"/>
  <path stroke-linejoin="round" d="m630.69 182.5c-13.559 3.7686-30.078 5.1375-39.074 16.134-6.1008 7.4572-5.1243 22.722 2.1111 29.04 10.986 9.593 27.325 9.7471 41.186 13.982 21.645 6.6128 42.497 15.929 64.421 21.511 15.342 3.9063 29.906 10.823 45.413 13.984 28.256 5.761 78.149-8.2971 78.149-37.645" fill-rule="evenodd" stroke="#000" stroke-linecap="butt"/>
  <path fill-rule="evenodd" fill-opacity="0" d="m675.23 229c9.4205-21.984-2.7281-53.541-21.402-68.486-20.275-16.226-47.797-20.69-72.766-27.824-15.079-4.3087-29.262-13.911-44.945-13.911-8.7448 0-18.855-0.11229-25.682 5.3517-10.761 8.6119-17.233 30.914-7.4908 40.664" fill="#000"/>
  <path stroke-linejoin="round" d="m675.23 229c9.4205-21.984-2.7281-53.541-21.402-68.486-20.275-16.226-47.797-20.69-72.766-27.824-15.079-4.3087-29.262-13.911-44.945-13.911-8.7448 0-18.855-0.11229-25.682 5.3517-10.761 8.6119-17.233 30.914-7.4908 40.664" fill-rule="evenodd" stroke="#000" stroke-linecap="butt"/>
  <path fill-rule="evenodd" fill-opacity="0" d="m510.43 190.48c5.9464 17.832 28.651 27.349 47.084 31.034 31.231 6.243 60.18 25.682 92.029 25.682" fill="#000"/>
  <path stroke-linejoin="round" d="m510.43 190.48c5.9464 17.832 28.651 27.349 47.084 31.034 31.231 6.243 60.18 25.682 92.029 25.682" fill-rule="evenodd" stroke="#000" stroke-linecap="butt"/>
  <path fill-rule="evenodd" fill-opacity="0" d="m584.27 207.6c-14.209-5.3275-26.023-15.679-39.593-22.472" fill="#000"/>
  <path stroke-linejoin="round" d="m584.27 207.6c-14.209-5.3275-26.023-15.679-39.593-22.472" fill-rule="evenodd" stroke="#000" stroke-linecap="butt"/>
  <path fill-rule="evenodd" fill-opacity="0" d="m535.04 159.44c-7.8366-5.2223 16.748-14.749 25.682-11.772 19.372 6.4548 41.448 8.0834 57.785 20.333 14.951 11.211 30.838 34.651 22.472 51.362" fill="#000"/>
  <path stroke-linejoin="round" d="m535.04 159.44c-7.8366-5.2223 16.748-14.749 25.682-11.772 19.372 6.4548 41.448 8.0834 57.785 20.333 14.951 11.211 30.838 34.651 22.472 51.362" fill-rule="evenodd" stroke="#000" stroke-linecap="butt"/>
  <path fill-rule="evenodd" fill-opacity="0" d="m584.27 159.44c-18.069 28.906-65.64 27.308-99.52 23.541-28.149-3.1302-57.761-8.8987-81.325-24.612-8.3994-5.6008-19.799-16.308-16.052-25.682 3.9092-9.7802 18.14-10.83 27.822-14.979 3.295-1.412 9.1008-4.2787 10.701-1.0709" fill="#000"/>
  <path stroke-linejoin="round" d="m584.27 159.44c-18.069 28.906-65.64 27.308-99.52 23.541-28.149-3.1302-57.761-8.8987-81.325-24.612-8.3994-5.6008-19.799-16.308-16.052-25.682 3.9092-9.7802 18.14-10.83 27.822-14.979 3.295-1.412 9.1008-4.2787 10.701-1.0709" fill-rule="evenodd" stroke="#000" stroke-linecap="butt"/>
  <path fill-rule="evenodd" fill-opacity="0" d="m438.74 132.69c-5.2258 0.65361-15.865 2.6005-13.911 7.4908 9.085 22.729 45.811 17.603 69.556 23.543 13.996 3.5012 29.407-1.0629 42.803-6.42 4.0965-1.6382 10.865-7.1577 12.84-3.2126" fill="#000"/>
  <path stroke-linejoin="round" d="m438.74 132.69c-5.2258 0.65361-15.865 2.6005-13.911 7.4908 9.085 22.729 45.811 17.603 69.556 23.543 13.996 3.5012 29.407-1.0629 42.803-6.42 4.0965-1.6382 10.865-7.1577 12.84-3.2126" fill-rule="evenodd" stroke="#000" stroke-linecap="butt"/>
  <path fill-rule="evenodd" fill-opacity="0" d="m498.66 142.32c-9.1449-3.9188-19.452-4.3492-28.892-7.4908" fill="#000"/>
  <path stroke-linejoin="round" d="m498.66 142.32c-9.1449-3.9188-19.452-4.3492-28.892-7.4908" fill-rule="evenodd" stroke="#000" stroke-linecap="butt"/>
  <path fill-rule="evenodd" fill-opacity="0" d="m459.07 112.36c18.178-3.6339 37.998 2.4022 54.575 10.701" fill="#000"/>
  <path stroke-linejoin="round" d="m459.07 112.36c18.178-3.6339 37.998 2.4022 54.575 10.701" fill-rule="evenodd" stroke="#000" stroke-linecap="butt"/>
  <path fill-rule="evenodd" fill-opacity="0" d="m468.7 154.09c0-18.961-4.2083-39.765-16.052-54.572-5.4802-6.8511-16.017-7.2589-23.541-11.772-20.734-12.436-43.483-23.332-67.417-26.753-16.105-2.3023-37.224 23.967-29.963 38.525" fill="#000"/>
  <path stroke-linejoin="round" d="m468.7 154.09c0-18.961-4.2083-39.765-16.052-54.572-5.4802-6.8511-16.017-7.2589-23.541-11.772-20.734-12.436-43.483-23.332-67.417-26.753-16.105-2.3023-37.224 23.967-29.963 38.525" fill-rule="evenodd" stroke="#000" stroke-linecap="butt"/>
  <path fill-rule="evenodd" fill-opacity="0" d="m357.41 99.521c-4.3604-17.474 36.953-14.584 53.507-7.4908 14.395 6.1687 19.74 25.468 23.541 40.661 0.987 3.9456 5.0306 8.1348 3.21 11.772" fill="#000"/>
  <path stroke-linejoin="round" d="m357.41 99.521c-4.3604-17.474 36.953-14.584 53.507-7.4908 14.395 6.1687 19.74 25.468 23.541 40.661 0.987 3.9456 5.0306 8.1348 3.21 11.772" fill-rule="evenodd" stroke="#000" stroke-linecap="butt"/>
  <path fill-rule="evenodd" fill-opacity="0" d="m389.51 135.9c-9.1242-4.5621-20.045-9.0671-24.612-18.189" fill="#000"/>
  <path stroke-linejoin="round" d="m389.51 135.9c-9.1242-4.5621-20.045-9.0671-24.612-18.189" fill-rule="evenodd" stroke="#000" stroke-linecap="butt"/>
  <path fill-rule="evenodd" fill-opacity="0" d="m342.43 120.92c3.8731 30.957 50.655 38.301 80.257 48.152" fill="#000"/>
  <path stroke-linejoin="round" d="m342.43 120.92c3.8731 30.957 50.655 38.301 80.257 48.152" fill-rule="evenodd" stroke="#000" stroke-linecap="butt"/>
  <path fill-rule="evenodd" fill-opacity="0" d="m347.78 65.276c-16.189 0-31.962-5.3517-48.15-5.3517" fill="#000"/>
  <path stroke-linejoin="round" d="m347.78 65.276c-16.189 0-31.962-5.3517-48.15-5.3517" fill-rule="evenodd" stroke="#000" stroke-linecap="butt"/>
  <path fill-rule="evenodd" fill-opacity="0" d="m307.12 78.115c9.2899-1.3248 18.44 4.2808 27.824 4.2808" fill="#000"/>
  <path stroke-linejoin="round" d="m307.12 78.115c9.2899-1.3248 18.44 4.2808 27.824 4.2808" fill-rule="evenodd" stroke="#000" stroke-linecap="butt"/>
  <path fill-rule="evenodd" fill-opacity="0" d="m270.73 65.276c-10.989 1.3749-23.594 1.4724-32.102 8.5617-4.6587 3.8816-4.2867 13.903 0 18.192 5.7612 5.7641 15.396 5.5882 22.472 9.6299 23.753 13.566 53.07 20.143 80.257 17.121 22.119-2.4591 52.103-4.7103 62.066-24.612" fill="#000"/>
  <path stroke-linejoin="round" d="m270.73 65.276c-10.989 1.3749-23.594 1.4724-32.102 8.5617-4.6587 3.8816-4.2867 13.903 0 18.192 5.7612 5.7641 15.396 5.5882 22.472 9.6299 23.753 13.566 53.07 20.143 80.257 17.121 22.119-2.4591 52.103-4.7103 62.066-24.612" fill-rule="evenodd" stroke="#000" stroke-linecap="butt"/>
  <path fill-rule="evenodd" fill-opacity="0" d="m368.11 90.958c-18.744 17.929-55.106 13.194-79.479 3.21-8.7912-3.6012-24.989-0.66498-26.866-9.6299-0.95233-4.5474 8.5831-5.3517 13.435-5.3517" fill="#000"/>
  <path stroke-linejoin="round" d="m368.11 90.958c-18.744 17.929-55.106 13.194-79.479 3.21-8.7912-3.6012-24.989-0.66498-26.866-9.6299-0.95233-4.5474 8.5831-5.3517 13.435-5.3517" fill-rule="evenodd" stroke="#000" stroke-linecap="butt"/>
  <path fill-rule="evenodd" fill-opacity="0" d="m195.34 48.285c-4.3604-16.34 36.953-13.638 53.507-7.0047 14.395 5.7684 19.74 23.815 23.541 38.022 0.987 3.6895 5.0306 7.6068 3.21 11.008" fill="#000"/>
  <path stroke-linejoin="round" d="m195.34 48.285c-4.3604-16.34 36.953-13.638 53.507-7.0047 14.395 5.7684 19.74 23.815 23.541 38.022 0.987 3.6895 5.0306 7.6068 3.21 11.008" fill-rule="evenodd" stroke="#000" stroke-linecap="butt"/>
  <path fill-rule="evenodd" fill-opacity="0" d="m239.77 74.68c-9.1242-2.9882-20.045-5.9389-24.612-11.914" fill="#000"/>
  <path stroke-linejoin="round" d="m239.77 74.68c-9.1242-2.9882-20.045-5.9389-24.612-11.914" fill-rule="evenodd" stroke="#000" stroke-linecap="butt"/>
  <path fill-rule="evenodd" fill-opacity="0" d="m522.62 190.48c16.568 13.253 37.742 19.395 56.714 28.892" fill="#000"/>
  <path stroke-linejoin="round" d="m522.62 190.48c16.568 13.253 37.742 19.395 56.714 28.892" fill-rule="evenodd" stroke="#d9d9d9" stroke-linecap="butt" stroke-width="16"/>
  <path fill-rule="evenodd" fill-opacity="0" d="m567.95 156.94c-33.112 19.895-78.501 20.61-115.5 9.5013-14.088-4.2302-30.429-5.3157-41.501-15-4.9185-4.3021-6.0102-14.342-2-19.501 4.7887-6.161 14.431-6.1028 22-8" fill="#000"/>
  <path stroke-linejoin="round" d="m567.95 156.94c-33.112 19.895-78.501 20.61-115.5 9.5013-14.088-4.2302-30.429-5.3157-41.501-15-4.9185-4.3021-6.0102-14.342-2-19.501 4.7887-6.161 14.431-6.1028 22-8" fill-rule="evenodd" stroke="#e60000" stroke-linecap="butt" stroke-width="12"/>
  <path fill-rule="evenodd" fill-opacity="0" d="m465.22 125.04c11.548-4.2428 28.87-1.1964 38 5.512" fill="#000"/>
  <path stroke-linejoin="round" d="m465.22 125.04c11.548-4.2428 28.87-1.1964 38 5.512" fill-rule="evenodd" stroke="#e60000" stroke-linecap="butt" stroke-width="12"/>
  <path fill-rule="evenodd" fill-opacity="0" d="m677.37 191.43c19.959 0.60141 48.414 7.3691 55.49 20.327" fill="#000"/>
  <path stroke-linejoin="round" d="m677.37 191.43c19.959 0.60141 48.414 7.3691 55.49 20.327" fill-rule="evenodd" stroke="#e60000" stroke-linecap="butt" stroke-width="16"/>
  <path fill-rule="evenodd" fill-opacity="0" d="m246.12 39.593c-24.836 24.848-69.366 41.659-101.66 27.822-18.103-7.7576-52.931-41.938-34.241-48.152" fill="#000"/>
  <path stroke-linejoin="round" d="m246.12 39.593c-24.836 24.848-69.366 41.659-101.66 27.822-18.103-7.7576-52.931-41.938-34.241-48.152" fill-rule="evenodd" stroke="#000" stroke-linecap="butt"/>
  <path fill-rule="evenodd" fill-opacity="0" d="m208.67 38.525c-13.808 22.991-97.071-0.28672-78.118-19.262" fill="#000"/>
  <path stroke-linejoin="round" d="m208.67 38.525c-13.808 22.991-97.071-0.28672-78.118-19.262" fill-rule="evenodd" stroke="#000" stroke-linecap="butt"/>
  <path fill-rule="evenodd" fill-opacity="0" d="m184.06 71.696c18.483 9.2471 37.118 22.472 57.785 22.472" fill="#000"/>
  <path stroke-linejoin="round" d="m184.06 71.696c18.483 9.2471 37.118 22.472 57.785 22.472" fill-rule="evenodd" stroke="#000" stroke-linecap="butt"/>
  <path fill-rule="evenodd" fill-opacity="0" d="m171.22 48.154c5.3567-13.402 19.172-24.322 33.173-27.824 21.631-5.4112 44.479 4.1866 66.344 8.5617 24.257 4.8539 42.087 45.283 31.034 67.415" fill="#000"/>
  <path stroke-linejoin="round" d="m171.22 48.154c5.3567-13.402 19.172-24.322 33.173-27.824 21.631-5.4112 44.479 4.1866 66.344 8.5617 24.257 4.8539 42.087 45.283 31.034 67.415" fill-rule="evenodd" stroke="#000" stroke-linecap="butt"/>
 </g>
</svg>