<svg version="1.1" viewBox="0.0 0.0 439.8346456692913 177.52230971128608" fill="none" stroke="none" stroke-linecap="square" stroke-miterlimit="10" xmlns="http://www.w3.org/2000/svg" xmlns:xlink="http://www.w3.org/1999/xlink"><clipPath id="p.0"><path d="m0 0l439.83466 0l0 177.52231l-439.83466 0l0 -177.52231z" clip-rule="nonzero"></path></clipPath><g clip-path="url(#p.0)"><path fill="#000000" fill-opacity="0.0" d="m0 0l439.83466 0l0 177.52231l-439.83466 0z" fill-rule="nonzero"></path><path fill="#000000" fill-opacity="0.0" d="m70.71129 -13.748032l376.0 0l0 128.0l-376.0 0z" fill-rule="nonzero"></path><path fill="#000000" d="m119.58629 92.41259l0 10.359375l-13.34375 0q-3.328125 0 -5.328125 -0.125q-2.0 -0.125 -5.0625 -1.046875q-3.0625 -0.921875 -5.28125 -2.84375q-3.34375 -3.078125 -4.3125 -7.21875q-0.953125 -4.15625 -0.953125 -9.46875l0 -38.609375l10.84375 0l0 38.453125q0 4.328125 0.90625 6.65625q1.640625 3.84375 7.1875 3.84375l15.34375 0z" fill-rule="nonzero"></path><path fill="#000000" d="m139.5525 102.771965l-9.859375 0l0 -44.359375l-9.1875 0l4.484375 -9.40625l14.5625 0l0 53.765625zm-10.3125 -64.953125q-1.453125 -1.90625 -1.453125 -4.140625q0 -2.25 1.453125 -4.09375q1.46875 -1.859375 4.484375 -1.859375q3.03125 0 4.484375 1.859375q1.453125 1.84375 1.453125 4.09375q0 2.234375 -1.453125 4.078125q-1.453125 1.84375 -4.484375 1.84375q-3.015625 0 -4.484375 -1.78125z" fill-rule="nonzero"></path><path fill="#000000" d="m174.83925 71.084465l-9.203125 0l0 31.6875l-10.515625 0l0 -31.6875l-6.40625 0l4.78125 -10.03125l1.625 0q0 -7.265625 6.03125 -12.46875q6.046875 -5.203125 16.875 -5.203125l0 10.03125q-12.390625 0 -12.390625 7.640625l9.203125 0l0 10.03125z" fill-rule="nonzero"></path><path fill="#000000" d="m220.93463 102.771965l-35.15625 0l0 -44.296875q0 -6.625 4.265625 -10.71875q2.90625 -2.71875 6.40625 -3.5q3.515625 -0.796875 8.34375 -0.796875l16.140625 0l0 10.359375l-17.1875 0q-7.140625 0 -7.140625 5.703125l0 7.453125l18.484375 0l0 10.359375l-18.484375 0l0 15.078125l24.328125 0l0 10.359375z" fill-rule="nonzero"></path><path fill="#e60000" d="m252.65273 64.365715l0 6.71875l-14.15625 0q-2.328125 0 -4.015625 0.890625q-1.671875 0.875 -1.671875 2.484375q0 0.953125 0.40625 1.71875q0.40625 0.75 0.921875 1.234375q0.515625 0.484375 1.59375 1.0q1.078125 0.515625 1.671875 0.71875q0.609375 0.203125 5.09375 1.640625q4.484375 1.4375 6.640625 2.40625q2.15625 0.953125 3.3125 2.59375q1.171875 1.640625 1.484375 3.203125q0.328125 1.5625 0.328125 3.078125q0 10.71875 -14.734375 10.71875l-13.828125 0l0 -6.71875l13.828125 0q7.53125 0 7.53125 -4.0q0 -1.921875 -2.203125 -3.203125q-2.203125 -1.28125 -5.359375 -2.15625q-3.15625 -0.875 -6.328125 -2.03125q-3.15625 -1.171875 -5.359375 -3.765625q-2.1875 -2.609375 -2.1875 -6.4375q0 -4.890625 3.75 -7.484375q3.765625 -2.609375 9.125 -2.609375l14.15625 0zm5.5993195 6.71875l14.328125 -14.3125l0 7.59375l10.796875 0l0 6.71875l-10.796875 0l0 16.484375q0 2.796875 0.90625 4.640625q0.921875 1.84375 2.6875 2.609375q1.765625 0.75 3.3125 1.0q1.5625 0.234375 3.890625 0.234375l0 6.71875q-9.203125 0 -13.609375 -3.515625q-4.390625 -3.53125 -4.390625 -11.6875l0 -16.484375l-7.125 0zm54.079346 9.125l0 7.203125q-3.03125 -2.328125 -7.4375 -2.328125q-3.765625 0 -5.84375 1.484375q-2.078125 1.484375 -2.078125 4.203125q0 5.28125 7.84375 5.28125l10.5625 0l0 -15.28125q0 -9.6875 -9.4375 -9.6875l-12.8125 0l0 -6.71875l13.203125 0q7.765625 0 11.921875 3.84375q4.15625 3.84375 4.15625 11.046875l0 23.515625l-17.828125 0q-6.8125 0 -10.8125 -3.03125q-4.0 -3.046875 -4.0 -8.890625q0 -5.84375 4.234375 -8.875q4.25 -3.046875 10.65625 -3.046875q3.59375 0 7.671875 1.28125zm45.130585 14.15625l4.796875 4.71875q-5.53125 4.484375 -12.640625 4.484375q-8.890625 0 -14.25 -5.71875q-5.359375 -5.71875 -5.359375 -14.28125q0 -8.390625 5.640625 -14.1875q5.640625 -5.8125 13.96875 -5.8125q7.109375 0 12.640625 4.484375l-4.71875 4.796875q-3.359375 -2.5625 -7.921875 -2.5625q-5.515625 0 -8.765625 3.640625q-3.234375 3.640625 -3.234375 9.640625q0 6.0 3.234375 9.640625q3.25 3.640625 8.765625 3.640625q4.640625 0 7.84375 -2.484375zm33.66809 -30.0l7.765625 0l-9.6875 16.71875q9.84375 2.640625 9.84375 15.921875l0 5.765625l-7.03125 0l0 -5.84375q0 -5.359375 -3.171875 -8.28125q-3.15625 -2.921875 -9.0 -2.921875q-1.828125 0 -3.75 0.25l0 16.796875l-7.046875 0l0 -56.0l7.046875 0l0 32.875q3.359375 -0.46875 6.71875 0l8.3125 -15.28125z" fill-rule="nonzero"></path><path fill="#000000" fill-opacity="0.0" d="m395.54593 20.572178l47.905518 0l0 57.38583l-47.905518 0z" fill-rule="nonzero"></path><path fill="#888888" d="m410.62405 60.29218l-2.8125 0l0 -12.671875l-2.625 0l1.28125 -2.6875l4.15625 0l0 15.359375zm-2.9375 -18.5625q-0.421875 -0.546875 -0.421875 -1.1875q0 -0.640625 0.40625 -1.15625q0.421875 -0.53125 1.28125 -0.53125q0.875 0 1.28125 0.53125q0.421875 0.515625 0.421875 1.15625q0 0.640625 -0.421875 1.171875q-0.40625 0.53125 -1.28125 0.53125q-0.859375 0 -1.265625 -0.515625zm8.994904 5.21875q2.234375 -2.34375 5.59375 -2.34375q1.625 0 3.046875 0.625q1.4375 0.625 2.5 1.71875q1.078125 1.09375 1.6875 2.546875q0.609375 1.453125 0.609375 3.109375q0 1.671875 -0.59375 3.125q-0.59375 1.453125 -1.65625 2.546875q-1.046875 1.09375 -2.5 1.71875q-1.4375 0.609375 -3.09375 0.609375q-1.703125 0 -3.125 -0.609375q-1.421875 -0.625 -2.484375 -1.71875q-1.046875 -1.09375 -1.640625 -2.546875q-0.59375 -1.453125 -0.59375 -3.125q0 -3.390625 2.25 -5.65625zm5.59375 0.359375q-2.234375 0 -3.609375 1.46875q-1.359375 1.46875 -1.359375 3.84375q0 2.359375 1.359375 3.828125q1.375 1.46875 3.609375 1.46875q2.265625 0 3.609375 -1.484375q1.34375 -1.484375 1.34375 -3.8125q0 -2.34375 -1.34375 -3.828125q-1.34375 -1.484375 -3.609375 -1.484375z" fill-rule="nonzero"></path><path fill="#000000" d="m85.412865 101.21785l-50.679863 21.748032l0 50.750656l50.81614 -21.750656z" fill-rule="nonzero"></path><path fill="#000000" d="m5.7680097 87.59055l0 50.782143l29.084446 35.312347l0 -50.687668z" fill-rule="nonzero"></path><path fill="#ffffff" d="m16.599049 100.73753l0 29.372696l-7.867671 11.782166l3.8836432 4.750656l6.2761497 -8.375336l7.719185 25.469818l4.331192 5.1863556l-9.511475 -32.81366l0 -29.656158z" fill-rule="nonzero"></path><path fill="#ffffff" d="m55.269947 114.01837l-20.368786 47.18898l11.046986 -4.8136444l0 12.59317l9.3218 -4.0l0 -12.81102l9.043453 -3.8740234l0 12.748032l9.3218 -4.0l0 -12.687668l11.841438 -5.0l-21.198036 -28.874008z" fill-rule="nonzero"></path><path fill="#000000" d="m58.717846 66.750656l0 50.750656l-43.627296 -26.249344l0 -50.87664z" fill-rule="nonzero"></path><path fill="#000000" d="m76.2267 34.687664l0 50.75066l-17.573208 32.06299l0 -50.624672" fill-rule="nonzero"></path><path fill="#ffffff" d="m31.312336 50.64698l0 20.460098l-16.188976 0.9267044l0 10.445503l16.249344 -0.7424011l-0.060367584 19.068748l9.060368 5.4096527l0 -8.714104l-0.060367584 -10.448097l18.372704 21.511398l0 -10.570099l-18.312336 -21.386803l0 -20.644402z" fill-rule="nonzero"></path><path fill="#000000" d="m19.50944 13.108345l47.7956 0l0 47.795605l-47.7956 0z" fill-rule="nonzero"></path><path stroke="#ffffff" stroke-width="1.0" stroke-linejoin="round" stroke-linecap="butt" d="m19.50944 13.108345l47.7956 0l0 47.795605l-47.7956 0z" fill-rule="nonzero"></path><path fill="#ffffff" d="m24.2085 37.006145l0 0c0 -10.129948 8.211948 -18.341894 18.341896 -18.341894l0 0c4.8645744 0 9.529907 1.9324436 12.969681 5.3722153c3.4397697 3.4397736 5.3722153 8.105108 5.3722153 12.969679l0 0c0 10.1299515 -8.211945 18.341896 -18.341896 18.341896l0 0c-10.129948 0 -18.341896 -8.211945 -18.341896 -18.341896z" fill-rule="nonzero"></path><path stroke="#ffffff" stroke-width="1.0" stroke-linejoin="round" stroke-linecap="butt" d="m24.2085 37.006145l0 0c0 -10.129948 8.211948 -18.341894 18.341896 -18.341894l0 0c4.8645744 0 9.529907 1.9324436 12.969681 5.3722153c3.4397697 3.4397736 5.3722153 8.105108 5.3722153 12.969679l0 0c0 10.1299515 -8.211945 18.341896 -18.341896 18.341896l0 0c-10.129948 0 -18.341896 -8.211945 -18.341896 -18.341896z" fill-rule="nonzero"></path><path fill="#ffffff" d="m96.71686 44.389328l0 -47.63016l-29.41182 16.346708l0 47.686954z" fill-rule="nonzero"></path><path stroke="#ffffff" stroke-width="1.0" stroke-linejoin="round" stroke-linecap="butt" d="m96.71686 44.389328l0 -47.63016l-29.41182 16.346708l0 47.686954z" fill-rule="nonzero"></path><path fill="#000000" fill-opacity="0.0" d="m214.37401 108.666664l59.37007 -59.370075" fill-rule="nonzero"></path><path stroke="#ffffff" stroke-width="12.0" stroke-linejoin="round" stroke-linecap="butt" d="m214.37401 108.666664l59.37007 -59.370075" fill-rule="nonzero"></path><path fill="#888888" d="m392.3071 57.154854l0 0c0 -2.0699806 1.6780396 -3.7480278 3.7480164 -3.7480278l0 0c0.9940491 0 1.9473572 0.3948784 2.6502686 1.0977707c0.70288086 0.7028923 1.0977783 1.6562195 1.0977783 2.650257l0 0c0 2.0699806 -1.6780701 3.7480316 -3.7480469 3.7480316l0 0c-2.0699768 0 -3.7480164 -1.678051 -3.7480164 -3.7480316z" fill-rule="nonzero"></path><path fill="#000000" fill-opacity="0.0" d="m206.29265 60.902885l23.275589 -23.275589" fill-rule="nonzero"></path><path stroke="#ffffff" stroke-width="12.0" stroke-linejoin="round" stroke-linecap="butt" d="m206.29265 60.902885l23.275589 -23.275589" fill-rule="nonzero"></path></g></svg>