<svg xmlns="http://www.w3.org/2000/svg" stroke-linecap="square" version="1.1" stroke-miterlimit="10" xmlns:xlink="http://www.w3.org/1999/xlink" viewBox="0.0 0.0 1333.3333333333333 533.3333333333334" fill="none">
 <clipPath id="p.0">
  <path d="m0 0h1333.3v533.33h-1333.3v-533.33z"/>
 </clipPath>
 <g clip-path="url(#p.0)">
  <path fill-opacity="0" d="m0 0h1333.3v533.33h-1333.3z" fill="#000"/>
  <path fill-rule="evenodd" fill-opacity="0" d="m1318.4 16.053c-45.11-4.5143-90.699 8.8287-135.9 5.3491-105.63-8.1313-211.94-4.7156-317.82-1.0709-43.563 1.4996-87.038-10.052-130.55-7.4908-74.899 4.409-149.77 16.252-224.72 12.843-72.694-3.3068-145.62 1.4975-218.3-2.1391-44.181-2.2107-88.971-8.872-132.69-2.1417-33.851 5.2108-68.477 2.1417-102.73 2.1417-12.505 0-31.864-9.0471-37.454 2.1391-4.3314 8.6681 1.6157 19.334 3.21 28.892 2.5822 15.481 0 31.389 0 47.084 0 44.995-6.4199 89.837-6.4199 134.83 0 25.131 10.131 49.823 8.5617 74.906-1.3106 20.953-9.2066 41.125-10.703 62.066-1.9781 27.674 7.85 54.931 11.772 82.396 2.2694 15.894 2.8453 32.198 1.0709 48.155-0.5926 5.329-6.1571 14.353-1.0709 16.05 6.665 2.2235 12.533-6.5403 19.262-8.5591 8.8894-2.6666 18.541-1.0709 27.822-1.0709 51.366 0 102.78-3.4051 154.09-1.0709 187.07 8.51 374.79-11.988 561.8-2.1391 116.48 6.1344 233.42 5.8282 349.92 0 45.957-2.2992 92.028 0 138.04 0 11.792 0 23.52 2.1391 35.312 2.1391 3.6376 0 8.1301 4.7155 10.701 2.1417 5.6368-5.6436-1.4167-16.099-4.2808-23.543-5.2009-13.519-7.4908-28.319-7.4908-42.803 0-32.152 8.5494-64.315 5.3517-96.307-1.6215-16.223-6.5382-31.978-8.5616-48.155-2-15.99 3.2081-32.076 4.2809-48.155 2.0486-30.709 2.4341-61.668 7.4907-92.026 7.912-47.501 1.0709-96.307 1.0709-144.46" fill="#000"/>
  <path stroke-linejoin="round" d="m1318.4 16.053c-45.11-4.5143-90.699 8.8287-135.9 5.3491-105.63-8.1313-211.94-4.7156-317.82-1.0709-43.563 1.4996-87.038-10.052-130.55-7.4908-74.899 4.409-149.77 16.252-224.72 12.843-72.694-3.3068-145.62 1.4975-218.3-2.1391-44.181-2.2107-88.971-8.872-132.69-2.1417-33.851 5.2108-68.477 2.1417-102.73 2.1417-12.505 0-31.864-9.0471-37.454 2.1391-4.3314 8.6681 1.6157 19.334 3.21 28.892 2.5822 15.481 0 31.389 0 47.084 0 44.995-6.4199 89.837-6.4199 134.83 0 25.131 10.131 49.823 8.5617 74.906-1.3106 20.953-9.2066 41.125-10.703 62.066-1.9781 27.674 7.85 54.931 11.772 82.396 2.2694 15.894 2.8453 32.198 1.0709 48.155-0.5926 5.329-6.1571 14.353-1.0709 16.05 6.665 2.2235 12.533-6.5403 19.262-8.5591 8.8894-2.6666 18.541-1.0709 27.822-1.0709 51.366 0 102.78-3.4051 154.09-1.0709 187.07 8.51 374.79-11.988 561.8-2.1391 116.48 6.1344 233.42 5.8282 349.92 0 45.957-2.2992 92.028 0 138.04 0 11.792 0 23.52 2.1391 35.312 2.1391 3.6376 0 8.1301 4.7155 10.701 2.1417 5.6368-5.6436-1.4167-16.099-4.2808-23.543-5.2009-13.519-7.4908-28.319-7.4908-42.803 0-32.152 8.5494-64.315 5.3517-96.307-1.6215-16.223-6.5382-31.978-8.5616-48.155-2-15.99 3.2081-32.076 4.2809-48.155 2.0486-30.709 2.4341-61.668 7.4907-92.026 7.912-47.501 1.0709-96.307 1.0709-144.46" fill-rule="evenodd" stroke="#888" stroke-linecap="butt" stroke-width="4"/>
  <path fill-rule="evenodd" fill-opacity="0" d="m345.64 43.874c41.646 8.3252 85.197 0.99091 127.34-4.2808 14.55-1.8202 31.299-10.753 43.874-3.21 18.113 10.864-3.9432 42.062-5.3491 63.136-1.0924 16.375 0.099426 32.853-1.0709 49.223-0.40775 5.7035 6.1853 14.564 1.0709 17.121-28.778 14.389-64.43 2.0729-96.31 6.42-18.944 2.5831-37.967 4.8086-56.714 8.5617-4.2545 0.85175-10.434 5.7498-12.84 2.1391-4.0003-6.0029 2.8666-14.196 3.21-21.402 1.1042-23.169 5.4217-46.592 2.1391-69.554-1.717-12.011-1.0709-24.25-1.0709-36.383 0-2.876-1.7662-11.352-1.0682-8.5617" fill="#000"/>
  <path stroke-linejoin="round" d="m345.64 43.874c41.646 8.3252 85.197 0.99091 127.34-4.2808 14.55-1.8202 31.299-10.753 43.874-3.21 18.113 10.864-3.9432 42.062-5.3491 63.136-1.0924 16.375 0.099426 32.853-1.0709 49.223-0.40775 5.7035 6.1853 14.564 1.0709 17.121-28.778 14.389-64.43 2.0729-96.31 6.42-18.944 2.5831-37.967 4.8086-56.714 8.5617-4.2545 0.85175-10.434 5.7498-12.84 2.1391-4.0003-6.0029 2.8666-14.196 3.21-21.402 1.1042-23.169 5.4217-46.592 2.1391-69.554-1.717-12.011-1.0709-24.25-1.0709-36.383 0-2.876-1.7662-11.352-1.0682-8.5617" fill-rule="evenodd" stroke="#000" stroke-linecap="butt" stroke-width="2"/>
  <path fill-rule="evenodd" fill-opacity="0" d="m459.07 110.22c-4.0349-5.0442-17.694-4.1277-19.26 2.1391-1.6313 6.5292 11.278 14.04 17.121 10.701 7.0617-4.0356 0.55414-19.356-6.42-23.541" fill="#000"/>
  <path stroke-linejoin="round" d="m459.07 110.22c-4.0349-5.0442-17.694-4.1277-19.26 2.1391-1.6313 6.5292 11.278 14.04 17.121 10.701 7.0617-4.0356 0.55414-19.356-6.42-23.541" fill-rule="evenodd" stroke="#000" stroke-linecap="butt" stroke-width="12"/>
  <path fill-rule="evenodd" fill-opacity="0" d="m402.35 70.627c22.784 1.4216 45.657 0 68.486 0" fill="#000"/>
  <path stroke-linejoin="round" d="m402.35 70.627c22.784 1.4216 45.657 0 68.486 0" fill-rule="evenodd" stroke="#ccc" stroke-linecap="butt" stroke-width="24"/>
  <path fill-rule="evenodd" fill-opacity="0" d="m677.32 70.627c22.784 1.4216 45.657 0 68.486 0" fill="#000"/>
  <path stroke-linejoin="round" d="m677.32 70.627c22.784 1.4216 45.657 0 68.486 0" fill-rule="evenodd" stroke="#ccc" stroke-linecap="butt" stroke-width="24"/>
  <path fill-rule="evenodd" fill-opacity="0" d="m517.08 258.62c23.748-0.92871 46.803-7.0631 70.205-10.595" fill="#000"/>
  <path stroke-linejoin="round" d="m517.08 258.62c23.748-0.92871 46.803-7.0631 70.205-10.595" fill-rule="evenodd" stroke="#ccc" stroke-linecap="butt" stroke-width="24"/>
  <path fill-rule="evenodd" fill-opacity="0" d="m563.86 444.51c22.34-4.6994 44.009-12.163 66.013-18.245" fill="#000"/>
  <path stroke-linejoin="round" d="m563.86 444.51c22.34-4.6994 44.009-12.163 66.013-18.245" fill-rule="evenodd" stroke="#ccc" stroke-linecap="butt" stroke-width="24"/>
  <path fill-rule="evenodd" fill-opacity="0" d="m684.27 369.72c18.312-8.3271 38.503-8.2228 57.754-12.334" fill="#000"/>
  <path stroke-linejoin="round" d="m684.27 369.72c18.312-8.3271 38.503-8.2228 57.754-12.334" fill-rule="evenodd" stroke="#ccc" stroke-linecap="butt" stroke-width="24"/>
  <path fill-rule="evenodd" fill-opacity="0" d="m636.7 47.084c33.456 2.2318 67.126 2.0932 100.59 0 13.569-0.84874 31.048-12.824 40.661-3.21 12.423 12.423-5.3491 34.865-5.3491 52.433 0 17.893-1.7487 35.794-4.2808 53.507-1.0612 7.423 4.2346 17.171-1.0709 22.47-4.3201 4.3148-12.123 1.4669-18.192 2.1417-19.225 2.1379-38.559 3.2117-57.785 5.3491-14.339 1.5941-28.52 4.3857-42.803 6.4226-5.4021 0.77037-13.61 8.0894-16.052 3.21-3.2293-6.4506 4.3995-14.286 3.2126-21.402-6.5732-39.407 1.0682-79.899 1.0682-119.85" fill="#000"/>
  <path stroke-linejoin="round" d="m636.7 47.084c33.456 2.2318 67.126 2.0932 100.59 0 13.569-0.84874 31.048-12.824 40.661-3.21 12.423 12.423-5.3491 34.865-5.3491 52.433 0 17.893-1.7487 35.794-4.2808 53.507-1.0612 7.423 4.2346 17.171-1.0709 22.47-4.3201 4.3148-12.123 1.4669-18.192 2.1417-19.225 2.1379-38.559 3.2117-57.785 5.3491-14.339 1.5941-28.52 4.3857-42.803 6.4226-5.4021 0.77037-13.61 8.0894-16.052 3.21-3.2293-6.4506 4.3995-14.286 3.2126-21.402-6.5732-39.407 1.0682-79.899 1.0682-119.85" fill-rule="evenodd" stroke="#000" stroke-linecap="butt"/>
  <path fill-rule="evenodd" fill-opacity="0" d="m538.25 96.307c31.365 1.4266 62.771 2.1417 94.168 2.1417" fill="#000"/>
  <path stroke-linejoin="round" d="m538.25 96.307c31.365 1.4266 62.771 2.1417 94.168 2.1417" fill-rule="evenodd" stroke="#000" stroke-linecap="butt"/>
  <path fill-rule="evenodd" fill-opacity="0" d="m528.62 168.01c34.192 3.4133 71.98-6.7779 102.73 8.5591" fill="#000"/>
  <path stroke-linejoin="round" d="m528.62 168.01c34.192 3.4133 71.98-6.7779 102.73 8.5591" fill-rule="evenodd" stroke="#000" stroke-linecap="butt"/>
  <path fill-rule="evenodd" fill-opacity="0" d="m537.19 37.453c30.974 1.9326 62.106 0.56153 93.097-1.0709 15.23-0.8022 51.752-5.0859 44.945 8.5617" fill="#000"/>
  <path stroke-linejoin="round" d="m537.19 37.453c30.974 1.9326 62.106 0.56153 93.097-1.0709 15.23-0.8022 51.752-5.0859 44.945 8.5617" fill-rule="evenodd" stroke="#666" stroke-linecap="butt" stroke-width="4"/>
  <path fill-rule="evenodd" fill-opacity="0" d="m539.33 40.665c0-3.2298 1.0709 6.4002 1.0709 9.6299v41.735" fill="#000"/>
  <path stroke-linejoin="round" d="m539.33 40.665c0-3.2298 1.0709 6.4002 1.0709 9.6299v41.735" fill-rule="evenodd" stroke="#666" stroke-linecap="butt" stroke-width="3"/>
  <path fill-rule="evenodd" fill-opacity="0" d="m688.07 19.262c0 10.012-2.1391 19.948-2.1391 29.961" fill="#000"/>
  <path stroke-linejoin="round" d="m688.07 19.262c0 10.012-2.1391 19.948-2.1391 29.961" fill-rule="evenodd" stroke="#000" stroke-linecap="butt"/>
  <path fill-rule="evenodd" fill-opacity="0" d="m680.58 185.13c1.066-1.5977 2.041 3.4311 2.1417 5.3491 0.58051 11.048 1.0682 22.11 1.0682 33.173 0 30.372-2.6042 60.711-5.3491 90.958-0.74213 8.178-1.0709 32.823-1.0709 24.612" fill="#000"/>
  <path stroke-linejoin="round" d="m680.58 185.13c1.066-1.5977 2.041 3.4311 2.1417 5.3491 0.58051 11.048 1.0682 22.11 1.0682 33.173 0 30.372-2.6042 60.711-5.3491 90.958-0.74213 8.178-1.0709 32.823-1.0709 24.612" fill-rule="evenodd" stroke="#000" stroke-linecap="butt"/>
  <path fill-rule="evenodd" fill-opacity="0" d="m322.1 27.822c1.2574 22.618 6.4125 44.867 8.5617 67.417 1.7342 18.196-4.4382 36.319-5.3517 54.575-3.209 64.133-1.7187 128.59 3.21 192.61 2.8752 37.349 2.1417 74.9 2.1417 112.36 0 12.861-0.3844 25.913 2.1391 38.525 0.93369 4.6663 5.3402 18.166 3.21 13.911" fill="#000"/>
  <path stroke-linejoin="round" d="m322.1 27.822c1.2574 22.618 6.4125 44.867 8.5617 67.417 1.7342 18.196-4.4382 36.319-5.3517 54.575-3.209 64.133-1.7187 128.59 3.21 192.61 2.8752 37.349 2.1417 74.9 2.1417 112.36 0 12.861-0.3844 25.913 2.1391 38.525 0.93369 4.6663 5.3402 18.166 3.21 13.911" fill-rule="evenodd" stroke="#000" stroke-linecap="butt" stroke-width="4"/>
  <path fill-rule="evenodd" fill-opacity="0" d="m454.79 232.21c41.133-7.8355 82.896-11.986 124.13-19.262 18.431-3.2522 37.294-11.163 55.646-7.4908 3.8635 0.77309 1.3733 7.8432 1.0709 11.772-1.0163 13.202-3.2126 26.352-3.2126 39.593 0 23.545 1.2706 47.199-1.0682 70.627-0.65332 6.5441 1.4687 16.067-4.2809 19.26-31.802 17.66-71.341 14.263-107.01 21.402-22.842 4.5717-45.888 19.57-68.486 13.913-11.078-2.773-2.33-22.894-1.0682-34.244 2.5236-22.7-7.0931-46.189-2.1417-68.486 3.2927-14.827-7.2456-48.622 7.4908-44.945" fill="#000"/>
  <path stroke-linejoin="round" d="m454.79 232.21c41.133-7.8355 82.896-11.986 124.13-19.262 18.431-3.2522 37.294-11.163 55.646-7.4908 3.8635 0.77309 1.3733 7.8432 1.0709 11.772-1.0163 13.202-3.2126 26.352-3.2126 39.593 0 23.545 1.2706 47.199-1.0682 70.627-0.65332 6.5441 1.4687 16.067-4.2809 19.26-31.802 17.66-71.341 14.263-107.01 21.402-22.842 4.5717-45.888 19.57-68.486 13.913-11.078-2.773-2.33-22.894-1.0682-34.244 2.5236-22.7-7.0931-46.189-2.1417-68.486 3.2927-14.827-7.2456-48.622 7.4908-44.945" fill-rule="evenodd" stroke="#000" stroke-linecap="butt" stroke-width="2"/>
  <path fill-rule="evenodd" fill-opacity="0" d="m506.15 507.22c0-16.423-2.1391-32.8-2.1391-49.223 0-9.9941-8.1421-22.901-1.0709-29.963 9.7419-9.73 26.236-8.4323 39.593-11.772 21.995-5.4988 43.983-11.254 66.346-14.982 18.434-3.0724 36.675-7.4703 54.575-12.84 7.9976-2.3991 15.62-11.204 23.541-8.5617 7.7896 2.5986-1.8839 16.441-1.0682 24.612 3.1891 31.946-1.0709 64.204-1.0709 96.31" fill="#000"/>
  <path stroke-linejoin="round" d="m506.15 507.22c0-16.423-2.1391-32.8-2.1391-49.223 0-9.9941-8.1421-22.901-1.0709-29.963 9.7419-9.73 26.236-8.4323 39.593-11.772 21.995-5.4988 43.983-11.254 66.346-14.982 18.434-3.0724 36.675-7.4703 54.575-12.84 7.9976-2.3991 15.62-11.204 23.541-8.5617 7.7896 2.5986-1.8839 16.441-1.0682 24.612 3.1891 31.946-1.0709 64.204-1.0709 96.31" fill-rule="evenodd" stroke="#000" stroke-linecap="butt" stroke-width="3"/>
  <path fill-rule="evenodd" fill-opacity="0" d="m642.05 388.44c1.6146-11.322-5.9481-26.157 2.1391-34.244 3.8171-3.817 10.793-0.92441 16.052-2.1391 18.886-4.3616 37.827-8.4843 56.714-12.843 12.479-2.8795 25.14-5.0425 37.454-8.5591 7.4911-2.1392 15.24-9.3145 22.472-6.42 14.665 5.8689-6.9246 31.367-5.3517 47.084 1.6697 16.685 3.1476 33.655 1.0709 50.294-0.62463 5.0049 1.8927 11.952-2.1417 14.979-22.827 17.127-55.807 13.978-81.325 26.753" fill="#000"/>
  <path stroke-linejoin="round" d="m642.05 388.44c1.6146-11.322-5.9481-26.157 2.1391-34.244 3.8171-3.817 10.793-0.92441 16.052-2.1391 18.886-4.3616 37.827-8.4843 56.714-12.843 12.479-2.8795 25.14-5.0425 37.454-8.5591 7.4911-2.1392 15.24-9.3145 22.472-6.42 14.665 5.8689-6.9246 31.367-5.3517 47.084 1.6697 16.685 3.1476 33.655 1.0709 50.294-0.62463 5.0049 1.8927 11.952-2.1417 14.979-22.827 17.127-55.807 13.978-81.325 26.753" fill-rule="evenodd" stroke="#000" stroke-linecap="butt"/>
  <path fill-rule="evenodd" fill-opacity="0" d="m723.07 118.22c-4.0349-5.0442-17.694-4.1277-19.26 2.1391-1.6313 6.5292 11.278 14.04 17.121 10.701 7.0616-4.0356 0.55414-19.356-6.42-23.541" fill="#000"/>
  <path stroke-linejoin="round" d="m723.07 118.22c-4.0349-5.0442-17.694-4.1277-19.26 2.1391-1.6313 6.5292 11.278 14.04 17.121 10.701 7.0616-4.0356 0.55414-19.356-6.42-23.541" fill-rule="evenodd" stroke="#000" stroke-linecap="butt" stroke-width="12"/>
  <path fill-rule="evenodd" fill-opacity="0" d="m571.07 302.22c-4.0349-5.0442-17.694-4.1277-19.26 2.1391-1.6313 6.5292 11.278 14.04 17.121 10.701 7.0616-4.0356 0.55414-19.356-6.42-23.541" fill="#000"/>
  <path stroke-linejoin="round" d="m571.07 302.22c-4.0349-5.0442-17.694-4.1277-19.26 2.1391-1.6313 6.5292 11.278 14.04 17.121 10.701 7.0616-4.0356 0.55414-19.356-6.42-23.541" fill-rule="evenodd" stroke="#000" stroke-linecap="butt" stroke-width="12"/>
  <path fill-rule="evenodd" fill-opacity="0" d="m623.42 472.59c-4.9274-6.16-21.608-5.0407-23.52 2.6123-1.9921 7.9735 13.772 17.146 20.908 13.068 8.6237-4.9283 0.6767-23.637-7.84-28.748" fill="#000"/>
  <path stroke-linejoin="round" d="m623.42 472.59c-4.9274-6.16-21.608-5.0407-23.52 2.6123-1.9921 7.9735 13.772 17.146 20.908 13.068 8.6237-4.9283 0.6767-23.637-7.84-28.748" fill-rule="evenodd" stroke="#000" stroke-linecap="butt" stroke-width="12"/>
  <path fill-rule="evenodd" fill-opacity="0" d="m731.07 406.22c-4.0349-5.0442-17.694-4.1277-19.26 2.1391-1.6313 6.5292 11.278 14.04 17.121 10.701 7.0617-4.0356 0.55414-19.356-6.4199-23.541" fill="#000"/>
  <path stroke-linejoin="round" d="m731.07 406.22c-4.0349-5.0442-17.694-4.1277-19.26 2.1391-1.6313 6.5292 11.278 14.04 17.121 10.701 7.0617-4.0356 0.55414-19.356-6.4199-23.541" fill-rule="evenodd" stroke="#000" stroke-linecap="butt" stroke-width="8"/>
  <path fill-rule="evenodd" fill-opacity="0" d="m590.69 170.14c-58.881 6.5476-117.92 11.957-176.56 20.331-16.731 2.3889-34.262 1.0741-50.294 6.4226-6.4649 2.1567-15.512-2.678-20.333 2.1391-8.0747 8.0681 0 22.829 0 34.244 0 33.978 3.7365 67.889 7.4908 101.66 3.3951 30.539 7.7101 61.39 5.3517 92.026-1.5889 20.64-0.14877 41.492 2.1391 62.066 0.78943 7.099-2.1266 15.014 1.0709 21.402" fill="#000"/>
  <path stroke-linejoin="round" d="m590.69 170.14c-58.881 6.5476-117.92 11.957-176.56 20.331-16.731 2.3889-34.262 1.0741-50.294 6.4226-6.4649 2.1567-15.512-2.678-20.333 2.1391-8.0747 8.0681 0 22.829 0 34.244 0 33.978 3.7365 67.889 7.4908 101.66 3.3951 30.539 7.7101 61.39 5.3517 92.026-1.5889 20.64-0.14877 41.492 2.1391 62.066 0.78943 7.099-2.1266 15.014 1.0709 21.402" fill-rule="evenodd" stroke="#000" stroke-linecap="butt"/>
  <path fill-rule="evenodd" fill-opacity="0" d="m500.34 479.4c-43.737-30.695-92.964-54.152-141.86-77.047" fill="#000"/>
  <path stroke-linejoin="round" d="m500.34 479.4c-43.737-30.695-92.964-54.152-141.86-77.047" fill-rule="evenodd" stroke="#666" stroke-linecap="butt" stroke-width="4"/>
  <path fill-rule="evenodd" fill-opacity="0" d="m448.37 291.07c-20.416-7.6569-43.093-8.5323-63.134-17.123-13.394-5.7414-26.092-16.05-40.664-16.05" fill="#000"/>
  <path stroke-linejoin="round" d="m448.37 291.07c-20.416-7.6569-43.093-8.5323-63.134-17.123-13.394-5.7414-26.092-16.05-40.664-16.05" fill-rule="evenodd" stroke="#000" stroke-linecap="butt"/>
  <path fill-rule="evenodd" fill-opacity="0" d="m354.2 333.87c-9.6299-3.2126 19.814 5.087 28.892 9.6299 21.999 11.009 46.802 18.999 64.207 36.383" fill="#000"/>
  <path stroke-linejoin="round" d="m354.2 333.87c-9.6299-3.2126 19.814 5.087 28.892 9.6299 21.999 11.009 46.802 18.999 64.207 36.383" fill-rule="evenodd" stroke="#000" stroke-linecap="butt" stroke-width="4"/>
  <path fill-rule="evenodd" fill-opacity="0" d="m359.55 484.75c11.956 11.961 29.82 15.973 44.942 23.543" fill="#000"/>
  <path stroke-linejoin="round" d="m359.55 484.75c11.956 11.961 29.82 15.973 44.942 23.543" fill-rule="evenodd" stroke="#000" stroke-linecap="butt"/>
  <path fill-rule="evenodd" fill-opacity="0" d="m633.49 325.31c18.561 7.9538 39.728 9.1519 57.785 18.192" fill="#000"/>
  <path stroke-linejoin="round" d="m633.49 325.31c18.561 7.9538 39.728 9.1519 57.785 18.192" fill-rule="evenodd" stroke="#000" stroke-linecap="butt"/>
  <path fill-rule="evenodd" fill-opacity="0" d="m425.9 282.5c-10.858-9.047-28.892-16.898-28.892-31.031 0-4.1601 7.1332-4.2827 10.701-6.4226 9.7598-5.854 19.133-12.338 28.892-18.192 17.315-10.385 35.211-19.99 51.365-32.102 4.9099-3.6817 9.2834-12.98 14.982-10.701 16.826 6.7287 31.06 19.289 43.874 32.102" fill="#000"/>
  <path stroke-linejoin="round" d="m425.9 282.5c-10.858-9.047-28.892-16.898-28.892-31.031 0-4.1601 7.1332-4.2827 10.701-6.4226 9.7598-5.854 19.133-12.338 28.892-18.192 17.315-10.385 35.211-19.99 51.365-32.102 4.9099-3.6817 9.2834-12.98 14.982-10.701 16.826 6.7287 31.06 19.289 43.874 32.102" fill-rule="evenodd" stroke="#e60000" stroke-linecap="butt" stroke-width="3"/>
  <path fill-rule="evenodd" fill-opacity="0" d="m469.88 204.34c-21.761 3.6246-42.317 13.311-64.207 16.05-0.79755 0.099777-21.402 3.7711-21.402 4.2808 0 11.336 5.6257 21.992 7.4908 33.173 0.64557 3.8704 1.2417 15.494 0 11.772" fill="#000"/>
  <path stroke-linejoin="round" d="m469.88 204.34c-21.761 3.6246-42.317 13.311-64.207 16.05-0.79755 0.099777-21.402 3.7711-21.402 4.2808 0 11.336 5.6257 21.992 7.4908 33.173 0.64557 3.8704 1.2417 15.494 0 11.772" fill-rule="evenodd" stroke="#e60000" stroke-linecap="butt" stroke-width="3"/>
  <path fill-rule="evenodd" fill-opacity="0" d="m372.39 267.52c-2.2865-8.0069-10.943-19.616-4.2809-24.612 3.7541-2.815 9.2211-2.1391 13.913-2.1391" fill="#000"/>
  <path stroke-linejoin="round" d="m372.39 267.52c-2.2865-8.0069-10.943-19.616-4.2809-24.612 3.7541-2.815 9.2211-2.1391 13.913-2.1391" fill-rule="evenodd" stroke="#e60000" stroke-linecap="butt" stroke-width="3"/>
  <path fill-rule="evenodd" fill-opacity="0" d="m513.31 197.19c-8.3969 6.1291-17.825 11.137-25.352 18.191" fill="#000"/>
  <path stroke-linejoin="round" d="m513.31 197.19c-8.3969 6.1291-17.825 11.137-25.352 18.191" fill-rule="evenodd" stroke="#d9d9d9" stroke-linecap="butt" stroke-width="24"/>
  <path fill-rule="evenodd" fill-opacity="0" d="m417.72 229.06c-10.037 2.7042-20.635 3.9917-30.192 7.8718" fill="#000"/>
  <path stroke-linejoin="round" d="m417.72 229.06c-10.037 2.7042-20.635 3.9917-30.192 7.8718" fill-rule="evenodd" stroke="#d9d9d9" stroke-linecap="butt" stroke-width="12"/>
  <path fill-rule="evenodd" fill-opacity="0" d="m486.12 446.36c-36.413-25.887-78.756-37.583-113.42-67.136" fill="#000"/>
  <path stroke-linejoin="round" d="m486.12 446.36c-36.413-25.887-78.756-37.583-113.42-67.136" fill-rule="evenodd" stroke="#d9d9d9" stroke-linecap="butt" stroke-width="24"/>
  <path fill-rule="evenodd" fill-opacity="0" d="m554.31 293.2c-5.6586-1.0283-11.369-2.1391-17.121-2.1391" fill="#000"/>
  <path stroke-linejoin="round" d="m554.31 293.2c-5.6586-1.0283-11.369-2.1391-17.121-2.1391" fill-rule="evenodd" stroke="#000" stroke-linecap="butt"/>
  <path fill-rule="evenodd" fill-opacity="0" d="m553.24 315.68c-6.0846-0.50745-12.086-2.1417-18.192-2.1417" fill="#000"/>
  <path stroke-linejoin="round" d="m553.24 315.68c-6.0846-0.50745-12.086-2.1417-18.192-2.1417" fill-rule="evenodd" stroke="#000" stroke-linecap="butt"/>
  <path fill-rule="evenodd" fill-opacity="0" d="m710.54 108.08c-4.6085-0.51247-9.7644-2.0757-13.911 0" fill="#000"/>
  <path stroke-linejoin="round" d="m710.54 108.08c-4.6085-0.51247-9.7644-2.0757-13.911 0" fill-rule="evenodd" stroke="#000" stroke-linecap="butt"/>
  <path fill-rule="evenodd" fill-opacity="0" d="m703.05 130.55c-3.2551-0.46535-6.6881-0.67001-9.6299-2.1391" fill="#000"/>
  <path stroke-linejoin="round" d="m703.05 130.55c-3.2551-0.46535-6.6881-0.67001-9.6299-2.1391" fill-rule="evenodd" stroke="#000" stroke-linecap="butt"/>
  <path fill-rule="evenodd" fill-opacity="0" d="m541.47 291.07c-7.0563 4.7004-9.0998 16.567-6.4225 24.612" fill="#000"/>
  <path stroke-linejoin="round" d="m541.47 291.07c-7.0563 4.7004-9.0998 16.567-6.4225 24.612" fill-rule="evenodd" stroke="#000" stroke-linecap="butt"/>
  <path fill-rule="evenodd" fill-opacity="0" d="m698.77 108.08c-5.3907 5.3934-11.1 19.059-4.2809 22.472" fill="#000"/>
  <path stroke-linejoin="round" d="m698.77 108.08c-5.3907 5.3934-11.1 19.059-4.2809 22.472" fill-rule="evenodd" stroke="#000" stroke-linecap="butt"/>
 </g>
</svg>