<svg xmlns="http://www.w3.org/2000/svg" stroke-linecap="square" version="1.1" stroke-miterlimit="10" xmlns:xlink="http://www.w3.org/1999/xlink" viewBox="0.0 0.0 1333.3333333333333 533.3333333333334" fill="none">
 <clipPath id="p.0">
  <path d="m0 0h1333.3v533.33h-1333.3v-533.33z"/>
 </clipPath>
 <g clip-path="url(#p.0)">
  <path fill-opacity="0" d="m0 0h1333.3v533.33h-1333.3z" fill="#000"/>
  <path fill-rule="evenodd" fill-opacity="0" d="m1311.9 512.57c-29.469-9.8309-62.089-2.4002-93.097-4.2809-118.56-7.1911-237.88-6.5288-356.34 2.1391-147.64 10.802-296.66-16.611-444.09-3.21-88.834 8.0752-178.32 6.42-267.52 6.42-32.104 0-64.203 1.0709-96.307 1.0709-12.49 0-29.961 8.9217-37.454-1.0709-6.2092-8.2806-0.62965-20.822 1.0709-31.031 2.4643-14.795 2.1391-29.946 2.1391-44.945 0-45.335-8.0132-90.643-5.3491-135.9 3.8159-64.823 4.2808-129.82 4.2808-194.76 0-29.614-7.955-59.778-2.1417-88.816 0.70369-3.515 7.1436-0.62691 10.701-1.0709 20.532-2.5626 41.42-0.30642 62.066 1.0709 40.232 2.6839 80.6-3.21 120.92-3.21 126.65 0 253.23 7.4908 379.88 7.4908 107.37 0 214.73-2.1417 322.1-2.1417 45.692 0 91.485 9.6872 136.97 5.3517 41.668-3.9717 83.402-7.4339 125.2-9.6299 17.824-0.93643 35.835 4.6651 53.504 2.1391 21.896-3.1302 44.228 1.0709 66.346 1.0709 7.8794 0 20.024-9.1926 23.541-2.1417 6.6829 13.399-12.088 29.104-9.63 43.874 6.9088 41.521 6.2922 84.504 1.0682 126.27-3.2682 26.13 15.032 51.987 11.772 78.118-2.261 18.121-9.754 35.355-11.772 53.504-2.5419 22.865 5.7056 45.657 8.5618 68.486 2.1919 17.519-5.299 34.916-7.4908 52.436-2.923 23.362 1.0709 47.08 1.0709 70.625" fill="#000"/>
  <path stroke-linejoin="round" d="m1311.9 512.57c-29.469-9.8309-62.089-2.4002-93.097-4.2809-118.56-7.1911-237.88-6.5288-356.34 2.1391-147.64 10.802-296.66-16.611-444.09-3.21-88.834 8.0752-178.32 6.42-267.52 6.42-32.104 0-64.203 1.0709-96.307 1.0709-12.49 0-29.961 8.9217-37.454-1.0709-6.2092-8.2806-0.62965-20.822 1.0709-31.031 2.4643-14.795 2.1391-29.946 2.1391-44.945 0-45.335-8.0132-90.643-5.3491-135.9 3.8159-64.823 4.2808-129.82 4.2808-194.76 0-29.614-7.955-59.778-2.1417-88.816 0.70369-3.515 7.1436-0.62691 10.701-1.0709 20.532-2.5626 41.42-0.30642 62.066 1.0709 40.232 2.6839 80.6-3.21 120.92-3.21 126.65 0 253.23 7.4908 379.88 7.4908 107.37 0 214.73-2.1417 322.1-2.1417 45.692 0 91.485 9.6872 136.97 5.3517 41.668-3.9717 83.402-7.4339 125.2-9.6299 17.824-0.93643 35.835 4.6651 53.504 2.1391 21.896-3.1302 44.228 1.0709 66.346 1.0709 7.8794 0 20.024-9.1926 23.541-2.1417 6.6829 13.399-12.088 29.104-9.63 43.874 6.9088 41.521 6.2922 84.504 1.0682 126.27-3.2682 26.13 15.032 51.987 11.772 78.118-2.261 18.121-9.754 35.355-11.772 53.504-2.5419 22.865 5.7056 45.657 8.5618 68.486 2.1919 17.519-5.299 34.916-7.4908 52.436-2.923 23.362 1.0709 47.08 1.0709 70.625" fill-rule="evenodd" stroke="#888" stroke-linecap="butt" stroke-width="4"/>
  <path fill-rule="evenodd" fill-opacity="0" d="m85.027 22.682c31.193 12.505 55.038 37.152 82.654 55.602 25.199 16.834 52.407 31.039 76.852 48.82 14.194 10.325 26.808 23.587 43.503 29.834 17.264 6.4602 36.599 6.4075 55.102 8.1358 55.278 5.1637 108.73-22.026 163.85-28.477 16.813-1.9675 33.806-2.7119 50.751-2.7119 5.4039 0 12.952-6.9166 15.95-2.7119 13.314 18.671-18.671 46.485-40.6 55.599-14.469 6.0134-32.824 1.8776-46.402 9.4931-8.394 4.7076-14.904 17.766-10.151 25.767 16.15 27.184 53.355 38.333 84.103 50.175 19.405 7.4732 36.678 19.082 55.102 28.479 24.786 12.643 72.166 43.709 52.202 62.38-9.9645 9.319-28.683 0.099152-42.051-4.0693-31.801-9.9157-59.549-29.413-91.351-39.327-5.1275-1.5984-13.535-7.2326-15.953-2.7119-7.7521 14.493 29.743 16.649 44.954 24.41 20.481 10.45 33.867 30.473 53.651 42.039 14.778 8.6395 31.182 15.594 43.503 27.122 5.899 5.5196 2.1654 18.181-4.3511 23.056-18.028 13.485-45.211-10.984-65.253-21.698-18.587-9.9366-37.836-18.755-56.55-28.479-9.855-5.1208-18.919-11.558-29.004-16.272-5.8004-2.7114-17.399-14.203-17.399-8.1385 0 13.18 23.88 14.033 36.252 20.344 23.152 11.809 39.192 33.029 59.45 48.82 10.1 7.8731 29.081 18.836 23.201 29.834-7.8116 14.611-34.789-5.5711-50.751-12.205-21.93-9.1145-46.835-15.321-63.804-31.191-9.2339-8.6357-19.584-16.278-30.449-23.053-4.5855-2.859-9.9942-13.782-13.051-9.4932-3.2718 4.5913 6.375 9.3202 10.151 13.56 8.5561 9.6071 18.33 18.305 26.101 28.479 14.447 18.914 42.253 67.807 17.399 67.807-26.373 0-42.409-32.701-52.202-55.602-4.6004-10.758-4.2873-24.356-13.051-32.546-17.768-16.606-45.951-20.223-65.25-35.261-19.314-15.049-41.673-26.774-59.453-43.394-14.512-13.565-26.031-30.05-42.051-42.039-30.717-22.989-71.693-30.568-105.85-48.82-51.459-27.496-87.657-76.903-140.66-101.71" fill="#000"/>
  <path stroke-linejoin="round" d="m85.027 22.682c31.193 12.505 55.038 37.152 82.654 55.602 25.199 16.834 52.407 31.039 76.852 48.82 14.194 10.325 26.808 23.587 43.503 29.834 17.264 6.4602 36.599 6.4075 55.102 8.1358 55.278 5.1637 108.73-22.026 163.85-28.477 16.813-1.9675 33.806-2.7119 50.751-2.7119 5.4039 0 12.952-6.9166 15.95-2.7119 13.314 18.671-18.671 46.485-40.6 55.599-14.469 6.0134-32.824 1.8776-46.402 9.4931-8.394 4.7076-14.904 17.766-10.151 25.767 16.15 27.184 53.355 38.333 84.103 50.175 19.405 7.4732 36.678 19.082 55.102 28.479 24.786 12.643 72.166 43.709 52.202 62.38-9.9645 9.319-28.683 0.099152-42.051-4.0693-31.801-9.9157-59.549-29.413-91.351-39.327-5.1275-1.5984-13.535-7.2326-15.953-2.7119-7.7521 14.493 29.743 16.649 44.954 24.41 20.481 10.45 33.867 30.473 53.651 42.039 14.778 8.6395 31.182 15.594 43.503 27.122 5.899 5.5196 2.1654 18.181-4.3511 23.056-18.028 13.485-45.211-10.984-65.253-21.698-18.587-9.9366-37.836-18.755-56.55-28.479-9.855-5.1208-18.919-11.558-29.004-16.272-5.8004-2.7114-17.399-14.203-17.399-8.1385 0 13.18 23.88 14.033 36.252 20.344 23.152 11.809 39.192 33.029 59.45 48.82 10.1 7.8731 29.081 18.836 23.201 29.834-7.8116 14.611-34.789-5.5711-50.751-12.205-21.93-9.1145-46.835-15.321-63.804-31.191-9.2339-8.6357-19.584-16.278-30.449-23.053-4.5855-2.859-9.9942-13.782-13.051-9.4932-3.2718 4.5913 6.375 9.3202 10.151 13.56 8.5561 9.6071 18.33 18.305 26.101 28.479 14.447 18.914 42.253 67.807 17.399 67.807-26.373 0-42.409-32.701-52.202-55.602-4.6004-10.758-4.2873-24.356-13.051-32.546-17.768-16.606-45.951-20.223-65.25-35.261-19.314-15.049-41.673-26.774-59.453-43.394-14.512-13.565-26.031-30.05-42.051-42.039-30.717-22.989-71.693-30.568-105.85-48.82-51.459-27.496-87.657-76.903-140.66-101.71" fill-rule="evenodd" stroke="#000" stroke-linecap="butt"/>
  <path fill-rule="evenodd" fill-opacity="0" d="m1270.4 25.462c-19.822 18.582-36.762 40.614-58.961 56.281-37.376 26.379-80.451 44.234-123.28 60.302-33.338 12.506-64.898 36.181-100.5 36.181-22.968 0-45.211-8.8184-67-16.081-30.194-10.065-63.748-2.806-95.142-8.0394-13.255-2.2097-25.825-7.467-38.863-10.722-5.7819-1.4434-12.464-7.3296-17.42-4.021-5.9443 3.968-2.8158 14.872 0 21.441 8.7375 20.384 34.556 28.79 54.942 37.522 12.595 5.3954 29.172 3.7102 38.861 13.399 6.3484 6.3484 4.1544 17.944 2.6798 26.801-2.5244 15.161-23.773 19.926-37.52 26.801-24.136 12.071-46.888 26.789-71.024 38.861-12.255 6.1295-27.9 5.1785-38.861 13.402-18.733 14.055-56.765 41.067-40.199 57.622 7.6937 7.6886 22.325-3.9279 30.819-10.722 22.996-18.393 53.807-24.187 81.743-33.499 8.5699-2.8566 23.944-12.591 26.8-4.021 3.2211 9.6633-14.718 14.845-24.121 18.761-34.883 14.529-66.111 37.451-95.142 61.64-9.7545 8.1277-29.799 18.124-24.121 29.48 3.2211 6.4422 14.41 4.2421 21.441 2.6798 37.441-8.3193 71.268-29.648 103.18-50.921 10.804-7.2021 22.109-14.875 34.843-17.42 4.0383-0.80701 12.06-6.7979 12.06-2.6798 0 12.775-20.356 15.453-30.822 22.78-26.42 18.496-52.948 36.973-77.722 57.622-6.8369 5.6985-14.333 19.168-8.0394 25.462 11.414 11.414 32.462-4.8414 46.9-12.06 25.71-12.855 50.536-28.198 72.362-46.903 8.5601-7.3362 17.78-14.317 28.142-18.759 3.3097-1.4187 6.4969-7.5223 9.378-5.3622 4.9648 3.7224-4.0566 12.889-9.378 16.081-26.008 15.602-47.044 39.042-65.664 62.982-4.7892 6.1573-12.927 20.888-5.3596 22.78 40.748 10.187 71.681-43.933 105.86-68.341 41.449-29.597 87.689-58.176 113.9-101.84 22.724-37.854 81.824-34.219 119.26-57.622 58.786-36.748 105.48-92.301 167.5-123.28" fill="#000"/>
  <path stroke-linejoin="round" d="m1270.4 25.462c-19.822 18.582-36.762 40.614-58.961 56.281-37.376 26.379-80.451 44.234-123.28 60.302-33.338 12.506-64.898 36.181-100.5 36.181-22.968 0-45.211-8.8184-67-16.081-30.194-10.065-63.748-2.806-95.142-8.0394-13.255-2.2097-25.825-7.467-38.863-10.722-5.7819-1.4434-12.464-7.3296-17.42-4.021-5.9443 3.968-2.8158 14.872 0 21.441 8.7375 20.384 34.556 28.79 54.942 37.522 12.595 5.3954 29.172 3.7102 38.861 13.399 6.3484 6.3484 4.1544 17.944 2.6798 26.801-2.5244 15.161-23.773 19.926-37.52 26.801-24.136 12.071-46.888 26.789-71.024 38.861-12.255 6.1295-27.9 5.1785-38.861 13.402-18.733 14.055-56.765 41.067-40.199 57.622 7.6937 7.6886 22.325-3.9279 30.819-10.722 22.996-18.393 53.807-24.187 81.743-33.499 8.5699-2.8566 23.944-12.591 26.8-4.021 3.2211 9.6633-14.718 14.845-24.121 18.761-34.883 14.529-66.111 37.451-95.142 61.64-9.7545 8.1277-29.799 18.124-24.121 29.48 3.2211 6.4422 14.41 4.2421 21.441 2.6798 37.441-8.3193 71.268-29.648 103.18-50.921 10.804-7.2021 22.109-14.875 34.843-17.42 4.0383-0.80701 12.06-6.7979 12.06-2.6798 0 12.775-20.356 15.453-30.822 22.78-26.42 18.496-52.948 36.973-77.722 57.622-6.8369 5.6985-14.333 19.168-8.0394 25.462 11.414 11.414 32.462-4.8414 46.9-12.06 25.71-12.855 50.536-28.198 72.362-46.903 8.5601-7.3362 17.78-14.317 28.142-18.759 3.3097-1.4187 6.4969-7.5223 9.378-5.3622 4.9648 3.7224-4.0566 12.889-9.378 16.081-26.008 15.602-47.044 39.042-65.664 62.982-4.7892 6.1573-12.927 20.888-5.3596 22.78 40.748 10.187 71.681-43.933 105.86-68.341 41.449-29.597 87.689-58.176 113.9-101.84 22.724-37.854 81.824-34.219 119.26-57.622 58.786-36.748 105.48-92.301 167.5-123.28" fill-rule="evenodd" stroke="#000" stroke-linecap="butt"/>
  <path fill-rule="evenodd" fill-opacity="0" d="m568.18 134.01c-8.0408 6.6993-29.461 19.44-20.1 24.121 5.9395 2.9697 11.768-7.4632 14.74-13.402" fill="#000"/>
  <path stroke-linejoin="round" d="m568.18 134.01c-8.0408 6.6993-29.461 19.44-20.1 24.121 5.9395 2.9697 11.768-7.4632 14.74-13.402" fill-rule="evenodd" stroke="#e60000" stroke-linecap="butt" stroke-width="4"/>
  <path fill-rule="evenodd" fill-opacity="0" d="m651.25 343.05c5.5971 0 12.001 10.783 8.042 14.74-4.7496 4.7477-13.731 0.78256-20.102-1.3386" fill="#000"/>
  <path stroke-linejoin="round" d="m651.25 343.05c5.5971 0 12.001 10.783 8.042 14.74-4.7496 4.7477-13.731 0.78256-20.102-1.3386" fill-rule="evenodd" stroke="#e60000" stroke-linecap="butt" stroke-width="4"/>
  <path fill-rule="evenodd" fill-opacity="0" d="m647.24 408.71c4.8451 1.2101 6.6754 11.744 2.6798 14.74-4.6595 3.4935-12.212 3.9451-17.42 1.3386" fill="#000"/>
  <path stroke-linejoin="round" d="m647.24 408.71c4.8451 1.2101 6.6754 11.744 2.6798 14.74-4.6595 3.4935-12.212 3.9451-17.42 1.3386" fill-rule="evenodd" stroke="#e60000" stroke-linecap="butt" stroke-width="4"/>
  <path fill-rule="evenodd" fill-opacity="0" d="m589.61 442.25c4.7379 0.9483 14.223 3.721 12.06 8.042-4.0182 8.0286-17.823-2.6798-26.801-2.6798" fill="#000"/>
  <path stroke-linejoin="round" d="m589.61 442.25c4.7379 0.9483 14.223 3.721 12.06 8.042-4.0182 8.0286-17.823-2.6798-26.801-2.6798" fill-rule="evenodd" stroke="#e60000" stroke-linecap="butt" stroke-width="4"/>
  <path fill-rule="evenodd" fill-opacity="0" d="m498.5 463.86c1.7354 6.0732 6.1827 13.503 2.6798 18.759-3.1335 4.7018-10.431-5.3596-16.081-5.3596" fill="#000"/>
  <path stroke-linejoin="round" d="m498.5 463.86c1.7354 6.0732 6.1827 13.503 2.6798 18.759-3.1335 4.7018-10.431-5.3596-16.081-5.3596" fill-rule="evenodd" stroke="#e60000" stroke-linecap="butt" stroke-width="4"/>
  <path fill-rule="evenodd" fill-opacity="0" d="m777.22 144.72c6.3626 4.7704 19.511 12.396 14.74 18.759-3.6443 4.8607-12.025-5.2843-14.74-10.719" fill="#000"/>
  <path stroke-linejoin="round" d="m777.22 144.72c6.3626 4.7704 19.511 12.396 14.74 18.759-3.6443 4.8607-12.025-5.2843-14.74-10.719" fill-rule="evenodd" stroke="#e60000" stroke-linecap="butt" stroke-width="8"/>
  <path fill-rule="evenodd" fill-opacity="0" d="m690.12 352.43c-4.8456 3.2309-12.61 9.8938-9.3806 14.74 3.6826 5.5257 15.789-0.76001 18.761-6.6982" fill="#000"/>
  <path stroke-linejoin="round" d="m690.12 352.43c-4.8456 3.2309-12.61 9.8938-9.3806 14.74 3.6826 5.5257 15.789-0.76001 18.761-6.6982" fill-rule="evenodd" stroke="#e60000" stroke-linecap="butt" stroke-width="8"/>
  <path fill-rule="evenodd" fill-opacity="0" d="m700.84 418.09c-7.7466 3.3206-24.103 5.4048-21.441 13.402 2.2618 6.7944 14.28-1.3412 21.441-1.3412" fill="#000"/>
  <path stroke-linejoin="round" d="m700.84 418.09c-7.7466 3.3206-24.103 5.4048-21.441 13.402 2.2618 6.7944 14.28-1.3412 21.441-1.3412" fill-rule="evenodd" stroke="#e60000" stroke-linecap="butt" stroke-width="8"/>
  <path fill-rule="evenodd" fill-opacity="0" d="m749.08 450.25c-6.4473 5.3717-16.653 16.846-10.719 22.78 4.3992 4.3992 11.856-3.9163 17.42-6.7008" fill="#000"/>
  <path stroke-linejoin="round" d="m749.08 450.25c-6.4473 5.3717-16.653 16.846-10.719 22.78 4.3992 4.3992 11.856-3.9163 17.42-6.7008" fill-rule="evenodd" stroke="#e60000" stroke-linecap="butt" stroke-width="8"/>
  <path fill-rule="evenodd" fill-opacity="0" d="m821.44 474.37c-4.467 3.573-13.898 8.6414-10.722 13.399 4.0901 6.1271 18.146 1.2296 21.441-5.3596 1.2791-2.5582-2.6464-5.7958-5.3596-6.7008" fill="#000"/>
  <path stroke-linejoin="round" d="m821.44 474.37c-4.467 3.573-13.898 8.6414-10.722 13.399 4.0901 6.1271 18.146 1.2296 21.441-5.3596 1.2791-2.5582-2.6464-5.7958-5.3596-6.7008" fill-rule="evenodd" stroke="#e60000" stroke-linecap="butt" stroke-width="8"/>
 </g>
</svg>