<svg xmlns="http://www.w3.org/2000/svg" stroke-linecap="square" version="1.1" stroke-miterlimit="10" xmlns:xlink="http://www.w3.org/1999/xlink" viewBox="0.0 0.0 1333.3333333333333 266.6666666666667" fill="none">
 <clipPath id="p.0">
  <path d="m0 0h1333.3v266.67h-1333.3v-266.67z"/>
 </clipPath>
 <g clip-path="url(#p.0)">
  <path fill-opacity="0" d="m0 0h1333.3v266.67h-1333.3z" fill="#000"/>
  <path fill-rule="evenodd" fill-opacity="0" d="m1311.9 250.76c-29.469-4.6648-62.089-1.1389-93.097-2.0313-118.56-3.4122-237.88-3.0979-356.34 1.015-147.64 5.1257-296.66-7.882-444.09-1.5231-88.834 3.8317-178.32 3.0463-267.52 3.0463-32.104 0-64.203 0.50812-96.307 0.50812-12.49 0-29.961 4.2333-37.454-0.50812-6.2092-3.9292-0.62965-9.8801 1.0709-14.724 2.4643-7.0201 2.1391-14.21 2.1391-21.326 0-21.512-8.0132-43.01-5.3491-64.485 3.8159-30.758 4.2808-61.601 4.2808-92.413 0-14.052-7.955-28.365-2.1417-42.143 0.70369-1.6679 7.1436-0.29747 10.701-0.50813 20.532-1.216 41.42-0.14539 62.066 0.50813 40.232 1.2735 80.6-1.5231 120.92-1.5231 126.65 0 253.23 3.5544 379.88 3.5544 107.37 0 214.73-1.0163 322.1-1.0163 45.692 0 91.485 4.5966 136.97 2.5394 41.668-1.8846 83.402-3.5274 125.2-4.5694 17.824-0.44433 35.835 2.2136 53.504 1.015 21.896-1.4853 44.228 0.50813 66.346 0.50813 7.8793 0 20.024-4.3619 23.541-1.0163 6.683 6.3577-12.088 13.81-9.6299 20.818 6.9088 19.702 6.2922 40.097 1.0682 59.915-3.2682 12.399 15.032 24.668 11.772 37.067-2.2609 8.5983-9.7539 16.776-11.772 25.388-2.542 10.85 5.7056 21.664 8.5616 32.496 2.192 8.313-5.2988 16.568-7.4908 24.881-2.9229 11.085 1.0709 22.34 1.0709 33.511" fill="#000"/>
  <path stroke-linejoin="round" d="m1311.9 250.76c-29.469-4.6648-62.089-1.1389-93.097-2.0313-118.56-3.4122-237.88-3.0979-356.34 1.015-147.64 5.1257-296.66-7.882-444.09-1.5231-88.834 3.8317-178.32 3.0463-267.52 3.0463-32.104 0-64.203 0.50812-96.307 0.50812-12.49 0-29.961 4.2333-37.454-0.50812-6.2092-3.9292-0.62965-9.8801 1.0709-14.724 2.4643-7.0201 2.1391-14.21 2.1391-21.326 0-21.512-8.0132-43.01-5.3491-64.485 3.8159-30.758 4.2808-61.601 4.2808-92.413 0-14.052-7.955-28.365-2.1417-42.143 0.70369-1.6679 7.1436-0.29747 10.701-0.50813 20.532-1.216 41.42-0.14539 62.066 0.50813 40.232 1.2735 80.6-1.5231 120.92-1.5231 126.65 0 253.23 3.5544 379.88 3.5544 107.37 0 214.73-1.0163 322.1-1.0163 45.692 0 91.485 4.5966 136.97 2.5394 41.668-1.8846 83.402-3.5274 125.2-4.5694 17.824-0.44433 35.835 2.2136 53.504 1.015 21.896-1.4853 44.228 0.50813 66.346 0.50813 7.8793 0 20.024-4.3619 23.541-1.0163 6.683 6.3577-12.088 13.81-9.6299 20.818 6.9088 19.702 6.2922 40.097 1.0682 59.915-3.2682 12.399 15.032 24.668 11.772 37.067-2.2609 8.5983-9.7539 16.776-11.772 25.388-2.542 10.85 5.7056 21.664 8.5616 32.496 2.192 8.313-5.2988 16.568-7.4908 24.881-2.9229 11.085 1.0709 22.34 1.0709 33.511" fill-rule="evenodd" stroke="#888" stroke-linecap="butt" stroke-width="3"/>
  <path fill-rule="evenodd" fill-opacity="0" d="m61.6 17.024c19.493 5.9275 34.393 17.611 51.65 26.356 15.747 7.9797 32.749 14.713 48.024 23.141 8.8697 4.8941 16.752 11.18 27.185 14.142 10.788 3.0622 22.871 3.0372 34.433 3.8565 34.543 2.4476 67.946-10.441 102.39-13.498 10.507-0.9326 21.125-1.2855 31.714-1.2855 3.3769 0 8.0937-3.2785 9.9673-1.2855 8.3199 8.8504-11.667 22.034-25.371 26.355-9.0415 2.8504-20.511 0.89003-28.997 4.4999-5.2453 2.2315-9.3136 8.4213-6.3431 12.214 10.092 12.886 33.341 18.17 52.555 23.784 12.126 3.5424 22.92 9.0451 34.433 13.5 15.489 5.9929 45.096 20.719 32.621 29.569-6.2268 4.4173-17.924 0.047012-26.278-1.9289-19.872-4.7002-37.212-13.942-57.085-18.642-3.2041-0.75768-8.458-3.4283-9.9691-1.2855-4.8442 6.8697 18.586 7.8918 28.092 11.571 12.798 4.9535 21.163 14.445 33.526 19.927 9.2346 4.0952 19.486 7.3919 27.185 12.856 3.6863 2.6163 1.3531 8.618-2.719 10.929-11.265 6.3921-28.252-5.2066-40.776-10.285-11.615-4.71-23.643-8.8901-35.338-13.5-6.1584-2.4273-11.823-5.4785-18.124-7.713-3.6246-1.2852-10.872-6.7324-10.872-3.8577 0 6.2472 14.922 6.6518 22.654 9.6431 14.468 5.5978 24.491 15.656 37.15 23.141 6.3116 3.7319 18.173 8.9283 14.498 14.142-4.8814 6.9258-21.739-2.6408-31.714-5.7854-13.704-4.3204-29.267-7.2625-39.871-14.785-5.7702-4.0934-12.238-7.7162-19.028-10.927-2.8655-1.3552-6.2453-6.5329-8.1552-4.4999-2.0446 2.1763 3.9837 4.4179 6.3431 6.4275 5.3466 4.5539 11.454 8.677 16.31 13.5 9.0276 8.9654 26.404 32.141 10.872 32.141-16.48 0-26.501-15.501-32.621-26.356-2.8748-5.0994-2.6791-11.545-8.1552-15.427-11.103-7.8716-28.714-9.5859-40.774-16.714-12.069-7.1335-26.041-12.691-37.152-20.569-9.0685-6.4301-16.267-14.244-26.278-19.927-19.195-10.897-44.801-14.49-66.147-23.141-32.156-13.034-54.777-36.453-87.895-48.212" fill="#000"/>
  <path stroke-linejoin="round" d="m61.6 17.024c19.493 5.9275 34.393 17.611 51.65 26.356 15.747 7.9797 32.749 14.713 48.024 23.141 8.8697 4.8941 16.752 11.18 27.185 14.142 10.788 3.0622 22.871 3.0372 34.433 3.8565 34.543 2.4476 67.946-10.441 102.39-13.498 10.507-0.9326 21.125-1.2855 31.714-1.2855 3.3769 0 8.0937-3.2785 9.9673-1.2855 8.3199 8.8504-11.667 22.034-25.371 26.355-9.0415 2.8504-20.511 0.89003-28.997 4.4999-5.2453 2.2315-9.3136 8.4213-6.3431 12.214 10.092 12.886 33.341 18.17 52.555 23.784 12.126 3.5424 22.92 9.0451 34.433 13.5 15.489 5.9929 45.096 20.719 32.621 29.569-6.2268 4.4173-17.924 0.047012-26.278-1.9289-19.872-4.7002-37.212-13.942-57.085-18.642-3.2041-0.75768-8.458-3.4283-9.9691-1.2855-4.8442 6.8697 18.586 7.8918 28.092 11.571 12.798 4.9535 21.163 14.445 33.526 19.927 9.2346 4.0952 19.486 7.3919 27.185 12.856 3.6863 2.6163 1.3531 8.618-2.719 10.929-11.265 6.3921-28.252-5.2066-40.776-10.285-11.615-4.71-23.643-8.8901-35.338-13.5-6.1584-2.4273-11.823-5.4785-18.124-7.713-3.6246-1.2852-10.872-6.7324-10.872-3.8577 0 6.2472 14.922 6.6518 22.654 9.6431 14.468 5.5978 24.491 15.656 37.15 23.141 6.3116 3.7319 18.173 8.9283 14.498 14.142-4.8814 6.9258-21.739-2.6408-31.714-5.7854-13.704-4.3204-29.267-7.2625-39.871-14.785-5.7702-4.0934-12.238-7.7162-19.028-10.927-2.8655-1.3552-6.2453-6.5329-8.1552-4.4999-2.0446 2.1763 3.9837 4.4179 6.3431 6.4275 5.3466 4.5539 11.454 8.677 16.31 13.5 9.0276 8.9654 26.404 32.141 10.872 32.141-16.48 0-26.501-15.501-32.621-26.356-2.8748-5.0994-2.6791-11.545-8.1552-15.427-11.103-7.8716-28.714-9.5859-40.774-16.714-12.069-7.1335-26.041-12.691-37.152-20.569-9.0685-6.4301-16.267-14.244-26.278-19.927-19.195-10.897-44.801-14.49-66.147-23.141-32.156-13.034-54.777-36.453-87.895-48.212" fill-rule="evenodd" stroke="#000" stroke-linecap="butt"/>
  <path fill-rule="evenodd" fill-opacity="0" d="m802.32 18.341c-12.387 8.8098-22.973 19.255-36.844 26.683-23.356 12.506-50.274 20.972-77.04 28.589-20.833 5.9289-40.555 17.153-62.805 17.153-14.352 0-28.252-4.1808-41.868-7.6242-18.868-4.7716-39.836-1.3303-59.454-3.8115-8.2834-1.0476-16.138-3.5401-24.286-5.0832-3.6131-0.6843-7.7884-3.475-10.886-1.9064-3.7146 1.8812-1.7596 7.0508 0 10.165 5.4601 9.6639 21.594 13.649 34.333 17.789 7.8706 2.5579 18.23 1.759 24.284 6.3524 3.9671 3.0098 2.5961 8.5074 1.6746 12.706-1.5775 7.1877-14.856 9.4468-23.446 12.706-15.083 5.7229-29.3 12.701-44.383 18.424-7.6581 2.906-17.435 2.4551-24.284 6.3537-11.707 6.6633-35.472 19.47-25.121 27.319 4.8078 3.6452 13.951-1.8622 19.259-5.0832 14.37-8.7202 33.624-11.467 51.081-15.882 5.3554-1.3543 14.963-5.9694 16.748-1.9064 2.0128 4.5814-9.1971 7.0379-15.073 8.8947-21.799 6.8884-41.312 17.755-59.454 29.224-6.0956 3.8534-18.621 8.5925-15.073 13.977 2.0129 3.0542 9.0047 2.0112 13.398 1.2705 23.397-3.9442 44.535-14.056 64.478-24.142 6.7517-3.4146 13.816-7.0524 21.773-8.2588 2.5235-0.38261 7.5365-3.2229 7.5365-1.2705 0 6.0568-12.721 7.3261-19.26 10.8-16.51 8.7691-33.087 17.529-48.568 27.319-4.2724 2.7017-8.9566 9.0878-5.0238 12.072 7.1327 5.4115 20.286-2.2953 29.308-5.7178 16.066-6.0945 31.58-13.369 45.219-22.237 5.3491-3.4781 11.111-6.7877 17.586-8.8934 2.0682-0.67259 4.0599-3.5663 5.8603-2.5422 3.1025 1.7648-2.535 6.1108-5.8603 7.6242-16.252 7.3968-29.398 18.51-41.033 29.86-2.9927 2.9192-8.0782 9.9028-3.3492 10.8 25.463 4.8297 44.793-20.829 66.154-32.401 25.901-14.032 54.797-27.581 71.178-48.284 14.2-17.947 51.132-16.223 74.527-27.319 36.735-17.422 65.917-43.76 104.67-58.447" fill="#000"/>
  <path stroke-linejoin="round" d="m802.32 18.341c-12.387 8.8098-22.973 19.255-36.844 26.683-23.356 12.506-50.274 20.972-77.04 28.589-20.833 5.9289-40.555 17.153-62.805 17.153-14.352 0-28.252-4.1808-41.868-7.6242-18.868-4.7716-39.836-1.3303-59.454-3.8115-8.2834-1.0476-16.138-3.5401-24.286-5.0832-3.6131-0.6843-7.7884-3.475-10.886-1.9064-3.7146 1.8812-1.7596 7.0508 0 10.165 5.4601 9.6639 21.594 13.649 34.333 17.789 7.8706 2.5579 18.23 1.759 24.284 6.3524 3.9671 3.0098 2.5961 8.5074 1.6746 12.706-1.5775 7.1877-14.856 9.4468-23.446 12.706-15.083 5.7229-29.3 12.701-44.383 18.424-7.6581 2.906-17.435 2.4551-24.284 6.3537-11.707 6.6633-35.472 19.47-25.121 27.319 4.8078 3.6452 13.951-1.8622 19.259-5.0832 14.37-8.7202 33.624-11.467 51.081-15.882 5.3554-1.3543 14.963-5.9694 16.748-1.9064 2.0128 4.5814-9.1971 7.0379-15.073 8.8947-21.799 6.8884-41.312 17.755-59.454 29.224-6.0956 3.8534-18.621 8.5925-15.073 13.977 2.0129 3.0542 9.0047 2.0112 13.398 1.2705 23.397-3.9442 44.535-14.056 64.478-24.142 6.7517-3.4146 13.816-7.0524 21.773-8.2588 2.5235-0.38261 7.5365-3.2229 7.5365-1.2705 0 6.0568-12.721 7.3261-19.26 10.8-16.51 8.7691-33.087 17.529-48.568 27.319-4.2724 2.7017-8.9566 9.0878-5.0238 12.072 7.1327 5.4115 20.286-2.2953 29.308-5.7178 16.066-6.0945 31.58-13.369 45.219-22.237 5.3491-3.4781 11.111-6.7877 17.586-8.8934 2.0682-0.67259 4.0599-3.5663 5.8603-2.5422 3.1025 1.7648-2.535 6.1108-5.8603 7.6242-16.252 7.3968-29.398 18.51-41.033 29.86-2.9927 2.9192-8.0782 9.9028-3.3492 10.8 25.463 4.8297 44.793-20.829 66.154-32.401 25.901-14.032 54.797-27.581 71.178-48.284 14.2-17.947 51.132-16.223 74.527-27.319 36.735-17.422 65.917-43.76 104.67-58.447" fill-rule="evenodd" stroke="#000" stroke-linecap="butt"/>
  <path fill-rule="evenodd" fill-opacity="0" d="m363.53 69.798c-5.0247 3.1761-18.41 9.2166-12.56 11.436 3.7116 1.408 7.3539-3.5383 9.2111-6.3537" fill="#000"/>
  <path stroke-linejoin="round" d="m363.53 69.798c-5.0247 3.1761-18.41 9.2166-12.56 11.436 3.7116 1.408 7.3539-3.5383 9.2111-6.3537" fill-rule="evenodd" stroke="#e60000" stroke-linecap="butt" stroke-width="4"/>
  <path fill-rule="evenodd" fill-opacity="0" d="m415.45 168.9c3.4976 0 7.4991 5.1123 5.0254 6.9883-2.968 2.2509-8.5802 0.37102-12.562-0.63463" fill="#000"/>
  <path stroke-linejoin="round" d="m415.45 168.9c3.4976 0 7.4991 5.1123 5.0254 6.9883-2.968 2.2509-8.5802 0.37102-12.562-0.63463" fill-rule="evenodd" stroke="#e60000" stroke-linecap="butt" stroke-width="4"/>
  <path fill-rule="evenodd" fill-opacity="0" d="m412.94 200.03c3.0277 0.5737 4.1714 5.568 1.6746 6.9883-2.9117 1.6563-7.6313 1.8704-10.886 0.63461" fill="#000"/>
  <path stroke-linejoin="round" d="m412.94 200.03c3.0277 0.5737 4.1714 5.568 1.6746 6.9883-2.9117 1.6563-7.6313 1.8704-10.886 0.63461" fill-rule="evenodd" stroke="#e60000" stroke-linecap="butt" stroke-width="4"/>
  <path fill-rule="evenodd" fill-opacity="0" d="m376.93 215.93c2.9607 0.4496 8.8879 1.7642 7.5365 3.8127-2.511 3.8064-11.137-1.2705-16.748-1.2705" fill="#000"/>
  <path stroke-linejoin="round" d="m376.93 215.93c2.9607 0.4496 8.8879 1.7642 7.5365 3.8127-2.511 3.8064-11.137-1.2705-16.748-1.2705" fill-rule="evenodd" stroke="#e60000" stroke-linecap="butt" stroke-width="4"/>
  <path fill-rule="evenodd" fill-opacity="0" d="m319.99 226.17c1.0845 2.8793 3.8636 6.4015 1.6746 8.8934-1.9582 2.2291-6.5184-2.541-10.049-2.541" fill="#000"/>
  <path stroke-linejoin="round" d="m319.99 226.17c1.0845 2.8793 3.8636 6.4015 1.6746 8.8934-1.9582 2.2291-6.5184-2.541-10.049-2.541" fill-rule="evenodd" stroke="#e60000" stroke-linecap="butt" stroke-width="4"/>
  <path fill-rule="evenodd" fill-opacity="0" d="m494.17 74.879c3.976 2.2616 12.192 5.8769 9.2111 8.8934-2.2773 2.3045-7.5146-2.5053-9.2111-5.082" fill="#000"/>
  <path stroke-linejoin="round" d="m494.17 74.879c3.976 2.2616 12.192 5.8769 9.2111 8.8934-2.2773 2.3045-7.5146-2.5053-9.2111-5.082" fill-rule="evenodd" stroke="#e60000" stroke-linecap="butt" stroke-width="8"/>
  <path fill-rule="evenodd" fill-opacity="0" d="m439.73 173.34c-3.028 1.5318-7.8802 4.6907-5.8619 6.9883 2.3012 2.6197 9.8667-0.36032 11.724-3.1756" fill="#000"/>
  <path stroke-linejoin="round" d="m439.73 173.34c-3.028 1.5318-7.8802 4.6907-5.8619 6.9883 2.3012 2.6197 9.8667-0.36032 11.724-3.1756" fill-rule="evenodd" stroke="#e60000" stroke-linecap="butt" stroke-width="8"/>
  <path fill-rule="evenodd" fill-opacity="0" d="m446.43 204.47c-4.8408 1.5743-15.062 2.5624-13.398 6.3537 1.4134 3.2212 8.9236-0.63586 13.398-0.63586" fill="#000"/>
  <path stroke-linejoin="round" d="m446.43 204.47c-4.8408 1.5743-15.062 2.5624-13.398 6.3537 1.4134 3.2212 8.9236-0.63586 13.398-0.63586" fill-rule="evenodd" stroke="#e60000" stroke-linecap="butt" stroke-width="8"/>
  <path fill-rule="evenodd" fill-opacity="0" d="m476.58 219.72c-4.0289 2.5467-10.407 7.9865-6.6984 10.8 2.7491 2.0857 7.4091-1.8567 10.886-3.1768" fill="#000"/>
  <path stroke-linejoin="round" d="m476.58 219.72c-4.0289 2.5467-10.407 7.9865-6.6984 10.8 2.7491 2.0857 7.4091-1.8567 10.886-3.1768" fill-rule="evenodd" stroke="#e60000" stroke-linecap="butt" stroke-width="8"/>
  <path fill-rule="evenodd" fill-opacity="0" d="m521.8 231.15c-2.7914 1.694-8.6846 4.0969-6.7 6.3524 2.5559 2.9049 11.34 0.58293 13.398-2.541 0.79932-1.2128-1.6537-2.7478-3.3492-3.1768" fill="#000"/>
  <path stroke-linejoin="round" d="m521.8 231.15c-2.7914 1.694-8.6846 4.0969-6.7 6.3524 2.5559 2.9049 11.34 0.58293 13.398-2.541 0.79932-1.2128-1.6537-2.7478-3.3492-3.1768" fill-rule="evenodd" stroke="#e60000" stroke-linecap="butt" stroke-width="8"/>
  <path fill-rule="evenodd" fill-opacity="0" d="m828.28 73.221c24.292-7.8672 44.327-31.943 62.033-54.88" fill="#000"/>
  <path stroke-linejoin="round" d="m828.28 73.221c24.292-7.8672 44.327-31.943 62.033-54.88" fill-rule="evenodd" stroke="#000" stroke-linecap="butt"/>
 </g>
</svg>