<?xml version="1.0" standalone="yes"?>
<svg viewBox="0 0 1333.33 266.67" fill="none" stroke-linecap="square" stroke-miterlimit="10" xmlns="http://www.w3.org/2000/svg" xmlns:xlink="http://www.w3.org/1999/xlink">
  <clipPath id="a">
    <path d="M0 0h1333.33v266.67H0V0z"/>
  </clipPath>
  <g clip-path="url(#a)">
    <path fill="none" d="M0 0h1333.33v266.67H0z"/>
    <path fill="none" d="M12.84 8.23c30.55-5.9 62.47 2 93.1-3.4 71.82-12.73 145.58 4.08 218.3 7.94 110.45 5.87 221.2-1.9 331.73-5.68 57.04-1.97 114.2 3.65 171.2 1.13 100.16-4.44 200.63 8.18 300.7 2.27 46.66-2.75 93.53-3.9 140.2-1.14 14.23.84 28.52 0 42.8 0 3.58 0 8.16-3.83 10.7-1.13 5.1 5.42-4.63 15.2-3.22 22.72 5.46 28.97 3.9 59.56-1.07 88.63-3.4 19.83 1.63 40.45 5.35 60.22 3.16 16.78-6.28 34.15-4.28 51.13 1.07 9.1 5.3 18.38 3.2 27.27-1.03 4.42-8.62-.25-12.83-1.14-16.3-3.46-31.64-11.7-48.15-13.63-42.9-5.07-86.5 6.4-129.48 2.27-113.7-10.97-228.37 5.46-342.44 1.13-175.05-6.64-350.36 1.76-525.42 7.96-54.54 1.92-109.15 0-163.72 0-19.63 0-39.34-.04-58.86 2.26-8.9 1.05-22.75 10.77-26.75 2.27-2.78-5.9 5.2-12.04 7.5-18.18 3.58-9.5 1.6-20.6 0-30.67-10.45-66.54-6.42-134.8-6.42-202.25"/>
    <path stroke="#888" stroke-width="3" stroke-linejoin="round" stroke-linecap="butt" d="M12.84 8.23c30.55-5.9 62.47 2 93.1-3.4 71.82-12.73 145.58 4.08 218.3 7.94 110.45 5.87 221.2-1.9 331.73-5.68 57.04-1.97 114.2 3.65 171.2 1.13 100.16-4.44 200.63 8.18 300.7 2.27 46.66-2.75 93.53-3.9 140.2-1.14 14.23.84 28.52 0 42.8 0 3.58 0 8.16-3.83 10.7-1.13 5.1 5.42-4.63 15.2-3.22 22.72 5.46 28.97 3.9 59.56-1.07 88.63-3.4 19.83 1.63 40.45 5.35 60.22 3.16 16.78-6.28 34.15-4.28 51.13 1.07 9.1 5.3 18.38 3.2 27.27-1.03 4.42-8.62-.25-12.83-1.14-16.3-3.46-31.64-11.7-48.15-13.63-42.9-5.07-86.5 6.4-129.48 2.27-113.7-10.97-228.37 5.46-342.44 1.13-175.05-6.64-350.36 1.76-525.42 7.96-54.54 1.92-109.15 0-163.72 0-19.63 0-39.34-.04-58.86 2.26-8.9 1.05-22.75 10.77-26.75 2.27-2.78-5.9 5.2-12.04 7.5-18.18 3.58-9.5 1.6-20.6 0-30.67-10.45-66.54-6.42-134.8-6.42-202.25"/>
    <path fill="#3d85c6" d="M39.6 62.6V34.8h248.86v27.8z" fill-rule="evenodd"/>
    <path fill="#6aa84f" d="M39.6 105.36v-27.8h305.1v27.8z" fill-rule="evenodd"/>
    
    <path fill="none" d="M495.43 26c-7.9 8.73-19.02 16.64-21.93 27.22-2.12 7.75 38.53.14 29.24-2.37"/>
    <path stroke="#000" stroke-width="2" stroke-linejoin="round" stroke-linecap="butt" d="M495.43 26c-7.9 8.73-19.02 16.64-21.93 27.22-2.12 7.75 38.53.14 29.24-2.37"/>
    <path fill="none" d="M496.9 42.56l-1.47 16.58"/>
    <path stroke="#000" stroke-width="2" stroke-linejoin="round" stroke-linecap="butt" d="M496.9 42.56l-1.47 16.58"/>
    <path fill="none" d="M524.67 36.64c-5.1 2.07-11.53 13.4-5.85 13.03 7.83-.53 7.64-13.86 2.93-18.95"/>
    <path stroke="#000" stroke-width="2" stroke-linejoin="round" stroke-linecap="butt" d="M524.67 36.64c-5.1 2.07-11.53 13.4-5.85 13.03 7.83-.53 7.64-13.86 2.93-18.95"/>
    <path fill="none" d="M631.38 27.17c-5.85 1.2-13.35-2.32-11.7 2.37 2.17 6.12 17.46 12.25 11.7 16.58-6.77 5.1-8.3 4.73-17.54 4.73-6.54 0 5.85-2.36 11.7-4.73"/>
    <path stroke="#000" stroke-width="2" stroke-linejoin="round" stroke-linecap="butt" d="M631.38 27.17c-5.85 1.2-13.35-2.32-11.7 2.37 2.17 6.12 17.46 12.25 11.7 16.58-6.77 5.1-8.3 4.73-17.54 4.73-6.54 0 5.85-2.36 11.7-4.73"/>
    <path fill="none" d="M663.54 29.54c-4.38 1.78-9.96-.3-8.77 3.55 1.67 5.4 9.13.73 11.7 5.9 2.3 4.7-9.04 7.23-14.62 9.5"/>
    <path stroke="#000" stroke-width="2" stroke-linejoin="round" stroke-linecap="butt" d="M663.54 29.54c-4.38 1.78-9.96-.3-8.77 3.55 1.67 5.4 9.13.73 11.7 5.9 2.3 4.7-9.04 7.23-14.62 9.5"/>
    <path fill="none" d="M780.5 27.17c-9.18-2.97-20.1 22.5-10.25 22.5 4.2 0-3.33-7.22-7.3-8.3"/>
    <path stroke="#000" stroke-width="2" stroke-linejoin="round" stroke-linecap="butt" d="M780.5 27.17c-9.18-2.97-20.1 22.5-10.25 22.5 4.2 0-3.33-7.22-7.3-8.3"/>
    <path fill="none" d="M818.5 23.62c-1.2 8.77-.98 18.15-5.85 26.05"/>
    <path stroke="#000" stroke-width="2" stroke-linejoin="round" stroke-linecap="butt" d="M818.5 23.62c-1.2 8.77-.98 18.15-5.85 26.05"/>
    <path fill="none" d="M473.5 80.46c13.16-1.78 12.98-3.55 26.3-3.55 2.33 0 2.4 1.84 1.48 3.56-3.96 7.48-11.7 30.64-11.7 22.5"/>
    <path stroke="#000" stroke-width="2" stroke-linejoin="round" stroke-linecap="butt" d="M473.5 80.46c13.16-1.78 12.98-3.55 26.3-3.55 2.33 0 2.4 1.84 1.48 3.56-3.96 7.48-11.7 30.64-11.7 22.5"/>
    <path fill="none" d="M512.97 82.83c8.04-4.15 6.63-7.34 16.08-8.3 5.52-.55-14.85 8.17-10.23 10.67 6.98 3.76 25.34 6.3 20.46 11.84-3.8 4.32-17.55 5.9-14.6 10.66"/>
    <path stroke="#000" stroke-width="2" stroke-linejoin="round" stroke-linecap="butt" d="M512.97 82.83c8.04-4.15 6.63-7.34 16.08-8.3 5.52-.55-14.85 8.17-10.23 10.67 6.98 3.76 25.34 6.3 20.46 11.84-3.8 4.32-17.55 5.9-14.6 10.66"/>
    <path fill="none" d="M627 72.17c-4.06 9.85-9.62 20.86-5.85 30.8 3.72 9.78 30.88-17.46 36.54-8.3"/>
    <path stroke="#000" stroke-width="2" stroke-linejoin="round" stroke-linecap="butt" d="M627 72.17c-4.06 9.85-9.62 20.86-5.85 30.8 3.72 9.78 30.88-17.46 36.54-8.3"/>
    <path fill="none" d="M646 80.46c-.75 7.88-1.22 16.08 1.46 23.68"/>
    <path stroke="#000" stroke-width="2" stroke-linejoin="round" stroke-linecap="butt" d="M646 80.46c-.75 7.88-1.22 16.08 1.46 23.68"/>
    <path fill="none" d="M685.47 76.9c-9.5 0-11.6-4.8-19 0-6.55 4.25 13.1 9.9 14.6 16.6 1.26 5.55-12.07 6.4-19 7.1"/>
    <path stroke="#000" stroke-width="2" stroke-linejoin="round" stroke-linecap="butt" d="M685.47 76.9c-9.5 0-11.6-4.8-19 0-6.55 4.25 13.1 9.9 14.6 16.6 1.26 5.55-12.07 6.4-19 7.1"/>
    <path fill="none" d="M783.4 71c-7.3 1.76-9.2-.83-14.6 3.54-2.76 2.23 7.9.76 11.7 0 3.82-.78-3.87 6.87-1.47 16.58.95 3.87 7.8 9.47 11.7 7.1"/>
    <path stroke="#000" stroke-width="2" stroke-linejoin="round" stroke-linecap="butt" d="M783.4 71c-7.3 1.76-9.2-.83-14.6 3.54-2.76 2.23 7.9.76 11.7 0 3.82-.78-3.87 6.87-1.47 16.58.95 3.87 7.8 9.47 11.7 7.1"/>
    <path fill="none" d="M799.5 71c11.9-2.42 24.63-5.98 36.53-3.57 3.82.78-4.64.02-7.3 2.37-8.13 7.2-16.07 17.78-13.16 27.24"/>
    <path stroke="#000" stroke-width="2" stroke-linejoin="round" stroke-linecap="butt" d="M799.5 71c11.9-2.42 24.63-5.98 36.53-3.57 3.82.78-4.64.02-7.3 2.37-8.13 7.2-16.07 17.78-13.16 27.24"/>
    
    <g style="display: inline;">
        <path fill="#f1c232" d="M39.6 150.86v-27.8h281.3v27.8z" fill-rule="evenodd"/>
        <path fill="#674ea7" d="M39.6 193.6v-27.8h248.86v27.8z" fill-rule="evenodd"/>
        <animate
            id="removed-cells"
            attributeName="display"
            values="inline;none;none;none"
            keyTimes="0;0.3;0.6;1"
            dur="5s"
            begin="0.5s"
            repeatCount="indefinite" />
    </g>
    
    <g stroke="#000000" stroke-width="2" stroke-linejoin="round" stroke-linecap="butt">
        <path d="M479.3 133.74c2.5 7.1 5.1 14.16 7.3 21.32"/>
        <path d="M512.92 131.37c.73 8.3-5.8 10.7 1.46 16.58 4.88 3.95 10.15-.48 11.7-5.92 1.73-6.08-14.55-7.7-21.93-5.92"/>
        <path d="M628.4 127.82c1.22 7.48 2.9 14.96 2.9 22.5"/>
        <path d="M643 127.82c8.05-1.78 7.82-4.4 16.08-3.55 3.63.37-2.44 2.22-4.38 4.73-4.44 5.76 18.37 10.5 14.62 16.58-3.82 6.18-14.84 6.83-21.93 10.66"/>
        <path d="M771.63 131.37c9.5-4.73 8.6-6.23 19-9.47 4.5-1.4-8.54 4.63-10.23 8.3-.2.42 14 7.85 14.6 10.65 1.74 7.66-15.22 11.84-24.83 11.84"/>
        <path d="M828.64 121.9c-5.4 1.1-14 7.34-10.24 10.66 5.53 4.88 12.27-.42 14.62 5.92 2.44 6.6-15.08 6.8-23.4 8.3"/>
        <path d="M491 179.92c10.23-4.14 9.05-7.57 20.46-8.28 4.43-.28.7 3.95-1.46 7.1-1.6 2.3 1.83 5.45 4.38 7.1 3.33 2.16 6.45 2.9 4.4 5.93-4.36 6.34-16.36 6-24.86 8.3"/>
        <path d="M625.47 183.47c10.96-4.73 9.52-8.84 21.92-9.47 5.15-.26 3 4.3 1.45 8.3-2.35 6.1-7.72 4.3-8.77 10.65-.9 5.45 12.26 6.53 19 5.92"/>
        <path d="M667.85 177.56c7.58-1.54 23.4-7.52 23.4-1.2 0 5.9-7.62 12.1-10.24 17.78"/>
        <path d="M811.1 171.63c-7.32 1.78-16.12-2.5-14.62 3.56 1.76 7.12 25.12 12.66 17.54 16.57-6.78 3.5-15.4 6.5-16.08 0-.92-8.97 31.24-19.14 20.46-21.32"/>
        <path d="M917.43 133.74c2.5 7.1 5.1 14.16 7.3 21.32"/>
        <path d="M951.05 131.37c.73 8.3-5.8 10.7 1.46 16.58 4.88 3.95 10.15-.48 11.7-5.92 1.73-6.08-14.54-7.7-21.92-5.92"/>
        <path d="M1066.52 127.82c1.23 7.48 2.92 14.96 2.92 22.5"/>
        <path d="M1081.13 127.82c8.04-1.78 7.8-4.4 16.08-3.55 3.64.37-2.44 2.22-4.37 4.73-4.45 5.76 18.36 10.5 14.6 16.58-3.8 6.18-14.82 6.83-21.9 10.66"/>
        <path d="M1209.76 131.37c9.5-4.73 8.6-6.23 19-9.47 4.5-1.4-8.54 4.63-10.23 8.3-.2.42 13.98 7.85 14.6 10.65 1.73 7.66-15.23 11.84-24.84 11.84"/>
        <path d="M1266.76 121.9c-5.4 1.1-13.98 7.34-10.23 10.66 5.52 4.88 12.27-.42 14.62 5.92 2.44 6.6-15.08 6.8-23.4 8.3"/>
        <path d="M929.12 179.92c10.23-4.14 9.06-7.57 20.47-8.28 4.42-.28.68 3.95-1.48 7.1-1.58 2.3 1.84 5.45 4.4 7.1 3.32 2.16 6.44 2.9 4.37 5.93-4.36 6.34-16.36 6-24.86 8.3"/>
        <path d="M1063.6 183.47c10.96-4.73 9.52-8.84 21.92-9.47 5.15-.26 3 4.3 1.46 8.3-2.36 6.1-7.72 4.3-8.77 10.65-.9 5.45 12.27 6.53 19 5.92"/>
        <path d="M1105.98 177.56c7.58-1.54 23.4-7.52 23.4-1.2 0 5.9-7.62 12.1-10.25 17.78"/>
        <path d="M1249.22 171.63c-7.3 1.78-16.1-2.5-14.62 3.56 1.77 7.12 25.12 12.66 17.54 16.57-6.78 3.5-15.4 6.5-16.07 0-.93-8.97 31.24-19.14 20.46-21.32"/>
        <animate
            id="mismatches-cells-colour"
            attributeName="stroke"
            values="#000000;#000000;#ff0000;#ff0000"
            keyTimes="0;0.3;0.6;1"
            dur="5s"
            begin="0.5s"
            repeatCount="indefinite" />
        <animate
            id="mismatches-cells-width"
            attributeName="stroke-width"
            values="2;3;4;5"
            keyTimes="0;0.3;0.6;1"
            dur="5s"
            begin="0.5s"
            repeatCount="indefinite" />
    </g>
    
    <g style="display: none;">
        <path fill="#f1c233" d="M39.6 193.6v-27.8h281.3v27.8z" fill-rule="evenodd"/>
        <path fill="#674ea8" d="M39.6 236.36v-27.8h248.86v27.8z" fill-rule="evenodd"/>
        <animate
            id="displaced-cells"
            attributeName="display"
            values="none;inline;inline;inline"
            keyTimes="0;0.3;0.6;1"
            dur="5s"
            begin="0.5s"
            repeatCount="indefinite" />
    </g>
    
    <g style="display: none;">
        <path fill="red" d="M39.6 150.86v-27.8h205.55v27.8z" fill-rule="evenodd"/>
        <animate
            id="inserted-cells"
            attributeName="display"
            values="none;none;inline;inline"
            keyTimes="0;0.3;0.6;1"
            dur="5s"
            begin="0.5s"
            repeatCount="indefinite" />
    </g>
    
    <path fill="none" d="M933.56 26c-7.92 8.73-19.03 16.64-21.93 27.22-2.12 7.75 38.52.14 29.23-2.37"/>
    <path stroke="#000" stroke-width="2" stroke-linejoin="round" stroke-linecap="butt" d="M933.56 26c-7.92 8.73-19.03 16.64-21.93 27.22-2.12 7.75 38.52.14 29.23-2.37"/>
    <path fill="none" d="M935.02 42.56l-1.46 16.58"/>
    <path stroke="#000" stroke-width="2" stroke-linejoin="round" stroke-linecap="butt" d="M935.02 42.56l-1.46 16.58"/>
    <path fill="none" d="M962.8 36.64c-5.1 2.07-11.53 13.4-5.85 13.03 7.83-.53 7.64-13.86 2.92-18.95"/>
    <path stroke="#000" stroke-width="2" stroke-linejoin="round" stroke-linecap="butt" d="M962.8 36.64c-5.1 2.07-11.53 13.4-5.85 13.03 7.83-.53 7.64-13.86 2.92-18.95"/>
    <path fill="none" d="M1069.5 27.17c-5.84 1.2-13.34-2.32-11.68 2.37 2.15 6.12 17.44 12.25 11.7 16.58-6.8 5.1-8.3 4.73-17.55 4.73-6.54 0 5.85-2.36 11.7-4.73"/>
    <path stroke="#000" stroke-width="2" stroke-linejoin="round" stroke-linecap="butt" d="M1069.5 27.17c-5.84 1.2-13.34-2.32-11.68 2.37 2.15 6.12 17.44 12.25 11.7 16.58-6.8 5.1-8.3 4.73-17.55 4.73-6.54 0 5.85-2.36 11.7-4.73"/>
    <path fill="none" d="M1101.67 29.54c-4.4 1.78-9.96-.3-8.77 3.55 1.67 5.4 9.13.73 11.7 5.9 2.3 4.7-9.04 7.23-14.63 9.5"/>
    <path stroke="#000" stroke-width="2" stroke-linejoin="round" stroke-linecap="butt" d="M1101.67 29.54c-4.4 1.78-9.96-.3-8.77 3.55 1.67 5.4 9.13.73 11.7 5.9 2.3 4.7-9.04 7.23-14.63 9.5"/>
    <path fill="none" d="M1218.6 27.17c-9.15-2.97-20.1 22.5-10.22 22.5 4.2 0-3.33-7.22-7.3-8.3"/>
    <path stroke="#000" stroke-width="2" stroke-linejoin="round" stroke-linecap="butt" d="M1218.6 27.17c-9.15-2.97-20.1 22.5-10.22 22.5 4.2 0-3.33-7.22-7.3-8.3"/>
    <path fill="none" d="M1256.62 23.62c-1.2 8.77-.97 18.15-5.84 26.05"/>
    <path stroke="#000" stroke-width="2" stroke-linejoin="round" stroke-linecap="butt" d="M1256.62 23.62c-1.2 8.77-.97 18.15-5.84 26.05"/>
    <path fill="none" d="M911.63 80.46c13.16-1.78 12.97-3.55 26.3-3.55 2.32 0 2.38 1.84 1.47 3.56-3.95 7.48-11.7 30.64-11.7 22.5"/>
    <path stroke="#000" stroke-width="2" stroke-linejoin="round" stroke-linecap="butt" d="M911.63 80.46c13.16-1.78 12.97-3.55 26.3-3.55 2.32 0 2.38 1.84 1.47 3.56-3.95 7.48-11.7 30.64-11.7 22.5"/>
    <path fill="none" d="M951.1 82.83c8.04-4.15 6.62-7.34 16.08-8.3 5.5-.55-14.86 8.17-10.23 10.67 6.97 3.76 25.33 6.3 20.46 11.84-3.8 4.32-17.54 5.9-14.6 10.66"/>
    <path stroke="#000" stroke-width="2" stroke-linejoin="round" stroke-linecap="butt" d="M951.1 82.83c8.04-4.15 6.62-7.34 16.08-8.3 5.5-.55-14.86 8.17-10.23 10.67 6.97 3.76 25.33 6.3 20.46 11.84-3.8 4.32-17.54 5.9-14.6 10.66"/>
    <path fill="none" d="M1065.12 72.17c-4.05 9.85-9.6 20.86-5.85 30.8 3.72 9.78 30.88-17.46 36.55-8.3"/>
    <path stroke="#000" stroke-width="2" stroke-linejoin="round" stroke-linecap="butt" d="M1065.12 72.17c-4.05 9.85-9.6 20.86-5.85 30.8 3.72 9.78 30.88-17.46 36.55-8.3"/>
    <path fill="none" d="M1084.13 80.46c-.75 7.88-1.22 16.08 1.46 23.68"/>
    <path stroke="#000" stroke-width="2" stroke-linejoin="round" stroke-linecap="butt" d="M1084.13 80.46c-.75 7.88-1.22 16.08 1.46 23.68"/>
    <path fill="none" d="M1123.6 76.9c-9.5 0-11.6-4.8-19 0-6.55 4.25 13.1 9.9 14.6 16.6 1.26 5.55-12.07 6.4-19 7.1"/>
    <path stroke="#000" stroke-width="2" stroke-linejoin="round" stroke-linecap="butt" d="M1123.6 76.9c-9.5 0-11.6-4.8-19 0-6.55 4.25 13.1 9.9 14.6 16.6 1.26 5.55-12.07 6.4-19 7.1"/>
    <path fill="none" d="M1221.54 71c-7.3 1.76-9.22-.83-14.62 3.54-2.75 2.23 7.9.76 11.7 0 3.83-.78-3.86 6.87-1.47 16.58.96 3.87 7.8 9.47 11.7 7.1"/>
    <path stroke="#000" stroke-width="2" stroke-linejoin="round" stroke-linecap="butt" d="M1221.54 71c-7.3 1.76-9.22-.83-14.62 3.54-2.75 2.23 7.9.76 11.7 0 3.83-.78-3.86 6.87-1.47 16.58.96 3.87 7.8 9.47 11.7 7.1"/>
    <path fill="none" d="M1237.62 71c11.9-2.42 24.64-5.98 36.54-3.57 3.82.78-4.65.02-7.3 2.37-8.14 7.2-16.08 17.78-13.16 27.24"/>
    <path stroke="#000" stroke-width="2" stroke-linejoin="round" stroke-linecap="butt" d="M1237.62 71c11.9-2.42 24.64-5.98 36.54-3.57 3.82.78-4.65.02-7.3 2.37-8.14 7.2-16.08 17.78-13.16 27.24"/>
    
  </g>
</svg>