<svg xmlns="http://www.w3.org/2000/svg" fill="none" stroke-miterlimit="10" viewBox="0 0 1333.333 266.667" stroke-linecap="square"><clipPath id="a"><path d="M0 0h1333.333v266.667H0V0z"/></clipPath><g clip-path="url(#a)"><path d="M0 0h1333.333v266.667H0z"/><path d="M12.84 14.038c30.55-5.643 62.47 1.93 93.1-3.263C177.757-1.4 251.52 14.69 324.24 18.39c110.45 5.616 221.193-1.814 331.726-5.44 57.043-1.872 114.192 3.505 171.215 1.088 100.15-4.244 200.62 7.832 300.7 2.177 46.66-2.637 93.53-3.725 140.18-1.09 14.25.806 28.54 0 42.81 0 3.59 0 8.17-3.665 10.7-1.087 5.1 5.187-4.62 14.563-3.21 21.752 5.46 27.73 3.91 57.012-1.07 84.836-3.4 18.99 1.63 38.72 5.35 57.647 3.16 16.06-6.28 32.69-4.28 48.942 1.07 8.7 5.3 17.596 3.21 26.104-1.04 4.23-8.63-.24-12.84-1.09-16.29-3.31-31.64-11.19-48.15-13.05-42.9-4.85-86.49 6.14-129.48 2.17-113.673-10.5-228.36 5.23-342.43 1.09-175.042-6.36-350.354 1.68-525.413 7.61-54.542 1.85-109.146 0-163.72 0-19.632 0-39.345-.03-58.856 2.17-8.89 1-22.75 10.31-26.752 2.17-2.783-5.663 5.178-11.524 7.494-17.4 3.58-9.09 1.584-19.71 0-29.368C10.957 143.94 14.99 78.6 14.99 14.03"/><path stroke="#888" stroke-width="3" d="M12.84 14.038c30.55-5.643 62.47 1.93 93.1-3.263C177.757-1.4 251.52 14.69 324.24 18.39c110.45 5.616 221.193-1.814 331.726-5.44 57.043-1.872 114.192 3.505 171.215 1.088 100.15-4.244 200.62 7.832 300.7 2.177 46.66-2.637 93.53-3.725 140.18-1.09 14.25.806 28.54 0 42.81 0 3.59 0 8.17-3.665 10.7-1.087 5.1 5.187-4.62 14.563-3.21 21.752 5.46 27.73 3.91 57.012-1.07 84.836-3.4 18.99 1.63 38.72 5.35 57.647 3.16 16.06-6.28 32.69-4.28 48.942 1.07 8.7 5.3 17.596 3.21 26.104-1.04 4.23-8.63-.24-12.84-1.09-16.29-3.31-31.64-11.19-48.15-13.05-42.9-4.85-86.49 6.14-129.48 2.17-113.673-10.5-228.36 5.23-342.43 1.09-175.042-6.36-350.354 1.68-525.413 7.61-54.542 1.85-109.146 0-163.72 0-19.632 0-39.345-.03-58.856 2.17-8.89 1-22.75 10.31-26.752 2.17-2.783-5.663 5.178-11.524 7.494-17.4 3.58-9.09 1.584-19.71 0-29.368C10.957 143.94 14.99 78.6 14.99 14.03" stroke-linejoin="round" stroke-linecap="butt"/><path d="M654.346 11.76c6.944 74.855 0 151.234 0 226.852"/><path stroke="#888" stroke-width="2" d="M654.346 11.76c6.944 74.855 0 151.234 0 226.852" stroke-linejoin="round" stroke-linecap="butt"/><path fill="#d9d9d9" d="M39.606 62.606v-27.81H162.66v27.81zm0 42.75v-27.81h150.866v27.81zm0 45.502v-27.81h139.087v27.81zm0 42.752v-27.812H162.66v27.81zm630.23-133.177v-27.81h123.056v27.81zm0 42.75v-27.81h150.867v27.81z"/><path fill="red" d="M669.837 145.934v-27.81h101.638v27.81z"/><path fill="#d9d9d9" d="M669.837 188.685v-27.81h139.087v27.81zm0 42.75v-27.81h123.055v27.81z"/><path d="M297.485 34.244c-5.792 7.898-13.928 15.05-16.052 24.612-1.555 7 28.203.125 21.402-2.142"/><path stroke="#000" stroke-width="2" d="M297.485 34.244c-5.792 7.898-13.928 15.05-16.052 24.612-1.555 7 28.203.125 21.402-2.142" stroke-linejoin="round" stroke-linecap="butt"/><path d="M298.556 49.223l-1.07 14.982"/><path stroke="#000" stroke-width="2" d="M298.556 49.223l-1.07 14.982" stroke-linejoin="round" stroke-linecap="butt"/><path d="M318.888 43.874c-3.734 1.867-8.442 12.12-4.28 11.772 5.732-.478 5.592-12.522 2.14-17.124"/><path stroke="#000" stroke-width="2" d="M318.888 43.874c-3.734 1.867-8.442 12.12-4.28 11.772 5.732-.478 5.592-12.522 2.14-17.124" stroke-linejoin="round" stroke-linecap="butt"/><path d="M397.003 35.314c-4.28 1.07-9.772-2.1-8.56 2.14 1.582 5.53 12.775 11.07 8.56 14.983-4.96 4.604-6.073 4.278-12.84 4.278-4.785 0 4.28-2.14 8.562-4.278"/><path stroke="#000" stroke-width="2" d="M397.003 35.314c-4.28 1.07-9.772-2.1-8.56 2.14 1.582 5.53 12.775 11.07 8.56 14.983-4.96 4.604-6.073 4.278-12.84 4.278-4.785 0 4.28-2.14 8.562-4.278" stroke-linejoin="round" stroke-linecap="butt"/><path d="M420.546 37.454c-3.21 1.605-7.29-.272-6.42 3.21 1.224 4.896 6.685.664 8.56 5.35 1.696 4.24-6.616 6.52-10.702 8.56"/><path stroke="#000" stroke-width="2" d="M420.546 37.454c-3.21 1.605-7.29-.272-6.42 3.21 1.224 4.896 6.685.664 8.56 5.35 1.696 4.24-6.616 6.52-10.702 8.56" stroke-linejoin="round" stroke-linecap="butt"/><path d="M506.152 35.313c-6.706-2.682-14.714 20.333-7.49 20.333 3.068 0-2.438-6.522-5.35-7.49"/><path stroke="#000" stroke-width="2" d="M506.152 35.313c-6.706-2.682-14.714 20.333-7.49 20.333 3.068 0-2.438-6.522-5.35-7.49" stroke-linejoin="round" stroke-linecap="butt"/><path d="M533.976 32.102c-.88 7.928-.715 16.408-4.28 23.544"/><path stroke="#000" stroke-width="2" d="M533.976 32.102c-.88 7.928-.715 16.408-4.28 23.544" stroke-linejoin="round" stroke-linecap="butt"/><path d="M281.433 83.467c9.63-1.605 9.498-3.21 19.263-3.21 1.69 0 1.737 1.655 1.07 3.21-2.896 6.76-8.56 27.684-8.56 20.33"/><path stroke="#000" stroke-width="2" d="M281.433 83.467c9.63-1.605 9.498-3.21 19.263-3.21 1.69 0 1.737 1.655 1.07 3.21-2.896 6.76-8.56 27.684-8.56 20.33" stroke-linejoin="round" stroke-linecap="butt"/><path d="M310.325 85.606c5.886-3.745 4.85-6.627 11.772-7.49 4.036-.504-10.875 7.376-7.49 9.632 5.106 3.404 18.548 5.707 14.98 10.7-2.788 3.906-12.848 5.34-10.7 9.63"/><path stroke="#000" stroke-width="2" d="M310.325 85.606c5.886-3.745 4.85-6.627 11.772-7.49 4.036-.504-10.875 7.376-7.49 9.632 5.106 3.404 18.548 5.707 14.98 10.7-2.788 3.906-12.848 5.34-10.7 9.63" stroke-linejoin="round" stroke-linecap="butt"/><path d="M393.793 75.976c-2.968 8.902-7.04 18.854-4.28 27.822 2.722 8.85 22.607-15.772 26.752-7.49"/><path stroke="#000" stroke-width="2" d="M393.793 75.976c-2.968 8.902-7.04 18.854-4.28 27.822 2.722 8.85 22.607-15.772 26.752-7.49" stroke-linejoin="round" stroke-linecap="butt"/><path d="M407.703 83.467c-.547 7.122-.89 14.534 1.07 21.402"/><path stroke="#000" stroke-width="2" d="M407.703 83.467c-.547 7.122-.89 14.534 1.07 21.402" stroke-linejoin="round" stroke-linecap="butt"/><path d="M436.596 80.257c-6.956 0-8.48-4.344-13.91 0-4.793 3.834 9.6 8.944 10.7 14.982.914 5.02-8.844 5.78-13.91 6.42"/><path stroke="#000" stroke-width="2" d="M436.596 80.257c-6.956 0-8.48-4.344-13.91 0-4.793 3.834 9.6 8.944 10.7 14.982.914 5.02-8.844 5.78-13.91 6.42" stroke-linejoin="round" stroke-linecap="butt"/><path d="M508.294 74.906c-5.35 1.604-6.75-.74-10.7 3.21-2.02 2.017 5.79.69 8.558 0 2.81-.702-2.822 6.208-1.068 14.98.7 3.5 5.705 8.564 8.56 6.424"/><path stroke="#000" stroke-width="2" d="M508.294 74.906c-5.35 1.604-6.75-.74-10.7 3.21-2.02 2.017 5.79.69 8.558 0 2.81-.702-2.822 6.208-1.068 14.98.7 3.5 5.705 8.564 8.56 6.424" stroke-linejoin="round" stroke-linecap="butt"/><path d="M520.063 74.906c8.714-2.178 18.04-5.39 26.753-3.21 2.795.7-3.402.018-5.35 2.142-5.952 6.494-11.764 16.064-9.63 24.61"/><path stroke="#000" stroke-width="2" d="M520.063 74.906c8.714-2.178 18.04-5.39 26.753-3.21 2.795.7-3.402.018-5.35 2.142-5.952 6.494-11.764 16.064-9.63 24.61" stroke-linejoin="round" stroke-linecap="butt"/><path d="M285.714 131.622c1.83 6.407 3.734 12.796 5.352 19.26"/><path stroke="#000" stroke-width="2" d="M285.714 131.622c1.83 6.407 3.734 12.796 5.352 19.26" stroke-linejoin="round" stroke-linecap="butt"/><path d="M310.325 129.48c.536 7.49-4.24 9.672 1.07 14.982 3.57 3.57 7.428-.43 8.563-5.35 1.268-5.495-10.65-6.97-16.052-5.35"/><path stroke="#000" stroke-width="2" d="M310.325 129.48c.536 7.49-4.24 9.672 1.07 14.982 3.57 3.57 7.428-.43 8.563-5.35 1.268-5.495-10.65-6.97-16.052-5.35" stroke-linejoin="round" stroke-linecap="butt"/><path d="M394.864 126.27c.9 6.756 2.14 13.518 2.14 20.334"/><path stroke="#000" stroke-width="2" d="M394.864 126.27c.9 6.756 2.14 13.518 2.14 20.334" stroke-linejoin="round" stroke-linecap="butt"/><path d="M405.564 126.27c5.886-1.605 5.718-3.967 11.772-3.21 2.655.332-1.792 2.012-3.21 4.28-3.253 5.204 13.446 9.493 10.7 14.982-2.79 5.58-10.86 6.168-16.052 9.63"/><path stroke="#000" stroke-width="2" d="M405.564 126.27c5.886-1.605 5.718-3.967 11.772-3.21 2.655.332-1.792 2.012-3.21 4.28-3.253 5.204 13.446 9.493 10.7 14.982-2.79 5.58-10.86 6.168-16.052 9.63" stroke-linejoin="round" stroke-linecap="butt"/><path d="M499.732 129.48c6.956-4.28 6.29-5.63 13.91-8.56 3.297-1.267-6.25 4.185-7.49 7.49-.147.394 10.24 7.103 10.7 9.63 1.26 6.922-11.155 10.702-18.19 10.702"/><path stroke="#000" stroke-width="2" d="M499.732 129.48c6.956-4.28 6.29-5.63 13.91-8.56 3.297-1.267-6.25 4.185-7.49 7.49-.147.394 10.24 7.103 10.7 9.63 1.26 6.922-11.155 10.702-18.19 10.702" stroke-linejoin="round" stroke-linecap="butt"/><path d="M541.467 120.92c-3.945.987-10.24 6.634-7.49 9.63 4.042 4.41 8.98-.38 10.7 5.35 1.79 5.968-11.04 6.14-17.123 7.49"/><path stroke="#000" stroke-width="2" d="M541.467 120.92c-3.945.987-10.24 6.634-7.49 9.63 4.042 4.41 8.98-.38 10.7 5.35 1.79 5.968-11.04 6.14-17.123 7.49" stroke-linejoin="round" stroke-linecap="butt"/><path d="M294.276 173.355c7.49-3.746 6.63-6.848 14.98-7.49 3.246-.25.51 3.574-1.07 6.42-1.162 2.09 1.34 4.927 3.21 6.422 2.436 1.948 4.725 2.622 3.21 5.35-3.184 5.73-11.97 5.416-18.19 7.49"/><path stroke="#000" stroke-width="2" d="M294.276 173.355c7.49-3.746 6.63-6.848 14.98-7.49 3.246-.25.51 3.574-1.07 6.42-1.162 2.09 1.34 4.927 3.21 6.422 2.436 1.948 4.725 2.622 3.21 5.35-3.184 5.73-11.97 5.416-18.19 7.49" stroke-linejoin="round" stroke-linecap="butt"/><path d="M392.724 176.563c8.025-4.28 6.973-7.993 16.05-8.56 3.776-.235 2.2 3.88 1.07 7.492-1.725 5.523-5.653 3.894-6.42 9.63-.656 4.924 8.974 5.898 13.912 5.35"/><path stroke="#000" stroke-width="2" d="M392.724 176.563c8.025-4.28 6.973-7.993 16.05-8.56 3.776-.235 2.2 3.88 1.07 7.492-1.725 5.523-5.653 3.894-6.42 9.63-.656 4.924 8.974 5.898 13.912 5.35" stroke-linejoin="round" stroke-linecap="butt"/><path d="M423.756 171.216c5.547-1.387 17.12-6.79 17.12-1.07 0 5.313-5.57 10.93-7.49 16.05"/><path stroke="#000" stroke-width="2" d="M423.756 171.216c5.547-1.387 17.12-6.79 17.12-1.07 0 5.313-5.57 10.93-7.49 16.05" stroke-linejoin="round" stroke-linecap="butt"/><path d="M528.624 165.864c-5.35 1.605-11.797-2.268-10.7 3.21 1.29 6.45 18.39 11.45 12.84 14.98-4.964 3.16-11.28 5.867-11.77 0-.676-8.104 22.873-17.288 14.98-19.26"/><path stroke="#000" stroke-width="2" d="M528.624 165.864c-5.35 1.605-11.797-2.268-10.7 3.21 1.29 6.45 18.39 11.45 12.84 14.98-4.964 3.16-11.28 5.867-11.77 0-.676-8.104 22.873-17.288 14.98-19.26" stroke-linejoin="round" stroke-linecap="butt"/><path d="M868.863 29.27c-5.792 7.898-13.928 15.05-16.052 24.612-1.55 7 28.21.125 21.41-2.142"/><path stroke="#000" stroke-width="2" d="M868.863 29.27c-5.792 7.898-13.928 15.05-16.052 24.612-1.55 7 28.21.125 21.41-2.142" stroke-linejoin="round" stroke-linecap="butt"/><path d="M869.934 44.25l-1.07 14.98"/><path stroke="#000" stroke-width="2" d="M869.934 44.25l-1.07 14.98" stroke-linejoin="round" stroke-linecap="butt"/><path d="M890.266 38.9c-3.734 1.868-8.442 12.12-4.28 11.772 5.732-.478 5.592-12.52 2.14-17.123"/><path stroke="#000" stroke-width="2" d="M890.266 38.9c-3.734 1.868-8.442 12.12-4.28 11.772 5.732-.478 5.592-12.52 2.14-17.123" stroke-linejoin="round" stroke-linecap="butt"/><path d="M968.38 30.34c-4.278 1.07-9.77-2.1-8.558 2.142 1.58 5.53 12.774 11.068 8.56 14.98-4.96 4.606-6.074 4.28-12.84 4.28-4.786 0 4.28-2.14 8.56-4.28"/><path stroke="#000" stroke-width="2" d="M968.38 30.34c-4.278 1.07-9.77-2.1-8.558 2.142 1.58 5.53 12.774 11.068 8.56 14.98-4.96 4.606-6.074 4.28-12.84 4.28-4.786 0 4.28-2.14 8.56-4.28" stroke-linejoin="round" stroke-linecap="butt"/><path d="M991.924 32.48c-3.21 1.605-7.29-.27-6.42 3.21 1.224 4.896 6.685.664 8.56 5.35 1.696 4.24-6.616 6.52-10.702 8.56"/><path stroke="#000" stroke-width="2" d="M991.924 32.48c-3.21 1.605-7.29-.27-6.42 3.21 1.224 4.896 6.685.664 8.56 5.35 1.696 4.24-6.616 6.52-10.702 8.56" stroke-linejoin="round" stroke-linecap="butt"/><path d="M1077.53 30.34c-6.706-2.683-14.714 20.333-7.49 20.333 3.068 0-2.438-6.522-5.35-7.49"/><path stroke="#000" stroke-width="2" d="M1077.53 30.34c-6.706-2.683-14.714 20.333-7.49 20.333 3.068 0-2.438-6.522-5.35-7.49" stroke-linejoin="round" stroke-linecap="butt"/><path d="M1105.354 27.13c-.88 7.926-.715 16.407-4.28 23.542"/><path stroke="#000" stroke-width="2" d="M1105.354 27.13c-.88 7.926-.715 16.407-4.28 23.542" stroke-linejoin="round" stroke-linecap="butt"/><path d="M852.81 78.493c9.632-1.605 9.5-3.21 19.263-3.21 1.692 0 1.738 1.655 1.07 3.21-2.895 6.76-8.56 27.684-8.56 20.33"/><path stroke="#000" stroke-width="2" d="M852.81 78.493c9.632-1.605 9.5-3.21 19.263-3.21 1.692 0 1.738 1.655 1.07 3.21-2.895 6.76-8.56 27.684-8.56 20.33" stroke-linejoin="round" stroke-linecap="butt"/><path d="M881.703 80.633c5.886-3.746 4.85-6.627 11.772-7.49 4.036-.505-10.875 7.375-7.49 9.63 5.105 3.406 18.548 5.708 14.98 10.702-2.788 3.905-12.848 5.34-10.7 9.63"/><path stroke="#000" stroke-width="2" d="M881.703 80.633c5.886-3.746 4.85-6.627 11.772-7.49 4.036-.505-10.875 7.375-7.49 9.63 5.105 3.406 18.548 5.708 14.98 10.702-2.788 3.905-12.848 5.34-10.7 9.63" stroke-linejoin="round" stroke-linecap="butt"/><path d="M965.17 71.003c-2.967 8.9-7.04 18.853-4.28 27.82 2.723 8.852 22.608-15.77 26.753-7.49"/><path stroke="#000" stroke-width="2" d="M965.17 71.003c-2.967 8.9-7.04 18.853-4.28 27.82 2.723 8.852 22.608-15.77 26.753-7.49" stroke-linejoin="round" stroke-linecap="butt"/><path d="M979.08 78.493c-.546 7.122-.89 14.534 1.072 21.402"/><path stroke="#000" stroke-width="2" d="M979.08 78.493c-.546 7.122-.89 14.534 1.072 21.402" stroke-linejoin="round" stroke-linecap="butt"/><path d="M1007.974 75.284c-6.956 0-8.48-4.345-13.91 0-4.793 3.833 9.6 8.944 10.7 14.98.914 5.026-8.844 5.787-13.91 6.42"/><path stroke="#000" stroke-width="2" d="M1007.974 75.284c-6.956 0-8.48-4.345-13.91 0-4.793 3.833 9.6 8.944 10.7 14.98.914 5.026-8.844 5.787-13.91 6.42" stroke-linejoin="round" stroke-linecap="butt"/><path d="M1079.67 69.932c-5.35 1.605-6.75-.74-10.7 3.21-2.017 2.017 5.792.69 8.56 0 2.81-.702-2.822 6.208-1.068 14.98.7 3.5 5.705 8.564 8.56 6.424"/><path stroke="#000" stroke-width="2" d="M1079.67 69.932c-5.35 1.605-6.75-.74-10.7 3.21-2.017 2.017 5.792.69 8.56 0 2.81-.702-2.822 6.208-1.068 14.98.7 3.5 5.705 8.564 8.56 6.424" stroke-linejoin="round" stroke-linecap="butt"/><path d="M1091.44 69.932c8.715-2.178 18.04-5.39 26.754-3.21 2.795.7-3.402.018-5.35 2.142-5.952 6.494-11.764 16.064-9.63 24.61"/><path stroke="#000" stroke-width="2" d="M1091.44 69.932c8.715-2.178 18.04-5.39 26.754-3.21 2.795.7-3.402.018-5.35 2.142-5.952 6.494-11.764 16.064-9.63 24.61" stroke-linejoin="round" stroke-linecap="butt"/><path d="M857.092 126.648c1.83 6.407 3.734 12.796 5.352 19.26"/><path stroke="red" stroke-width="3" d="M857.092 126.648c1.83 6.407 3.734 12.796 5.352 19.26" stroke-linejoin="round" stroke-linecap="butt"/><path d="M881.703 124.507c.536 7.49-4.24 9.67 1.07 14.98 3.57 3.57 7.428-.43 8.563-5.348 1.268-5.5-10.65-6.98-16.053-5.36"/><path stroke="red" stroke-width="3" d="M881.703 124.507c.536 7.49-4.24 9.67 1.07 14.98 3.57 3.57 7.428-.43 8.563-5.348 1.268-5.5-10.65-6.98-16.053-5.36" stroke-linejoin="round" stroke-linecap="butt"/><path d="M966.24 121.297c.902 6.755 2.14 13.518 2.14 20.333"/><path stroke="red" stroke-width="3" d="M966.24 121.297c.902 6.755 2.14 13.518 2.14 20.333" stroke-linejoin="round" stroke-linecap="butt"/><path d="M976.942 121.296c5.886-1.605 5.718-3.967 11.772-3.21 2.655.332-1.792 2.012-3.21 4.28-3.253 5.205 13.446 9.494 10.7 14.982-2.79 5.58-10.86 6.17-16.052 9.63"/><path stroke="red" stroke-width="3" d="M976.942 121.296c5.886-1.605 5.718-3.967 11.772-3.21 2.655.332-1.792 2.012-3.21 4.28-3.253 5.205 13.446 9.494 10.7 14.982-2.79 5.58-10.86 6.17-16.052 9.63" stroke-linejoin="round" stroke-linecap="butt"/><path d="M1071.11 124.505c6.956-4.28 6.29-5.628 13.91-8.56 3.297-1.266-6.25 4.186-7.49 7.492-.147.394 10.24 7.102 10.7 9.63 1.26 6.922-11.155 10.7-18.19 10.7"/><path stroke="red" stroke-width="3" d="M1071.11 124.505c6.956-4.28 6.29-5.628 13.91-8.56 3.297-1.266-6.25 4.186-7.49 7.492-.147.394 10.24 7.102 10.7 9.63 1.26 6.922-11.155 10.7-18.19 10.7" stroke-linejoin="round" stroke-linecap="butt"/><path d="M1112.845 115.948c-3.945.985-10.24 6.632-7.49 9.63 4.042 4.41 8.98-.38 10.7 5.35 1.79 5.966-11.04 6.14-17.123 7.49"/><path stroke="red" stroke-width="3" d="M1112.845 115.948c-3.945.985-10.24 6.632-7.49 9.63 4.042 4.41 8.98-.38 10.7 5.35 1.79 5.966-11.04 6.14-17.123 7.49" stroke-linejoin="round" stroke-linecap="butt"/><path d="M865.654 168.38c7.49-3.744 6.63-6.847 14.98-7.49 3.246-.25.51 3.576-1.07 6.42-1.162 2.092 1.34 4.928 3.21 6.423 2.436 1.948 4.725 2.622 3.21 5.35-3.184 5.732-11.97 5.416-18.19 7.49"/><path stroke="red" stroke-width="3" d="M865.654 168.38c7.49-3.744 6.63-6.847 14.98-7.49 3.246-.25.51 3.576-1.07 6.42-1.162 2.092 1.34 4.928 3.21 6.423 2.436 1.948 4.725 2.622 3.21 5.35-3.184 5.732-11.97 5.416-18.19 7.49" stroke-linejoin="round" stroke-linecap="butt"/><path d="M964.102 171.59c8.025-4.28 6.973-7.993 16.05-8.56 3.776-.235 2.2 3.88 1.07 7.49-1.725 5.525-5.653 3.895-6.42 9.63-.656 4.925 8.974 5.9 13.912 5.35"/><path stroke="red" stroke-width="3" d="M964.102 171.59c8.025-4.28 6.973-7.993 16.05-8.56 3.776-.235 2.2 3.88 1.07 7.49-1.725 5.525-5.653 3.895-6.42 9.63-.656 4.925 8.974 5.9 13.912 5.35" stroke-linejoin="round" stroke-linecap="butt"/><path d="M995.134 166.242c5.547-1.387 17.12-6.79 17.12-1.07 0 5.314-5.57 10.93-7.49 16.052"/><path stroke="red" stroke-width="3" d="M995.134 166.242c5.547-1.387 17.12-6.79 17.12-1.07 0 5.314-5.57 10.93-7.49 16.052" stroke-linejoin="round" stroke-linecap="butt"/><path d="M1100.002 160.89c-5.35 1.605-11.797-2.268-10.7 3.21 1.29 6.45 18.39 11.45 12.84 14.98-4.964 3.16-11.28 5.867-11.77 0-.676-8.104 22.873-17.288 14.98-19.258"/><path stroke="red" stroke-width="3" d="M1100.002 160.89c-5.35 1.605-11.797-2.268-10.7 3.21 1.29 6.45 18.39 11.45 12.84 14.98-4.964 3.16-11.28 5.867-11.77 0-.676-8.104 22.873-17.288 14.98-19.258" stroke-linejoin="round" stroke-linecap="butt"/></g></svg>