<svg xmlns="http://www.w3.org/2000/svg" fill="none" stroke-miterlimit="10" viewBox="0 0 1333.333 266.667" stroke-linecap="square"><clipPath id="a"><path d="M0 0h1333.333v266.667H0V0z"/></clipPath><g clip-path="url(#a)"><path d="M0 0h1333.333v266.667H0z"/><path d="M1323.425 14.038c-30.55-5.643-62.47 1.93-93.1-3.263-71.817-12.176-145.58 3.916-218.3 7.614C901.575 24 790.832 16.57 680.3 12.95c-57.048-1.876-114.197 3.5-171.22 1.084-100.147-4.244-200.616 7.832-300.696 2.177-46.656-2.63-93.524-3.72-140.18-1.09-14.246.81-28.536 0-42.804 0-3.584 0-8.166-3.66-10.7-1.08-5.097 5.187 4.626 14.563 3.21 21.75-5.462 27.73-3.91 57.01 1.07 84.836 3.4 18.99-1.63 38.72-5.35 57.648-3.16 16.06 6.28 32.69 4.28 48.94-1.07 8.7-5.3 17.598-3.21 26.106 1.04 4.233 8.63-.235 12.84-1.09 16.29-3.31 31.645-11.185 48.155-13.05 42.902-4.85 86.492 6.143 129.48 2.173 113.676-10.5 228.36 5.23 342.43 1.086 175.045-6.36 350.357 1.68 525.416 7.612 54.55 1.85 109.15 0 163.72 0 19.64 0 39.35-.03 58.86 2.175 8.89 1.005 22.75 10.31 26.758 2.177 2.787-5.663-5.174-11.524-7.49-17.4-3.58-9.09-1.584-19.712 0-29.368 10.453-63.69 6.42-129.032 6.42-193.602"/><path stroke="#888" stroke-width="3" d="M1323.425 14.038c-30.55-5.643-62.47 1.93-93.1-3.263-71.817-12.176-145.58 3.916-218.3 7.614C901.575 24 790.832 16.57 680.3 12.95c-57.048-1.876-114.197 3.5-171.22 1.084-100.147-4.244-200.616 7.832-300.696 2.177-46.656-2.63-93.524-3.72-140.18-1.09-14.246.81-28.536 0-42.804 0-3.584 0-8.166-3.66-10.7-1.08-5.097 5.187 4.626 14.563 3.21 21.75-5.462 27.73-3.91 57.01 1.07 84.836 3.4 18.99-1.63 38.72-5.35 57.648-3.16 16.06 6.28 32.69 4.28 48.94-1.07 8.7-5.3 17.598-3.21 26.106 1.04 4.233 8.63-.235 12.84-1.09 16.29-3.31 31.645-11.185 48.155-13.05 42.902-4.85 86.492 6.143 129.48 2.173 113.676-10.5 228.36 5.23 342.43 1.086 175.045-6.36 350.357 1.68 525.416 7.612 54.55 1.85 109.15 0 163.72 0 19.64 0 39.35-.03 58.86 2.175 8.89 1.005 22.75 10.31 26.758 2.177 2.787-5.663-5.174-11.524-7.49-17.4-3.58-9.09-1.584-19.712 0-29.368 10.453-63.69 6.42-129.032 6.42-193.602" stroke-linejoin="round" stroke-linecap="butt"/><path fill="#d9d9d9" d="M39.606 123.06V34.808H267.48v88.252zm0 55.443v-34.426h231.118v34.426zm0 52.933V197.01h229.512v34.426zm248.21-161.993V35.018H456.92v34.425zm0 52.933V87.95h170.33v34.426zm0 56.34V144.29h171.528v34.425zm0 52.932v-34.425h170.33v34.425zM475.333 124.13v-89.1h158.33v89.1zm0 54.585V144.29h160.6v34.425zm0 52.933v-34.425H634.83v34.425zM933.03 69.55V35.125h169.1V69.55zm0 52.933V88.058h170.33v34.425zm0 56.34v-34.427h171.526v34.426zm0 52.932V197.33h170.33v34.425zM1120.546 69.55V35.125h158.33V69.55zm0 52.933V88.058h159.496v34.425zm0 56.34v-34.427h160.598v34.426zm0 52.932V197.33h159.496v34.425z"/><path d="M86.678 59.312c-3.942 12.62-4.87 24.32-6.42 23.544-5.423-2.712-5.752-16.273 0-18.192C88.99 61.75 90.784 94.5 96.308 87.136c5.458-7.274 2.474-18.126 5.352-26.753"/><path stroke="#000" stroke-width="3" d="M86.678 59.312c-3.942 12.62-4.87 24.32-6.42 23.544-5.423-2.712-5.752-16.273 0-18.192C88.99 61.75 90.784 94.5 96.308 87.136c5.458-7.274 2.474-18.126 5.352-26.753" stroke-linejoin="round" stroke-linecap="butt"/><path d="M132.69 60.383c-6.877 8.94-15.698 17.12-19.26 27.822"/><path stroke="#000" stroke-width="3" d="M132.69 60.383c-6.877 8.94-15.698 17.12-19.26 27.822" stroke-linejoin="round" stroke-linecap="butt"/><path d="M130.55 59.312c.778 8.54 5.41 16.293 7.492 24.612"/><path stroke="#000" stroke-width="3" d="M130.55 59.312c.778 8.54 5.41 16.293 7.492 24.612" stroke-linejoin="round" stroke-linecap="butt"/><path d="M118.78 74.294c7.397 1.234 14.973 1.07 22.472 1.07"/><path stroke="#000" stroke-width="3" d="M118.78 74.294c7.397 1.234 14.973 1.07 22.472 1.07" stroke-linejoin="round" stroke-linecap="butt"/><path d="M154.092 65.732c.535 7.48 1.07 14.973 1.07 22.473 0 6.105 1.14-12.17 2.142-18.192.505-3.027 5.094 3.436 7.49 5.352 3.015 2.41 2.563-9.633 6.42-9.633.005 0 4.282 14.98 4.282 14.982"/><path stroke="#000" stroke-width="3" d="M154.092 65.732c.535 7.48 1.07 14.973 1.07 22.473 0 6.105 1.14-12.17 2.142-18.192.505-3.027 5.094 3.436 7.49 5.352 3.015 2.41 2.563-9.633 6.42-9.633.005 0 4.282 14.98 4.282 14.982" stroke-linejoin="round" stroke-linecap="butt"/><path d="M192.616 64.664c-.593 7.118-.662 14.472 1.07 21.402"/><path stroke="#000" stroke-width="3" d="M192.616 64.664c-.593 7.118-.662 14.472 1.07 21.402" stroke-linejoin="round" stroke-linecap="butt"/><path d="M188.336 64.664c9.2-1.84 18.44-4.28 27.82-4.28"/><path stroke="#000" stroke-width="3" d="M188.336 64.664c9.2-1.84 18.44-4.28 27.82-4.28" stroke-linejoin="round" stroke-linecap="butt"/><path d="M192.617 74.294c6.786 0 13.613.11 20.33 1.07"/><path stroke="#000" stroke-width="3" d="M192.617 74.294c6.786 0 13.613.11 20.33 1.07" stroke-linejoin="round" stroke-linecap="butt"/><path d="M196.898 88.204c6.786 0 13.893-1.076 20.33 1.07"/><path stroke="#000" stroke-width="3" d="M196.898 88.204c6.786 0 13.893-1.076 20.33 1.07" stroke-linejoin="round" stroke-linecap="butt"/><path fill="#d9d9d9" d="M659.095 69.443V35.018H904.1v34.425zm0 52.933V87.95h246.77v34.426zm0 56.34V144.29h248.503v34.426zm0 52.934v-34.426h246.77v34.426z"/><path d="M521.76 69.185c.302 7.495.502 14.997.502 22.5"/><path stroke="#000" stroke-width="3" d="M521.76 69.185c.302 7.495.502 14.997.502 22.5" stroke-linejoin="round" stroke-linecap="butt"/><path d="M511.262 73.185c8.325-2.694 16.65-5.39 25-8"/><path stroke="#000" stroke-width="3" d="M511.262 73.185c8.325-2.694 16.65-5.39 25-8" stroke-linejoin="round" stroke-linecap="butt"/><path d="M536.76 79.185c.216 4.507.26 9.048 1 13.5"/><path stroke="#000" stroke-width="3" d="M536.76 79.185c.216 4.507.26 9.048 1 13.5" stroke-linejoin="round" stroke-linecap="butt"/><path d="M537.76 74.185c.64.383 1.668-1.667 1-2"/><path stroke="#000" stroke-width="3" d="M537.76 74.185c.64.383 1.668-1.667 1-2" stroke-linejoin="round" stroke-linecap="butt"/><path d="M550.76 73.185c-.777 5.444-4.11 12.846 0 16.5 2.275 2.02 6.153-.433 9-1.5"/><path stroke="#000" stroke-width="3" d="M550.76 73.185c-.777 5.444-4.11 12.846 0 16.5 2.275 2.02 6.153-.433 9-1.5" stroke-linejoin="round" stroke-linecap="butt"/><path d="M547.76 81.684l8-3"/><path stroke="#000" stroke-width="3" d="M547.76 81.684l8-3" stroke-linejoin="round" stroke-linecap="butt"/><path d="M567.263 68.684c-1.23 6.554-5.374 16.84.5 20 2.757 1.484 6.286-1.786 8.5-4"/><path stroke="#000" stroke-width="3" d="M567.263 68.684c-1.23 6.554-5.374 16.84.5 20 2.757 1.484 6.286-1.786 8.5-4" stroke-linejoin="round" stroke-linecap="butt"/><path d="M583.263 79.184c2.223-.248 6.543-.83 6-3-.856-3.426-9.804-.028-10 3.498-.182 3.283 1.9 7.407 5 8.502 4.378 1.545 9.02-2.612 13-5"/><path stroke="#000" stroke-width="3" d="M583.263 79.184c2.223-.248 6.543-.83 6-3-.856-3.426-9.804-.028-10 3.498-.182 3.283 1.9 7.407 5 8.502 4.378 1.545 9.02-2.612 13-5" stroke-linejoin="round" stroke-linecap="butt"/><path d="M338.904 42.534c.3 7.496.502 14.997.502 22.5"/><path stroke="#000" stroke-width="3" d="M338.904 42.534c.3 7.496.502 14.997.502 22.5" stroke-linejoin="round" stroke-linecap="butt"/><path d="M328.406 46.534c8.324-2.694 16.648-5.39 25-8"/><path stroke="#000" stroke-width="3" d="M328.406 46.534c8.324-2.694 16.648-5.39 25-8" stroke-linejoin="round" stroke-linecap="butt"/><path d="M353.904 52.534c.215 4.507.26 9.048 1 13.5"/><path stroke="#000" stroke-width="3" d="M353.904 52.534c.215 4.507.26 9.048 1 13.5" stroke-linejoin="round" stroke-linecap="butt"/><path d="M354.904 47.534c.64.383 1.667-1.667 1-2"/><path stroke="#000" stroke-width="3" d="M354.904 47.534c.64.383 1.667-1.667 1-2" stroke-linejoin="round" stroke-linecap="butt"/><path d="M367.904 46.534c-.778 5.444-4.11 12.846 0 16.5 2.274 2.02 6.152-.433 9-1.5"/><path stroke="#000" stroke-width="3" d="M367.904 46.534c-.778 5.444-4.11 12.846 0 16.5 2.274 2.02 6.152-.433 9-1.5" stroke-linejoin="round" stroke-linecap="butt"/><path d="M364.904 55.033l8-3"/><path stroke="#000" stroke-width="3" d="M364.904 55.033l8-3" stroke-linejoin="round" stroke-linecap="butt"/><path d="M384.406 42.033c-1.23 6.554-5.374 16.84.5 20 2.757 1.484 6.286-1.786 8.5-4"/><path stroke="#000" stroke-width="3" d="M384.406 42.033c-1.23 6.554-5.374 16.84.5 20 2.757 1.484 6.286-1.786 8.5-4" stroke-linejoin="round" stroke-linecap="butt"/><path d="M400.406 52.533c2.223-.248 6.543-.83 6-3-.856-3.426-9.804-.028-10 3.5-.18 3.28 1.9 7.406 5 8.5 4.378 1.545 9.02-2.612 13-5"/><path stroke="#000" stroke-width="3" d="M400.406 52.533c2.223-.248 6.543-.83 6-3-.856-3.426-9.804-.028-10 3.5-.18 3.28 1.9 7.406 5 8.5 4.378 1.545 9.02-2.612 13-5" stroke-linejoin="round" stroke-linecap="butt"/><path d="M750.845 42.534c.3 7.496.5 14.997.5 22.5"/><path stroke="#000" stroke-width="3" d="M750.845 42.534c.3 7.496.5 14.997.5 22.5" stroke-linejoin="round" stroke-linecap="butt"/><path d="M740.346 46.534c8.325-2.694 16.65-5.39 25-8"/><path stroke="#000" stroke-width="3" d="M740.346 46.534c8.325-2.694 16.65-5.39 25-8" stroke-linejoin="round" stroke-linecap="butt"/><path d="M765.845 52.534c.215 4.507.26 9.048 1 13.5"/><path stroke="#000" stroke-width="3" d="M765.845 52.534c.215 4.507.26 9.048 1 13.5" stroke-linejoin="round" stroke-linecap="butt"/><path d="M766.845 47.534c.64.383 1.667-1.667 1-2"/><path stroke="#000" stroke-width="3" d="M766.845 47.534c.64.383 1.667-1.667 1-2" stroke-linejoin="round" stroke-linecap="butt"/><path d="M779.845 46.534c-.778 5.444-4.11 12.846 0 16.5 2.274 2.02 6.152-.433 9-1.5"/><path stroke="#000" stroke-width="3" d="M779.845 46.534c-.778 5.444-4.11 12.846 0 16.5 2.274 2.02 6.152-.433 9-1.5" stroke-linejoin="round" stroke-linecap="butt"/><path d="M776.845 55.033l8-3"/><path stroke="#000" stroke-width="3" d="M776.845 55.033l8-3" stroke-linejoin="round" stroke-linecap="butt"/><path d="M796.347 42.033c-1.23 6.554-5.374 16.84.5 20 2.757 1.484 6.286-1.786 8.5-4"/><path stroke="#000" stroke-width="3" d="M796.347 42.033c-1.23 6.554-5.374 16.84.5 20 2.757 1.484 6.286-1.786 8.5-4" stroke-linejoin="round" stroke-linecap="butt"/><path d="M812.347 52.533c2.223-.248 6.543-.83 6-3-.856-3.426-9.804-.028-10 3.5-.182 3.28 1.9 7.406 5 8.5 4.378 1.545 9.02-2.612 13-5"/><path stroke="#000" stroke-width="3" d="M812.347 52.533c2.223-.248 6.543-.83 6-3-.856-3.426-9.804-.028-10 3.5-.182 3.28 1.9 7.406 5 8.5 4.378 1.545 9.02-2.612 13-5" stroke-linejoin="round" stroke-linecap="butt"/><path d="M986.806 42.644c.3 7.496.5 14.998.5 22.5"/><path stroke="#000" stroke-width="3" d="M986.806 42.644c.3 7.496.5 14.998.5 22.5" stroke-linejoin="round" stroke-linecap="butt"/><path d="M976.307 46.644c8.325-2.694 16.648-5.39 25-8"/><path stroke="#000" stroke-width="3" d="M976.307 46.644c8.325-2.694 16.648-5.39 25-8" stroke-linejoin="round" stroke-linecap="butt"/><path d="M1001.806 52.644c.215 4.507.26 9.048 1 13.5"/><path stroke="#000" stroke-width="3" d="M1001.806 52.644c.215 4.507.26 9.048 1 13.5" stroke-linejoin="round" stroke-linecap="butt"/><path d="M1002.806 47.644c.64.383 1.666-1.666 1-2"/><path stroke="#000" stroke-width="3" d="M1002.806 47.644c.64.383 1.666-1.666 1-2" stroke-linejoin="round" stroke-linecap="butt"/><path d="M1015.806 46.644c-.778 5.445-4.11 12.846 0 16.5 2.273 2.02 6.152-.433 9-1.5"/><path stroke="#000" stroke-width="3" d="M1015.806 46.644c-.778 5.445-4.11 12.846 0 16.5 2.273 2.02 6.152-.433 9-1.5" stroke-linejoin="round" stroke-linecap="butt"/><path d="M1012.806 55.143l8-3"/><path stroke="#000" stroke-width="3" d="M1012.806 55.143l8-3" stroke-linejoin="round" stroke-linecap="butt"/><path d="M1032.308 42.143c-1.23 6.554-5.374 16.84.498 20 2.758 1.484 6.287-1.785 8.502-4"/><path stroke="#000" stroke-width="3" d="M1032.308 42.143c-1.23 6.554-5.374 16.84.498 20 2.758 1.484 6.287-1.785 8.502-4" stroke-linejoin="round" stroke-linecap="butt"/><path d="M1048.308 52.643c2.222-.248 6.542-.83 6-3-.856-3.426-9.805-.027-10 3.5-.182 3.28 1.9 7.406 5 8.5 4.378 1.545 9.018-2.612 13-5"/><path stroke="#000" stroke-width="3" d="M1048.308 52.643c2.222-.248 6.542-.83 6-3-.856-3.426-9.805-.027-10 3.5-.182 3.28 1.9 7.406 5 8.5 4.378 1.545 9.018-2.612 13-5" stroke-linejoin="round" stroke-linecap="butt"/><path d="M1167.21 42.644c.3 7.496.5 14.998.5 22.5"/><path stroke="#000" stroke-width="3" d="M1167.21 42.644c.3 7.496.5 14.998.5 22.5" stroke-linejoin="round" stroke-linecap="butt"/><path d="M1156.71 46.644c8.326-2.694 16.65-5.39 25-8"/><path stroke="#000" stroke-width="3" d="M1156.71 46.644c8.326-2.694 16.65-5.39 25-8" stroke-linejoin="round" stroke-linecap="butt"/><path d="M1182.21 52.644c.215 4.507.26 9.048 1 13.5"/><path stroke="#000" stroke-width="3" d="M1182.21 52.644c.215 4.507.26 9.048 1 13.5" stroke-linejoin="round" stroke-linecap="butt"/><path d="M1183.21 47.644c.64.383 1.667-1.666 1-2"/><path stroke="#000" stroke-width="3" d="M1183.21 47.644c.64.383 1.667-1.666 1-2" stroke-linejoin="round" stroke-linecap="butt"/><path d="M1196.21 46.644c-.778 5.445-4.11 12.846 0 16.5 2.273 2.02 6.152-.433 9-1.5"/><path stroke="#000" stroke-width="3" d="M1196.21 46.644c-.778 5.445-4.11 12.846 0 16.5 2.273 2.02 6.152-.433 9-1.5" stroke-linejoin="round" stroke-linecap="butt"/><path d="M1193.21 55.143l8-3"/><path stroke="#000" stroke-width="3" d="M1193.21 55.143l8-3" stroke-linejoin="round" stroke-linecap="butt"/><path d="M1212.712 42.143c-1.23 6.554-5.374 16.84.5 20 2.756 1.484 6.285-1.785 8.5-4"/><path stroke="#000" stroke-width="3" d="M1212.712 42.143c-1.23 6.554-5.374 16.84.5 20 2.756 1.484 6.285-1.785 8.5-4" stroke-linejoin="round" stroke-linecap="butt"/><path d="M1228.712 52.643c2.223-.248 6.543-.83 6-3-.856-3.426-9.804-.027-10 3.5-.182 3.28 1.9 7.406 5 8.5 4.378 1.545 9.02-2.612 13-5"/><path stroke="#000" stroke-width="3" d="M1228.712 52.643c2.223-.248 6.543-.83 6-3-.856-3.426-9.804-.027-10 3.5-.182 3.28 1.9 7.406 5 8.5 4.378 1.545 9.02-2.612 13-5" stroke-linejoin="round" stroke-linecap="butt"/><path d="M397.88 98c-2.233 5.208-4.997 10.195-8 15"/><path stroke="#999" d="M397.88 98c-2.233 5.208-4.997 10.195-8 15" stroke-linejoin="round" stroke-linecap="butt"/><path d="M340.606 97.35c1.75-3.5-.764 7.798-.867 11.71-.08 2.827 1.21 8.358.43 5.64-1.67-5.84-1.52-12.24-.44-18.216 1.012-5.576 11.64 18.976 10.41 13.444-.758-3.4-1.137-6.938-.87-10.41.2-2.597 1.81-7.136 4.337-6.504 7.054 1.764 6.507 28.088 6.507 20.818"/><path stroke="#999" stroke-width="3" d="M340.606 97.35c1.75-3.5-.764 7.798-.867 11.71-.08 2.827 1.21 8.358.43 5.64-1.67-5.84-1.52-12.24-.44-18.216 1.012-5.576 11.64 18.976 10.41 13.444-.758-3.4-1.137-6.938-.87-10.41.2-2.597 1.81-7.136 4.337-6.504 7.054 1.764 6.507 28.088 6.507 20.818" stroke-linejoin="round" stroke-linecap="butt"/><path d="M376.17 102.557c-.683-3.43-7.75 6.71-5.204 9.106 2.764 2.6 5.677-5.28 7.374-8.674 1.646-3.3 4.186 8.46 7.807 7.8"/><path stroke="#999" stroke-width="3" d="M376.17 102.557c-.683-3.43-7.75 6.71-5.204 9.106 2.764 2.6 5.677-5.28 7.374-8.674 1.646-3.3 4.186 8.46 7.807 7.8" stroke-linejoin="round" stroke-linecap="butt"/><path d="M388.75 102.122c6.023.604 10.677 5.925 15.177 9.976"/><path stroke="#999" stroke-width="3" d="M388.75 102.122c6.023.604 10.677 5.925 15.177 9.976" stroke-linejoin="round" stroke-linecap="butt"/><path d="M812.88 98c-2.233 5.208-4.997 10.195-8 15"/><path stroke="#999" d="M812.88 98c-2.233 5.208-4.997 10.195-8 15" stroke-linejoin="round" stroke-linecap="butt"/><path d="M755.606 97.35c1.75-3.5-.764 7.798-.867 11.71-.08 2.827 1.21 8.358.43 5.64-1.67-5.84-1.52-12.24-.44-18.216 1.012-5.576 11.64 18.976 10.41 13.444-.758-3.4-1.137-6.938-.87-10.41.2-2.597 1.81-7.136 4.337-6.504 7.054 1.764 6.507 28.088 6.507 20.818"/><path stroke="#999" stroke-width="3" d="M755.606 97.35c1.75-3.5-.764 7.798-.867 11.71-.08 2.827 1.21 8.358.43 5.64-1.67-5.84-1.52-12.24-.44-18.216 1.012-5.576 11.64 18.976 10.41 13.444-.758-3.4-1.137-6.938-.87-10.41.2-2.597 1.81-7.136 4.337-6.504 7.054 1.764 6.507 28.088 6.507 20.818" stroke-linejoin="round" stroke-linecap="butt"/><path d="M791.17 102.557c-.683-3.43-7.75 6.71-5.204 9.106 2.764 2.6 5.677-5.28 7.374-8.674 1.646-3.3 4.186 8.46 7.807 7.8"/><path stroke="#999" stroke-width="3" d="M791.17 102.557c-.683-3.43-7.75 6.71-5.204 9.106 2.764 2.6 5.677-5.28 7.374-8.674 1.646-3.3 4.186 8.46 7.807 7.8" stroke-linejoin="round" stroke-linecap="butt"/><path d="M803.75 102.122c6.023.604 10.677 5.925 15.177 9.976"/><path stroke="#999" stroke-width="3" d="M803.75 102.122c6.023.604 10.677 5.925 15.177 9.976" stroke-linejoin="round" stroke-linecap="butt"/><path d="M1044.667 98.108c-2.233 5.208-4.997 10.194-8 15"/><path stroke="#999" d="M1044.667 98.108c-2.233 5.208-4.997 10.194-8 15" stroke-linejoin="round" stroke-linecap="butt"/><path d="M987.394 97.46c1.75-3.5-.765 7.795-.868 11.708-.074 2.827 1.212 8.358.435 5.64-1.66-5.84-1.52-12.24-.43-18.216 1.02-5.576 11.64 18.975 10.41 13.443-.75-3.4-1.13-6.937-.87-10.41.2-2.597 1.81-7.135 4.34-6.503 7.057 1.763 6.51 28.088 6.51 20.818"/><path stroke="#999" stroke-width="3" d="M987.394 97.46c1.75-3.5-.765 7.795-.868 11.708-.074 2.827 1.212 8.358.435 5.64-1.66-5.84-1.52-12.24-.43-18.216 1.02-5.576 11.64 18.975 10.41 13.443-.75-3.4-1.13-6.937-.87-10.41.2-2.597 1.81-7.135 4.34-6.503 7.057 1.763 6.51 28.088 6.51 20.818" stroke-linejoin="round" stroke-linecap="butt"/><path d="M1022.958 102.664c-.683-3.428-7.75 6.71-5.204 9.107 2.764 2.61 5.677-5.28 7.374-8.67 1.646-3.29 4.186 8.47 7.806 7.81"/><path stroke="#999" stroke-width="3" d="M1022.958 102.664c-.683-3.428-7.75 6.71-5.204 9.107 2.764 2.61 5.677-5.28 7.374-8.67 1.646-3.29 4.186 8.47 7.806 7.81" stroke-linejoin="round" stroke-linecap="butt"/><path d="M1035.536 102.23c6.024.603 10.68 5.925 15.178 9.976"/><path stroke="#999" stroke-width="3" d="M1035.536 102.23c6.024.603 10.68 5.925 15.178 9.976" stroke-linejoin="round" stroke-linecap="butt"/><path d="M1223.88 98.108c-2.233 5.208-4.997 10.194-8 15"/><path stroke="#999" d="M1223.88 98.108c-2.233 5.208-4.997 10.194-8 15" stroke-linejoin="round" stroke-linecap="butt"/><path d="M1166.606 97.46c1.75-3.5-.764 7.795-.867 11.708-.08 2.827 1.21 8.358.43 5.64-1.67-5.84-1.52-12.24-.44-18.216 1.012-5.576 11.64 18.975 10.41 13.443-.758-3.4-1.137-6.937-.87-10.41.2-2.597 1.81-7.135 4.337-6.503 7.054 1.763 6.507 28.088 6.507 20.818"/><path stroke="#999" stroke-width="3" d="M1166.606 97.46c1.75-3.5-.764 7.795-.867 11.708-.08 2.827 1.21 8.358.43 5.64-1.67-5.84-1.52-12.24-.44-18.216 1.012-5.576 11.64 18.975 10.41 13.443-.758-3.4-1.137-6.937-.87-10.41.2-2.597 1.81-7.135 4.337-6.503 7.054 1.763 6.507 28.088 6.507 20.818" stroke-linejoin="round" stroke-linecap="butt"/><path d="M1202.17 102.664c-.683-3.428-7.75 6.71-5.204 9.107 2.764 2.61 5.677-5.28 7.374-8.67 1.646-3.29 4.186 8.47 7.807 7.81"/><path stroke="#999" stroke-width="3" d="M1202.17 102.664c-.683-3.428-7.75 6.71-5.204 9.107 2.764 2.61 5.677-5.28 7.374-8.67 1.646-3.29 4.186 8.47 7.807 7.81" stroke-linejoin="round" stroke-linecap="butt"/><path d="M1214.75 102.23c6.023.603 10.677 5.925 15.177 9.976"/><path stroke="#999" stroke-width="3" d="M1214.75 102.23c6.023.603 10.677 5.925 15.177 9.976" stroke-linejoin="round" stroke-linecap="butt"/><path d="M99.5 154c.943-3.775-8.607-4.602-11.5-2-4.335 3.9 14.215 12.393 9 15-4.78 2.39-10.882.538-16-1"/><path stroke="#000" d="M99.5 154c.943-3.775-8.607-4.602-11.5-2-4.335 3.9 14.215 12.393 9 15-4.78 2.39-10.882.538-16-1" stroke-linejoin="round" stroke-linecap="butt"/><path d="M107 152c-.77 4.615-1.466 9.345-1 14"/><path stroke="#000" d="M107 152c-.77 4.615-1.466 9.345-1 14" stroke-linejoin="round" stroke-linecap="butt"/><path d="M102.5 160l11.5-3"/><path stroke="#000" d="M102.5 160l11.5-3" stroke-linejoin="round" stroke-linecap="butt"/><path d="M116.5 161c.495 2.964 2.24 8.685 5 7.5 2.863-1.225 2.845-5.904 2.5-9"/><path stroke="#000" d="M116.5 161c.495 2.964 2.24 8.685 5 7.5 2.863-1.225 2.845-5.904 2.5-9" stroke-linejoin="round" stroke-linecap="butt"/><path d="M136.5 151c.406 4.863 2 19.38 2 14.5 0-3.67-13.133-2.487-11 .5 2.15 3.01 7.372 2.227 11 1.5"/><path stroke="#000" d="M136.5 151c.406 4.863 2 19.38 2 14.5 0-3.67-13.133-2.487-11 .5 2.15 3.01 7.372 2.227 11 1.5" stroke-linejoin="round" stroke-linecap="butt"/><path d="M149 163.502c1.106-1.546-5.125-3.364-5.497-1.5-1.65 8.25 22.69-4.59 25 3.5"/><path stroke="#000" d="M149 163.502c1.106-1.546-5.125-3.364-5.497-1.5-1.65 8.25 22.69-4.59 25 3.5" stroke-linejoin="round" stroke-linecap="butt"/><path d="M176.5 152c.234 4.19.347 8.466 1.5 12.5"/><path stroke="#000" d="M176.5 152c.234 4.19.347 8.466 1.5 12.5" stroke-linejoin="round" stroke-linecap="butt"/><path d="M177.5 158.5l11-2.5"/><path stroke="#000" d="M177.5 158.5l11-2.5" stroke-linejoin="round" stroke-linecap="butt"/><path d="M218 150.5c.83-3.316-4.297 5.8-7.5 7"/><path stroke="#000" d="M218 150.5c.83-3.316-4.297 5.8-7.5 7" stroke-linejoin="round" stroke-linecap="butt"/><path d="M217 150c3.557 5.93 7.174 13.29 5.5 20"/><path stroke="#000" d="M217 150c3.557 5.93 7.174 13.29 5.5 20" stroke-linejoin="round" stroke-linecap="butt"/><path d="M235.502 164.5c-7.34 2.158-30.15 4.5-22.5 4.5"/><path stroke="#000" d="M235.502 164.5c-7.34 2.158-30.15 4.5-22.5 4.5" stroke-linejoin="round" stroke-linecap="butt"/><path d="M99.5 209.505c.943-3.776-8.607-4.603-11.5-2-4.335 3.9 14.215 12.392 9 15-4.78 2.39-10.882.537-16-1"/><path stroke="#000" d="M99.5 209.505c.943-3.776-8.607-4.603-11.5-2-4.335 3.9 14.215 12.392 9 15-4.78 2.39-10.882.537-16-1" stroke-linejoin="round" stroke-linecap="butt"/><path d="M107 207.504c-.77 4.615-1.466 9.344-1 14"/><path stroke="#000" d="M107 207.504c-.77 4.615-1.466 9.344-1 14" stroke-linejoin="round" stroke-linecap="butt"/><path d="M102.5 215.504l11.5-3"/><path stroke="#000" d="M102.5 215.504l11.5-3" stroke-linejoin="round" stroke-linecap="butt"/><path d="M116.5 216.504c.495 2.964 2.24 8.685 5 7.5 2.863-1.225 2.845-5.904 2.5-9"/><path stroke="#000" d="M116.5 216.504c.495 2.964 2.24 8.685 5 7.5 2.863-1.225 2.845-5.904 2.5-9" stroke-linejoin="round" stroke-linecap="butt"/><path d="M136.5 206.504c.406 4.863 2 19.38 2 14.5 0-3.67-13.133-2.487-11 .5 2.15 3.01 7.372 2.227 11 1.5"/><path stroke="#000" d="M136.5 206.504c.406 4.863 2 19.38 2 14.5 0-3.67-13.133-2.487-11 .5 2.15 3.01 7.372 2.227 11 1.5" stroke-linejoin="round" stroke-linecap="butt"/><path d="M149 219.006c1.106-1.546-5.125-3.364-5.497-1.5-1.65 8.25 22.69-4.59 25 3.5"/><path stroke="#000" d="M149 219.006c1.106-1.546-5.125-3.364-5.497-1.5-1.65 8.25 22.69-4.59 25 3.5" stroke-linejoin="round" stroke-linecap="butt"/><path d="M176.5 207.504c.234 4.19.347 8.466 1.5 12.5"/><path stroke="#000" d="M176.5 207.504c.234 4.19.347 8.466 1.5 12.5" stroke-linejoin="round" stroke-linecap="butt"/><path d="M177.5 214.005l11-2.5"/><path stroke="#000" d="M177.5 214.005l11-2.5" stroke-linejoin="round" stroke-linecap="butt"/><path d="M214.5 209.5c2.88-3.838 12.236-9.63 13.5-5 1.73 6.334-12.984 13.726-8 18 2.913 2.498 7.664.5 11.5.5"/><path stroke="#000" d="M214.5 209.5c2.88-3.838 12.236-9.63 13.5-5 1.73 6.334-12.984 13.726-8 18 2.913 2.498 7.664.5 11.5.5" stroke-linejoin="round" stroke-linecap="butt"/><path d="M343 153c5.306-1.446 12.92-4.176 16.5 0 3.835 4.47-21.27 10.13-16 7.5 4.387-2.187 15.82-.052 14 4.5-1.833 4.583-9.66 3.97-14.5 3"/><path stroke="#000" d="M343 153c5.306-1.446 12.92-4.176 16.5 0 3.835 4.47-21.27 10.13-16 7.5 4.387-2.187 15.82-.052 14 4.5-1.833 4.583-9.66 3.97-14.5 3" stroke-linejoin="round" stroke-linecap="butt"/><path d="M380.5 153.5c-5.255-1.753-12.61 5.993-12 11.5.556 4.993 11.233 4.825 15 1.5 3.676-3.244-3.665-11.196-8.5-12"/><path stroke="#000" d="M380.5 153.5c-5.255-1.753-12.61 5.993-12 11.5.556 4.993 11.233 4.825 15 1.5 3.676-3.244-3.665-11.196-8.5-12" stroke-linejoin="round" stroke-linecap="butt"/><path d="M350 203.5c0 6.024-7.84 12.49-4.5 17.5 3.15 4.723 11.435-2.11 17-1"/><path stroke="#000" d="M350 203.5c0 6.024-7.84 12.49-4.5 17.5 3.15 4.723 11.435-2.11 17-1" stroke-linejoin="round" stroke-linecap="butt"/><path d="M357.5 213c0 4.68.084 9.412 1 14"/><path stroke="#000" d="M357.5 213c0 4.68.084 9.412 1 14" stroke-linejoin="round" stroke-linecap="butt"/><path d="M375 203.5c-.93 6.042-5.77 12.326-3.5 18 2.233 5.58 14.393 3.807 18-1"/><path stroke="#000" d="M375 203.5c-.93 6.042-5.77 12.326-3.5 18 2.233 5.58 14.393 3.807 18-1" stroke-linejoin="round" stroke-linecap="butt"/><path d="M379.5 219.502c3.063-3.067 3.63 7.89 5 12"/><path stroke="#000" d="M379.5 219.502c3.063-3.067 3.63 7.89 5 12" stroke-linejoin="round" stroke-linecap="butt"/><path d="M552 153.5c-3.586-.828-9.07-2.135-11 1-1.38 2.245 1.875 6.298 4.502 6.5 2.397.183 1.72-5.24 4-6 4.717-1.573 2.42 9.647 3.5 14.5"/><path stroke="#000" d="M552 153.5c-3.586-.828-9.07-2.135-11 1-1.38 2.245 1.875 6.298 4.502 6.5 2.397.183 1.72-5.24 4-6 4.717-1.573 2.42 9.647 3.5 14.5" stroke-linejoin="round" stroke-linecap="butt"/><path d="M558.5 152.5c10.498-1 12.616-3.94 15.5-2.5 6.01 3.002-6.366 11.984-8 18.5"/><path stroke="#000" d="M558.5 152.5c10.498-1 12.616-3.94 15.5-2.5 6.01 3.002-6.366 11.984-8 18.5" stroke-linejoin="round" stroke-linecap="butt"/><path d="M547.5 204.5c-4.333 2.167-10.186 6.205-9.5 11 .585 4.1 5.672 9.577 9.5 8 3.3-1.357-3.04-9.363-6.5-8.5"/><path stroke="#000" d="M547.5 204.5c-4.333 2.167-10.186 6.205-9.5 11 .585 4.1 5.672 9.577 9.5 8 3.3-1.357-3.04-9.363-6.5-8.5" stroke-linejoin="round" stroke-linecap="butt"/><path d="M555.5 208.502c3.493-2.794 7.564-6.555 12-6 1.57.196 1 1.42 1 3 0 3.655-11.015 6.996-7.5 8 3.01.86 10.183 1.358 8.5 4-2.456 3.86-9.116 3.815-13.5 2.498"/><path stroke="#000" d="M555.5 208.502c3.493-2.794 7.564-6.555 12-6 1.57.196 1 1.42 1 3 0 3.655-11.015 6.996-7.5 8 3.01.86 10.183 1.358 8.5 4-2.456 3.86-9.116 3.815-13.5 2.498" stroke-linejoin="round" stroke-linecap="butt"/></g></svg>