<svg xmlns="http://www.w3.org/2000/svg" fill="none" stroke-miterlimit="10" viewBox="0 0 1333.333 266.667" stroke-linecap="square"><clipPath id="a"><path d="M0 0h1333.333v266.667H0V0z"/></clipPath><g clip-path="url(#a)"><path d="M0 0h1333.333v266.667H0z"/><path d="M12.84 14.038c30.55-5.643 62.47 1.93 93.1-3.263C177.757-1.4 251.52 14.69 324.24 18.39c110.45 5.616 221.193-1.814 331.726-5.44 57.043-1.872 114.192 3.505 171.215 1.088 100.15-4.244 200.62 7.832 300.7 2.177 46.657-2.637 93.525-3.725 140.18-1.09 14.247.806 28.537 0 42.805 0 3.586 0 8.168-3.665 10.702-1.087 5.097 5.187-4.626 14.563-3.21 21.752 5.462 27.73 3.91 57.012-1.07 84.836-3.4 18.99 1.628 38.72 5.35 57.647 3.16 16.06-6.28 32.69-4.28 48.942 1.07 8.7 5.3 17.596 3.21 26.104-1.04 4.23-8.63-.238-12.84-1.09-16.29-3.31-31.644-11.188-48.155-13.05-42.902-4.85-86.49 6.14-129.48 2.17-113.676-10.498-228.36 5.232-342.43 1.09-175.045-6.36-350.357 1.68-525.416 7.613-54.542 1.85-109.146 0-163.72 0-19.632 0-39.345-.03-58.856 2.174-8.89 1.003-22.752 10.31-26.753 2.175-2.785-5.663 5.176-11.524 7.492-17.4 3.58-9.09 1.583-19.712 0-29.368-10.454-63.69-6.42-129.032-6.42-193.602"/><path stroke="#888" stroke-width="3" d="M12.84 14.038c30.55-5.643 62.47 1.93 93.1-3.263C177.757-1.4 251.52 14.69 324.24 18.39c110.45 5.616 221.193-1.814 331.726-5.44 57.043-1.872 114.192 3.505 171.215 1.088 100.15-4.244 200.62 7.832 300.7 2.177 46.657-2.637 93.525-3.725 140.18-1.09 14.247.806 28.537 0 42.805 0 3.586 0 8.168-3.665 10.702-1.087 5.097 5.187-4.626 14.563-3.21 21.752 5.462 27.73 3.91 57.012-1.07 84.836-3.4 18.99 1.628 38.72 5.35 57.647 3.16 16.06-6.28 32.69-4.28 48.942 1.07 8.7 5.3 17.596 3.21 26.104-1.04 4.23-8.63-.238-12.84-1.09-16.29-3.31-31.644-11.188-48.155-13.05-42.902-4.85-86.49 6.14-129.48 2.17-113.676-10.498-228.36 5.232-342.43 1.09-175.045-6.36-350.357 1.68-525.416 7.613-54.542 1.85-109.146 0-163.72 0-19.632 0-39.345-.03-58.856 2.174-8.89 1.003-22.752 10.31-26.753 2.175-2.785-5.663 5.176-11.524 7.492-17.4 3.58-9.09 1.583-19.712 0-29.368-10.454-63.69-6.42-129.032-6.42-193.602" stroke-linejoin="round" stroke-linecap="butt"/><path d="M654.346 11.76c6.944 74.855 0 151.234 0 226.852"/><path stroke="#888" stroke-width="2" d="M654.346 11.76c6.944 74.855 0 151.234 0 226.852" stroke-linejoin="round" stroke-linecap="butt"/><path fill="#d9d9d9" d="M39.606 69.23V34.805H267.48V69.23zm0 52.934V87.738h229.512v34.426zm0 56.34v-34.427h231.118v34.426zm0 52.932V197.01h229.512v34.426zm248.21-161.993V35.018H456.92v34.425zm0 52.933V87.95h170.33v34.426zm0 56.34V144.29h171.528v34.425zm0 52.932v-34.425h170.33v34.425zM475.333 69.444V35.018h158.33v34.426zm0 52.933V87.95H634.83v34.427zm0 56.338V144.29h160.6v34.425zm0 52.933v-34.425H634.83v34.425zm209.487-52.944V34.894h227.873v143.81zm0 52.838v-34.425h229.51v34.425zM933.03 69.55V35.125h169.1V69.55zm0 52.933V88.058h170.33v34.425zm0 56.34v-34.427h171.526v34.426zm0 52.932V197.33h170.33v34.425zM1120.546 69.55V35.125h158.33V69.55zm0 52.933V88.058h159.496v34.425zm0 56.34v-34.427h160.598v34.426zm0 52.932V197.33h159.496v34.425z"/><path d="M86.678 35.312c-3.942 12.62-4.87 24.32-6.42 23.544-5.423-2.712-5.752-16.273 0-18.192C88.99 37.75 90.784 70.5 96.308 63.136c5.458-7.274 2.474-18.126 5.352-26.753"/><path stroke="#000" stroke-width="3" d="M86.678 35.312c-3.942 12.62-4.87 24.32-6.42 23.544-5.423-2.712-5.752-16.273 0-18.192C88.99 37.75 90.784 70.5 96.308 63.136c5.458-7.274 2.474-18.126 5.352-26.753" stroke-linejoin="round" stroke-linecap="butt"/><path d="M132.69 36.383c-6.877 8.94-15.698 17.12-19.26 27.822"/><path stroke="#000" stroke-width="3" d="M132.69 36.383c-6.877 8.94-15.698 17.12-19.26 27.822" stroke-linejoin="round" stroke-linecap="butt"/><path d="M130.55 35.312c.778 8.54 5.41 16.293 7.492 24.612"/><path stroke="#000" stroke-width="3" d="M130.55 35.312c.778 8.54 5.41 16.293 7.492 24.612" stroke-linejoin="round" stroke-linecap="butt"/><path d="M118.78 50.294c7.397 1.234 14.973 1.07 22.472 1.07"/><path stroke="#000" stroke-width="3" d="M118.78 50.294c7.397 1.234 14.973 1.07 22.472 1.07" stroke-linejoin="round" stroke-linecap="butt"/><path d="M154.092 41.732c.535 7.48 1.07 14.973 1.07 22.473 0 6.105 1.14-12.17 2.142-18.192.505-3.027 5.094 3.436 7.49 5.352 3.015 2.41 2.563-9.633 6.42-9.633.005 0 4.282 14.98 4.282 14.982"/><path stroke="#000" stroke-width="3" d="M154.092 41.732c.535 7.48 1.07 14.973 1.07 22.473 0 6.105 1.14-12.17 2.142-18.192.505-3.027 5.094 3.436 7.49 5.352 3.015 2.41 2.563-9.633 6.42-9.633.005 0 4.282 14.98 4.282 14.982" stroke-linejoin="round" stroke-linecap="butt"/><path d="M192.616 40.664c-.593 7.118-.662 14.472 1.07 21.402"/><path stroke="#000" stroke-width="3" d="M192.616 40.664c-.593 7.118-.662 14.472 1.07 21.402" stroke-linejoin="round" stroke-linecap="butt"/><path d="M188.336 40.664c9.2-1.84 18.44-4.28 27.82-4.28"/><path stroke="#000" stroke-width="3" d="M188.336 40.664c9.2-1.84 18.44-4.28 27.82-4.28" stroke-linejoin="round" stroke-linecap="butt"/><path d="M192.617 50.294c6.786 0 13.613.11 20.33 1.07"/><path stroke="#000" stroke-width="3" d="M192.617 50.294c6.786 0 13.613.11 20.33 1.07" stroke-linejoin="round" stroke-linecap="butt"/><path d="M196.898 64.204c6.786 0 13.893-1.076 20.33 1.07"/><path stroke="#000" stroke-width="3" d="M196.898 64.204c6.786 0 13.893-1.076 20.33 1.07" stroke-linejoin="round" stroke-linecap="butt"/><path d="M739.617 89.3c-3.943 12.62-4.87 24.318-6.42 23.543-5.424-2.712-5.753-16.273 0-18.192 8.732-2.91 10.525 29.84 16.05 22.477 5.458-7.274 2.473-18.126 5.35-26.753"/><path stroke="#000" stroke-width="3" d="M739.617 89.3c-3.943 12.62-4.87 24.318-6.42 23.543-5.424-2.712-5.753-16.273 0-18.192 8.732-2.91 10.525 29.84 16.05 22.477 5.458-7.274 2.473-18.126 5.35-26.753" stroke-linejoin="round" stroke-linecap="butt"/><path d="M785.63 90.37c-6.88 8.94-15.7 17.12-19.26 27.822"/><path stroke="#000" stroke-width="3" d="M785.63 90.37c-6.88 8.94-15.7 17.12-19.26 27.822" stroke-linejoin="round" stroke-linecap="butt"/><path d="M783.49 89.3c.776 8.54 5.408 16.292 7.49 24.61"/><path stroke="#000" stroke-width="3" d="M783.49 89.3c.776 8.54 5.408 16.292 7.49 24.61" stroke-linejoin="round" stroke-linecap="butt"/><path d="M771.718 104.28c7.397 1.234 14.973 1.072 22.472 1.072"/><path stroke="#000" stroke-width="3" d="M771.718 104.28c7.397 1.234 14.973 1.072 22.472 1.072" stroke-linejoin="round" stroke-linecap="butt"/><path d="M807.03 95.72c.535 7.48 1.07 14.972 1.07 22.472 0 6.105 1.14-12.17 2.143-18.192.504-3.027 5.094 3.436 7.49 5.352 3.015 2.41 2.562-9.633 6.42-9.633.004 0 4.28 14.98 4.28 14.98"/><path stroke="#000" stroke-width="3" d="M807.03 95.72c.535 7.48 1.07 14.972 1.07 22.472 0 6.105 1.14-12.17 2.143-18.192.504-3.027 5.094 3.436 7.49 5.352 3.015 2.41 2.562-9.633 6.42-9.633.004 0 4.28 14.98 4.28 14.98" stroke-linejoin="round" stroke-linecap="butt"/><path d="M845.555 94.65c-.594 7.12-.663 14.473 1.07 21.402"/><path stroke="#000" stroke-width="3" d="M845.555 94.65c-.594 7.12-.663 14.473 1.07 21.402" stroke-linejoin="round" stroke-linecap="butt"/><path d="M841.274 94.65c9.2-1.84 18.44-4.28 27.822-4.28"/><path stroke="#000" stroke-width="3" d="M841.274 94.65c9.2-1.84 18.44-4.28 27.822-4.28" stroke-linejoin="round" stroke-linecap="butt"/><path d="M845.555 104.28c6.786 0 13.613.11 20.33 1.072"/><path stroke="#000" stroke-width="3" d="M845.555 104.28c6.786 0 13.613.11 20.33 1.072" stroke-linejoin="round" stroke-linecap="butt"/><path d="M849.836 118.19c6.786 0 13.893-1.075 20.33 1.072"/><path stroke="#000" stroke-width="3" d="M849.836 118.19c6.786 0 13.893-1.075 20.33 1.072" stroke-linejoin="round" stroke-linecap="butt"/></g></svg>