<svg xmlns="http://www.w3.org/2000/svg" fill="none" stroke-miterlimit="10" viewBox="0 0 1333.333 266.667" stroke-linecap="square"><clipPath id="a"><path d="M0 0h1333.333v266.667H0V0z"/></clipPath><g clip-path="url(#a)"><path d="M0 0h1333.333v266.667H0z"/><path d="M12.84 14.038c30.55-5.643 62.47 1.93 93.1-3.263C177.757-1.4 251.52 14.69 324.24 18.39c110.45 5.616 221.193-1.814 331.726-5.44 57.043-1.872 114.192 3.505 171.215 1.088 100.15-4.244 200.62 7.832 300.7 2.177 46.66-2.637 93.53-3.725 140.18-1.09 14.25.806 28.54 0 42.81 0 3.59 0 8.17-3.665 10.7-1.087 5.1 5.187-4.62 14.563-3.21 21.752 5.46 27.73 3.91 57.012-1.07 84.836-3.4 18.99 1.63 38.72 5.35 57.647 3.16 16.06-6.28 32.69-4.28 48.942 1.07 8.7 5.3 17.596 3.21 26.104-1.04 4.23-8.63-.24-12.84-1.09-16.29-3.31-31.64-11.19-48.15-13.05-42.9-4.85-86.49 6.14-129.48 2.17-113.67-10.5-228.36 5.23-342.43 1.09-175.04-6.36-350.35 1.68-525.41 7.61-54.54 1.85-109.14 0-163.72 0-19.63 0-39.34-.03-58.85 2.17-8.89 1-22.75 10.31-26.75 2.17-2.78-5.67 5.18-11.53 7.5-17.4 3.58-9.09 1.59-19.71 0-29.37C10.97 143.94 15 78.6 15 14.03"/><path stroke="#888" stroke-width="3" d="M12.84 14.038c30.55-5.643 62.47 1.93 93.1-3.263C177.757-1.4 251.52 14.69 324.24 18.39c110.45 5.616 221.193-1.814 331.726-5.44 57.043-1.872 114.192 3.505 171.215 1.088 100.15-4.244 200.62 7.832 300.7 2.177 46.66-2.637 93.53-3.725 140.18-1.09 14.25.806 28.54 0 42.81 0 3.59 0 8.17-3.665 10.7-1.087 5.1 5.187-4.62 14.563-3.21 21.752 5.46 27.73 3.91 57.012-1.07 84.836-3.4 18.99 1.63 38.72 5.35 57.647 3.16 16.06-6.28 32.69-4.28 48.942 1.07 8.7 5.3 17.596 3.21 26.104-1.04 4.23-8.63-.24-12.84-1.09-16.29-3.31-31.64-11.19-48.15-13.05-42.9-4.85-86.49 6.14-129.48 2.17-113.67-10.5-228.36 5.23-342.43 1.09-175.04-6.36-350.35 1.68-525.41 7.61-54.54 1.85-109.14 0-163.72 0-19.63 0-39.34-.03-58.85 2.17-8.89 1-22.75 10.31-26.75 2.17-2.78-5.67 5.18-11.53 7.5-17.4 3.58-9.09 1.59-19.71 0-29.37C10.97 143.94 15 78.6 15 14.03" stroke-linejoin="round" stroke-linecap="butt"/><path d="M422.685 21.402c10.4 72.74 0 146.958 0 220.438"/><path stroke="#888" stroke-width="2" d="M422.685 21.402c10.4 72.74 0 146.958 0 220.438" stroke-linejoin="round" stroke-linecap="butt"/><path d="M886.033 14.982c2.113 12.665-.713 25.7 0 38.522.82 14.758 7.825 29.16 6.423 43.874-1.653 17.34-8.84 33.963-9.633 51.365-1.41 31.002 14.964 65.346 1.07 93.097"/><path stroke="#888" stroke-width="2" d="M886.033 14.982c2.113 12.665-.713 25.7 0 38.522.82 14.758 7.825 29.16 6.423 43.874-1.653 17.34-8.84 33.963-9.633 51.365-1.41 31.002 14.964 65.346 1.07 93.097" stroke-linejoin="round" stroke-linecap="butt"/><path d="M35.312 186.144h165.86v42.804H35.31z"/><path fill="#000" d="M55.062 211.892v1.172H46V199.58h8.89v1.172h-7.562v4.86h6.594v1.124h-6.594v5.156h7.734zm2.284-8.734l2.97 3.89.14.282.155-.28 2.97-3.892h1.39l-3.78 4.984 3.78 4.922h-1.39l-2.97-3.86-.15-.265-.14.26-2.97 3.86h-1.39l3.78-4.93-3.78-4.99h1.39zm11.637 10.094q-.687 0-1.297-.235-.594-.234-1.047-.656-.44-.42-.69-.96-.25-.56-.25-1.22 0-.64.29-1.19.31-.56.86-.95.56-.4 1.31-.62.76-.22 1.67-.22.76 0 1.55.14.78.13 1.37.38v-.89q0-1.31-.74-2.08-.74-.76-2.05-.76-.77 0-1.56.3t-1.61.88l-.47-.86q1.92-1.28 3.73-1.28 1.86 0 2.92 1.05 1.06 1.03 1.06 2.88v4.47q0 .53.48.53v1.14q-.33.07-.5.07-.5 0-.78-.25-.27-.25-.28-.69l-.05-.78q-.67.89-1.72 1.38-1.03.47-2.24.47zm.313-.985q1 0 1.843-.375.86-.39 1.29-1.015.17-.172.25-.36.08-.203.08-.375v-1.625q-.64-.234-1.35-.36-.69-.14-1.41-.14-1.36 0-2.22.58-.86.56-.86 1.483 0 .453.17.86.18.39.5.687.31.297.75.47.43.17.93.17zm22.105.797h-1.29v-5.53q0-1.735-.56-2.548-.54-.812-1.62-.812-.56 0-1.08.218-.5.204-.93.58-.42.374-.75.905-.31.515-.48 1.14v6.047h-1.3v-5.53q0-1.767-.53-2.563-.53-.79-1.62-.79-1.12 0-2 .78t-1.25 2.05v6.06h-1.3v-9.9h1.19v2.25q.61-1.14 1.59-1.76.99-.64 2.19-.64 1.25 0 2 .71t.92 1.83q1.39-2.53 3.82-2.53.84 0 1.42.3t.92.86q.36.57.52 1.36.17.78.17 1.75v5.8zm7.48.188q-1.26 0-2.22-.625-.95-.64-1.54-1.61v6.094h-1.3v-13.95h1.16v1.93q.61-.92 1.58-1.5.97-.58 2.11-.58 1.03 0 1.88.42.86.42 1.49 1.14.64.71.98 1.64.36.94.36 1.93 0 1.05-.33 1.99-.33.93-.92 1.63-.59.7-1.42 1.11-.83.41-1.81.41zm-.36-1.14q.8 0 1.46-.345.66-.343 1.11-.89.47-.563.72-1.28.25-.72.25-1.47 0-.797-.29-1.516-.28-.73-.78-1.28-.48-.54-1.16-.87-.67-.33-1.45-.33-.5 0-1.04.21-.53.21-1 .55-.46.33-.79.78-.33.44-.4.93v3.05q.22.53.57.99.36.46.81.8.46.33.96.52.52.19 1.08.19zm6.87-12.923h1.3v11.64q0 .54.3.86.3.31.86.31.2 0 .49-.05.3-.07.53-.16l.24 1.03q-.36.15-.89.25-.51.09-.89.09-.89 0-1.41-.5-.51-.5-.51-1.42v-12.06zm9.3 14.06q-1.09 0-2-.41-.89-.41-1.56-1.11-.65-.72-1.03-1.64-.37-.94-.37-2.02 0-1.03.38-1.96.38-.92 1.03-1.61.66-.71 1.57-1.11.91-.41 1.99-.41t1.97.4q.91.4 1.55 1.11.66.7 1.02 1.62.36.91.36 1.92v.31q0 .14-.01.2h-8.47q.05.79.36 1.47.33.67.81 1.17.5.5 1.13.78.64.26 1.36.26.48 0 .95-.13.48-.14.87-.36.41-.24.72-.56.33-.35.5-.74l1.13.3q-.23.54-.65 1-.4.43-.97.78-.55.33-1.22.5-.65.19-1.37.19zm3.64-5.66q-.04-.8-.37-1.46-.31-.66-.79-1.13-.48-.49-1.12-.75-.62-.27-1.34-.27-.72 0-1.37.26-.64.26-1.12.75-.48.47-.78 1.14-.3.65-.35 1.44h7.27zm14.09 4.29v1.17h-6.45v-1.18h2.71v-8.14q-.16.23-.53.5-.36.26-.81.5-.44.22-.92.37-.47.14-.83.14V204q.44 0 .96-.233.53-.25.98-.577.47-.327.8-.61.33-.28.36-.373H130v9.67h2.42z"/><path d="M434.407 186.144h123.118v42.804H434.407z"/><path fill="#000" d="M454.157 211.892v1.172h-9.063V199.58h8.89v1.172h-7.562v4.86h6.594v1.124h-6.594v5.156h7.735zm2.283-8.734l2.97 3.89.14.282.156-.28 2.97-3.892h1.39l-3.782 4.984 3.78 4.922h-1.39l-2.968-3.86-.156-.265-.14.26-2.97 3.86h-1.39l3.78-4.93-3.78-4.99h1.39zm11.637 10.094q-.687 0-1.296-.235-.59-.234-1.04-.656-.44-.42-.69-.96-.25-.56-.25-1.22 0-.64.3-1.19.32-.56.86-.95.56-.4 1.31-.62.77-.22 1.67-.22.77 0 1.55.14.78.13 1.38.38v-.89q0-1.31-.73-2.08-.73-.76-2.05-.76-.76 0-1.56.3t-1.61.88l-.47-.86q1.92-1.28 3.73-1.28 1.86 0 2.93 1.05 1.07 1.03 1.07 2.88v4.47q0 .53.48.53v1.14q-.32.07-.5.07-.5 0-.78-.25-.26-.25-.28-.69l-.04-.78q-.67.89-1.72 1.38-1.03.47-2.23.47zm.313-.985q1 0 1.844-.375.86-.39 1.297-1.015.18-.172.25-.36.08-.203.08-.375v-1.625q-.64-.234-1.34-.36-.69-.14-1.4-.14-1.36 0-2.22.58-.86.56-.86 1.483 0 .453.18.86.19.39.5.687.32.297.75.47.44.17.94.17zm22.105.797h-1.297v-5.53q0-1.735-.562-2.548-.547-.812-1.625-.812-.56 0-1.07.218-.5.204-.94.58-.42.374-.75.905-.31.515-.48 1.14v6.047h-1.29v-5.53q0-1.767-.53-2.563-.53-.79-1.62-.79-1.12 0-2 .78t-1.25 2.05v6.06h-1.29v-9.9h1.19v2.25q.61-1.14 1.6-1.76.98-.64 2.19-.64 1.25 0 2 .71t.92 1.83q1.39-2.53 3.82-2.53.85 0 1.42.3t.92.86q.36.57.52 1.36.17.78.17 1.75v5.8zm7.473.188q-1.265 0-2.218-.625-.953-.64-1.547-1.61v6.094h-1.297v-13.95h1.156v1.93q.61-.92 1.578-1.5.97-.58 2.11-.58 1.03 0 1.875.42.86.42 1.484 1.14.64.71.98 1.64.36.94.36 1.93 0 1.05-.33 1.99-.33.93-.92 1.63-.6.7-1.42 1.11-.83.41-1.82.41zm-.36-1.14q.798 0 1.454-.345.656-.343 1.11-.89.468-.563.718-1.28.25-.72.25-1.47 0-.797-.297-1.516-.28-.73-.78-1.28-.485-.54-1.157-.87-.672-.33-1.453-.33-.5 0-1.047.21-.53.21-1 .55-.47.33-.797.78-.33.44-.41.93v3.05q.22.53.56.99.36.46.81.8.45.33.95.52.51.19 1.08.19zm6.87-12.923h1.298v11.64q0 .54.297.86.297.31.86.31.203 0 .484-.05.297-.07.53-.16l.235 1.03q-.36.15-.89.25-.516.09-.89.09-.89 0-1.407-.5-.516-.5-.516-1.42v-12.06zm9.295 14.06q-1.094 0-2-.41-.89-.41-1.563-1.11-.656-.72-1.03-1.64-.376-.94-.376-2.02 0-1.03.375-1.96.37-.92 1.03-1.61.65-.71 1.56-1.11.9-.41 1.98-.41t1.97.4q.9.4 1.54 1.11.65.7 1.01 1.62.36.91.36 1.92v.31q0 .14-.02.2h-8.47q.05.79.36 1.47.33.67.81 1.17.5.5 1.12.78.64.26 1.36.26.48 0 .95-.13.48-.14.87-.36.4-.24.71-.56.33-.35.5-.74l1.12.3q-.24.54-.66 1-.41.43-.97.78-.55.33-1.22.5-.66.19-1.38.19zm3.64-5.66q-.047-.8-.375-1.46-.312-.66-.797-1.13-.48-.49-1.12-.75-.62-.27-1.34-.27-.72 0-1.37.26-.64.26-1.12.75-.48.47-.78 1.14-.29.65-.34 1.44h7.27zm7.21 5.47q0-.64.108-1.3.11-.66.44-1.3.35-.66.96-1.25.63-.61 1.64-1.14.57-.28 1.16-.55.6-.28 1.1-.63.52-.35.83-.77.33-.44.33-1 0-.36-.17-.71-.15-.36-.47-.63-.31-.28-.78-.46-.45-.17-1.08-.17-.64 0-1.14.18-.48.17-.86.42-.36.23-.62.51t-.4.45l-.86-.94q.13-.11.44-.41.33-.32.85-.61.53-.32 1.24-.55.7-.23 1.58-.23t1.55.23q.69.23 1.16.66.49.4.74.95.25.54.25 1.12 0 .78-.34 1.36-.34.56-.84.98-.5.42-1.08.71-.56.28-1.03.5-.592.26-1.19.59-.58.33-1.03.73-.46.39-.75.89-.3.5-.3 1.11h6.767v1.2h-8.14z"/><path d="M903.055 186.144h165.858v42.804H903.055z"/><path fill="#000" d="M922.805 211.892v1.172h-9.062V199.58h8.89v1.172h-7.562v4.86h6.6v1.124h-6.59v5.156h7.74zm2.284-8.734l2.96 3.89.14.282.15-.28 2.97-3.892h1.39l-3.78 4.984 3.78 4.922h-1.39l-2.97-3.86-.16-.265-.14.26-2.97 3.86h-1.39l3.78-4.93-3.78-4.99h1.39zm11.63 10.094q-.69 0-1.3-.235-.6-.234-1.05-.656-.44-.42-.69-.96-.25-.56-.25-1.22 0-.64.29-1.19.31-.56.86-.95.56-.4 1.31-.62.76-.22 1.67-.22.76 0 1.54.14.78.13 1.37.38v-.89q0-1.31-.74-2.08-.74-.76-2.05-.76-.77 0-1.57.3t-1.61.88l-.47-.86q1.92-1.28 3.74-1.28 1.86 0 2.92 1.05 1.06 1.03 1.06 2.88v4.47q0 .53.49.53v1.14q-.33.07-.5.07-.5 0-.78-.25-.27-.25-.29-.69l-.05-.78q-.67.89-1.72 1.38-1.03.47-2.23.47zm.31-.985q1 0 1.84-.375.86-.39 1.29-1.015.17-.172.25-.36.07-.203.07-.375v-1.625q-.64-.234-1.35-.36-.69-.14-1.41-.14-1.36 0-2.22.58-.86.56-.86 1.483 0 .453.17.86.19.39.5.687.31.297.75.47.44.17.94.17zm22.1.797h-1.3v-5.53q0-1.735-.57-2.548-.55-.812-1.63-.812-.57 0-1.08.218-.5.204-.94.58-.42.374-.75.905-.31.515-.49 1.14v6.047h-1.29v-5.53q0-1.767-.53-2.563-.54-.79-1.63-.79-1.13 0-2 .78t-1.25 2.05v6.06h-1.29v-9.9h1.18v2.25q.61-1.14 1.59-1.76.98-.64 2.19-.64 1.25 0 2 .71t.92 1.83q1.39-2.53 3.82-2.53.85 0 1.42.3t.92.86q.36.57.52 1.36.17.78.17 1.75v5.8zm7.47.188q-1.27 0-2.22-.625-.95-.64-1.55-1.61v6.094h-1.3v-13.95h1.15v1.93q.61-.92 1.58-1.5.96-.58 2.1-.58 1.03 0 1.87.42.86.42 1.48 1.14.64.71.98 1.64.36.94.36 1.93 0 1.05-.33 1.99-.33.93-.92 1.63-.6.7-1.42 1.11-.83.41-1.81.41zm-.36-1.14q.79 0 1.45-.345.65-.343 1.11-.89.47-.563.72-1.28.25-.72.25-1.47 0-.797-.3-1.516-.28-.73-.78-1.28-.49-.54-1.16-.87-.67-.33-1.45-.33-.5 0-1.05.21-.53.21-1 .55-.47.33-.8.78-.33.44-.41.93v3.05q.22.53.56.99.36.46.81.8.45.33.95.52.51.19 1.07.19zm6.87-12.923h1.29v11.64q0 .54.29.86.29.31.86.31.2 0 .48-.05.3-.07.53-.16l.24 1.03q-.36.15-.89.25-.52.09-.89.09-.89 0-1.41-.5t-.52-1.42v-12.06zm9.29 14.06q-1.1 0-2-.41-.89-.41-1.57-1.11-.66-.72-1.03-1.64-.38-.94-.38-2.02 0-1.03.37-1.96.37-.92 1.03-1.61.66-.71 1.56-1.11.91-.41 1.98-.41t1.97.4q.9.4 1.55 1.11.65.7 1.01 1.62.36.91.36 1.92v.31q0 .14-.02.2h-8.47q.04.79.36 1.47.33.67.81 1.17.5.5 1.12.78.64.26 1.36.26.48 0 .95-.13.49-.14.88-.36.4-.24.72-.56.32-.35.5-.74l1.12.3q-.24.54-.66 1-.41.43-.97.78-.55.33-1.22.5-.66.19-1.37.19zm3.64-5.66q-.05-.8-.38-1.46-.32-.66-.8-1.13-.49-.49-1.13-.75-.63-.27-1.34-.27-.72 0-1.38.26-.64.26-1.13.75-.49.47-.78 1.14-.3.65-.35 1.44h7.27zm12.88.98q1.25.2 2 1.14.75.93.75 2.29 0 .86-.32 1.56-.32.72-.89 1.22-.58.5-1.4.78-.8.28-1.78.28-1.46 0-2.55-.58-1.08-.58-1.63-1.61l.89-.82q.41.83 1.22 1.31.81.5 2.06.5 1.42 0 2.23-.69t.81-1.99q0-1.32-.86-2.07-.84-.77-2.47-.77h-.47v-1.11h.51q1.47 0 2.23-.68.78-.67.78-1.75 0-.57-.2-1.01-.21-.44-.58-.74-.38-.3-.88-.44-.5-.16-1.1-.16-1.077 0-1.9.48-.83.48-1.25 1.34l-.83-.8q.22-.5.64-.91.42-.41.95-.69.53-.3 1.17-.46.64-.157 1.33-.157.872 0 1.61.25.73.23 1.262.684.53.44.83 1.08.3.63.3 1.38 0 .58-.17 1.11-.178.516-.5.923-.33.407-.8.688-.457.27-1.05.346z"/><path fill="#d9d9d9" d="M95.24 124.66h27.81v34.24H95.24zm43.34 13.912h27.81v20.315h-27.81zm43.34-22.478h27.812v42.804h-27.81zm43.342-18.186h27.81v60.977h-27.81zm43.342 36.382h27.81v24.6h-27.81zm43.34 12.84h27.81v11.78h-27.81zM544.41 63.66h27.81v34.235h-27.81zm43.342 13.91h27.81v20.315h-27.81zm43.34-22.478h27.812v42.803h-27.81z"/><path fill="#6aa84f" d="M674.432 36.906h27.81v60.976h-27.81z"/><path fill="#d9d9d9" d="M717.773 73.29h27.81v24.597h-27.81zm43.34 12.84h27.81v11.778h-27.81zM544.41 134.276h27.81v42.803h-27.81zm43.34 8.556h27.812v34.236h-27.81zm43.342 9.648h27.81v24.6h-27.81zm43.34-18.218h27.81v42.804h-27.81zm43.342 22.494h27.81v20.315h-27.81z"/><path fill="#dd7e6b" d="M761.115 172.283h27.812v4.82h-27.812z"/><path fill="#b6d7a8" d="M988.714 104.282h27.81v34.236h-27.81z"/><path fill="#e6b8af" d="M1032.055 150.193h27.81v20.315h-27.81z"/><path fill="#b6d7a8" d="M1075.396 119.716h27.81v20.315h-27.81zm43.34-42.186h27.813v60.975h-27.82z"/><path fill="#e6b8af" d="M1162.08 153.912h27.81v24.598h-27.81zm43.34-3.16h27.81v11.78h-27.81z"/><path d="M970.572 145.533h273.953"/><path stroke="#000" d="M970.572 145.533h273.953" stroke-linejoin="round" stroke-linecap="butt"/></g></svg>