<svg xmlns="http://www.w3.org/2000/svg" stroke-linecap="square" stroke-miterlimit="10" viewBox="0 0 1333.3 533.3" fill="none"><clipPath id="a"><path d="M0 0h1333.3v533.3H0V0z"/></clipPath><g clip-path="url(#a)"><path d="M0 0h1333.3v533.3H0z"/><path d="M1303.5 115.6c-13.7-17-37.7-23.6-59-29-29.7-7.4-59-18.3-89.7-21.3-72-7.2-167.5-24.5-215 30-20 22.8-29.7 53.4-38.7 82.3-3 12.8-12 24.2-13 37.5-2 26 6 52 1 77-2 11-7 22-8 33-3 30 1 62-13 89-18 36-64 53-104 63-71 18-152 5-218-28-52-26-100-58-147-92-23-17-44-38-70-50-91-41-211-64-300-19"/><path stroke-linejoin="round" d="M1303.5 115.6c-13.7-17-37.7-23.6-59-29-29.7-7.4-59-18.3-89.7-21.3-72-7.2-167.5-24.5-215 30-20 22.8-29.7 53.4-38.7 82.3-3 12.8-12 24.2-13 37.5-2 26 6 52 1 77-2 11-7 22-8 33-3 30 1 62-13 89-18 36-64 53-104 63-71 18-152 5-218-28-52-26-100-58-147-92-23-17-44-38-70-50-91-41-211-64-300-19" stroke="#d9d9d9" stroke-linecap="butt" stroke-width="8"/><path d="M37.5 345.6c83.6-28 188-35.8 264.3 8.6 75.6 44.2 134.6 115 213 154"/><path stroke-linejoin="round" d="M37.5 345.6c83.6-28 188-35.8 264.3 8.6 75.6 44.2 134.6 115 213 154" stroke="#d9d9d9" stroke-linecap="butt" stroke-width="8"/><path d="M866 503c79.6-22.8 93-145.3 99.4-228 3.5-45.3 5-104.3 42.8-129.5 58.5-39 142.6-8.5 210.8 8.6 22.3 6 44.4 15 63 28 6.5 5 12 11 18.3 15 2.2 2 9.2 6 6.4 6"/><path stroke-linejoin="round" d="M866 503c79.6-22.8 93-145.3 99.4-228 3.5-45.3 5-104.3 42.8-129.5 58.5-39 142.6-8.5 210.8 8.6 22.3 6 44.4 15 63 28 6.5 5 12 11 18.3 15 2.2 2 9.2 6 6.4 6" stroke="#d9d9d9" stroke-linecap="butt" stroke-width="8"/><path d="M685 482.6c17.3-26 10.7-66-3.3-94.2-8.3-16.5-26.2-26.7-35.4-42.8-6.8-12-3.6-34.7-17-37.4-8-1.6-16.5 2-24.7 1-10.3-1-22.2-6.3-31-1-22.7 13.6-37 38-55.7 56.7-15 14-33 25-42 43"/><path stroke-linejoin="round" d="M685 482.6c17.3-26 10.7-66-3.3-94.2-8.3-16.5-26.2-26.7-35.4-42.8-6.8-12-3.6-34.7-17-37.4-8-1.6-16.5 2-24.7 1-10.3-1-22.2-6.3-31-1-22.7 13.6-37 38-55.7 56.7-15 14-33 25-42 43" stroke="#000" stroke-linecap="butt"/><path d="M461.2 401.3c10.5-10.6 19.4-22.7 30-33.2 2-2 7-4 5.3-7-7.3-11-22.7-13-34.2-20-5.3-3-5.8-15-11.8-14-5.4 1-7.8 8-11.8 12-9 10-21.8 15-31 24"/><path stroke-linejoin="round" d="M461.2 401.3c10.5-10.6 19.4-22.7 30-33.2 2-2 7-4 5.3-7-7.3-11-22.7-13-34.2-20-5.3-3-5.8-15-11.8-14-5.4 1-7.8 8-11.8 12-9 10-21.8 15-31 24" stroke="#000" stroke-linecap="butt" stroke-width="2"/><path d="M543.6 320c-9.8 9.8-18.2 26.7-32 26.7-11 0-17.5-12.8-26.8-18.2-6.8-4-24-4.7-20.4-11.8 4.4-8.7 17-10 24.6-16 4.4-3.5 8.2-13.8 13-10.7 6 4 6.4 14.4 12.7 18.2 6.3 3.8 13.2 6.8 20.3 8.6 2.2.5 8.6 1 6.5 1"/><path stroke-linejoin="round" d="M543.6 320c-9.8 9.8-18.2 26.7-32 26.7-11 0-17.5-12.8-26.8-18.2-6.8-4-24-4.7-20.4-11.8 4.4-8.7 17-10 24.6-16 4.4-3.5 8.2-13.8 13-10.7 6 4 6.4 14.4 12.7 18.2 6.3 3.8 13.2 6.8 20.3 8.6 2.2.5 8.6 1 6.5 1" stroke="#000" stroke-linecap="butt" stroke-width="4"/><path d="M584.3 296.4c10-1.5 20-3.2 30-3.2 5.3 0 12.2 3.8 16 0 9.8-9.8-1-28 1-41.7.8-5 5.6-12.8 1-15-4.2-2.2-7.3 6.4-11.6 8.6-11.2 6-22.5 11-33.2 18-2.8 2-8 1-8.6 5-2 9 1 20 5 28"/><path stroke-linejoin="round" d="M584.3 296.4c10-1.5 20-3.2 30-3.2 5.3 0 12.2 3.8 16 0 9.8-9.8-1-28 1-41.7.8-5 5.6-12.8 1-15-4.2-2.2-7.3 6.4-11.6 8.6-11.2 6-22.5 11-33.2 18-2.8 2-8 1-8.6 5-2 9 1 20 5 28" stroke="#000" stroke-linecap="butt" stroke-width="3"/><path d="M650.6 312.5c7.5 7.5 10.8 18.3 17 26.7 16 21 34.3 41 44 65.3 5.2 13-10.5 34 1 41.7 8.4 5.6 20.2-.5 30-2 34.5-6 70.8-34.7 79.2-68.6 1.2-4.6-8-6.4-12.8-6.4-23 0-45.8-6-68.5-9.6-16.8-2.8-27.6-20-39.6-32-13-12.4-32-16.2-50-16.2"/><path stroke-linejoin="round" d="M650.6 312.5c7.5 7.5 10.8 18.3 17 26.7 16 21 34.3 41 44 65.3 5.2 13-10.5 34 1 41.7 8.4 5.6 20.2-.5 30-2 34.5-6 70.8-34.7 79.2-68.6 1.2-4.6-8-6.4-12.8-6.4-23 0-45.8-6-68.5-9.6-16.8-2.8-27.6-20-39.6-32-13-12.4-32-16.2-50-16.2" stroke="#000" stroke-linecap="butt"/><path d="M704 483.7c2.5-7-.5-19 6.5-21.4 24.8-8.3 56-2.6 76-19.3 15.7-13 29-29 41.7-45 6-7.2 2-20 8.6-26.7 9-9 25.7 2.2 38.5 2.2"/><path stroke-linejoin="round" d="M704 483.7c2.5-7-.5-19 6.5-21.4 24.8-8.3 56-2.6 76-19.3 15.7-13 29-29 41.7-45 6-7.2 2-20 8.6-26.7 9-9 25.7 2.2 38.5 2.2" stroke="#000" stroke-linecap="butt"/><path d="M876.4 359.6c-37.5-10.8-80.4 4.8-116.6-9.7-11.3-5-24-8-33.2-15-11-10-17.7-25-31-30-14-6-32.4 2-45-7-5.6-4-1-14-1-21 0-16-3.2-33 0-48 2.3-12 22.4-9 34.2-11 20.4-4 44.3-10 62 1 7 4-1 17 3.3 24 12 20 26 42 46 52 18 8 38 6 57 8 9 1 17 1 25 1h8"/><path stroke-linejoin="round" d="M876.4 359.6c-37.5-10.8-80.4 4.8-116.6-9.7-11.3-5-24-8-33.2-15-11-10-17.7-25-31-30-14-6-32.4 2-45-7-5.6-4-1-14-1-21 0-16-3.2-33 0-48 2.3-12 22.4-9 34.2-11 20.4-4 44.3-10 62 1 7 4-1 17 3.3 24 12 20 26 42 46 52 18 8 38 6 57 8 9 1 17 1 25 1h8" stroke="#000" stroke-linecap="butt" stroke-width="2"/><path d="M559.7 271.8c-10.6-2-23.5-3.2-32 3.2-6.4 4.7-5.3 16.8-1.2 23.6 6 10 28 7 35.3-2.2 5.8-7.3-2-20-8.6-26.7"/><path stroke-linejoin="round" d="M559.7 271.8c-10.6-2-23.5-3.2-32 3.2-6.4 4.7-5.3 16.8-1.2 23.6 6 10 28 7 35.3-2.2 5.8-7.3-2-20-8.6-26.7" stroke="#e60000" stroke-linecap="butt" stroke-width="8"/><path d="M380 408.8c-11.4 5.6-18 18.3-29 24.6-8.3 4.7-20.6 7-23.6 16-3.3 10.2 1 21.4 1 32 0 10.5-4.5 22 0 31.2"/><path stroke-linejoin="round" d="M380 408.8c-11.4 5.6-18 18.3-29 24.6-8.3 4.7-20.6 7-23.6 16-3.3 10.2 1 21.4 1 32 0 10.5-4.5 22 0 31.2" stroke="#000" stroke-linecap="butt"/><path d="M346.7 508.3c-1.8-16.3-9.5-34.5-2-49.2 8.8-17 26-31 43.7-40"/><path stroke-linejoin="round" d="M346.7 508.3c-1.8-16.3-9.5-34.5-2-49.2 8.8-17 26-31 43.7-40" stroke="#000" stroke-linecap="butt"/><path d="M1241.3 162.7c-27.6 13.7-52.7 32.2-80.3 46-8.2 4-16.3 8.7-24.6 12.8-4.8 2.4-8.7 10.3-14 8.6-5.2-1-3-10-5.2-16-10.7-26 2-60-10.7-85"/><path stroke-linejoin="round" d="M1241.3 162.7c-27.6 13.7-52.7 32.2-80.3 46-8.2 4-16.3 8.7-24.6 12.8-4.8 2.4-8.7 10.3-14 8.6-5.2-1-3-10-5.2-16-10.7-26 2-60-10.7-85" stroke="#000" stroke-linecap="butt"/><path d="M1089.4 131.6c.4-.7 1.2-3 1-2-3.4 15.6 2.2 32 2.2 48 0 15.2 8 29.2 11.8 44 1.3 5 9 11 5.3 15-9.5 9.4-26.7 3.5-39.6 7.4-36 10.8-75 15.5-107 36.4"/><path stroke-linejoin="round" d="M1089.4 131.6c.4-.7 1.2-3 1-2-3.4 15.6 2.2 32 2.2 48 0 15.2 8 29.2 11.8 44 1.3 5 9 11 5.3 15-9.5 9.4-26.7 3.5-39.6 7.4-36 10.8-75 15.5-107 36.4" stroke="#000" stroke-linecap="butt"/><path d="M963 298.6c25-15.6 55.5-19.4 83.5-28 18-5.3 36-12.2 54.6-14.8 6-.8 11-6 15-4.3 13 4.2 14 23.3 20 35.3 15 29.5 31 59.5 37 92 2 13 13 23.5 15 36.4 2 8-3 17 0 24.6 4 8.4 12 19.4 7 26.8-22 29.2-71 28.7-107 23.5-15-2-31 10-45 4-7-3-5-15-7-22-4-13-8-27-15-39-9-15-21-29-36-38-9-5-22-4-32-9"/><path stroke-linejoin="round" d="M963 298.6c25-15.6 55.5-19.4 83.5-28 18-5.3 36-12.2 54.6-14.8 6-.8 11-6 15-4.3 13 4.2 14 23.3 20 35.3 15 29.5 31 59.5 37 92 2 13 13 23.5 15 36.4 2 8-3 17 0 24.6 4 8.4 12 19.4 7 26.8-22 29.2-71 28.7-107 23.5-15-2-31 10-45 4-7-3-5-15-7-22-4-13-8-27-15-39-9-15-21-29-36-38-9-5-22-4-32-9" stroke="#000" stroke-linecap="butt"/><path d="M1256.3 170c-27.8 15.3-54 33-82.4 47.2-16 7.6-40 7.5-45 23.6-2 3.3 2 6.5 4 9.6 10 20 25 37 37 55.6 13 19.2 13 44.2 22 65.3 11 26.3 7 57 14 84.6 2 9 17 9 24 16s9 19 6 28c-1 3-5 11-5 8"/><path stroke-linejoin="round" d="M1256.3 170c-27.8 15.3-54 33-82.4 47.2-16 7.6-40 7.5-45 23.6-2 3.3 2 6.5 4 9.6 10 20 25 37 37 55.6 13 19.2 13 44.2 22 65.3 11 26.3 7 57 14 84.6 2 9 17 9 24 16s9 19 6 28c-1 3-5 11-5 8" stroke="#000" stroke-linecap="butt"/><path d="M1217.8 490c1.5-7.3-16-12.7-21.4-7.4-6 6-3.7 18.6 1 25.7 3.8 5.5 15.2-.2 19.3-5.4 3.8-5 3.4-16-2-19"/><path stroke-linejoin="round" d="M1217.8 490c1.5-7.3-16-12.7-21.4-7.4-6 6-3.7 18.6 1 25.7 3.8 5.5 15.2-.2 19.3-5.4 3.8-5 3.4-16-2-19" stroke="#e60000" stroke-linecap="butt" stroke-width="8"/><path d="M1186.7 515.8c0-22.6-45-8.6-67.4-5.4-23.7 3.4-50.3-9.6-71.7 1"/><path stroke-linejoin="round" d="M1186.7 515.8c0-22.6-45-8.6-67.4-5.4-23.7 3.4-50.3-9.6-71.7 1" stroke="#000" stroke-linecap="butt"/><path d="M949.2 403.4c-5.2-5 15 1 21.4 4.3 18.5 9.3 35.5 25.6 42.8 45 4.6 12.3 6 25.6 8.5 38.5 1 5 2 20 2 15"/><path stroke-linejoin="round" d="M949.2 403.4c-5.2-5 15 1 21.4 4.3 18.5 9.3 35.5 25.6 42.8 45 4.6 12.3 6 25.6 8.5 38.5 1 5 2 20 2 15" stroke="#000" stroke-linecap="butt"/><path d="M1250 33.2c-4.5 17.5-12.8 38-29 46"/><path stroke-linejoin="round" d="M1250 33.2c-4.5 17.5-12.8 38-29 46" stroke="#000" stroke-linecap="butt"/><path d="M1264.8 35.3c-6.3 17-16.6 32-24.6 48.2"/><path stroke-linejoin="round" d="M1264.8 35.3c-6.3 17-16.6 32-24.6 48.2" stroke="#000" stroke-linecap="butt"/><path d="M1070 24.6c14 2.8 27 19 27 33.2"/><path stroke-linejoin="round" d="M1070 24.6c14 2.8 27 19 27 33.2" stroke="#000" stroke-linecap="butt"/><path d="M1094.7 25.7C1107 29.7 1113 47 1113 60"/><path stroke-linejoin="round" d="M1094.7 25.7C1107 29.7 1113 47 1113 60" stroke="#000" stroke-linecap="butt"/><path d="M809 32c6 10.5 14 21.3 14 33.3 0 12-21.2 11.5-31 18.2-15.6 10.3-31.7 19.6-47.2 30-5 3.2-8 10.6-14 10.6-16.7 0-15.4-29-20.3-46-5-16-22.4-29-22.4-47"/><path stroke-linejoin="round" d="M809 32c6 10.5 14 21.3 14 33.3 0 12-21.2 11.5-31 18.2-15.6 10.3-31.7 19.6-47.2 30-5 3.2-8 10.6-14 10.6-16.7 0-15.4-29-20.3-46-5-16-22.4-29-22.4-47" stroke="#000" stroke-linecap="butt"/><path d="M829.3 30c-5.7 3.8 1.2 14 4.3 20.3 10.8 21.7 48.5 9.4 69.6 21.4 8.6 5 18.6 8 25.6 15 2.2 2 9.2 7.8 6.5 6.4"/><path stroke-linejoin="round" d="M829.3 30c-5.7 3.8 1.2 14 4.3 20.3 10.8 21.7 48.5 9.4 69.6 21.4 8.6 5 18.6 8 25.6 15 2.2 2 9.2 7.8 6.5 6.4" stroke="#000" stroke-linecap="butt"/><path d="M972.7 71.7c-20-13.3-35.5-32.3-52.4-49.2"/><path stroke-linejoin="round" d="M972.7 71.7c-20-13.3-35.5-32.3-52.4-49.2" stroke="#000" stroke-linecap="butt"/><path d="M938.5 21.4C957 33 969 54.4 988.8 64.2"/><path stroke-linejoin="round" d="M938.5 21.4C957 33 969 54.4 988.8 64.2" stroke="#000" stroke-linecap="butt"/><path d="M927.8 106c-21-17.5-49-33.4-76-30-5.4.6-12.2-1.7-16 2-5.4 5.5 4.4 15 3.2 22.6-4.4 26 7.2 53.8 0 79.2-5 17.4-20 34.6-37.5 39.6-11 3-27.3-4-34.2 5.3-3.2 4.2 3.2 10 4.2 15 1.8 8.6 9.4 15 14 22.5 3 5.2 3 13.3 8.5 16 28.2 14 61.6 16 93 16"/><path stroke-linejoin="round" d="M927.8 106c-21-17.5-49-33.4-76-30-5.4.6-12.2-1.7-16 2-5.4 5.5 4.4 15 3.2 22.6-4.4 26 7.2 53.8 0 79.2-5 17.4-20 34.6-37.5 39.6-11 3-27.3-4-34.2 5.3-3.2 4.2 3.2 10 4.2 15 1.8 8.6 9.4 15 14 22.5 3 5.2 3 13.3 8.5 16 28.2 14 61.6 16 93 16" stroke="#000" stroke-linecap="butt"/><path d="M821.8 91c1-2 1-8.6 1-6.5 0 8.6 1 17.2 2.2 25.7 1 7.7 7.3 14.7 6.5 22.5-2.5 22-9 46.3-24.7 62-8 8.2-21 10-32 13-4 1-9.8 3.3-11.8 0-9-15-11.3-33.2-18.2-49.3-2.8-6.5-12.7-13.6-8.6-19.3 15.4-21 45.7-27 66.4-43 6-4 17-4 20.3-10"/><path stroke-linejoin="round" d="M821.8 91c1-2 1-8.6 1-6.5 0 8.6 1 17.2 2.2 25.7 1 7.7 7.3 14.7 6.5 22.5-2.5 22-9 46.3-24.7 62-8 8.2-21 10-32 13-4 1-9.8 3.3-11.8 0-9-15-11.3-33.2-18.2-49.3-2.8-6.5-12.7-13.6-8.6-19.3 15.4-21 45.7-27 66.4-43 6-4 17-4 20.3-10" stroke="#000" stroke-linecap="butt" stroke-width="2"/><path d="M674.2 30c16.6 23.2 29.7 50 35.3 78 1.5 8 14.2 17 8.5 22.5-19.6 19.6-54 13.3-81.3 17.2-12 1.7-26.7 5-36.4-2.2-21.7-16.3-21.2-50-34.2-73.8-5-10.3-8-23-18-30-3-2.7-10-13.7-6-11.7"/><path stroke-linejoin="round" d="M674.2 30c16.6 23.2 29.7 50 35.3 78 1.5 8 14.2 17 8.5 22.5-19.6 19.6-54 13.3-81.3 17.2-12 1.7-26.7 5-36.4-2.2-21.7-16.3-21.2-50-34.2-73.8-5-10.3-8-23-18-30-3-2.7-10-13.7-6-11.7" stroke="#000" stroke-linecap="butt"/><path d="M721.2 145.5c3.8 22.3 31.5 44 21.4 64.2-1 2-1.4-4.3-3.2-5.3-14.5-8.3-33.7-3.8-50.3-1-15 2.6-30 13.8-46 13.8-7 0-13-7.7-21-9.6-10-2.5-20-2.8-30-6.4-4-1.8-13-1.4-14-6.4-1-11 3-24.6 12-31 16-11.5 40 2 59 0 26-2.6 51-8 74-19.3"/><path stroke-linejoin="round" d="M721.2 145.5c3.8 22.3 31.5 44 21.4 64.2-1 2-1.4-4.3-3.2-5.3-14.5-8.3-33.7-3.8-50.3-1-15 2.6-30 13.8-46 13.8-7 0-13-7.7-21-9.6-10-2.5-20-2.8-30-6.4-4-1.8-13-1.4-14-6.4-1-11 3-24.6 12-31 16-11.5 40 2 59 0 26-2.6 51-8 74-19.3" stroke="#000" stroke-linecap="butt" stroke-width="2"/><path d="M620.6 225.8c-12.6-6.3-26.8-9-40.6-11.8-4.4-1-8.4-9.3-11.8-6.4-6 5.3-7.5 14-10.7 21.4-3.2 7.5-8.6 14.2-15 19.3-3 2.5-12 6.3-8.5 8.5 4.5 3 10.7-1 16-2 6.2-1.4 13 8.7 18.2 5.2 17.3-11.5 31.7-28.7 51.4-35.3"/><path stroke-linejoin="round" d="M620.6 225.8c-12.6-6.3-26.8-9-40.6-11.8-4.4-1-8.4-9.3-11.8-6.4-6 5.3-7.5 14-10.7 21.4-3.2 7.5-8.6 14.2-15 19.3-3 2.5-12 6.3-8.5 8.5 4.5 3 10.7-1 16-2 6.2-1.4 13 8.7 18.2 5.2 17.3-11.5 31.7-28.7 51.4-35.3" stroke="#000" stroke-linecap="butt" stroke-width="3"/><path d="M551 203.3c-8 13.7-14.4 28.7-22.3 42.7-3.2 5.8-3 17.2-9.6 17.2-16 0-25-19.8-37-30-7-5.7-12-13.3-18-20.3-3-4-12-4-12-9 0-8 14-4 22-5 25-2 53 13 75 2"/><path stroke-linejoin="round" d="M551 203.3c-8 13.7-14.4 28.7-22.3 42.7-3.2 5.8-3 17.2-9.6 17.2-16 0-25-19.8-37-30-7-5.7-12-13.3-18-20.3-3-4-12-4-12-9 0-8 14-4 22-5 25-2 53 13 75 2" stroke="#000" stroke-linecap="butt" stroke-width="3"/><path d="M527.5 29c0-14 16.3 22.7 22.5 35.2 8.6 17.2 12.7 36.2 18.2 54.6 3.7 12 16.4 23 14 35.3-1.3 6-9.3 8-13 13-5.3 7-7.6 19-16 22-17.3 7-37 2-55.6 2-19 0-41 8-56.7-3-8-5 3-18 6-28 3-12 4-25 9-36 6-12 20-20 26-32 11-19 20-44 11-63"/><path stroke-linejoin="round" d="M527.5 29c0-14 16.3 22.7 22.5 35.2 8.6 17.2 12.7 36.2 18.2 54.6 3.7 12 16.4 23 14 35.3-1.3 6-9.3 8-13 13-5.3 7-7.6 19-16 22-17.3 7-37 2-55.6 2-19 0-41 8-56.7-3-8-5 3-18 6-28 3-12 4-25 9-36 6-12 20-20 26-32 11-19 20-44 11-63" stroke="#000" stroke-linecap="butt"/><path d="M476.2 30c18.3 27.5-19.5 63.5-34.3 93-8 15-9 32.2-13 48.2-2 6.2-2 16.2-9 17-25 3.7-55-11-69-32-11-16.4-11-38.5-21-55.6-12-20.5-32-36.4-40-59-1-3-4-8-1-9.5"/><path stroke-linejoin="round" d="M476.2 30c18.3 27.5-19.5 63.5-34.3 93-8 15-9 32.2-13 48.2-2 6.2-2 16.2-9 17-25 3.7-55-11-69-32-11-16.4-11-38.5-21-55.6-12-20.5-32-36.4-40-59-1-3-4-8-1-9.5" stroke="#000" stroke-linecap="butt"/><path d="M271.8 35.3c10.8 29 30 53.8 44 81.3 4.4 9.2 22 19.6 15 26.8-6.5 6.4-18 4.3-27 4.3-16.7 0-33.5 2.4-50.2 1-20.5-1.7-39.6-11.6-60-15-13.6-2.2-28.7-7.3-37.4-18-12-15.2-4.7-40.4 3.2-58 3.4-7.3 4-19.3 11.8-21.3"/><path stroke-linejoin="round" d="M271.8 35.3c10.8 29 30 53.8 44 81.3 4.4 9.2 22 19.6 15 26.8-6.5 6.4-18 4.3-27 4.3-16.7 0-33.5 2.4-50.2 1-20.5-1.7-39.6-11.6-60-15-13.6-2.2-28.7-7.3-37.4-18-12-15.2-4.7-40.4 3.2-58 3.4-7.3 4-19.3 11.8-21.3" stroke="#000" stroke-linecap="butt"/><path d="M465.5 237.6c11 11 22.8 21.6 35.3 31 1.3 1 5.3 1 4.3 2-12 15-33 19.3-49 31.2-16 12.6-27 35.5-47 39.6-9 1.7-16-7.7-23-13-11-7.6-23-13-33-22.4-4-4 8-9.4 13-11.7 15-6.6 32-8.8 46-16 16-7.7 26-22.3 41-31 5-3 9-11 14-8.7"/><path stroke-linejoin="round" d="M465.5 237.6c11 11 22.8 21.6 35.3 31 1.3 1 5.3 1 4.3 2-12 15-33 19.3-49 31.2-16 12.6-27 35.5-47 39.6-9 1.7-16-7.7-23-13-11-7.6-23-13-33-22.4-4-4 8-9.4 13-11.7 15-6.6 32-8.8 46-16 16-7.7 26-22.3 41-31 5-3 9-11 14-8.7" stroke="#000" stroke-linecap="butt" stroke-width="3"/><path d="M453.7 223.7c-20.8 20.7-47.5 35-73.8 48-15 7.3-28 19.3-44 19.3-32 0-59-23-90-31-14-3-27-7.2-41-9.2-6-.8-13 3.8-16 0-7-6.7 10-16 14-24.6 6-16.6 4-35.6 4-53.5 0-3.3-1-7.8 2-9.6 6-4 13 2 20 1 11-1 23-3 34-2 21 2 43-9 63-1s36 23 56 31c10 5 22 5 32 11 11 7 44 24 31 24"/><path stroke-linejoin="round" d="M453.7 223.7c-20.8 20.7-47.5 35-73.8 48-15 7.3-28 19.3-44 19.3-32 0-59-23-90-31-14-3-27-7.2-41-9.2-6-.8-13 3.8-16 0-7-6.7 10-16 14-24.6 6-16.6 4-35.6 4-53.5 0-3.3-1-7.8 2-9.6 6-4 13 2 20 1 11-1 23-3 34-2 21 2 43-9 63-1s36 23 56 31c10 5 22 5 32 11 11 7 44 24 31 24" stroke="#000" stroke-linecap="butt"/><path d="M189.4 149.8c-6-4.5-24.3-4-22.5 3.2 1 5 9 9.5 13 7.5 4-1.6 7-8 5-11.8"/><path stroke-linejoin="round" d="M189.4 149.8c-6-4.5-24.3-4-22.5 3.2 1 5 9 9.5 13 7.5 4-1.6 7-8 5-11.8" stroke="#e60000" stroke-linecap="butt" stroke-width="8"/><path d="M151 37.5C134.4 53.8 133 84 140 106c3.5 10.5 16 17 18.2 27.8 1 4.7-8 6-9.7 10.7-1.6 4.7 1.8 11.8-2 15-10.4 8.2-27.2 2-39.7-2.2-25-8.3-49.3-18.2-72.8-30"/><path stroke-linejoin="round" d="M151 37.5C134.4 53.8 133 84 140 106c3.5 10.5 16 17 18.2 27.8 1 4.7-8 6-9.7 10.7-1.6 4.7 1.8 11.8-2 15-10.4 8.2-27.2 2-39.7-2.2-25-8.3-49.3-18.2-72.8-30" stroke="#000" stroke-linecap="butt"/><path d="M36.4 149.8c-1.6-6.3 13 1.2 19.2 3.2 17.7 6 35.2 13 53.5 16 21 3.5 43 1.4 64 4.4 7 1 14-5 21-3.3 4 2 5 8 6 12 3 14-10 26-16 38s-9 33-22 33c-46 0-96-5-137 15"/><path stroke-linejoin="round" d="M36.4 149.8c-1.6-6.3 13 1.2 19.2 3.2 17.7 6 35.2 13 53.5 16 21 3.5 43 1.4 64 4.4 7 1 14-5 21-3.3 4 2 5 8 6 12 3 14-10 26-16 38s-9 33-22 33c-46 0-96-5-137 15" stroke="#000" stroke-linecap="butt"/><path d="M167 323.2c-5 13.4 2.6 28.5 4.2 42.8 3 26 0 52 0 78 0 13.7-2 27.2-2 40.8 0 6.7 1 27 1 20.3"/><path stroke-linejoin="round" d="M167 323.2c-5 13.4 2.6 28.5 4.2 42.8 3 26 0 52 0 78 0 13.7-2 27.2-2 40.8 0 6.7 1 27 1 20.3" stroke="#000" stroke-linecap="butt"/><path d="M151 327.4c-7.2-4.7-1 17.4 1 25.7 4.6 19 6.4 38 6.4 57 0 8 5.2 17 1 23-3.3 5-12.2-1-18.2 0-24.4 5-50 0-75 0-9.7 0-38.4 4-28.7 6"/><path stroke-linejoin="round" d="M151 327.4c-7.2-4.7-1 17.4 1 25.7 4.6 19 6.4 38 6.4 57 0 8 5.2 17 1 23-3.3 5-12.2-1-18.2 0-24.4 5-50 0-75 0-9.7 0-38.4 4-28.7 6" stroke="#000" stroke-linecap="butt"/><path d="M31 456c21.6-8.8 46.5-2 69.6-4.4 17.5-1.8 38.4-16 52.4-5.4 8.4 6.3 4.3 20.6 4.3 31 0 5 3.3 10.6 1 15-1.7 3.6-8.4-1-11.7 1-3.6 2.5-5.5 7-7.5 10.8"/><path stroke-linejoin="round" d="M31 456c21.6-8.8 46.5-2 69.6-4.4 17.5-1.8 38.4-16 52.4-5.4 8.4 6.3 4.3 20.6 4.3 31 0 5 3.3 10.6 1 15-1.7 3.6-8.4-1-11.7 1-3.6 2.5-5.5 7-7.5 10.8" stroke="#000" stroke-linecap="butt"/><path d="M360.6 426c-7-11.6-22-19.4-35.3-19.4-16.6 0-35.4 17.8-49.2 8.6-7-5-15-10.4-20-18.2-5-8.5-3-21.5-10-27.8-19-15.5-48-8.6-72-8.6"/><path stroke-linejoin="round" d="M360.6 426c-7-11.6-22-19.4-35.3-19.4-16.6 0-35.4 17.8-49.2 8.6-7-5-15-10.4-20-18.2-5-8.5-3-21.5-10-27.8-19-15.5-48-8.6-72-8.6" stroke="#000" stroke-linecap="butt"/><path d="M172.3 376.7c12-8 28.8-2.8 42.8 0 6 1 13-1.3 18 2 8 5.6 5 18 10 25.8 7 11 18 19.5 30 23.5 19 6.4 41-16 60-8.5 6 2.4 23 9.6 16 11.7"/><path stroke-linejoin="round" d="M172.3 376.7c12-8 28.8-2.8 42.8 0 6 1 13-1.3 18 2 8 5.6 5 18 10 25.8 7 11 18 19.5 30 23.5 19 6.4 41-16 60-8.5 6 2.4 23 9.6 16 11.7" stroke="#000" stroke-linecap="butt"/><path d="M19.8 27.2c4 43.7 14.2 87.3 11.6 131-2 32.8-9.5 65-9.5 98 0 34 9 67.6 11 101.8 1 26.7 3 53.8-2 80-5 22.7-16 47-9 68.7 0 1 15-3 15-3 16 0 31 3 47 3 38 0 76-.4 114 1 132 5.3 265 5 397-1 38-1.7 77 5.3 115 4.2 102-3 205-10 307-2 69 6 139 11 208 5 19-2 39-1 59-3 7-1 15 5 20 1 8-8 1-23 1-35 0-32-7-63-9-94-1.4-28 6-55 10.5-81 6-36 3-72-1-108-1-12 4-24 4-37 0-27-13-52-16.5-78-2.4-16 6-32 8.4-48 .3-4-.6-10.7-4-10.7-18 0-36 8-54 7.2-76.7-2.6-152.7-13-229-16-66-2-132 8.6-198 10.7-129 4-257.8-3.2-386 1-83 3-166 3.5-249 7-34 2-69 3-102.7-1-20.6-2-43 4-61-5"/><path stroke-linejoin="round" d="M19.8 27.2c4 43.7 14.2 87.3 11.6 131-2 32.8-9.5 65-9.5 98 0 34 9 67.6 11 101.8 1 26.7 3 53.8-2 80-5 22.7-16 47-9 68.7 0 1 15-3 15-3 16 0 31 3 47 3 38 0 76-.4 114 1 132 5.3 265 5 397-1 38-1.7 77 5.3 115 4.2 102-3 205-10 307-2 69 6 139 11 208 5 19-2 39-1 59-3 7-1 15 5 20 1 8-8 1-23 1-35 0-32-7-63-9-94-1.4-28 6-55 10.5-81 6-36 3-72-1-108-1-12 4-24 4-37 0-27-13-52-16.5-78-2.4-16 6-32 8.4-48 .3-4-.6-10.7-4-10.7-18 0-36 8-54 7.2-76.7-2.6-152.7-13-229-16-66-2-132 8.6-198 10.7-129 4-257.8-3.2-386 1-83 3-166 3.5-249 7-34 2-69 3-102.7-1-20.6-2-43 4-61-5" stroke="#888" stroke-linecap="butt" stroke-width="4"/></g></svg>