<svg xmlns="http://www.w3.org/2000/svg" stroke-linecap="square" stroke-miterlimit="10" viewBox="0 0 1333.3 533.3" fill="none"><clipPath id="a"><path d="M0 0h1333.3v533.3H0V0z"/></clipPath><g clip-path="url(#a)"><path d="M0 0h1333.3v533.3H0z"/><path d="M37.4 112.4c-14.4 53.3 9.3 108 14.4 162 7 73.8-5.4 148-5.4 222"/><path stroke-linejoin="round" d="M37.4 112.4c-14.4 53.3 9.3 108 14.4 162 7 73.8-5.4 148-5.4 222" stroke="#666" stroke-linecap="butt"/><path d="M78.7 134.8c-8-5.4-14.5-14.5-24-16.4-5.6-1.2-21.2-2.8-16.3-5.8 22-13.4 51-4.4 76.7-5.8 57-3.2 114-11.8 170-8.8 86 4.6 172 2.4 256-8.7 18-2.2 34-8.8 52-10.6 43-4.5 86-10.3 129-17.5 32-5.4 68-1.6 97-16.4"/><path stroke-linejoin="round" d="M78.7 134.8c-8-5.4-14.5-14.5-24-16.4-5.6-1.2-21.2-2.8-16.3-5.8 22-13.4 51-4.4 76.7-5.8 57-3.2 114-11.8 170-8.8 86 4.6 172 2.4 256-8.7 18-2.2 34-8.8 52-10.6 43-4.5 86-10.3 129-17.5 32-5.4 68-1.6 97-16.4" stroke="#666" stroke-linecap="round"/><path d="M81.3 133.8c4.4 69.7 19.3 138.8 19.3 208.6 0 28.3-7.5 56.3-7.5 84.6 0 21.8 5 43.4 5 65.2"/><path stroke-linejoin="round" d="M81.3 133.8c4.4 69.7 19.3 138.8 19.3 208.6 0 28.3-7.5 56.3-7.5 84.6 0 21.8 5 43.4 5 65.2" stroke="#000" stroke-linecap="butt"/><path d="M84.5 136c129.3-26 263-19 395-21.5 49.5-1 98.6-10 147.6-18.2 48-8 97-10.2 144-23.5 66-19 137-14.8 202-36.4"/><path stroke-linejoin="round" d="M84.5 136c129.3-26 263-19 395-21.5 49.5-1 98.6-10 147.6-18.2 48-8 97-10.2 144-23.5 66-19 137-14.8 202-36.4" stroke="#000" stroke-linecap="butt"/><path d="M521 496.5c12.2-7.2 26.5-10 39.7-15 22.6-8.4 42.6-23 65.3-31 76.5-27.5 156-46.8 231-78 22-9.3 42.8-21.2 64.3-31 15.4-7.2 34-9.6 46-21.5 8.3-8.3 3-23.2 6.5-34.3 13.6-45.4 6.6-95 2-142.3-1.7-19.5-2.5-39.3-1-59 1.3-16 9-40.8-5.3-48"/><path stroke-linejoin="round" d="M521 496.5c12.2-7.2 26.5-10 39.7-15 22.6-8.4 42.6-23 65.3-31 76.5-27.5 156-46.8 231-78 22-9.3 42.8-21.2 64.3-31 15.4-7.2 34-9.6 46-21.5 8.3-8.3 3-23.2 6.5-34.3 13.6-45.4 6.6-95 2-142.3-1.7-19.5-2.5-39.3-1-59 1.3-16 9-40.8-5.3-48" stroke="#000" stroke-linecap="butt"/><path d="M111.3 159c6.3 4.6 17.3 8 23.5 3 2.7-2 3.2-13 3.2-9.5 0 35.4 6 70.6 8.6 106 1.3 16.4 9.6 45-6.4 49-28.3 7.2-18.4-55.5-22.5-84.4-2.5-17-4.3-35-4.3-53 0-3-1-9 2.2-9"/><path stroke-linejoin="round" d="M111.3 159c6.3 4.6 17.3 8 23.5 3 2.7-2 3.2-13 3.2-9.5 0 35.4 6 70.6 8.6 106 1.3 16.4 9.6 45-6.4 49-28.3 7.2-18.4-55.5-22.5-84.4-2.5-17-4.3-35-4.3-53 0-3-1-9 2.2-9" stroke="#000" stroke-linecap="butt"/><path d="M115.6 160c-7.7-1.3-14.4-6.2-21.4-9.7"/><path stroke-linejoin="round" d="M115.6 160c-7.7-1.3-14.4-6.2-21.4-9.7" stroke="#000" stroke-linecap="butt"/><path d="M138 154.6c-4.8-3-9.5-6.7-15-8.6"/><path stroke-linejoin="round" d="M138 154.6c-4.8-3-9.5-6.7-15-8.6" stroke="#000" stroke-linecap="butt"/><path d="M133.8 162c-4.5-1.7-9.5-3-13-6.3"/><path stroke-linejoin="round" d="M133.8 162c-4.5-1.7-9.5-3-13-6.3" stroke="#000" stroke-linecap="butt"/><path d="M136 157.8c-5.4-2.3-10-6-15-8.6"/><path stroke-linejoin="round" d="M136 157.8c-5.4-2.3-10-6-15-8.6" stroke="#000" stroke-linecap="butt"/><path d="M129.5 164.2c-8-3.5-14-12.8-22.5-12.8"/><path stroke-linejoin="round" d="M129.5 164.2c-8-3.5-14-12.8-22.5-12.8" stroke="#000" stroke-linecap="butt"/><path d="M126.8 305.8c-5.5-4-11-8.6-17-11.7"/><path stroke-linejoin="round" d="M126.8 305.8c-5.5-4-11-8.6-17-11.7" stroke="#000" stroke-linecap="butt"/><path d="M129.5 180.3c-3.8 7 6 15.5 5.3 23.5-1.6 16-3 32.4 0 48.2"/><path stroke-linejoin="round" d="M129.5 180.3c-3.8 7 6 15.5 5.3 23.5-1.6 16-3 32.4 0 48.2" stroke="#000" stroke-linecap="butt"/><path d="M152.4 164.2c5 4.2 13.4 7.2 18.3 3 2-2 2.4-11.7 2.4-8.7 0 31.4 5 62.6 7 94 1 14.5 8 40-5 43.5-22 6.2-14-49.3-17-75-2-15.6-3-31.5-3-47.3 0-3-1-8.5 2-8.5"/><path stroke-linejoin="round" d="M152.4 164.2c5 4.2 13.4 7.2 18.3 3 2-2 2.4-11.7 2.4-8.7 0 31.4 5 62.6 7 94 1 14.5 8 40-5 43.5-22 6.2-14-49.3-17-75-2-15.6-3-31.5-3-47.3 0-3-1-8.5 2-8.5" stroke="#000" stroke-linecap="butt"/><path d="M155.7 165.2c-6-1.2-11.2-5.5-16.6-8.6"/><path stroke-linejoin="round" d="M155.7 165.2c-6-1.2-11.2-5.5-16.6-8.6" stroke="#000" stroke-linecap="butt"/><path d="M173.2 160.4c-3.8-2.7-7.5-6-11.7-7.6"/><path stroke-linejoin="round" d="M173.2 160.4c-3.8-2.7-7.5-6-11.7-7.6" stroke="#000" stroke-linecap="butt"/><path d="M169.8 167c-3.4-1.5-7.3-2.6-10-5.6"/><path stroke-linejoin="round" d="M169.8 167c-3.4-1.5-7.3-2.6-10-5.6" stroke="#000" stroke-linecap="butt"/><path d="M171.5 163.3c-4-2-7.7-5.3-11.7-7.6"/><path stroke-linejoin="round" d="M171.5 163.3c-4-2-7.7-5.3-11.7-7.6" stroke="#000" stroke-linecap="butt"/><path d="M166.5 169c-6-3.2-10.8-11.4-17.5-11.4"/><path stroke-linejoin="round" d="M166.5 169c-6-3.2-10.8-11.4-17.5-11.4" stroke="#000" stroke-linecap="butt"/><path d="M164.4 294.4c-4.3-3.7-8.5-7.7-13.3-10.4"/><path stroke-linejoin="round" d="M164.4 294.4c-4.3-3.7-8.5-7.7-13.3-10.4" stroke="#000" stroke-linecap="butt"/><path d="M183.8 176.3c5 3.6 13.5 6.3 18.3 2.4 2-1.6 3-10 3-7.4 0 27.4 5 54.7 7 82 1 12.8 8 35-5 38.2-22 5.4-14-43.2-17-65.5-2-13.7-3-27.6-3-41.5 0-2.5-1-7.4 2-7.4"/><path stroke-linejoin="round" d="M183.8 176.3c5 3.6 13.5 6.3 18.3 2.4 2-1.6 3-10 3-7.4 0 27.4 5 54.7 7 82 1 12.8 8 35-5 38.2-22 5.4-14-43.2-17-65.5-2-13.7-3-27.6-3-41.5 0-2.5-1-7.4 2-7.4" stroke="#000" stroke-linecap="butt"/><path d="M187.2 177c-6-1-11.2-4.7-16.6-7.4"/><path stroke-linejoin="round" d="M187.2 177c-6-1-11.2-4.7-16.6-7.4" stroke="#000" stroke-linecap="butt"/><path d="M204.6 173c-3.8-2.5-7.4-5.3-11.7-6.7"/><path stroke-linejoin="round" d="M204.6 173c-3.8-2.5-7.4-5.3-11.7-6.7" stroke="#000" stroke-linecap="butt"/><path d="M201.2 178.7c-3.4-1.3-7.3-2.3-10-5"/><path stroke-linejoin="round" d="M201.2 178.7c-3.4-1.3-7.3-2.3-10-5" stroke="#000" stroke-linecap="butt"/><path d="M203 175.4c-4.2-1.8-7.7-4.6-11.7-6.6"/><path stroke-linejoin="round" d="M203 175.4c-4.2-1.8-7.7-4.6-11.7-6.6" stroke="#000" stroke-linecap="butt"/><path d="M198 180.4c-6.2-2.7-10.8-10-17.5-10"/><path stroke-linejoin="round" d="M198 180.4c-6.2-2.7-10.8-10-17.5-10" stroke="#000" stroke-linecap="butt"/><path d="M195.8 290c-4.2-3-8.4-6.6-13.2-9"/><path stroke-linejoin="round" d="M195.8 290c-4.2-3-8.4-6.6-13.2-9" stroke="#000" stroke-linecap="butt"/><path d="M198 192.8c-3 5.5 4.7 12 4 18.3-1.2 13-2.4 26 0 38"/><path stroke-linejoin="round" d="M198 192.8c-3 5.5 4.7 12 4 18.3-1.2 13-2.4 26 0 38" stroke="#000" stroke-linecap="butt"/><path d="M215.4 150.7c5 4.2 13.5 7.2 18.3 2.8 2-1.8 2.5-11.5 2.5-8.5 0 31.4 4.6 62.6 6.7 94 1 14.5 7 40-5 43.5-22 6.2-15-49.4-18-75-2-15.6-4-31.5-4-47.3 0-3-1-8.6 1-8.6"/><path stroke-linejoin="round" d="M215.4 150.7c5 4.2 13.5 7.2 18.3 2.8 2-1.8 2.5-11.5 2.5-8.5 0 31.4 4.6 62.6 6.7 94 1 14.5 7 40-5 43.5-22 6.2-15-49.4-18-75-2-15.6-4-31.5-4-47.3 0-3-1-8.6 1-8.6" stroke="#000" stroke-linecap="butt"/><path d="M218.8 151.6c-6-1-11.2-5.4-16.7-8.5"/><path stroke-linejoin="round" d="M218.8 151.6c-6-1-11.2-5.4-16.7-8.5" stroke="#000" stroke-linecap="butt"/><path d="M236.2 147c-3.7-2.8-7.4-6-11.6-7.7"/><path stroke-linejoin="round" d="M236.2 147c-3.7-2.8-7.4-6-11.6-7.7" stroke="#000" stroke-linecap="butt"/><path d="M233 153.5c-3.5-1.5-7.4-2.7-10-5.7"/><path stroke-linejoin="round" d="M233 153.5c-3.5-1.5-7.4-2.7-10-5.7" stroke="#000" stroke-linecap="butt"/><path d="M234.6 149.7c-4-2-7.7-5.3-11.7-7.5"/><path stroke-linejoin="round" d="M234.6 149.7c-4-2-7.7-5.3-11.7-7.5" stroke="#000" stroke-linecap="butt"/><path d="M229.6 155.4c-6-3-10.8-11.3-17.5-11.3"/><path stroke-linejoin="round" d="M229.6 155.4c-6-3-10.8-11.3-17.5-11.3" stroke="#000" stroke-linecap="butt"/><path d="M227.5 281c-4.3-3.8-8.5-7.8-13.3-10.6"/><path stroke-linejoin="round" d="M227.5 281c-4.3-3.8-8.5-7.8-13.3-10.6" stroke="#000" stroke-linecap="butt"/><path d="M254 192c5.4 2.5 14.6 4.4 19.8 1.7 2.2-1.2 2.7-7.2 2.7-5.4 0 19.7 5 39.2 7 58.8 1.2 10 8.2 25-5.2 28-23.7 4-15.4-31-19-47-2-10-3.4-20-3.4-29 0-2-1-5 1-5"/><path stroke-linejoin="round" d="M254 192c5.4 2.5 14.6 4.4 19.8 1.7 2.2-1.2 2.7-7.2 2.7-5.4 0 19.7 5 39.2 7 58.8 1.2 10 8.2 25-5.2 28-23.7 4-15.4-31-19-47-2-10-3.4-20-3.4-29 0-2-1-5 1-5" stroke="#000" stroke-linecap="butt"/><path d="M257.6 192.5c-6.4-.7-12-3.4-18-5.3"/><path stroke-linejoin="round" d="M257.6 192.5c-6.4-.7-12-3.4-18-5.3" stroke="#000" stroke-linecap="butt"/><path d="M276.5 189.5c-4-1.7-8-3.7-12.6-4.7"/><path stroke-linejoin="round" d="M276.5 189.5c-4-1.7-8-3.7-12.6-4.7" stroke="#000" stroke-linecap="butt"/><path d="M273 193.7c-3.8-1-8-1.7-11-3.6"/><path stroke-linejoin="round" d="M273 193.7c-3.8-1-8-1.7-11-3.6" stroke="#000" stroke-linecap="butt"/><path d="M274.7 191.3c-4.4-1.3-8.3-3.3-12.6-4.7"/><path stroke-linejoin="round" d="M274.7 191.3c-4.4-1.3-8.3-3.3-12.6-4.7" stroke="#000" stroke-linecap="butt"/><path d="M269.3 195c-6.6-2-11.6-7.3-18.8-7.3"/><path stroke-linejoin="round" d="M269.3 195c-6.6-2-11.6-7.3-18.8-7.3" stroke="#000" stroke-linecap="butt"/><path d="M267 273.4c-4.6-2.4-9-5-14.3-6.6"/><path stroke-linejoin="round" d="M267 273.4c-4.6-2.4-9-5-14.3-6.6" stroke="#000" stroke-linecap="butt"/><path d="M290.2 174.3c7.2 3 20 5.2 27 2 3-1.3 3.6-8 3.6-6 0 22.2 6.7 44.3 9.8 66.4 1.5 10.4 11 28.4-7.3 31-32.4 4.3-21-35-25.8-53-3-11.2-5-22.4-5-33.6 0-2-1.2-6 2.6-6"/><path stroke-linejoin="round" d="M290.2 174.3c7.2 3 20 5.2 27 2 3-1.3 3.6-8 3.6-6 0 22.2 6.7 44.3 9.8 66.4 1.5 10.4 11 28.4-7.3 31-32.4 4.3-21-35-25.8-53-3-11.2-5-22.4-5-33.6 0-2-1.2-6 2.6-6" stroke="#000" stroke-linecap="butt"/><path d="M295 175c-8.8-.8-16.4-3.8-24.4-6"/><path stroke-linejoin="round" d="M295 175c-8.8-.8-16.4-3.8-24.4-6" stroke="#000" stroke-linecap="butt"/><path d="M320.8 171.7c-5.5-2-11-4.3-17-5.4"/><path stroke-linejoin="round" d="M320.8 171.7c-5.5-2-11-4.3-17-5.4" stroke="#000" stroke-linecap="butt"/><path d="M316 176.4c-5.2-1.2-11-2-14.8-4"/><path stroke-linejoin="round" d="M316 176.4c-5.2-1.2-11-2-14.8-4" stroke="#000" stroke-linecap="butt"/><path d="M318.4 173.7c-6-1.5-11.3-3.8-17.2-5.4"/><path stroke-linejoin="round" d="M318.4 173.7c-6-1.5-11.3-3.8-17.2-5.4" stroke="#000" stroke-linecap="butt"/><path d="M311 177.7c-9-2.2-15.8-8-25.7-8"/><path stroke-linejoin="round" d="M311 177.7c-9-2.2-15.8-8-25.7-8" stroke="#000" stroke-linecap="butt"/><path d="M308 266.4c-6.4-2.6-12.6-5.4-19.7-7.3"/><path stroke-linejoin="round" d="M308 266.4c-6.4-2.6-12.6-5.4-19.7-7.3" stroke="#000" stroke-linecap="butt"/><path d="M14 21.6c5.3 7.2 2 17.8 2 26.8 0 19.2-1 38.5 0 57.8 1.4 20.6 9.8 40.3 10.8 61 1 21-1.7 42 0 63 1 13.3 6 26.5 4.3 39.7-3 30-13 59-15 89-2 33 5 67 5 100 0 11 1 22-1 33 0 3-4 9-1 10 22 5 44-8 66-10 48-4 96-3 144-1 28 0 56 8 83 8 30 0 58-6 88-8 51-3 102 6 153 9 82 3 165-3 247-1 80 1 160 4 239 2 34-1 68-11 102-10 33 1 67-4 100-1 15 1 30 3 45 6 6 1 15 4.2 19 0 10-13.7-1-33-1-49.8 0-43.7 11-87.4 5-130.7-3-25.6-10-50.8-8-76 3-54.8 15.8-109.8 9-164-1-11.6-4-23-1-34.5 2-7.4 10-19 3-22.5-13-6.7-30 2-45 3-19 1.5-38.3 1-58 2-60.3 4-121 11-182 10-203-3-406-24-608-11C332 30 246 21 160 25c-32 2-63.4 1-95 1-14 0-27.7 0-41-3-3-.7-8.6 0-8.6-3"/><path stroke-linejoin="round" d="M14 21.6c5.3 7.2 2 17.8 2 26.8 0 19.2-1 38.5 0 57.8 1.4 20.6 9.8 40.3 10.8 61 1 21-1.7 42 0 63 1 13.3 6 26.5 4.3 39.7-3 30-13 59-15 89-2 33 5 67 5 100 0 11 1 22-1 33 0 3-4 9-1 10 22 5 44-8 66-10 48-4 96-3 144-1 28 0 56 8 83 8 30 0 58-6 88-8 51-3 102 6 153 9 82 3 165-3 247-1 80 1 160 4 239 2 34-1 68-11 102-10 33 1 67-4 100-1 15 1 30 3 45 6 6 1 15 4.2 19 0 10-13.7-1-33-1-49.8 0-43.7 11-87.4 5-130.7-3-25.6-10-50.8-8-76 3-54.8 15.8-109.8 9-164-1-11.6-4-23-1-34.5 2-7.4 10-19 3-22.5-13-6.7-30 2-45 3-19 1.5-38.3 1-58 2-60.3 4-121 11-182 10-203-3-406-24-608-11C332 30 246 21 160 25c-32 2-63.4 1-95 1-14 0-27.7 0-41-3-3-.7-8.6 0-8.6-3" stroke="#888" stroke-linecap="butt" stroke-width="4"/><path d="M303.2 181c1.6 17 1 17 3.2 34 2.4 18.6 7.6 34.8 9.8 53.5"/><path stroke-linejoin="round" d="M303.2 181c1.6 17 1 17 3.2 34 2.4 18.6 7.6 34.8 9.8 53.5" stroke="#666" stroke-linecap="butt" stroke-width="24"/><path d="M226.5 161.6c1.2 20.7 1.4 20.5 2.4 41.3 1 22 0 43 1 65"/><path stroke-linejoin="round" d="M226.5 161.6c1.2 20.7 1.4 20.5 2.4 41.3 1 22 0 43 1 65" stroke="#d9d9d9" stroke-linecap="butt" stroke-width="12"/><path d="M333.7 146.4c5.7 3.6 15.7 6.3 21.3 2.5 2.4-2 3-11 3-8 0 27 5.2 54 7.6 81 1.2 12 8.8 34-5.8 38-25.6 5-16.6-43-20.3-66-2.3-14-4-28-4-41 0-3-1-8 2-8"/><path stroke-linejoin="round" d="M333.7 146.4c5.7 3.6 15.7 6.3 21.3 2.5 2.4-2 3-11 3-8 0 27 5.2 54 7.6 81 1.2 12 8.8 34-5.8 38-25.6 5-16.6-43-20.3-66-2.3-14-4-28-4-41 0-3-1-8 2-8" stroke="#000" stroke-linecap="butt"/><path d="M337.5 147.2c-7-1-13-4.7-19.3-7.4"/><path stroke-linejoin="round" d="M337.5 147.2c-7-1-13-4.7-19.3-7.4" stroke="#000" stroke-linecap="butt"/><path d="M358 143c-4.5-2.3-8.7-5-13.7-6.5"/><path stroke-linejoin="round" d="M358 143c-4.5-2.3-8.7-5-13.7-6.5" stroke="#000" stroke-linecap="butt"/><path d="M354 148.8c-4-1.3-8.6-2.3-11.6-5"/><path stroke-linejoin="round" d="M354 148.8c-4-1.3-8.6-2.3-11.6-5" stroke="#000" stroke-linecap="butt"/><path d="M356 145.6c-4.8-1.8-9-4.7-13.6-6.6"/><path stroke-linejoin="round" d="M356 145.6c-4.8-1.8-9-4.7-13.6-6.6" stroke="#000" stroke-linecap="butt"/><path d="M350 150.5c-7-2.7-12.4-10-20.2-10"/><path stroke-linejoin="round" d="M350 150.5c-7-2.7-12.4-10-20.2-10" stroke="#000" stroke-linecap="butt"/><path d="M347.7 259.6c-5-3.2-10-6.7-15.5-9"/><path stroke-linejoin="round" d="M347.7 259.6c-5-3.2-10-6.7-15.5-9" stroke="#000" stroke-linecap="butt"/><path d="M350 163c-3.3 5.3 5.7 11.8 5 18-1.5 12.3-3 25 0 37"/><path stroke-linejoin="round" d="M350 163c-3.3 5.3 5.7 11.8 5 18-1.5 12.3-3 25 0 37" stroke="#000" stroke-linecap="butt"/><path d="M371 150.5c4.3 3.2 12 5.5 16.4 2.2 2-1.5 2.3-9 2.3-6.6 0 25 4 49 6 73 1 11 6.8 31-4.5 34-20 5-13-38-15.8-57-1.8-12-3-24-3-36 0-2-.8-6 1.5-6"/><path stroke-linejoin="round" d="M371 150.5c4.3 3.2 12 5.5 16.4 2.2 2-1.5 2.3-9 2.3-6.6 0 25 4 49 6 73 1 11 6.8 31-4.5 34-20 5-13-38-15.8-57-1.8-12-3-24-3-36 0-2-.8-6 1.5-6" stroke="#000" stroke-linecap="butt"/><path d="M374 151.2c-5.6-1-10.3-4.2-15.2-6.6"/><path stroke-linejoin="round" d="M374 151.2c-5.6-1-10.3-4.2-15.2-6.6" stroke="#000" stroke-linecap="butt"/><path d="M389.7 147.6c-3.4-2-6.7-4.6-10.6-6"/><path stroke-linejoin="round" d="M389.7 147.6c-3.4-2-6.7-4.6-10.6-6" stroke="#000" stroke-linecap="butt"/><path d="M386.7 152.7c-3.2-1.2-6.7-2-9-4.4"/><path stroke-linejoin="round" d="M386.7 152.7c-3.2-1.2-6.7-2-9-4.4" stroke="#000" stroke-linecap="butt"/><path d="M388.2 149.8c-3.7-1.6-7-4-10.6-6"/><path stroke-linejoin="round" d="M388.2 149.8c-3.7-1.6-7-4-10.6-6" stroke="#000" stroke-linecap="butt"/><path d="M383.6 154c-5.5-2.3-9.7-8.6-15.8-8.6"/><path stroke-linejoin="round" d="M383.6 154c-5.5-2.3-9.7-8.6-15.8-8.6" stroke="#000" stroke-linecap="butt"/><path d="M381.8 250.7c-4-2.8-7.7-6-12-8"/><path stroke-linejoin="round" d="M381.8 250.7c-4-2.8-7.7-6-12-8" stroke="#000" stroke-linecap="butt"/><path d="M399.4 159.8c4.4 2.8 12 4.8 16.5 2 1-1.4 2-8 2-6 0 21.3 4 42.2 6 63.3 1 10 7 27-5 30-20 4-13-33-16-50-2-10-3-21-3-32 0-2-1-5 1-5"/><path stroke-linejoin="round" d="M399.4 159.8c4.4 2.8 12 4.8 16.5 2 1-1.4 2-8 2-6 0 21.3 4 42.2 6 63.3 1 10 7 27-5 30-20 4-13-33-16-50-2-10-3-21-3-32 0-2-1-5 1-5" stroke="#000" stroke-linecap="butt"/><path d="M402.4 160.4c-5.5-.8-10-3.7-15-5.8"/><path stroke-linejoin="round" d="M402.4 160.4c-5.5-.8-10-3.7-15-5.8" stroke="#000" stroke-linecap="butt"/><path d="M418 157.2c-3.3-1.8-6.6-4-10.4-5"/><path stroke-linejoin="round" d="M418 157.2c-3.3-1.8-6.6-4-10.4-5" stroke="#000" stroke-linecap="butt"/><path d="M415 161.7c-3-1-6.5-1.8-9-4"/><path stroke-linejoin="round" d="M415 161.7c-3-1-6.5-1.8-9-4" stroke="#000" stroke-linecap="butt"/><path d="M416.6 159c-3.7-1.3-7-3.5-10.5-5"/><path stroke-linejoin="round" d="M416.6 159c-3.7-1.3-7-3.5-10.5-5" stroke="#000" stroke-linecap="butt"/><path d="M412 163c-5.4-2.2-9.6-7.7-15.6-7.7"/><path stroke-linejoin="round" d="M412 163c-5.4-2.2-9.6-7.7-15.6-7.7" stroke="#000" stroke-linecap="butt"/><path d="M410.2 247.4c-3.8-2.5-7.6-5.2-12-7"/><path stroke-linejoin="round" d="M410.2 247.4c-3.8-2.5-7.6-5.2-12-7" stroke="#000" stroke-linecap="butt"/><path d="M428 140c4.4 3.3 12.2 5.6 16.5 2.2 2-1.4 2.3-8.8 2.3-6.5 0 24 4 48.2 6 72.3 1 11.2 6.8 30.8-4.5 33.5-20 4.8-13-38-15.8-57.6-1.8-13-3-25-3-37 0-3-.8-7 1.5-7"/><path stroke-linejoin="round" d="M428 140c4.4 3.3 12.2 5.6 16.5 2.2 2-1.4 2.3-8.8 2.3-6.5 0 24 4 48.2 6 72.3 1 11.2 6.8 30.8-4.5 33.5-20 4.8-13-38-15.8-57.6-1.8-13-3-25-3-37 0-3-.8-7 1.5-7" stroke="#000" stroke-linecap="butt"/><path d="M431 140.8c-5.4-1-10-4.2-15-6.6"/><path stroke-linejoin="round" d="M431 140.8c-5.4-1-10-4.2-15-6.6" stroke="#000" stroke-linecap="butt"/><path d="M446.8 137c-3.4-2-6.7-4.5-10.5-5.7"/><path stroke-linejoin="round" d="M446.8 137c-3.4-2-6.7-4.5-10.5-5.7" stroke="#000" stroke-linecap="butt"/><path d="M443.8 142.3c-3-1.3-6.7-2-9-4.4"/><path stroke-linejoin="round" d="M443.8 142.3c-3-1.3-6.7-2-9-4.4" stroke="#000" stroke-linecap="butt"/><path d="M445.3 139.3c-3.7-1.6-7-4-10.5-5.8"/><path stroke-linejoin="round" d="M445.3 139.3c-3.7-1.6-7-4-10.5-5.8" stroke="#000" stroke-linecap="butt"/><path d="M440.8 143.7c-5.6-2.4-9.8-8.8-15.8-8.8"/><path stroke-linejoin="round" d="M440.8 143.7c-5.6-2.4-9.8-8.8-15.8-8.8" stroke="#000" stroke-linecap="butt"/><path d="M439 240.3c-4-2.8-7.8-6-12.2-8"/><path stroke-linejoin="round" d="M439 240.3c-4-2.8-7.8-6-12.2-8" stroke="#000" stroke-linecap="butt"/><path d="M463 171.8c4.7 2 13 3.5 17.8 1.4 2-1 2.4-5.6 2.4-4 0 15 4.4 30 6.5 45 1 7 7.3 19.4-5 21-21.3 3-13.8-23.7-17-36-1.8-7.5-3-15.2-3-22.8 0-1.4-1-4 1.5-4"/><path stroke-linejoin="round" d="M463 171.8c4.7 2 13 3.5 17.8 1.4 2-1 2.4-5.6 2.4-4 0 15 4.4 30 6.5 45 1 7 7.3 19.4-5 21-21.3 3-13.8-23.7-17-36-1.8-7.5-3-15.2-3-22.8 0-1.4-1-4 1.5-4" stroke="#000" stroke-linecap="butt"/><path d="M466.2 172.3c-6-.6-11-2.7-16.2-4"/><path stroke-linejoin="round" d="M466.2 172.3c-6-.6-11-2.7-16.2-4" stroke="#000" stroke-linecap="butt"/><path d="M483.2 170c-3.7-1.3-7.2-3-11.3-3.7"/><path stroke-linejoin="round" d="M483.2 170c-3.7-1.3-7.2-3-11.3-3.7" stroke="#000" stroke-linecap="butt"/><path d="M480 173.2c-3.4-.8-7.2-1.3-9.8-2.8"/><path stroke-linejoin="round" d="M480 173.2c-3.4-.8-7.2-1.3-9.8-2.8" stroke="#000" stroke-linecap="butt"/><path d="M481.6 171.4c-4-1-7.5-2.6-11.4-3.7"/><path stroke-linejoin="round" d="M481.6 171.4c-4-1-7.5-2.6-11.4-3.7" stroke="#000" stroke-linecap="butt"/><path d="M476.7 174c-6-1.4-10.5-5.4-17-5.4"/><path stroke-linejoin="round" d="M476.7 174c-6-1.4-10.5-5.4-17-5.4" stroke="#000" stroke-linecap="butt"/><path d="M474.7 234.5c-4.2-1.7-8.3-3.7-13-5"/><path stroke-linejoin="round" d="M474.7 234.5c-4.2-1.7-8.3-3.7-13-5" stroke="#000" stroke-linecap="butt"/><path d="M495.6 158.3c6.6 2.3 18 4 24.5 1.5 3-1 4-6.2 4-4.6 0 17 6 34 9 51 1 8 10 22-7 24-29 3.3-19-27-23-41-2-8.5-4-17-4-25.7 0-1.6-1-4.7 2-4.7"/><path stroke-linejoin="round" d="M495.6 158.3c6.6 2.3 18 4 24.5 1.5 3-1 4-6.2 4-4.6 0 17 6 34 9 51 1 8 10 22-7 24-29 3.3-19-27-23-41-2-8.5-4-17-4-25.7 0-1.6-1-4.7 2-4.7" stroke="#000" stroke-linecap="butt"/><path d="M500 158.8c-8-.6-15-3-22-4.6"/><path stroke-linejoin="round" d="M500 158.8c-8-.6-15-3-22-4.6" stroke="#000" stroke-linecap="butt"/><path d="M523.4 156.2c-5-1.5-10-3.2-15.5-4"/><path stroke-linejoin="round" d="M523.4 156.2c-5-1.5-10-3.2-15.5-4" stroke="#000" stroke-linecap="butt"/><path d="M519 159.8c-4.7-.8-10-1.4-13.4-3"/><path stroke-linejoin="round" d="M519 159.8c-4.7-.8-10-1.4-13.4-3" stroke="#000" stroke-linecap="butt"/><path d="M521.2 157.8c-5.5-1.2-10.2-3-15.6-4.2"/><path stroke-linejoin="round" d="M521.2 157.8c-5.5-1.2-10.2-3-15.6-4.2" stroke="#000" stroke-linecap="butt"/><path d="M514.5 161c-8.2-1.8-14.3-6.3-23.3-6.3"/><path stroke-linejoin="round" d="M514.5 161c-8.2-1.8-14.3-6.3-23.3-6.3" stroke="#000" stroke-linecap="butt"/><path d="M511.7 229.2c-5.7-2-11.3-4.2-17.7-5.7"/><path stroke-linejoin="round" d="M511.7 229.2c-5.7-2-11.3-4.2-17.7-5.7" stroke="#000" stroke-linecap="butt"/><path d="M507.4 163.4c1.5 13 1 13 3 26.2 2.2 14.3 6.8 26.8 8.8 41.2"/><path stroke-linejoin="round" d="M507.4 163.4c1.5 13 1 13 3 26.2 2.2 14.3 6.8 26.8 8.8 41.2" stroke="#666" stroke-linecap="butt" stroke-width="16"/><path d="M438 148.5c1 16 1.3 15.8 2 31.8 1 17.5.8 33.2 1.8 50.8"/><path stroke-linejoin="round" d="M438 148.5c1 16 1.3 15.8 2 31.8 1 17.5.8 33.2 1.8 50.8" stroke="#d9d9d9" stroke-linecap="butt" stroke-width="12"/><path d="M538 120.8c4.4 3.3 12 5.7 16.3 2.3 1.8-1 2.2-9 2.2-6 0 25 4 49 6 74 .8 12 6.6 31-4.5 34-19.6 5-12.7-38-15.5-58-1.8-12-3-24-3-37 0-2-.8-6 1.5-6"/><path stroke-linejoin="round" d="M538 120.8c4.4 3.3 12 5.7 16.3 2.3 1.8-1 2.2-9 2.2-6 0 25 4 49 6 74 .8 12 6.6 31-4.5 34-19.6 5-12.7-38-15.5-58-1.8-12-3-24-3-37 0-2-.8-6 1.5-6" stroke="#000" stroke-linecap="butt"/><path d="M541 121.6c-5.4-1-10-4.3-14.8-6.7"/><path stroke-linejoin="round" d="M541 121.6c-5.4-1-10-4.3-14.8-6.7" stroke="#000" stroke-linecap="butt"/><path d="M556.5 118c-3.3-2.2-6.6-4.8-10.4-6"/><path stroke-linejoin="round" d="M556.5 118c-3.3-2.2-6.6-4.8-10.4-6" stroke="#000" stroke-linecap="butt"/><path d="M553.5 123c-3-1.2-6.5-2-8.8-4.4"/><path stroke-linejoin="round" d="M553.5 123c-3-1.2-6.5-2-8.8-4.4" stroke="#000" stroke-linecap="butt"/><path d="M555 120c-3.6-1.5-6.8-4-10.3-5.8"/><path stroke-linejoin="round" d="M555 120c-3.6-1.5-6.8-4-10.3-5.8" stroke="#000" stroke-linecap="butt"/><path d="M550.6 124.5c-5.5-2.4-9.6-8.8-15.5-8.8"/><path stroke-linejoin="round" d="M550.6 124.5c-5.5-2.4-9.6-8.8-15.5-8.8" stroke="#000" stroke-linecap="butt"/><path d="M548.7 222.5c-3.8-3-7.5-6-11.8-8.2"/><path stroke-linejoin="round" d="M548.7 222.5c-3.8-3-7.5-6-11.8-8.2" stroke="#000" stroke-linecap="butt"/><path d="M550.6 135.7c-2.6 5 4.2 10.7 3.7 16.2-1 11-2.2 22 0 33"/><path stroke-linejoin="round" d="M550.6 135.7c-2.6 5 4.2 10.7 3.7 16.2-1 11-2.2 22 0 33" stroke="#000" stroke-linecap="butt"/><path d="M566.4 124.5c3.4 3 9.3 5 12.7 2 2-1.3 2-8 2-6 0 21.8 3 43.4 5 65 1 10 5 27.7-3 30.2-15 4.3-10-34-12-51.8-1-11-2-22-2-33 0-2 0-6 1-6"/><path stroke-linejoin="round" d="M566.4 124.5c3.4 3 9.3 5 12.7 2 2-1.3 2-8 2-6 0 21.8 3 43.4 5 65 1 10 5 27.7-3 30.2-15 4.3-10-34-12-51.8-1-11-2-22-2-33 0-2 0-6 1-6" stroke="#000" stroke-linecap="butt"/><path d="M568.7 125.2c-4-.8-7.7-3.8-11.5-6"/><path stroke-linejoin="round" d="M568.7 125.2c-4-.8-7.7-3.8-11.5-6" stroke="#000" stroke-linecap="butt"/><path d="M580.8 122c-2.6-2-5-4.2-8-5.3"/><path stroke-linejoin="round" d="M580.8 122c-2.6-2-5-4.2-8-5.3" stroke="#000" stroke-linecap="butt"/><path d="M578.5 126.5c-2.4-1-5-2-7-4"/><path stroke-linejoin="round" d="M578.5 126.5c-2.4-1-5-2-7-4" stroke="#000" stroke-linecap="butt"/><path d="M579.6 124c-2.8-1.6-5.2-3.8-8-5.4"/><path stroke-linejoin="round" d="M579.6 124c-2.8-1.6-5.2-3.8-8-5.4" stroke="#000" stroke-linecap="butt"/><path d="M576.2 127.8c-4.2-2-7.4-8-12-8"/><path stroke-linejoin="round" d="M576.2 127.8c-4.2-2-7.4-8-12-8" stroke="#000" stroke-linecap="butt"/><path d="M574.8 214.6c-3-2.6-6-5.3-9.2-7.2"/><path stroke-linejoin="round" d="M574.8 214.6c-3-2.6-6-5.3-9.2-7.2" stroke="#000" stroke-linecap="butt"/><path d="M588.2 133c3.4 2.4 9.3 4.2 12.6 1.6 1.4-1.2 1.7-7 1.7-5.2 0 19 3 37.8 4.6 56.8 1 8.8 6 24.2-3 26.3-15 3.8-10-29.8-12-45.2-1-9.5-2-19-2-28.7 0-1.8 0-5.2 1-5.2"/><path stroke-linejoin="round" d="M588.2 133c3.4 2.4 9.3 4.2 12.6 1.6 1.4-1.2 1.7-7 1.7-5.2 0 19 3 37.8 4.6 56.8 1 8.8 6 24.2-3 26.3-15 3.8-10-29.8-12-45.2-1-9.5-2-19-2-28.7 0-1.8 0-5.2 1-5.2" stroke="#000" stroke-linecap="butt"/><path d="M590.5 133.4c-4.2-.7-7.7-3.3-11.5-5"/><path stroke-linejoin="round" d="M590.5 133.4c-4.2-.7-7.7-3.3-11.5-5" stroke="#000" stroke-linecap="butt"/><path d="M602.5 130.6c-2.6-1.7-5-3.7-8-4.6"/><path stroke-linejoin="round" d="M602.5 130.6c-2.6-1.7-5-3.7-8-4.6" stroke="#000" stroke-linecap="butt"/><path d="M600.2 134.6c-2.4-1-5-1.7-7-3.5"/><path stroke-linejoin="round" d="M600.2 134.6c-2.4-1-5-1.7-7-3.5" stroke="#000" stroke-linecap="butt"/><path d="M601.4 132.3c-3-1.3-5.3-3.2-8-4.6"/><path stroke-linejoin="round" d="M601.4 132.3c-3-1.3-5.3-3.2-8-4.6" stroke="#000" stroke-linecap="butt"/><path d="M598 135.7c-4.3-2-7.5-7-12-7"/><path stroke-linejoin="round" d="M598 135.7c-4.3-2-7.5-7-12-7" stroke="#000" stroke-linecap="butt"/><path d="M596.5 211.6c-3-2.2-6-4.7-9.2-6.3"/><path stroke-linejoin="round" d="M596.5 211.6c-3-2.2-6-4.7-9.2-6.3" stroke="#000" stroke-linecap="butt"/><path d="M598 144.3c-2 3.8 3.2 8.3 2.8 12.6-1 8-1.7 17 0 25"/><path stroke-linejoin="round" d="M598 144.3c-2 3.8 3.2 8.3 2.8 12.6-1 8-1.7 17 0 25" stroke="#000" stroke-linecap="butt"/><path d="M610 115.2c3.5 3 9.4 5 12.7 2 1.4-1.3 1.7-8 1.7-6 0 21.8 3.2 43.3 4.6 65 .7 10 5.2 27.7-3.4 30-15.2 4.4-10-34-12-51.7-1.5-10.8-2.4-21.8-2.4-32.8 0-2-.6-6 1.2-6"/><path stroke-linejoin="round" d="M610 115.2c3.5 3 9.4 5 12.7 2 1.4-1.3 1.7-8 1.7-6 0 21.8 3.2 43.3 4.6 65 .7 10 5.2 27.7-3.4 30-15.2 4.4-10-34-12-51.7-1.5-10.8-2.4-21.8-2.4-32.8 0-2-.6-6 1.2-6" stroke="#000" stroke-linecap="butt"/><path d="M612.4 115.8c-4.2-.7-7.8-3.7-11.6-6"/><path stroke-linejoin="round" d="M612.4 115.8c-4.2-.7-7.8-3.7-11.6-6" stroke="#000" stroke-linecap="butt"/><path d="M624.4 112.6c-2.6-2-5-4.2-8-5.3"/><path stroke-linejoin="round" d="M624.4 112.6c-2.6-2-5-4.2-8-5.3" stroke="#000" stroke-linecap="butt"/><path d="M622 117.2c-2.3-1-5-2-6.8-4"/><path stroke-linejoin="round" d="M622 117.2c-2.3-1-5-2-6.8-4" stroke="#000" stroke-linecap="butt"/><path d="M623.3 114.5c-3-1.4-5.3-3.6-8-5.2"/><path stroke-linejoin="round" d="M623.3 114.5c-3-1.4-5.3-3.6-8-5.2" stroke="#000" stroke-linecap="butt"/><path d="M619.8 118.5c-4.2-2.2-7.4-8-12-8"/><path stroke-linejoin="round" d="M619.8 118.5c-4.2-2.2-7.4-8-12-8" stroke="#000" stroke-linecap="butt"/><path d="M618.4 205.2c-3-2.5-6-5.3-9.2-7.2"/><path stroke-linejoin="round" d="M618.4 205.2c-3-2.5-6-5.3-9.2-7.2" stroke="#000" stroke-linecap="butt"/><path d="M636.8 143.7c3.6 1.8 10 3 13.6 1.2 1.5-1 1.8-5 1.8-4 0 13 3.4 27 5 40 .7 6 5.6 17-3.7 19-16.5 3-10.5-21-13-32-1.5-7-2.5-14-2.5-21 0-2-.7-4 1.2-4"/><path stroke-linejoin="round" d="M636.8 143.7c3.6 1.8 10 3 13.6 1.2 1.5-1 1.8-5 1.8-4 0 13 3.4 27 5 40 .7 6 5.6 17-3.7 19-16.5 3-10.5-21-13-32-1.5-7-2.5-14-2.5-21 0-2-.7-4 1.2-4" stroke="#000" stroke-linecap="butt"/><path d="M639.2 144c-4.4-.4-8.3-2.3-12.4-3.6"/><path stroke-linejoin="round" d="M639.2 144c-4.4-.4-8.3-2.3-12.4-3.6" stroke="#000" stroke-linecap="butt"/><path d="M652.2 142c-2.8-1.2-5.5-2.6-8.6-3.3"/><path stroke-linejoin="round" d="M652.2 142c-2.8-1.2-5.5-2.6-8.6-3.3" stroke="#000" stroke-linecap="butt"/><path d="M649.8 145c-2.6-.8-5.5-1.3-7.5-2.6"/><path stroke-linejoin="round" d="M649.8 145c-2.6-.8-5.5-1.3-7.5-2.6" stroke="#000" stroke-linecap="butt"/><path d="M651 143.3c-3-1-5.7-2.3-8.7-3.3"/><path stroke-linejoin="round" d="M651 143.3c-3-1-5.7-2.3-8.7-3.3" stroke="#000" stroke-linecap="butt"/><path d="M647.3 145.7c-4.6-1.3-8-5-13-5"/><path stroke-linejoin="round" d="M647.3 145.7c-4.6-1.3-8-5-13-5" stroke="#000" stroke-linecap="butt"/><path d="M645.7 200c-3.2-1.6-6.3-3.3-10-4.5"/><path stroke-linejoin="round" d="M645.7 200c-3.2-1.6-6.3-3.3-10-4.5" stroke="#000" stroke-linecap="butt"/><path d="M661.7 131.5c5 2 13.8 3.6 18.7 1.4 2-1 2.5-6 2.5-5 0 15 4 30 6 46 1 7 7 19-5 21-23 3-15-24-18-37-2-8-4-16-4-23 0-2-1-4 1-4"/><path stroke-linejoin="round" d="M661.7 131.5c5 2 13.8 3.6 18.7 1.4 2-1 2.5-6 2.5-5 0 15 4 30 6 46 1 7 7 19-5 21-23 3-15-24-18-37-2-8-4-16-4-23 0-2-1-4 1-4" stroke="#000" stroke-linecap="butt"/><path d="M665 132c-6-.6-11.3-2.7-16.8-4.2"/><path stroke-linejoin="round" d="M665 132c-6-.6-11.3-2.7-16.8-4.2" stroke="#000" stroke-linecap="butt"/><path d="M683 129.7c-4-1.4-7.6-3-12-3.7"/><path stroke-linejoin="round" d="M683 129.7c-4-1.4-7.6-3-12-3.7" stroke="#000" stroke-linecap="butt"/><path d="M679.5 133c-3.5-.8-7.5-1.4-10-3"/><path stroke-linejoin="round" d="M679.5 133c-3.5-.8-7.5-1.4-10-3" stroke="#000" stroke-linecap="butt"/><path d="M681.2 131c-4-1-7.8-2.5-11.8-3.6"/><path stroke-linejoin="round" d="M681.2 131c-4-1-7.8-2.5-11.8-3.6" stroke="#000" stroke-linecap="butt"/><path d="M676 134c-6-1.7-10.8-5.7-17.7-5.7"/><path stroke-linejoin="round" d="M676 134c-6-1.7-10.8-5.7-17.7-5.7" stroke="#000" stroke-linecap="butt"/><path d="M674 195.2c-4.4-1.8-8.6-3.7-13.5-5"/><path stroke-linejoin="round" d="M674 195.2c-4.4-1.8-8.6-3.7-13.5-5" stroke="#000" stroke-linecap="butt"/><path d="M670.7 136.2c1 11.7.7 11.7 2.3 23.4 1.6 13 5.2 24 6.8 37"/><path stroke-linejoin="round" d="M670.7 136.2c1 11.7.7 11.7 2.3 23.4 1.6 13 5.2 24 6.8 37" stroke="#666" stroke-linecap="butt" stroke-width="12"/><path d="M577.7 130.7c.8 14.3 1 14.2 1.6 28.6.8 15.8.5 29.8 1.3 45.6"/><path stroke-linejoin="round" d="M577.7 130.7c.8 14.3 1 14.2 1.6 28.6.8 15.8.5 29.8 1.3 45.6" stroke="#d9d9d9" stroke-linecap="butt" stroke-width="8"/><path d="M696.2 102.8c3.8 2.8 10.2 4.8 14 2 1.4-1.3 1.8-7.7 1.8-5.8 0 21 3.4 41.6 5 62.4.8 9.7 5.7 26.6-3.8 29-16.6 4-10.8-32.8-13.2-49.8-1.5-10.4-2.5-21-2.5-31.5 0-1-.7-5 1.3-5"/><path stroke-linejoin="round" d="M696.2 102.8c3.8 2.8 10.2 4.8 14 2 1.4-1.3 1.8-7.7 1.8-5.8 0 21 3.4 41.6 5 62.4.8 9.7 5.7 26.6-3.8 29-16.6 4-10.8-32.8-13.2-49.8-1.5-10.4-2.5-21-2.5-31.5 0-1-.7-5 1.3-5" stroke="#000" stroke-linecap="butt"/><path d="M698.8 103.5c-4.6-.8-8.5-3.7-12.6-5.7"/><path stroke-linejoin="round" d="M698.8 103.5c-4.6-.8-8.5-3.7-12.6-5.7" stroke="#000" stroke-linecap="butt"/><path d="M712 100.3c-3-1.8-5.6-4-8.8-5"/><path stroke-linejoin="round" d="M712 100.3c-3-1.8-5.6-4-8.8-5" stroke="#000" stroke-linecap="butt"/><path d="M709.5 104.7c-2.7-1-5.6-1.8-7.6-3.8"/><path stroke-linejoin="round" d="M709.5 104.7c-2.7-1-5.6-1.8-7.6-3.8" stroke="#000" stroke-linecap="butt"/><path d="M710.7 102.2c-3-1.4-5.8-3.5-8.8-5"/><path stroke-linejoin="round" d="M710.7 102.2c-3-1.4-5.8-3.5-8.8-5" stroke="#000" stroke-linecap="butt"/><path d="M707 106c-4.7-2-8.2-7.6-13.3-7.6"/><path stroke-linejoin="round" d="M707 106c-4.7-2-8.2-7.6-13.3-7.6" stroke="#000" stroke-linecap="butt"/><path d="M705.4 189.3c-3.3-2.5-6.5-5-10-7"/><path stroke-linejoin="round" d="M705.4 189.3c-3.3-2.5-6.5-5-10-7" stroke="#000" stroke-linecap="butt"/><path d="M707 115.4c-2.3 4.2 3.6 9 3 14-1 9.3-1.8 19 0 28.2"/><path stroke-linejoin="round" d="M707 115.4c-2.3 4.2 3.6 9 3 14-1 9.3-1.8 19 0 28.2" stroke="#000" stroke-linecap="butt"/><path d="M720.4 106c3 2.4 8 4.2 10.8 1.6 1.2-1 1.4-6.7 1.4-5 0 18.5 2.7 36.8 4 55.2.5 8.6 4.3 23.6-3 25.7-13 3.6-8.4-29-10.3-44-1-9.3-2-18.6-2-28 0-1.7-.4-5 1-5"/><path stroke-linejoin="round" d="M720.4 106c3 2.4 8 4.2 10.8 1.6 1.2-1 1.4-6.7 1.4-5 0 18.5 2.7 36.8 4 55.2.5 8.6 4.3 23.6-3 25.7-13 3.6-8.4-29-10.3-44-1-9.3-2-18.6-2-28 0-1.7-.4-5 1-5" stroke="#000" stroke-linecap="butt"/><path d="M722.4 106.5c-3.6-.7-6.6-3.2-9.8-5"/><path stroke-linejoin="round" d="M722.4 106.5c-3.6-.7-6.6-3.2-9.8-5" stroke="#000" stroke-linecap="butt"/><path d="M732.6 103.7c-2.2-1.6-4.3-3.5-6.8-4.4"/><path stroke-linejoin="round" d="M732.6 103.7c-2.2-1.6-4.3-3.5-6.8-4.4" stroke="#000" stroke-linecap="butt"/><path d="M730.7 107.6c-2-1-4.3-1.6-6-3.3"/><path stroke-linejoin="round" d="M730.7 107.6c-2-1-4.3-1.6-6-3.3" stroke="#000" stroke-linecap="butt"/><path d="M731.7 105.4c-2.4-1.2-4.5-3-7-4.5"/><path stroke-linejoin="round" d="M731.7 105.4c-2.4-1.2-4.5-3-7-4.5" stroke="#000" stroke-linecap="butt"/><path d="M728.7 108.7c-3.6-1.8-6.3-6.7-10.3-6.7"/><path stroke-linejoin="round" d="M728.7 108.7c-3.6-1.8-6.3-6.7-10.3-6.7" stroke="#000" stroke-linecap="butt"/><path d="M727.5 182.5c-2.5-2-5-4.5-7.8-6"/><path stroke-linejoin="round" d="M727.5 182.5c-2.5-2-5-4.5-7.8-6" stroke="#000" stroke-linecap="butt"/><path d="M739 113c2.8 2.2 7.8 3.7 10.6 1.5 1.2-1 1.5-6 1.5-4.4 0 17 3 33 4 49 1 8 5 21-3 23-12 3-8-25-10-38-1-8-2-16-2-24 0-1 0-4 1-4"/><path stroke-linejoin="round" d="M739 113c2.8 2.2 7.8 3.7 10.6 1.5 1.2-1 1.5-6 1.5-4.4 0 17 3 33 4 49 1 8 5 21-3 23-12 3-8-25-10-38-1-8-2-16-2-24 0-1 0-4 1-4" stroke="#000" stroke-linecap="butt"/><path d="M741 113.5c-3.7-.6-6.7-2.8-10-4.4"/><path stroke-linejoin="round" d="M741 113.5c-3.7-.6-6.7-2.8-10-4.4" stroke="#000" stroke-linecap="butt"/><path d="M751 111c-2-1.3-4.2-3-6.7-3.8"/><path stroke-linejoin="round" d="M751 111c-2-1.3-4.2-3-6.7-3.8" stroke="#000" stroke-linecap="butt"/><path d="M749 114.5c-2-.8-4.2-1.4-5.7-3"/><path stroke-linejoin="round" d="M749 114.5c-2-.8-4.2-1.4-5.7-3" stroke="#000" stroke-linecap="butt"/><path d="M750 112.5c-2.3-1-4.4-2.7-6.7-4"/><path stroke-linejoin="round" d="M750 112.5c-2.3-1-4.4-2.7-6.7-4" stroke="#000" stroke-linecap="butt"/><path d="M747.2 115.5c-3.6-1.6-6.3-6-10.2-6"/><path stroke-linejoin="round" d="M747.2 115.5c-3.6-1.6-6.3-6-10.2-6" stroke="#000" stroke-linecap="butt"/><path d="M746 180c-2.5-2-5-4-7.8-5.4"/><path stroke-linejoin="round" d="M746 180c-2.5-2-5-4-7.8-5.4" stroke="#000" stroke-linecap="butt"/><path d="M747.2 122.8c-1.7 3.2 2.8 7 2.4 10.7-.7 7.3-1.4 14.8 0 22"/><path stroke-linejoin="round" d="M747.2 122.8c-1.7 3.2 2.8 7 2.4 10.7-.7 7.3-1.4 14.8 0 22" stroke="#000" stroke-linecap="butt"/><path d="M757.5 98c3 2.5 8 4.3 10.8 1.7 1.2-1 1.4-6.8 1.4-5 0 18.4 2.7 36.8 4 55.2.5 8 4.4 23-3 25-13 3-8.4-29-10.3-44-1-10-2-19-2-28 0-2-.4-5 1-5"/><path stroke-linejoin="round" d="M757.5 98c3 2.5 8 4.3 10.8 1.7 1.2-1 1.4-6.8 1.4-5 0 18.4 2.7 36.8 4 55.2.5 8 4.4 23-3 25-13 3-8.4-29-10.3-44-1-10-2-19-2-28 0-2-.4-5 1-5" stroke="#000" stroke-linecap="butt"/><path d="M759.5 98.6c-3.6-.7-6.6-3.2-9.8-5"/><path stroke-linejoin="round" d="M759.5 98.6c-3.6-.7-6.6-3.2-9.8-5" stroke="#000" stroke-linecap="butt"/><path d="M769.7 95.8c-2.2-1.6-4.3-3.5-6.8-4.5"/><path stroke-linejoin="round" d="M769.7 95.8c-2.2-1.6-4.3-3.5-6.8-4.5" stroke="#000" stroke-linecap="butt"/><path d="M767.8 99.7c-2-1-4.3-1.6-6-3.4"/><path stroke-linejoin="round" d="M767.8 99.7c-2-1-4.3-1.6-6-3.4" stroke="#000" stroke-linecap="butt"/><path d="M768.8 97.4c-2.4-1.2-4.5-3-7-4.4"/><path stroke-linejoin="round" d="M768.8 97.4c-2.4-1.2-4.5-3-7-4.4" stroke="#000" stroke-linecap="butt"/><path d="M765.8 100.8c-3.6-1.8-6.3-6.7-10.2-6.7"/><path stroke-linejoin="round" d="M765.8 100.8c-3.6-1.8-6.3-6.7-10.2-6.7" stroke="#000" stroke-linecap="butt"/><path d="M764.6 174.6c-2.5-2.2-5-4.5-7.8-6.2"/><path stroke-linejoin="round" d="M764.6 174.6c-2.5-2.2-5-4.5-7.8-6.2" stroke="#000" stroke-linecap="butt"/><path d="M780.2 122.3c3 1.5 8.6 2.6 11.6 1 1.3-.7 1.6-4.2 1.6-3 0 11.4 3 23 4.2 34.4.6 5.4 4.7 14.7-3.2 16-14 2.4-9-18-11-27.5-1.3-5.8-2-11.6-2-17.5 0-1-.7-3 1-3"/><path stroke-linejoin="round" d="M780.2 122.3c3 1.5 8.6 2.6 11.6 1 1.3-.7 1.6-4.2 1.6-3 0 11.4 3 23 4.2 34.4.6 5.4 4.7 14.7-3.2 16-14 2.4-9-18-11-27.5-1.3-5.8-2-11.6-2-17.5 0-1-.7-3 1-3" stroke="#000" stroke-linecap="butt"/><path d="M782.3 122.6c-3.8-.4-7-2-10.5-3"/><path stroke-linejoin="round" d="M782.3 122.6c-3.8-.4-7-2-10.5-3" stroke="#000" stroke-linecap="butt"/><path d="M793.4 120.8c-2.4-1-4.7-2-7.4-2.7"/><path stroke-linejoin="round" d="M793.4 120.8c-2.4-1-4.7-2-7.4-2.7" stroke="#000" stroke-linecap="butt"/><path d="M791.3 123.3c-2.2-.6-4.7-1-6.3-2"/><path stroke-linejoin="round" d="M791.3 123.3c-2.2-.6-4.7-1-6.3-2" stroke="#000" stroke-linecap="butt"/><path d="M792.3 122l-7.3-3"/><path stroke-linejoin="round" d="M792.3 122l-7.3-3" stroke="#000" stroke-linecap="butt"/><path d="M789.2 124c-4-1-6.8-4.2-11-4.2"/><path stroke-linejoin="round" d="M789.2 124c-4-1-6.8-4.2-11-4.2" stroke="#000" stroke-linecap="butt"/><path d="M788 170.2c-3-1.4-5.5-3-8.6-4"/><path stroke-linejoin="round" d="M788 170.2c-3-1.4-5.5-3-8.6-4" stroke="#000" stroke-linecap="butt"/><path d="M806.3 111c4 2.5 11 5.2 15.4 4.2 2-.5 3-4.4 2.8-3-2.5 12.7-1 26.2-1.7 39.3-.3 6.2 3.3 17.6-7.6 17-19.2-1-8.3-22.4-9-33.4-.5-6-.4-13 .8-19 .2-1 0-3 2-3"/><path stroke-linejoin="round" d="M806.3 111c4 2.5 11 5.2 15.4 4.2 2-.5 3-4.4 2.8-3-2.5 12.7-1 26.2-1.7 39.3-.3 6.2 3.3 17.6-7.6 17-19.2-1-8.3-22.4-9-33.4-.5-6-.4-13 .8-19 .2-1 0-3 2-3" stroke="#000" stroke-linecap="butt"/><path d="M809 112c-5-1.5-9-4-13.4-6.2"/><path stroke-linejoin="round" d="M809 112c-5-1.5-9-4-13.4-6.2" stroke="#000" stroke-linecap="butt"/><path d="M824.3 112.8c-3-1.7-5.8-3.6-9.3-5"/><path stroke-linejoin="round" d="M824.3 112.8c-3-1.7-5.8-3.6-9.3-5" stroke="#000" stroke-linecap="butt"/><path d="M821 115c-2.8-1.2-6-2.3-8-4"/><path stroke-linejoin="round" d="M821 115c-2.8-1.2-6-2.3-8-4" stroke="#000" stroke-linecap="butt"/><path d="M822.7 113.7c-3.3-1.5-6-3.4-9.3-5"/><path stroke-linejoin="round" d="M822.7 113.7c-3.3-1.5-6-3.4-9.3-5" stroke="#000" stroke-linecap="butt"/><path d="M818 115.3c-5-2.3-8.3-6.4-14-7.5"/><path stroke-linejoin="round" d="M818 115.3c-5-2.3-8.3-6.4-14-7.5" stroke="#000" stroke-linecap="butt"/><path d="M806.5 166.2c-3.4-2.2-6.7-4.5-10.6-6.4"/><path stroke-linejoin="round" d="M806.5 166.2c-3.4-2.2-6.7-4.5-10.6-6.4" stroke="#000" stroke-linecap="butt"/><path d="M764 104.4c.7 12.2.8 12 1.4 24.3.6 13.4.4 25.4 1 38.8"/><path stroke-linejoin="round" d="M764 104.4c.7 12.2.8 12 1.4 24.3.6 13.4.4 25.4 1 38.8" stroke="#d9d9d9" stroke-linecap="butt" stroke-width="12"/><path d="M830 92.4c3 2.2 8 3.8 11 1.5 1.2-1 1.5-7 1.5-5 0 16 2.7 32 4 49 .6 7 4.4 21-3 23-13 3-8.5-26-10.4-40-1-8-2-17-2-25 0-2 0-5 1-5"/><path stroke-linejoin="round" d="M830 92.4c3 2.2 8 3.8 11 1.5 1.2-1 1.5-7 1.5-5 0 16 2.7 32 4 49 .6 7 4.4 21-3 23-13 3-8.5-26-10.4-40-1-8-2-17-2-25 0-2 0-5 1-5" stroke="#000" stroke-linecap="butt"/><path d="M832 93c-3.5-.7-6.6-3-9.8-4.6"/><path stroke-linejoin="round" d="M832 93c-3.5-.7-6.6-3-9.8-4.6" stroke="#000" stroke-linecap="butt"/><path d="M842.5 90.4c-2.2-1.4-4.4-3-7-4"/><path stroke-linejoin="round" d="M842.5 90.4c-2.2-1.4-4.4-3-7-4" stroke="#000" stroke-linecap="butt"/><path d="M840.5 94c-2-1-4.4-1.5-6-3"/><path stroke-linejoin="round" d="M840.5 94c-2-1-4.4-1.5-6-3" stroke="#000" stroke-linecap="butt"/><path d="M841.5 92c-2.4-1.2-4.5-3-7-4"/><path stroke-linejoin="round" d="M841.5 92c-2.4-1.2-4.5-3-7-4" stroke="#000" stroke-linecap="butt"/><path d="M838.5 95c-3.5-2-6.5-6-10.5-6"/><path stroke-linejoin="round" d="M838.5 95c-3.5-2-6.5-6-10.5-6" stroke="#000" stroke-linecap="butt"/><path d="M837.3 160.5c-2.6-2-5-4-8-5.5"/><path stroke-linejoin="round" d="M837.3 160.5c-2.6-2-5-4-8-5.5" stroke="#000" stroke-linecap="butt"/><path d="M838.5 102.3c-1.7 3.3 3 7.2 2.5 11-.7 7.3-1.4 15 0 22.2"/><path stroke-linejoin="round" d="M838.5 102.3c-1.7 3.3 3 7.2 2.5 11-.7 7.3-1.4 15 0 22.2" stroke="#000" stroke-linecap="butt"/><path d="M849 94.8c2.4 2 6.4 3.4 8.6 1.4 1-1 1.2-5.4 1.2-4 0 14.6 2 29 3 43.5.5 6.8 3.5 18.6-2.3 20.2-10 2-6.6-23-8-35-1-8-1.6-15-1.6-22 0-2-1-4 0-4"/><path stroke-linejoin="round" d="M849 94.8c2.4 2 6.4 3.4 8.6 1.4 1-1 1.2-5.4 1.2-4 0 14.6 2 29 3 43.5.5 6.8 3.5 18.6-2.3 20.2-10 2-6.6-23-8-35-1-8-1.6-15-1.6-22 0-2-1-4 0-4" stroke="#000" stroke-linecap="butt"/><path d="M850.7 95.3c-2.8-.5-5.2-2.5-7.7-4"/><path stroke-linejoin="round" d="M850.7 95.3c-2.8-.5-5.2-2.5-7.7-4" stroke="#000" stroke-linecap="butt"/><path d="M858.8 93c-1.8-1.2-3.5-2.7-5.4-3.4"/><path stroke-linejoin="round" d="M858.8 93c-1.8-1.2-3.5-2.7-5.4-3.4" stroke="#000" stroke-linecap="butt"/><path d="M857.2 96.2c-1.6-.8-3.4-1.3-4.6-2.7"/><path stroke-linejoin="round" d="M857.2 96.2c-1.6-.8-3.4-1.3-4.6-2.7" stroke="#000" stroke-linecap="butt"/><path d="M858 94.4c-2-1-3.5-2.5-5.4-3.5"/><path stroke-linejoin="round" d="M858 94.4c-2-1-3.5-2.5-5.4-3.5" stroke="#000" stroke-linecap="butt"/><path d="M855.7 97c-2.8-1.4-5-5.2-8-5.2"/><path stroke-linejoin="round" d="M855.7 97c-2.8-1.4-5-5.2-8-5.2" stroke="#000" stroke-linecap="butt"/><path d="M854.7 155.2c-2-1.7-4-3.6-6-5"/><path stroke-linejoin="round" d="M854.7 155.2c-2-1.7-4-3.6-6-5" stroke="#000" stroke-linecap="butt"/><path d="M863.7 100.4c2.3 1.7 6.2 3 8.5 1.2 1-.8 1-4.7 1-3.5 0 13 2.2 26 3.2 38 .4 6 3.5 17-2.3 18-10 3-6-20-8-30-1-6-1-13-1-19 0-1 0-3 1-3"/><path stroke-linejoin="round" d="M863.7 100.4c2.3 1.7 6.2 3 8.5 1.2 1-.8 1-4.7 1-3.5 0 13 2.2 26 3.2 38 .4 6 3.5 17-2.3 18-10 3-6-20-8-30-1-6-1-13-1-19 0-1 0-3 1-3" stroke="#000" stroke-linecap="butt"/><path d="M865.3 100.8c-2.8-.5-5.2-2.2-7.7-3.5"/><path stroke-linejoin="round" d="M865.3 100.8c-2.8-.5-5.2-2.2-7.7-3.5" stroke="#000" stroke-linecap="butt"/><path d="M873.3 99c-1.7-1.2-3.4-2.5-5.4-3.2"/><path stroke-linejoin="round" d="M873.3 99c-1.7-1.2-3.4-2.5-5.4-3.2" stroke="#000" stroke-linecap="butt"/><path d="M871.8 101.6c-1.6-.7-3.4-1-4.6-2.3"/><path stroke-linejoin="round" d="M871.8 101.6c-1.6-.7-3.4-1-4.6-2.3" stroke="#000" stroke-linecap="butt"/><path d="M872.5 100c-1.8-.8-3.5-2-5.3-3"/><path stroke-linejoin="round" d="M872.5 100c-1.8-.8-3.5-2-5.3-3" stroke="#000" stroke-linecap="butt"/><path d="M870.3 102.3c-3-1.2-5-4.6-8-4.6"/><path stroke-linejoin="round" d="M870.3 102.3c-3-1.2-5-4.6-8-4.6" stroke="#000" stroke-linecap="butt"/><path d="M869.3 153.2c-2-1.5-4-3.2-6.2-4.3"/><path stroke-linejoin="round" d="M869.3 153.2c-2-1.5-4-3.2-6.2-4.3" stroke="#000" stroke-linecap="butt"/><path d="M870.3 108c-1.4 2.6 2.2 5.7 2 8.5-.7 5.8-1.3 11.7 0 17.3"/><path stroke-linejoin="round" d="M870.3 108c-1.4 2.6 2.2 5.7 2 8.5-.7 5.8-1.3 11.7 0 17.3" stroke="#000" stroke-linecap="butt"/><path d="M878.4 88.6c2.3 2 6.2 3.3 8.4 1.3 1-1 1.2-6 1.2-4 0 14 2 29 3 43 .5 7 3.6 18-2.2 20-10.2 3-6.6-23-8-35-1-8-1.7-15-1.7-22 0-2 0-4 1-4"/><path stroke-linejoin="round" d="M878.4 88.6c2.3 2 6.2 3.3 8.4 1.3 1-1 1.2-6 1.2-4 0 14 2 29 3 43 .5 7 3.6 18-2.2 20-10.2 3-6.6-23-8-35-1-8-1.7-15-1.7-22 0-2 0-4 1-4" stroke="#000" stroke-linecap="butt"/><path d="M880 89c-3-.5-5.3-2.5-7.8-4"/><path stroke-linejoin="round" d="M880 89c-3-.5-5.3-2.5-7.8-4" stroke="#000" stroke-linecap="butt"/><path d="M888 86.8c-1.7-1.2-3.4-2.7-5.4-3.5"/><path stroke-linejoin="round" d="M888 86.8c-1.7-1.2-3.4-2.7-5.4-3.5" stroke="#000" stroke-linecap="butt"/><path d="M886.5 90c-1.6-.8-3.4-1.4-4.7-2.7"/><path stroke-linejoin="round" d="M886.5 90c-1.6-.8-3.4-1.4-4.7-2.7" stroke="#000" stroke-linecap="butt"/><path d="M887.2 88c-2-.8-3.5-2.3-5.4-3.4"/><path stroke-linejoin="round" d="M887.2 88c-2-.8-3.5-2.3-5.4-3.4" stroke="#000" stroke-linecap="butt"/><path d="M885 90.8c-3-1.5-5-5.3-8.2-5.3"/><path stroke-linejoin="round" d="M885 90.8c-3-1.5-5-5.3-8.2-5.3" stroke="#000" stroke-linecap="butt"/><path d="M884 149c-2-1.8-4-3.7-6.2-5"/><path stroke-linejoin="round" d="M884 149c-2-1.8-4-3.7-6.2-5" stroke="#000" stroke-linecap="butt"/><path d="M896.3 107.7c2.4 1.2 6.7 2 9 .8 1-.5 1.3-3.3 1.3-2.5 0 9 2.3 18.2 3.4 27.2.4 4.3 3.7 11.7-2.5 12.7-11 1-7-15-8.7-22-1-5-1.7-9-1.7-14 0-1 0-3 1-3"/><path stroke-linejoin="round" d="M896.3 107.7c2.4 1.2 6.7 2 9 .8 1-.5 1.3-3.3 1.3-2.5 0 9 2.3 18.2 3.4 27.2.4 4.3 3.7 11.7-2.5 12.7-11 1-7-15-8.7-22-1-5-1.7-9-1.7-14 0-1 0-3 1-3" stroke="#000" stroke-linecap="butt"/><path d="M898 108c-3-.4-5.7-1.6-8.4-2.5"/><path stroke-linejoin="round" d="M898 108c-3-.4-5.7-1.6-8.4-2.5" stroke="#000" stroke-linecap="butt"/><path d="M906.6 106.6c-2-.8-3.7-1.7-5.8-2.2"/><path stroke-linejoin="round" d="M906.6 106.6c-2-.8-3.7-1.7-5.8-2.2" stroke="#000" stroke-linecap="butt"/><path d="M905 108.5c-1.8-.4-3.7-.8-5-1.6"/><path stroke-linejoin="round" d="M905 108.5c-1.8-.4-3.7-.8-5-1.6" stroke="#000" stroke-linecap="butt"/><path d="M905.8 107.4c-2-.6-3.8-1.5-5.8-2.2"/><path stroke-linejoin="round" d="M905.8 107.4c-2-.6-3.8-1.5-5.8-2.2" stroke="#000" stroke-linecap="butt"/><path d="M903.3 109c-3-.8-5.4-3.2-8.7-3.2"/><path stroke-linejoin="round" d="M903.3 109c-3-.8-5.4-3.2-8.7-3.2" stroke="#000" stroke-linecap="butt"/><path d="M902.3 145.4c-2.2-1-4.3-2.2-6.7-3"/><path stroke-linejoin="round" d="M902.3 145.4c-2.2-1-4.3-2.2-6.7-3" stroke="#000" stroke-linecap="butt"/><path d="M909.6 101c3.6.6 9.5.6 12.5-1.4 2-1 1-4 2-3 2 10 7 19.6 10 29.4 2 4.6 8 12-1 14.7-14 4.7-12-14.2-16-22-2-5-4-9.8-5-15 0-1-1-2.6 1-3"/><path stroke-linejoin="round" d="M909.6 101c3.6.6 9.5.6 12.5-1.4 2-1 1-4 2-3 2 10 7 19.6 10 29.4 2 4.6 8 12-1 14.7-14 4.7-12-14.2-16-22-2-5-4-9.8-5-15 0-1-1-2.6 1-3" stroke="#000" stroke-linecap="butt"/><path d="M912 100.8c-4.2.3-8-.4-11.8-.8"/><path stroke-linejoin="round" d="M912 100.8c-4.2.3-8-.4-11.8-.8" stroke="#000" stroke-linecap="butt"/><path d="M923.4 97c-2.7-.3-5.4-1-8.3-1"/><path stroke-linejoin="round" d="M923.4 97c-2.7-.3-5.4-1-8.3-1" stroke="#000" stroke-linecap="butt"/><path d="M921.5 99.7c-2.4 0-5 0-7-.6"/><path stroke-linejoin="round" d="M921.5 99.7c-2.4 0-5 0-7-.6" stroke="#000" stroke-linecap="butt"/><path d="M922.4 98.3c-3-.2-5.4-.8-8.3-1"/><path stroke-linejoin="round" d="M922.4 98.3c-3-.2-5.4-.8-8.3-1" stroke="#000" stroke-linecap="butt"/><path d="M919.4 100.7c-4.3-.3-8-2.4-12.4-1.6"/><path stroke-linejoin="round" d="M919.4 100.7c-4.3-.3-8-2.4-12.4-1.6" stroke="#000" stroke-linecap="butt"/><path d="M925.2 141.4c-3-.6-6-1.4-9.5-1.7"/><path stroke-linejoin="round" d="M925.2 141.4c-3-.6-6-1.4-9.5-1.7" stroke="#000" stroke-linecap="butt"/><path d="M110.2 327.4c80.8-24 164.8-37.4 248.3-49 43.4-6.3 85-22.8 128.4-29 76-11 152-27.3 226-46 19-4.7 39 1.2 59-3 35-8.3 68-22 102-33.4 28-9.3 59-7.3 85-20.4"/><path stroke-linejoin="round" d="M110.2 327.4c80.8-24 164.8-37.4 248.3-49 43.4-6.3 85-22.8 128.4-29 76-11 152-27.3 226-46 19-4.7 39 1.2 59-3 35-8.3 68-22 102-33.4 28-9.3 59-7.3 85-20.4" stroke="#000" stroke-linecap="butt"/><path d="M127.3 343c6.3 4.6 17.3 8 23.5 3 2.7-2 3.2-13 3.2-9.5 0 35.4 6 70.6 8.6 106 1.3 16.4 9.6 45-6.4 49-28.3 7.2-18.4-55.5-22.5-84.4-2.5-17-4.3-35-4.3-53 0-3-1-9 2.2-9"/><path stroke-linejoin="round" d="M127.3 343c6.3 4.6 17.3 8 23.5 3 2.7-2 3.2-13 3.2-9.5 0 35.4 6 70.6 8.6 106 1.3 16.4 9.6 45-6.4 49-28.3 7.2-18.4-55.5-22.5-84.4-2.5-17-4.3-35-4.3-53 0-3-1-9 2.2-9" stroke="#000" stroke-linecap="butt"/><path d="M131.6 344c-7.7-1.3-14.4-6.2-21.4-9.7"/><path stroke-linejoin="round" d="M131.6 344c-7.7-1.3-14.4-6.2-21.4-9.7" stroke="#000" stroke-linecap="butt"/><path d="M154 338.6c-4.8-3-9.5-6.7-15-8.6"/><path stroke-linejoin="round" d="M154 338.6c-4.8-3-9.5-6.7-15-8.6" stroke="#000" stroke-linecap="butt"/><path d="M149.8 346c-4.5-1.7-9.5-3-13-6.3"/><path stroke-linejoin="round" d="M149.8 346c-4.5-1.7-9.5-3-13-6.3" stroke="#000" stroke-linecap="butt"/><path d="M152 341.8c-5.4-2.3-10-6-15-8.6"/><path stroke-linejoin="round" d="M152 341.8c-5.4-2.3-10-6-15-8.6" stroke="#000" stroke-linecap="butt"/><path d="M145.5 348.2c-8-3.5-14-12.8-22.5-12.8"/><path stroke-linejoin="round" d="M145.5 348.2c-8-3.5-14-12.8-22.5-12.8" stroke="#000" stroke-linecap="butt"/><path d="M142.8 489.8c-5.5-4-11-8.6-17-11.7"/><path stroke-linejoin="round" d="M142.8 489.8c-5.5-4-11-8.6-17-11.7" stroke="#000" stroke-linecap="butt"/><path d="M145.5 364.3c-3.8 7 6 15.5 5.3 23.5-1.6 16-3 32.4 0 48.2"/><path stroke-linejoin="round" d="M145.5 364.3c-3.8 7 6 15.5 5.3 23.5-1.6 16-3 32.4 0 48.2" stroke="#000" stroke-linecap="butt"/><path d="M168.4 348.2c5 4.2 13.4 7.2 18.3 3 2-2 2.4-11.7 2.4-8.7 0 31.4 5 62.6 7 94 1 14.5 8 40-5 43.5-22 6.2-14-49.3-17-75-2-15.6-3-31.5-3-47.3 0-3-1-8.5 2-8.5"/><path stroke-linejoin="round" d="M168.4 348.2c5 4.2 13.4 7.2 18.3 3 2-2 2.4-11.7 2.4-8.7 0 31.4 5 62.6 7 94 1 14.5 8 40-5 43.5-22 6.2-14-49.3-17-75-2-15.6-3-31.5-3-47.3 0-3-1-8.5 2-8.5" stroke="#000" stroke-linecap="butt"/><path d="M171.7 349.2c-6-1.2-11.2-5.5-16.6-8.6"/><path stroke-linejoin="round" d="M171.7 349.2c-6-1.2-11.2-5.5-16.6-8.6" stroke="#000" stroke-linecap="butt"/><path d="M189.2 344.4c-3.8-2.7-7.5-6-11.7-7.6"/><path stroke-linejoin="round" d="M189.2 344.4c-3.8-2.7-7.5-6-11.7-7.6" stroke="#000" stroke-linecap="butt"/><path d="M185.8 351c-3.4-1.5-7.3-2.6-10-5.6"/><path stroke-linejoin="round" d="M185.8 351c-3.4-1.5-7.3-2.6-10-5.6" stroke="#000" stroke-linecap="butt"/><path d="M187.5 347.3c-4-2-7.7-5.3-11.7-7.6"/><path stroke-linejoin="round" d="M187.5 347.3c-4-2-7.7-5.3-11.7-7.6" stroke="#000" stroke-linecap="butt"/><path d="M182.5 353c-6-3.2-10.8-11.4-17.5-11.4"/><path stroke-linejoin="round" d="M182.5 353c-6-3.2-10.8-11.4-17.5-11.4" stroke="#000" stroke-linecap="butt"/><path d="M180.4 478.4c-4.3-3.7-8.5-7.7-13.3-10.4"/><path stroke-linejoin="round" d="M180.4 478.4c-4.3-3.7-8.5-7.7-13.3-10.4" stroke="#000" stroke-linecap="butt"/><path d="M199.8 360.3c5 3.6 13.5 6.3 18.3 2.4 2-1.6 3-10 3-7.4 0 27.4 5 54.7 7 82 1 12.8 8 35-5 38.2-22 5.4-14-43.2-17-65.5-2-13.7-3-27.6-3-41.5 0-2.5-1-7.4 2-7.4"/><path stroke-linejoin="round" d="M199.8 360.3c5 3.6 13.5 6.3 18.3 2.4 2-1.6 3-10 3-7.4 0 27.4 5 54.7 7 82 1 12.8 8 35-5 38.2-22 5.4-14-43.2-17-65.5-2-13.7-3-27.6-3-41.5 0-2.5-1-7.4 2-7.4" stroke="#000" stroke-linecap="butt"/><path d="M203.2 361c-6-1-11.2-4.7-16.6-7.4"/><path stroke-linejoin="round" d="M203.2 361c-6-1-11.2-4.7-16.6-7.4" stroke="#000" stroke-linecap="butt"/><path d="M220.6 357c-3.8-2.5-7.4-5.3-11.7-6.7"/><path stroke-linejoin="round" d="M220.6 357c-3.8-2.5-7.4-5.3-11.7-6.7" stroke="#000" stroke-linecap="butt"/><path d="M217.2 362.7c-3.4-1.3-7.3-2.3-10-5"/><path stroke-linejoin="round" d="M217.2 362.7c-3.4-1.3-7.3-2.3-10-5" stroke="#000" stroke-linecap="butt"/><path d="M219 359.4c-4.2-1.8-7.7-4.6-11.7-6.6"/><path stroke-linejoin="round" d="M219 359.4c-4.2-1.8-7.7-4.6-11.7-6.6" stroke="#000" stroke-linecap="butt"/><path d="M214 364.4c-6.2-2.7-10.8-10-17.5-10"/><path stroke-linejoin="round" d="M214 364.4c-6.2-2.7-10.8-10-17.5-10" stroke="#000" stroke-linecap="butt"/><path d="M211.8 474c-4.2-3-8.4-6.6-13.2-9"/><path stroke-linejoin="round" d="M211.8 474c-4.2-3-8.4-6.6-13.2-9" stroke="#000" stroke-linecap="butt"/><path d="M214 376.8c-3 5.5 4.7 12 4 18.3-1.2 13-2.4 26 0 38"/><path stroke-linejoin="round" d="M214 376.8c-3 5.5 4.7 12 4 18.3-1.2 13-2.4 26 0 38" stroke="#000" stroke-linecap="butt"/><path d="M231.4 326.7c5 4.2 13.5 7.2 18.3 2.8 2-1.8 2.5-11.5 2.5-8.5 0 31.4 4.6 62.6 6.7 94 1 14.5 7 40-5 43.5-22 6.2-15-49.4-18-75-2-15.6-4-31.5-4-47.3 0-3-1-8.6 1-8.6"/><path stroke-linejoin="round" d="M231.4 326.7c5 4.2 13.5 7.2 18.3 2.8 2-1.8 2.5-11.5 2.5-8.5 0 31.4 4.6 62.6 6.7 94 1 14.5 7 40-5 43.5-22 6.2-15-49.4-18-75-2-15.6-4-31.5-4-47.3 0-3-1-8.6 1-8.6" stroke="#000" stroke-linecap="butt"/><path d="M234.8 327.6c-6-1-11.2-5.4-16.7-8.5"/><path stroke-linejoin="round" d="M234.8 327.6c-6-1-11.2-5.4-16.7-8.5" stroke="#000" stroke-linecap="butt"/><path d="M252.2 323c-3.7-2.8-7.4-6-11.6-7.7"/><path stroke-linejoin="round" d="M252.2 323c-3.7-2.8-7.4-6-11.6-7.7" stroke="#000" stroke-linecap="butt"/><path d="M249 329.5c-3.5-1.5-7.4-2.7-10-5.7"/><path stroke-linejoin="round" d="M249 329.5c-3.5-1.5-7.4-2.7-10-5.7" stroke="#000" stroke-linecap="butt"/><path d="M250.6 325.7c-4-2-7.7-5.3-11.7-7.5"/><path stroke-linejoin="round" d="M250.6 325.7c-4-2-7.7-5.3-11.7-7.5" stroke="#000" stroke-linecap="butt"/><path d="M245.6 331.4c-6-3-10.8-11.3-17.5-11.3"/><path stroke-linejoin="round" d="M245.6 331.4c-6-3-10.8-11.3-17.5-11.3" stroke="#000" stroke-linecap="butt"/><path d="M243.5 457c-4.3-3.8-8.5-7.8-13.3-10.6"/><path stroke-linejoin="round" d="M243.5 457c-4.3-3.8-8.5-7.8-13.3-10.6" stroke="#000" stroke-linecap="butt"/><path d="M270 360c5.4 2.5 14.6 4.4 19.8 1.7 2.2-1.2 2.7-7.2 2.7-5.4 0 19.7 5 39.2 7 58.8 1.2 10 8.2 25-5.2 28-23.7 4-15.4-31-19-47-2-10-3.4-20-3.4-29 0-2-1-5 1-5"/><path stroke-linejoin="round" d="M270 360c5.4 2.5 14.6 4.4 19.8 1.7 2.2-1.2 2.7-7.2 2.7-5.4 0 19.7 5 39.2 7 58.8 1.2 10 8.2 25-5.2 28-23.7 4-15.4-31-19-47-2-10-3.4-20-3.4-29 0-2-1-5 1-5" stroke="#000" stroke-linecap="butt"/><path d="M273.6 360.5c-6.4-.7-12-3.4-18-5.3"/><path stroke-linejoin="round" d="M273.6 360.5c-6.4-.7-12-3.4-18-5.3" stroke="#000" stroke-linecap="butt"/><path d="M292.5 357.5c-4-1.7-8-3.7-12.6-4.7"/><path stroke-linejoin="round" d="M292.5 357.5c-4-1.7-8-3.7-12.6-4.7" stroke="#000" stroke-linecap="butt"/><path d="M289 361.7c-3.8-1-8-1.7-11-3.6"/><path stroke-linejoin="round" d="M289 361.7c-3.8-1-8-1.7-11-3.6" stroke="#000" stroke-linecap="butt"/><path d="M290.7 359.3c-4.4-1.3-8.3-3.3-12.6-4.7"/><path stroke-linejoin="round" d="M290.7 359.3c-4.4-1.3-8.3-3.3-12.6-4.7" stroke="#000" stroke-linecap="butt"/><path d="M285.3 363c-6.6-2-11.6-7.3-18.8-7.3"/><path stroke-linejoin="round" d="M285.3 363c-6.6-2-11.6-7.3-18.8-7.3" stroke="#000" stroke-linecap="butt"/><path d="M283 441.4c-4.6-2.4-9-5-14.3-6.6"/><path stroke-linejoin="round" d="M283 441.4c-4.6-2.4-9-5-14.3-6.6" stroke="#000" stroke-linecap="butt"/><path d="M306.2 342.4c7.2 3 20 5 27 2 3-1.4 3.6-8.2 3.6-6 0 22 6.7 44.2 9.8 66.3 1.5 10.4 11 28.4-7.3 31-32.4 4.3-21-35-25.8-53-3-11.2-5-22.4-5-33.6 0-2-1.2-6 2.6-6"/><path stroke-linejoin="round" d="M306.2 342.4c7.2 3 20 5 27 2 3-1.4 3.6-8.2 3.6-6 0 22 6.7 44.2 9.8 66.3 1.5 10.4 11 28.4-7.3 31-32.4 4.3-21-35-25.8-53-3-11.2-5-22.4-5-33.6 0-2-1.2-6 2.6-6" stroke="#000" stroke-linecap="butt"/><path d="M311 343c-8.8-.8-16.4-3.8-24.4-6"/><path stroke-linejoin="round" d="M311 343c-8.8-.8-16.4-3.8-24.4-6" stroke="#000" stroke-linecap="butt"/><path d="M336.8 339.7c-5.5-2-11-4.3-17-5.4"/><path stroke-linejoin="round" d="M336.8 339.7c-5.5-2-11-4.3-17-5.4" stroke="#000" stroke-linecap="butt"/><path d="M332 344.4c-5.2-1.2-11-2-14.8-4"/><path stroke-linejoin="round" d="M332 344.4c-5.2-1.2-11-2-14.8-4" stroke="#000" stroke-linecap="butt"/><path d="M334.4 341.7c-6-1.5-11.3-3.8-17.2-5.4"/><path stroke-linejoin="round" d="M334.4 341.7c-6-1.5-11.3-3.8-17.2-5.4" stroke="#000" stroke-linecap="butt"/><path d="M327 345.7c-9-2.2-15.8-8-25.7-8"/><path stroke-linejoin="round" d="M327 345.7c-9-2.2-15.8-8-25.7-8" stroke="#000" stroke-linecap="butt"/><path d="M324 434.4c-6.4-2.6-12.6-5.4-19.7-7.3"/><path stroke-linejoin="round" d="M324 434.4c-6.4-2.6-12.6-5.4-19.7-7.3" stroke="#000" stroke-linecap="butt"/><path d="M319.2 349c1.6 17 1 17 3.2 34 2.4 18.6 7.6 34.8 9.8 53.5"/><path stroke-linejoin="round" d="M319.2 349c1.6 17 1 17 3.2 34 2.4 18.6 7.6 34.8 9.8 53.5" stroke="#666" stroke-linecap="butt" stroke-width="24"/><path d="M281 366c1 14 1.2 14 1.8 28 .7 15.5.3 29.4 1 44.8"/><path stroke-linejoin="round" d="M281 366c1 14 1.2 14 1.8 28 .7 15.5.3 29.4 1 44.8" stroke="#d9d9d9" stroke-linecap="butt" stroke-width="12"/><path d="M349.7 306.4c5.7 3.6 15.7 6.3 21.3 2.5 2.4-2 3-11 3-8 0 27 5.2 54 7.6 81 1.2 12 8.8 34-5.8 38-25.6 5-16.6-43-20.3-66-2.3-14-4-28-4-41 0-3-1-8 2-8"/><path stroke-linejoin="round" d="M349.7 306.4c5.7 3.6 15.7 6.3 21.3 2.5 2.4-2 3-11 3-8 0 27 5.2 54 7.6 81 1.2 12 8.8 34-5.8 38-25.6 5-16.6-43-20.3-66-2.3-14-4-28-4-41 0-3-1-8 2-8" stroke="#000" stroke-linecap="butt"/><path d="M353.5 307.2c-7-1-13-4.7-19.3-7.4"/><path stroke-linejoin="round" d="M353.5 307.2c-7-1-13-4.7-19.3-7.4" stroke="#000" stroke-linecap="butt"/><path d="M374 303c-4.5-2.3-8.7-5-13.7-6.5"/><path stroke-linejoin="round" d="M374 303c-4.5-2.3-8.7-5-13.7-6.5" stroke="#000" stroke-linecap="butt"/><path d="M370 309c-4-1.5-8.6-2.5-11.6-5"/><path stroke-linejoin="round" d="M370 309c-4-1.5-8.6-2.5-11.6-5" stroke="#000" stroke-linecap="butt"/><path d="M372 305.6c-4.8-1.8-9-4.7-13.6-6.6"/><path stroke-linejoin="round" d="M372 305.6c-4.8-1.8-9-4.7-13.6-6.6" stroke="#000" stroke-linecap="butt"/><path d="M366 310.5c-7-2.7-12.4-10-20.2-10"/><path stroke-linejoin="round" d="M366 310.5c-7-2.7-12.4-10-20.2-10" stroke="#000" stroke-linecap="butt"/><path d="M363.7 419.6c-5-3.2-10-6.7-15.5-9"/><path stroke-linejoin="round" d="M363.7 419.6c-5-3.2-10-6.7-15.5-9" stroke="#000" stroke-linecap="butt"/><path d="M366 323c-3.3 5.3 5.7 11.8 5 18-1.5 12.3-3 25 0 37"/><path stroke-linejoin="round" d="M366 323c-3.3 5.3 5.7 11.8 5 18-1.5 12.3-3 25 0 37" stroke="#000" stroke-linecap="butt"/><path d="M387 310.5c4.3 3.2 12 5.5 16.4 2.2 2-1.5 2.3-9 2.3-6.6 0 25 4 49 6 73 1 11 6.8 31-4.5 34-20 5-13-38-15.8-57-1.8-12-3-24-3-36 0-2-.8-6 1.5-6"/><path stroke-linejoin="round" d="M387 310.5c4.3 3.2 12 5.5 16.4 2.2 2-1.5 2.3-9 2.3-6.6 0 25 4 49 6 73 1 11 6.8 31-4.5 34-20 5-13-38-15.8-57-1.8-12-3-24-3-36 0-2-.8-6 1.5-6" stroke="#000" stroke-linecap="butt"/><path d="M390 311.2c-5.6-1-10.3-4.2-15.2-6.6"/><path stroke-linejoin="round" d="M390 311.2c-5.6-1-10.3-4.2-15.2-6.6" stroke="#000" stroke-linecap="butt"/><path d="M405.7 307.6c-3.4-2-6.7-4.6-10.6-6"/><path stroke-linejoin="round" d="M405.7 307.6c-3.4-2-6.7-4.6-10.6-6" stroke="#000" stroke-linecap="butt"/><path d="M402.7 312.7c-3.2-1.2-6.7-2-9-4.4"/><path stroke-linejoin="round" d="M402.7 312.7c-3.2-1.2-6.7-2-9-4.4" stroke="#000" stroke-linecap="butt"/><path d="M404.2 309.8c-3.7-1.6-7-4-10.6-6"/><path stroke-linejoin="round" d="M404.2 309.8c-3.7-1.6-7-4-10.6-6" stroke="#000" stroke-linecap="butt"/><path d="M399.6 314c-5.5-2.3-9.7-8.6-15.8-8.6"/><path stroke-linejoin="round" d="M399.6 314c-5.5-2.3-9.7-8.6-15.8-8.6" stroke="#000" stroke-linecap="butt"/><path d="M397.8 410.7c-4-2.8-7.7-6-12-8"/><path stroke-linejoin="round" d="M397.8 410.7c-4-2.8-7.7-6-12-8" stroke="#000" stroke-linecap="butt"/><path d="M415.4 311.8c4.4 2.8 12 4.8 16.5 2 1-1.4 2-8 2-6 0 21.3 4 42.2 6 63.3 1 10 7 27-5 30-20 4-13-33-16-50-2-10-3-21-3-32 0-2-1-5 1-5"/><path stroke-linejoin="round" d="M415.4 311.8c4.4 2.8 12 4.8 16.5 2 1-1.4 2-8 2-6 0 21.3 4 42.2 6 63.3 1 10 7 27-5 30-20 4-13-33-16-50-2-10-3-21-3-32 0-2-1-5 1-5" stroke="#000" stroke-linecap="butt"/><path d="M418.4 312.4c-5.5-.8-10-3.7-15-5.8"/><path stroke-linejoin="round" d="M418.4 312.4c-5.5-.8-10-3.7-15-5.8" stroke="#000" stroke-linecap="butt"/><path d="M434 309.2c-3.3-1.8-6.6-4-10.4-5"/><path stroke-linejoin="round" d="M434 309.2c-3.3-1.8-6.6-4-10.4-5" stroke="#000" stroke-linecap="butt"/><path d="M431 313.7c-3-1-6.5-1.8-9-4"/><path stroke-linejoin="round" d="M431 313.7c-3-1-6.5-1.8-9-4" stroke="#000" stroke-linecap="butt"/><path d="M432.6 311c-3.7-1.3-7-3.5-10.5-5"/><path stroke-linejoin="round" d="M432.6 311c-3.7-1.3-7-3.5-10.5-5" stroke="#000" stroke-linecap="butt"/><path d="M428 315c-5.4-2.2-9.6-7.7-15.6-7.7"/><path stroke-linejoin="round" d="M428 315c-5.4-2.2-9.6-7.7-15.6-7.7" stroke="#000" stroke-linecap="butt"/><path d="M426.2 399.4c-3.8-2.5-7.6-5.2-12-7"/><path stroke-linejoin="round" d="M426.2 399.4c-3.8-2.5-7.6-5.2-12-7" stroke="#000" stroke-linecap="butt"/><path d="M444 292c4.4 3.3 12.2 5.6 16.5 2.2 2-1.4 2.3-8.8 2.3-6.5 0 24 4 48.2 6 72.3 1 11.2 6.8 30.8-4.5 33.5-20 4.8-13-38-15.8-57.6-1.8-13-3-25-3-37 0-3-.8-7 1.5-7"/><path stroke-linejoin="round" d="M444 292c4.4 3.3 12.2 5.6 16.5 2.2 2-1.4 2.3-8.8 2.3-6.5 0 24 4 48.2 6 72.3 1 11.2 6.8 30.8-4.5 33.5-20 4.8-13-38-15.8-57.6-1.8-13-3-25-3-37 0-3-.8-7 1.5-7" stroke="#000" stroke-linecap="butt"/><path d="M447 292.8c-5.4-1-10-4.2-15-6.6"/><path stroke-linejoin="round" d="M447 292.8c-5.4-1-10-4.2-15-6.6" stroke="#000" stroke-linecap="butt"/><path d="M462.8 289c-3.4-2-6.7-4.5-10.5-5.7"/><path stroke-linejoin="round" d="M462.8 289c-3.4-2-6.7-4.5-10.5-5.7" stroke="#000" stroke-linecap="butt"/><path d="M459.8 294.3c-3-1.3-6.7-2-9-4.4"/><path stroke-linejoin="round" d="M459.8 294.3c-3-1.3-6.7-2-9-4.4" stroke="#000" stroke-linecap="butt"/><path d="M461.3 291.3c-3.7-1.6-7-4-10.5-5.8"/><path stroke-linejoin="round" d="M461.3 291.3c-3.7-1.6-7-4-10.5-5.8" stroke="#000" stroke-linecap="butt"/><path d="M456.8 295.7c-5.6-2.4-9.8-8.8-15.8-8.8"/><path stroke-linejoin="round" d="M456.8 295.7c-5.6-2.4-9.8-8.8-15.8-8.8" stroke="#000" stroke-linecap="butt"/><path d="M455 392.3c-4-2.8-7.8-6-12.2-8"/><path stroke-linejoin="round" d="M455 392.3c-4-2.8-7.8-6-12.2-8" stroke="#000" stroke-linecap="butt"/><path d="M479 323.8c4.7 2 13 3.5 17.8 1.4 2-1 2.4-5.6 2.4-4 0 15 4.4 30 6.5 45 1 7 7.3 19.4-5 21-21.3 3-13.8-23.7-17-36-1.8-7.5-3-15.2-3-22.8 0-1.4-1-4 1.5-4"/><path stroke-linejoin="round" d="M479 323.8c4.7 2 13 3.5 17.8 1.4 2-1 2.4-5.6 2.4-4 0 15 4.4 30 6.5 45 1 7 7.3 19.4-5 21-21.3 3-13.8-23.7-17-36-1.8-7.5-3-15.2-3-22.8 0-1.4-1-4 1.5-4" stroke="#000" stroke-linecap="butt"/><path d="M482.2 324.3c-6-.6-11-2.7-16.2-4"/><path stroke-linejoin="round" d="M482.2 324.3c-6-.6-11-2.7-16.2-4" stroke="#000" stroke-linecap="butt"/><path d="M499.2 322c-3.7-1.3-7.2-3-11.3-3.7"/><path stroke-linejoin="round" d="M499.2 322c-3.7-1.3-7.2-3-11.3-3.7" stroke="#000" stroke-linecap="butt"/><path d="M496 325.2c-3.4-.8-7.2-1.3-9.8-2.8"/><path stroke-linejoin="round" d="M496 325.2c-3.4-.8-7.2-1.3-9.8-2.8" stroke="#000" stroke-linecap="butt"/><path d="M497.6 323.4c-4-1-7.5-2.6-11.4-3.7"/><path stroke-linejoin="round" d="M497.6 323.4c-4-1-7.5-2.6-11.4-3.7" stroke="#000" stroke-linecap="butt"/><path d="M492.7 326c-6-1.4-10.5-5.4-17-5.4"/><path stroke-linejoin="round" d="M492.7 326c-6-1.4-10.5-5.4-17-5.4" stroke="#000" stroke-linecap="butt"/><path d="M490.7 386.5c-4.2-1.7-8.3-3.7-13-5"/><path stroke-linejoin="round" d="M490.7 386.5c-4.2-1.7-8.3-3.7-13-5" stroke="#000" stroke-linecap="butt"/><path d="M503.6 302.3c6.6 2.3 18 4 24.5 1.5 3-1 4-6.2 4-4.6 0 17 6 34 9 51 1 8 10 22-7 24-29 3.3-19-27-23-41-2-8.5-4-17-4-25.7 0-1.6-1-4.7 2-4.7"/><path stroke-linejoin="round" d="M503.6 302.3c6.6 2.3 18 4 24.5 1.5 3-1 4-6.2 4-4.6 0 17 6 34 9 51 1 8 10 22-7 24-29 3.3-19-27-23-41-2-8.5-4-17-4-25.7 0-1.6-1-4.7 2-4.7" stroke="#000" stroke-linecap="butt"/><path d="M508 302.8c-8-.6-15-3-22-4.6"/><path stroke-linejoin="round" d="M508 302.8c-8-.6-15-3-22-4.6" stroke="#000" stroke-linecap="butt"/><path d="M531.4 300.2c-5-1.5-10-3.2-15.5-4"/><path stroke-linejoin="round" d="M531.4 300.2c-5-1.5-10-3.2-15.5-4" stroke="#000" stroke-linecap="butt"/><path d="M527 303.8c-4.7-.8-10-1.4-13.4-3"/><path stroke-linejoin="round" d="M527 303.8c-4.7-.8-10-1.4-13.4-3" stroke="#000" stroke-linecap="butt"/><path d="M529.2 301.8c-5.5-1.2-10.2-3-15.6-4.2"/><path stroke-linejoin="round" d="M529.2 301.8c-5.5-1.2-10.2-3-15.6-4.2" stroke="#000" stroke-linecap="butt"/><path d="M522.5 305c-8.2-1.8-14.3-6.3-23.3-6.3"/><path stroke-linejoin="round" d="M522.5 305c-8.2-1.8-14.3-6.3-23.3-6.3" stroke="#000" stroke-linecap="butt"/><path d="M519.7 373.2c-5.7-2-11.3-4.2-17.7-5.7"/><path stroke-linejoin="round" d="M519.7 373.2c-5.7-2-11.3-4.2-17.7-5.7" stroke="#000" stroke-linecap="butt"/><path d="M432.2 331c-.4 13-1 13-.8 26.3.2 14.5 3 27.5 3 42"/><path stroke-linejoin="round" d="M432.2 331c-.4 13-1 13-.8 26.3.2 14.5 3 27.5 3 42" stroke="#666" stroke-linecap="butt" stroke-width="16"/><path d="M544.2 290c4.4 2.3 12 4 16.3 1.5 1.8-1 2.2-6.6 2.2-5 0 18 4 36 6 54 .8 8.5 6.6 23.2-4.5 25.2-19.6 3.6-12.7-28.4-15.6-43-1.7-9-3-18.3-3-27.4 0-1.7-.7-5 1.5-5"/><path stroke-linejoin="round" d="M544.2 290c4.4 2.3 12 4 16.3 1.5 1.8-1 2.2-6.6 2.2-5 0 18 4 36 6 54 .8 8.5 6.6 23.2-4.5 25.2-19.6 3.6-12.7-28.4-15.6-43-1.7-9-3-18.3-3-27.4 0-1.7-.7-5 1.5-5" stroke="#000" stroke-linecap="butt"/><path d="M547 290.4c-5.2-.7-9.8-3-14.7-5"/><path stroke-linejoin="round" d="M547 290.4c-5.2-.7-9.8-3-14.7-5" stroke="#000" stroke-linecap="butt"/><path d="M562.7 287.7c-3.4-1.6-6.6-3.5-10.4-4.4"/><path stroke-linejoin="round" d="M562.7 287.7c-3.4-1.6-6.6-3.5-10.4-4.4" stroke="#000" stroke-linecap="butt"/><path d="M559.7 291.5c-3-1-6.5-1.6-9-3.3"/><path stroke-linejoin="round" d="M559.7 291.5c-3-1-6.5-1.6-9-3.3" stroke="#000" stroke-linecap="butt"/><path d="M561.2 289.3c-3.6-1.2-6.8-3-10.4-4.4"/><path stroke-linejoin="round" d="M561.2 289.3c-3.6-1.2-6.8-3-10.4-4.4" stroke="#000" stroke-linecap="butt"/><path d="M556.8 292.6c-5.5-1.8-9.6-6.6-15.6-6.6"/><path stroke-linejoin="round" d="M556.8 292.6c-5.5-1.8-9.6-6.6-15.6-6.6" stroke="#000" stroke-linecap="butt"/><path d="M555 364.8c-4-2-7.6-4.4-12-6"/><path stroke-linejoin="round" d="M555 364.8c-4-2-7.6-4.4-12-6" stroke="#000" stroke-linecap="butt"/><path d="M556.8 300.8c-2.7 3.6 4.2 8 3.7 12-1 8-2.2 16.5 0 24.5"/><path stroke-linejoin="round" d="M556.8 300.8c-2.7 3.6 4.2 8 3.7 12-1 8-2.2 16.5 0 24.5" stroke="#000" stroke-linecap="butt"/><path d="M566.4 260.5c3.4 3 9.3 5 12.7 2 2-1.3 2-8 2-6 0 21.8 3 43.4 5 65 1 10 5 27.7-3 30.2-15 4.3-10-34-12-51.8-1-11-2-22-2-33 0-2 0-6 1-6"/><path stroke-linejoin="round" d="M566.4 260.5c3.4 3 9.3 5 12.7 2 2-1.3 2-8 2-6 0 21.8 3 43.4 5 65 1 10 5 27.7-3 30.2-15 4.3-10-34-12-51.8-1-11-2-22-2-33 0-2 0-6 1-6" stroke="#000" stroke-linecap="butt"/><path d="M568.7 261.2c-4-.8-7.7-3.8-11.5-6"/><path stroke-linejoin="round" d="M568.7 261.2c-4-.8-7.7-3.8-11.5-6" stroke="#000" stroke-linecap="butt"/><path d="M580.8 258c-2.6-2-5-4.2-8-5.3"/><path stroke-linejoin="round" d="M580.8 258c-2.6-2-5-4.2-8-5.3" stroke="#000" stroke-linecap="butt"/><path d="M578.5 262.5c-2.4-1-5-2-7-4"/><path stroke-linejoin="round" d="M578.5 262.5c-2.4-1-5-2-7-4" stroke="#000" stroke-linecap="butt"/><path d="M579.6 260c-2.8-1.6-5.2-3.8-8-5.4"/><path stroke-linejoin="round" d="M579.6 260c-2.8-1.6-5.2-3.8-8-5.4" stroke="#000" stroke-linecap="butt"/><path d="M576.2 263.8c-4.2-2-7.4-8-12-8"/><path stroke-linejoin="round" d="M576.2 263.8c-4.2-2-7.4-8-12-8" stroke="#000" stroke-linecap="butt"/><path d="M574.8 350.6c-3-2.6-6-5.3-9.2-7.2"/><path stroke-linejoin="round" d="M574.8 350.6c-3-2.6-6-5.3-9.2-7.2" stroke="#000" stroke-linecap="butt"/><path d="M588.2 269c3.4 2.4 9.3 4.2 12.6 1.6 1.4-1.2 1.7-7 1.7-5.2 0 19 3 37.8 4.6 56.8 1 8.8 6 24.2-3 26.3-15 3.8-10-29.8-12-45.2-1-9.5-2-19-2-28.7 0-1.8 0-5.2 1-5.2"/><path stroke-linejoin="round" d="M588.2 269c3.4 2.4 9.3 4.2 12.6 1.6 1.4-1.2 1.7-7 1.7-5.2 0 19 3 37.8 4.6 56.8 1 8.8 6 24.2-3 26.3-15 3.8-10-29.8-12-45.2-1-9.5-2-19-2-28.7 0-1.8 0-5.2 1-5.2" stroke="#000" stroke-linecap="butt"/><path d="M590.5 269.4c-4.2-.7-7.7-3.3-11.5-5"/><path stroke-linejoin="round" d="M590.5 269.4c-4.2-.7-7.7-3.3-11.5-5" stroke="#000" stroke-linecap="butt"/><path d="M602.5 266.6c-2.6-1.7-5-3.7-8-4.6"/><path stroke-linejoin="round" d="M602.5 266.6c-2.6-1.7-5-3.7-8-4.6" stroke="#000" stroke-linecap="butt"/><path d="M600.2 270.6c-2.4-1-5-1.7-7-3.5"/><path stroke-linejoin="round" d="M600.2 270.6c-2.4-1-5-1.7-7-3.5" stroke="#000" stroke-linecap="butt"/><path d="M601.4 268.3c-3-1.3-5.3-3.2-8-4.6"/><path stroke-linejoin="round" d="M601.4 268.3c-3-1.3-5.3-3.2-8-4.6" stroke="#000" stroke-linecap="butt"/><path d="M598 271.7c-4.3-2-7.5-7-12-7"/><path stroke-linejoin="round" d="M598 271.7c-4.3-2-7.5-7-12-7" stroke="#000" stroke-linecap="butt"/><path d="M596.5 347.6c-3-2.2-6-4.7-9.2-6.3"/><path stroke-linejoin="round" d="M596.5 347.6c-3-2.2-6-4.7-9.2-6.3" stroke="#000" stroke-linecap="butt"/><path d="M598 280.3c-2 3.8 3.2 8.3 2.8 12.6-1 8-1.7 17 0 25"/><path stroke-linejoin="round" d="M598 280.3c-2 3.8 3.2 8.3 2.8 12.6-1 8-1.7 17 0 25" stroke="#000" stroke-linecap="butt"/><path d="M610 251.2c3.5 3 9.4 5 12.7 2 1.4-1.3 1.7-8 1.7-6 0 21.8 3.2 43.3 4.6 65 .7 10 5.2 27.7-3.4 30-15.2 4.4-10-34-12-51.7-1.5-10.8-2.4-21.8-2.4-32.8 0-2-.6-6 1.2-6"/><path stroke-linejoin="round" d="M610 251.2c3.5 3 9.4 5 12.7 2 1.4-1.3 1.7-8 1.7-6 0 21.8 3.2 43.3 4.6 65 .7 10 5.2 27.7-3.4 30-15.2 4.4-10-34-12-51.7-1.5-10.8-2.4-21.8-2.4-32.8 0-2-.6-6 1.2-6" stroke="#000" stroke-linecap="butt"/><path d="M612.4 251.8c-4.2-.7-7.8-3.7-11.6-6"/><path stroke-linejoin="round" d="M612.4 251.8c-4.2-.7-7.8-3.7-11.6-6" stroke="#000" stroke-linecap="butt"/><path d="M624.4 248.6c-2.6-2-5-4.2-8-5.3"/><path stroke-linejoin="round" d="M624.4 248.6c-2.6-2-5-4.2-8-5.3" stroke="#000" stroke-linecap="butt"/><path d="M622 253.2c-2.3-1-5-2-6.8-4"/><path stroke-linejoin="round" d="M622 253.2c-2.3-1-5-2-6.8-4" stroke="#000" stroke-linecap="butt"/><path d="M623.3 250.5c-3-1.4-5.3-3.6-8-5.2"/><path stroke-linejoin="round" d="M623.3 250.5c-3-1.4-5.3-3.6-8-5.2" stroke="#000" stroke-linecap="butt"/><path d="M619.8 254.5c-4.2-2.2-7.4-8-12-8"/><path stroke-linejoin="round" d="M619.8 254.5c-4.2-2.2-7.4-8-12-8" stroke="#000" stroke-linecap="butt"/><path d="M618.4 341.2c-3-2.5-6-5.3-9.2-7.2"/><path stroke-linejoin="round" d="M618.4 341.2c-3-2.5-6-5.3-9.2-7.2" stroke="#000" stroke-linecap="butt"/><path d="M636.8 279.7c3.6 1.8 10 3 13.6 1.2 1.5-1 1.8-5 1.8-4 0 13 3.4 27 5 40 .7 6 5.6 17-3.7 19-16.5 3-10.5-21-13-32-1.5-7-2.5-14-2.5-21 0-2-.7-4 1.2-4"/><path stroke-linejoin="round" d="M636.8 279.7c3.6 1.8 10 3 13.6 1.2 1.5-1 1.8-5 1.8-4 0 13 3.4 27 5 40 .7 6 5.6 17-3.7 19-16.5 3-10.5-21-13-32-1.5-7-2.5-14-2.5-21 0-2-.7-4 1.2-4" stroke="#000" stroke-linecap="butt"/><path d="M639.2 280c-4.4-.4-8.3-2.3-12.4-3.6"/><path stroke-linejoin="round" d="M639.2 280c-4.4-.4-8.3-2.3-12.4-3.6" stroke="#000" stroke-linecap="butt"/><path d="M652.2 278c-2.8-1.2-5.5-2.6-8.6-3.3"/><path stroke-linejoin="round" d="M652.2 278c-2.8-1.2-5.5-2.6-8.6-3.3" stroke="#000" stroke-linecap="butt"/><path d="M649.8 281c-2.6-.8-5.5-1.3-7.5-2.6"/><path stroke-linejoin="round" d="M649.8 281c-2.6-.8-5.5-1.3-7.5-2.6" stroke="#000" stroke-linecap="butt"/><path d="M651 279.3c-3-1-5.7-2.3-8.7-3.3"/><path stroke-linejoin="round" d="M651 279.3c-3-1-5.7-2.3-8.7-3.3" stroke="#000" stroke-linecap="butt"/><path d="M647.3 281.7c-4.6-1.3-8-5-13-5"/><path stroke-linejoin="round" d="M647.3 281.7c-4.6-1.3-8-5-13-5" stroke="#000" stroke-linecap="butt"/><path d="M645.7 336c-3.2-1.6-6.3-3.3-10-4.5"/><path stroke-linejoin="round" d="M645.7 336c-3.2-1.6-6.3-3.3-10-4.5" stroke="#000" stroke-linecap="butt"/><path d="M661.7 259.5c5 2 13.8 3.6 18.7 1.4 2-1 2.5-6 2.5-5 0 15 4 30 6 46 1 7 7 19-5 21-23 3-15-24-18-37-2-8-4-16-4-23 0-2-1-4 1-4"/><path stroke-linejoin="round" d="M661.7 259.5c5 2 13.8 3.6 18.7 1.4 2-1 2.5-6 2.5-5 0 15 4 30 6 46 1 7 7 19-5 21-23 3-15-24-18-37-2-8-4-16-4-23 0-2-1-4 1-4" stroke="#000" stroke-linecap="butt"/><path d="M665 260c-6-.6-11.3-2.7-16.8-4.2"/><path stroke-linejoin="round" d="M665 260c-6-.6-11.3-2.7-16.8-4.2" stroke="#000" stroke-linecap="butt"/><path d="M683 257.7c-4-1.4-7.6-3-12-3.7"/><path stroke-linejoin="round" d="M683 257.7c-4-1.4-7.6-3-12-3.7" stroke="#000" stroke-linecap="butt"/><path d="M679.5 261c-3.5-.8-7.5-1.4-10-3"/><path stroke-linejoin="round" d="M679.5 261c-3.5-.8-7.5-1.4-10-3" stroke="#000" stroke-linecap="butt"/><path d="M681.2 259c-4-1-7.8-2.5-11.8-3.6"/><path stroke-linejoin="round" d="M681.2 259c-4-1-7.8-2.5-11.8-3.6" stroke="#000" stroke-linecap="butt"/><path d="M676 262c-6-1.7-10.8-5.7-17.7-5.7"/><path stroke-linejoin="round" d="M676 262c-6-1.7-10.8-5.7-17.7-5.7" stroke="#000" stroke-linecap="butt"/><path d="M674 323.2c-4.4-1.8-8.6-3.7-13.5-5"/><path stroke-linejoin="round" d="M674 323.2c-4.4-1.8-8.6-3.7-13.5-5" stroke="#000" stroke-linecap="butt"/><path d="M643.4 272.2c1 11.7.7 11.7 2.2 23.4 1.7 13 5.2 24 6.8 37"/><path stroke-linejoin="round" d="M643.4 272.2c1 11.7.7 11.7 2.2 23.4 1.7 13 5.2 24 6.8 37" stroke="#666" stroke-linecap="butt" stroke-width="12"/><path d="M696.2 230.8c3.8 2.8 10.2 4.8 14 2 1.4-1.3 1.8-7.7 1.8-5.8 0 21 3.4 41.6 5 62.4.8 9.7 5.7 26.6-3.8 29-16.6 4-10.8-32.8-13.2-49.8-1.5-10.4-2.5-21-2.5-31.5 0-1-.7-5 1.3-5"/><path stroke-linejoin="round" d="M696.2 230.8c3.8 2.8 10.2 4.8 14 2 1.4-1.3 1.8-7.7 1.8-5.8 0 21 3.4 41.6 5 62.4.8 9.7 5.7 26.6-3.8 29-16.6 4-10.8-32.8-13.2-49.8-1.5-10.4-2.5-21-2.5-31.5 0-1-.7-5 1.3-5" stroke="#000" stroke-linecap="butt"/><path d="M698.8 231.4c-4.6-.7-8.5-3.6-12.6-5.6"/><path stroke-linejoin="round" d="M698.8 231.4c-4.6-.7-8.5-3.6-12.6-5.6" stroke="#000" stroke-linecap="butt"/><path d="M712 228.3c-3-1.8-5.6-4-8.8-5"/><path stroke-linejoin="round" d="M712 228.3c-3-1.8-5.6-4-8.8-5" stroke="#000" stroke-linecap="butt"/><path d="M709.5 232.7c-2.7-1-5.6-1.8-7.6-3.8"/><path stroke-linejoin="round" d="M709.5 232.7c-2.7-1-5.6-1.8-7.6-3.8" stroke="#000" stroke-linecap="butt"/><path d="M710.7 230.2c-3-1.4-5.8-3.5-8.8-5"/><path stroke-linejoin="round" d="M710.7 230.2c-3-1.4-5.8-3.5-8.8-5" stroke="#000" stroke-linecap="butt"/><path d="M707 234c-4.7-2-8.2-7.6-13.3-7.6"/><path stroke-linejoin="round" d="M707 234c-4.7-2-8.2-7.6-13.3-7.6" stroke="#000" stroke-linecap="butt"/><path d="M705.4 317.3c-3.3-2.5-6.5-5-10-7"/><path stroke-linejoin="round" d="M705.4 317.3c-3.3-2.5-6.5-5-10-7" stroke="#000" stroke-linecap="butt"/><path d="M707 243.4c-2.3 4.2 3.6 9 3 14-1 9.3-1.8 19 0 28.2"/><path stroke-linejoin="round" d="M707 243.4c-2.3 4.2 3.6 9 3 14-1 9.3-1.8 19 0 28.2" stroke="#000" stroke-linecap="butt"/><path d="M720.4 234c3 2.4 8 4.2 10.8 1.6 1.2-1 1.4-6.7 1.4-5 0 18.5 2.7 36.8 4 55.2.5 8.6 4.3 23.6-3 25.7-13 3.6-8.4-29-10.3-44-1-9.3-2-18.6-2-28 0-1.7-.4-5 1-5"/><path stroke-linejoin="round" d="M720.4 234c3 2.4 8 4.2 10.8 1.6 1.2-1 1.4-6.7 1.4-5 0 18.5 2.7 36.8 4 55.2.5 8.6 4.3 23.6-3 25.7-13 3.6-8.4-29-10.3-44-1-9.3-2-18.6-2-28 0-1.7-.4-5 1-5" stroke="#000" stroke-linecap="butt"/><path d="M722.4 234.5c-3.6-.7-6.6-3.2-9.8-5"/><path stroke-linejoin="round" d="M722.4 234.5c-3.6-.7-6.6-3.2-9.8-5" stroke="#000" stroke-linecap="butt"/><path d="M732.6 231.7c-2.2-1.6-4.3-3.5-6.8-4.4"/><path stroke-linejoin="round" d="M732.6 231.7c-2.2-1.6-4.3-3.5-6.8-4.4" stroke="#000" stroke-linecap="butt"/><path d="M730.7 235.6c-2-1-4.3-1.6-6-3.3"/><path stroke-linejoin="round" d="M730.7 235.6c-2-1-4.3-1.6-6-3.3" stroke="#000" stroke-linecap="butt"/><path d="M731.7 233.4c-2.4-1.2-4.5-3-7-4.5"/><path stroke-linejoin="round" d="M731.7 233.4c-2.4-1.2-4.5-3-7-4.5" stroke="#000" stroke-linecap="butt"/><path d="M728.7 236.7c-3.6-1.8-6.3-6.7-10.3-6.7"/><path stroke-linejoin="round" d="M728.7 236.7c-3.6-1.8-6.3-6.7-10.3-6.7" stroke="#000" stroke-linecap="butt"/><path d="M727.5 310.5c-2.5-2-5-4.5-7.8-6"/><path stroke-linejoin="round" d="M727.5 310.5c-2.5-2-5-4.5-7.8-6" stroke="#000" stroke-linecap="butt"/><path d="M739 233c2.8 2.2 7.8 3.7 10.6 1.5 1.2-1 1.5-6 1.5-4.4 0 17 3 33 4 49 1 8 5 21-3 23-12 3-8-25-10-38-1-8-2-16-2-24 0-1 0-4 1-4"/><path stroke-linejoin="round" d="M739 233c2.8 2.2 7.8 3.7 10.6 1.5 1.2-1 1.5-6 1.5-4.4 0 17 3 33 4 49 1 8 5 21-3 23-12 3-8-25-10-38-1-8-2-16-2-24 0-1 0-4 1-4" stroke="#000" stroke-linecap="butt"/><path d="M741 233.5c-3.7-.6-6.7-2.8-10-4.4"/><path stroke-linejoin="round" d="M741 233.5c-3.7-.6-6.7-2.8-10-4.4" stroke="#000" stroke-linecap="butt"/><path d="M751 231c-2-1.3-4.2-3-6.7-3.8"/><path stroke-linejoin="round" d="M751 231c-2-1.3-4.2-3-6.7-3.8" stroke="#000" stroke-linecap="butt"/><path d="M749 234.5c-2-.8-4.2-1.4-5.7-3"/><path stroke-linejoin="round" d="M749 234.5c-2-.8-4.2-1.4-5.7-3" stroke="#000" stroke-linecap="butt"/><path d="M750 232.6c-2.3-1-4.4-2.8-6.7-4"/><path stroke-linejoin="round" d="M750 232.6c-2.3-1-4.4-2.8-6.7-4" stroke="#000" stroke-linecap="butt"/><path d="M747.2 235.5c-3.6-1.6-6.3-6-10.2-6"/><path stroke-linejoin="round" d="M747.2 235.5c-3.6-1.6-6.3-6-10.2-6" stroke="#000" stroke-linecap="butt"/><path d="M746 300c-2.5-2-5-4-7.8-5.4"/><path stroke-linejoin="round" d="M746 300c-2.5-2-5-4-7.8-5.4" stroke="#000" stroke-linecap="butt"/><path d="M747.2 242.8c-1.7 3.2 2.8 7 2.4 10.7-.7 7.3-1.4 14.8 0 22"/><path stroke-linejoin="round" d="M747.2 242.8c-1.7 3.2 2.8 7 2.4 10.7-.7 7.3-1.4 14.8 0 22" stroke="#000" stroke-linecap="butt"/><path d="M757.5 218c3 2.5 8 4.3 10.8 1.7 1.2-1 1.4-6.8 1.4-5 0 18.4 2.7 36.8 4 55.2.5 8 4.4 23-3 25-13 3-8.4-29-10.3-44-1-10-2-19-2-28 0-2-.4-5 1-5"/><path stroke-linejoin="round" d="M757.5 218c3 2.5 8 4.3 10.8 1.7 1.2-1 1.4-6.8 1.4-5 0 18.4 2.7 36.8 4 55.2.5 8 4.4 23-3 25-13 3-8.4-29-10.3-44-1-10-2-19-2-28 0-2-.4-5 1-5" stroke="#000" stroke-linecap="butt"/><path d="M759.5 218.6c-3.6-.7-6.6-3.2-9.8-5"/><path stroke-linejoin="round" d="M759.5 218.6c-3.6-.7-6.6-3.2-9.8-5" stroke="#000" stroke-linecap="butt"/><path d="M769.7 215.8c-2.2-1.6-4.3-3.5-6.8-4.5"/><path stroke-linejoin="round" d="M769.7 215.8c-2.2-1.6-4.3-3.5-6.8-4.5" stroke="#000" stroke-linecap="butt"/><path d="M767.8 219.7c-2-1-4.3-1.6-6-3.4"/><path stroke-linejoin="round" d="M767.8 219.7c-2-1-4.3-1.6-6-3.4" stroke="#000" stroke-linecap="butt"/><path d="M768.8 217.4c-2.4-1.2-4.5-3-7-4.4"/><path stroke-linejoin="round" d="M768.8 217.4c-2.4-1.2-4.5-3-7-4.4" stroke="#000" stroke-linecap="butt"/><path d="M765.8 220.8c-3.6-1.8-6.3-6.7-10.2-6.7"/><path stroke-linejoin="round" d="M765.8 220.8c-3.6-1.8-6.3-6.7-10.2-6.7" stroke="#000" stroke-linecap="butt"/><path d="M764.6 294.6c-2.5-2.2-5-4.5-7.8-6.2"/><path stroke-linejoin="round" d="M764.6 294.6c-2.5-2.2-5-4.5-7.8-6.2" stroke="#000" stroke-linecap="butt"/><path d="M788 233.8c2.4 2.5 7.2 5.3 10.6 4.8 1.4-.2 3-3.4 2.5-2.4-3 11-5 22.7-7 34-1 5.2 0 15.4-8 14-14-2.5-2-20-1-29.7 1-5.8 2-11.6 4-17 1-1 1-3.3 2-2.7"/><path stroke-linejoin="round" d="M788 233.8c2.4 2.5 7.2 5.3 10.6 4.8 1.4-.2 3-3.4 2.5-2.4-3 11-5 22.7-7 34-1 5.2 0 15.4-8 14-14-2.5-2-20-1-29.7 1-5.8 2-11.6 4-17 1-1 1-3.3 2-2.7" stroke="#000" stroke-linecap="butt"/><path d="M790 234.8c-3.5-1.7-6-4.3-9-6.5"/><path stroke-linejoin="round" d="M790 234.8c-3.5-1.7-6-4.3-9-6.5" stroke="#000" stroke-linecap="butt"/><path d="M801 237c-2-2-3.8-3.8-6-5.2"/><path stroke-linejoin="round" d="M801 237c-2-2-3.8-3.8-6-5.2" stroke="#000" stroke-linecap="butt"/><path d="M798 238.5c-1.8-1.3-4-2.5-5.2-4"/><path stroke-linejoin="round" d="M798 238.5c-1.8-1.3-4-2.5-5.2-4" stroke="#000" stroke-linecap="butt"/><path d="M799.5 237.5c-2-1.6-4-3.5-6-5"/><path stroke-linejoin="round" d="M799.5 237.5c-2-1.6-4-3.5-6-5" stroke="#000" stroke-linecap="butt"/><path d="M796 238.4c-3.4-2.4-5-6.2-9-7.7"/><path stroke-linejoin="round" d="M796 238.4c-3.4-2.4-5-6.2-9-7.7" stroke="#000" stroke-linecap="butt"/><path d="M779 281.4c-2-2.2-4-4.4-6.6-6.4"/><path stroke-linejoin="round" d="M779 281.4c-2-2.2-4-4.4-6.6-6.4" stroke="#000" stroke-linecap="butt"/><path d="M809.5 224c4.2 1.7 11.7 3 15.8 1 1.8-.7 2.2-4.7 2.2-3.4 0 13 4 26 5.8 39 .8 6 6.5 16.7-4.4 18.2-19 2.6-13-20.6-16-31.2-2-6.5-3-13-3-19.7 0-2-1-4 1-4"/><path stroke-linejoin="round" d="M809.5 224c4.2 1.7 11.7 3 15.8 1 1.8-.7 2.2-4.7 2.2-3.4 0 13 4 26 5.8 39 .8 6 6.5 16.7-4.4 18.2-19 2.6-13-20.6-16-31.2-2-6.5-3-13-3-19.7 0-2-1-4 1-4" stroke="#000" stroke-linecap="butt"/><path d="M812.4 224.3c-5.2-.5-9.7-2.2-14.5-3.5"/><path stroke-linejoin="round" d="M812.4 224.3c-5.2-.5-9.7-2.2-14.5-3.5" stroke="#000" stroke-linecap="butt"/><path d="M827.5 222.3c-3.3-1-6.4-2.4-10-3"/><path stroke-linejoin="round" d="M827.5 222.3c-3.3-1-6.4-2.4-10-3" stroke="#000" stroke-linecap="butt"/><path d="M824.6 225c-3-.5-6.4-1-8.6-2.3"/><path stroke-linejoin="round" d="M824.6 225c-3-.5-6.4-1-8.6-2.3" stroke="#000" stroke-linecap="butt"/><path d="M826 223.5c-3.5-.8-6.6-2.2-10-3"/><path stroke-linejoin="round" d="M826 223.5c-3.5-.8-6.6-2.2-10-3" stroke="#000" stroke-linecap="butt"/><path d="M821.7 226c-5.3-1.4-9.3-4.8-15-4.8"/><path stroke-linejoin="round" d="M821.7 226c-5.3-1.4-9.3-4.8-15-4.8" stroke="#000" stroke-linecap="butt"/><path d="M820 278c-3.8-1.4-7.4-3-11.6-4.2"/><path stroke-linejoin="round" d="M820 278c-3.8-1.4-7.4-3-11.6-4.2" stroke="#000" stroke-linecap="butt"/><path d="M838 204.4c3 2.2 8 3.8 11 1.5 1.2-1 1.5-7 1.5-5 0 16 2.7 32 4 49 .6 7 4.4 21-3 23-13 3-8.5-26-10.4-40-1-8-2-17-2-25 0-2 0-5 1-5"/><path stroke-linejoin="round" d="M838 204.4c3 2.2 8 3.8 11 1.5 1.2-1 1.5-7 1.5-5 0 16 2.7 32 4 49 .6 7 4.4 21-3 23-13 3-8.5-26-10.4-40-1-8-2-17-2-25 0-2 0-5 1-5" stroke="#000" stroke-linecap="butt"/><path d="M840 205c-3.5-.7-6.6-3-9.8-4.6"/><path stroke-linejoin="round" d="M840 205c-3.5-.7-6.6-3-9.8-4.6" stroke="#000" stroke-linecap="butt"/><path d="M850.5 202.4c-2.2-1.4-4.4-3-7-4"/><path stroke-linejoin="round" d="M850.5 202.4c-2.2-1.4-4.4-3-7-4" stroke="#000" stroke-linecap="butt"/><path d="M848.5 206c-2-1-4.4-1.5-6-3"/><path stroke-linejoin="round" d="M848.5 206c-2-1-4.4-1.5-6-3" stroke="#000" stroke-linecap="butt"/><path d="M849.5 204c-2.4-1.2-4.5-3-7-4"/><path stroke-linejoin="round" d="M849.5 204c-2.4-1.2-4.5-3-7-4" stroke="#000" stroke-linecap="butt"/><path d="M846.5 207c-3.6-1.8-6.4-6-10.4-6"/><path stroke-linejoin="round" d="M846.5 207c-3.6-1.8-6.4-6-10.4-6" stroke="#000" stroke-linecap="butt"/><path d="M845.3 272.5c-2.6-2-5-4-8-5.5"/><path stroke-linejoin="round" d="M845.3 272.5c-2.6-2-5-4-8-5.5" stroke="#000" stroke-linecap="butt"/><path d="M846.5 214.3c-1.7 3.3 3 7.2 2.5 11-.7 7.3-1.4 15 0 22.2"/><path stroke-linejoin="round" d="M846.5 214.3c-1.7 3.3 3 7.2 2.5 11-.7 7.3-1.4 15 0 22.2" stroke="#000" stroke-linecap="butt"/><path d="M857 206.8c2.4 2 6.4 3.4 8.6 1.4 1-1 1.2-5.4 1.2-4 0 14.5 2 29 3 43.5.5 6.8 3.5 18.6-2.3 20.2-10 2-6.6-23-8-35-1-8-1.6-15-1.6-22 0-2-1-4 0-4"/><path stroke-linejoin="round" d="M857 206.8c2.4 2 6.4 3.4 8.6 1.4 1-1 1.2-5.4 1.2-4 0 14.5 2 29 3 43.5.5 6.8 3.5 18.6-2.3 20.2-10 2-6.6-23-8-35-1-8-1.6-15-1.6-22 0-2-1-4 0-4" stroke="#000" stroke-linecap="butt"/><path d="M858.7 207.3c-2.8-.5-5.2-2.5-7.7-4"/><path stroke-linejoin="round" d="M858.7 207.3c-2.8-.5-5.2-2.5-7.7-4" stroke="#000" stroke-linecap="butt"/><path d="M866.8 205c-1.8-1.2-3.5-2.7-5.4-3.4"/><path stroke-linejoin="round" d="M866.8 205c-1.8-1.2-3.5-2.7-5.4-3.4" stroke="#000" stroke-linecap="butt"/><path d="M865.2 208.2c-1.6-.8-3.4-1.3-4.6-2.7"/><path stroke-linejoin="round" d="M865.2 208.2c-1.6-.8-3.4-1.3-4.6-2.7" stroke="#000" stroke-linecap="butt"/><path d="M866 206.4c-2-1-3.5-2.5-5.4-3.5"/><path stroke-linejoin="round" d="M866 206.4c-2-1-3.5-2.5-5.4-3.5" stroke="#000" stroke-linecap="butt"/><path d="M863.7 209c-2.8-1.4-5-5.2-8-5.2"/><path stroke-linejoin="round" d="M863.7 209c-2.8-1.4-5-5.2-8-5.2" stroke="#000" stroke-linecap="butt"/><path d="M862.7 267.2c-2-1.7-4-3.6-6-5"/><path stroke-linejoin="round" d="M862.7 267.2c-2-1.7-4-3.6-6-5" stroke="#000" stroke-linecap="butt"/><path d="M879.7 204.4c2.3 1.7 6.2 3 8.5 1.2 1-.8 1-4.7 1-3.5 0 13 2.2 26 3.2 38 .4 6 3.5 17-2.3 18-10 3-6-20-8-30-1-6-1-13-1-19 0-1 0-3 1-3"/><path stroke-linejoin="round" d="M879.7 204.4c2.3 1.7 6.2 3 8.5 1.2 1-.8 1-4.7 1-3.5 0 13 2.2 26 3.2 38 .4 6 3.5 17-2.3 18-10 3-6-20-8-30-1-6-1-13-1-19 0-1 0-3 1-3" stroke="#000" stroke-linecap="butt"/><path d="M881.3 204.8c-2.8-.5-5.2-2.2-7.7-3.5"/><path stroke-linejoin="round" d="M881.3 204.8c-2.8-.5-5.2-2.2-7.7-3.5" stroke="#000" stroke-linecap="butt"/><path d="M889.3 203c-1.7-1.2-3.4-2.5-5.4-3.2"/><path stroke-linejoin="round" d="M889.3 203c-1.7-1.2-3.4-2.5-5.4-3.2" stroke="#000" stroke-linecap="butt"/><path d="M887.8 205.6c-1.6-.7-3.4-1-4.6-2.3"/><path stroke-linejoin="round" d="M887.8 205.6c-1.6-.7-3.4-1-4.6-2.3" stroke="#000" stroke-linecap="butt"/><path d="M888.5 204c-1.8-.8-3.5-2-5.3-3"/><path stroke-linejoin="round" d="M888.5 204c-1.8-.8-3.5-2-5.3-3" stroke="#000" stroke-linecap="butt"/><path d="M886.3 206.3c-3-1.2-5-4.6-8-4.6"/><path stroke-linejoin="round" d="M886.3 206.3c-3-1.2-5-4.6-8-4.6" stroke="#000" stroke-linecap="butt"/><path d="M885.3 257.2c-2-1.5-4-3.2-6.2-4.3"/><path stroke-linejoin="round" d="M885.3 257.2c-2-1.5-4-3.2-6.2-4.3" stroke="#000" stroke-linecap="butt"/><path d="M886.3 212c-1.4 2.6 2.2 5.7 2 8.5-.7 5.8-1.3 11.7 0 17.3"/><path stroke-linejoin="round" d="M886.3 212c-1.4 2.6 2.2 5.7 2 8.5-.7 5.8-1.3 11.7 0 17.3" stroke="#000" stroke-linecap="butt"/><path d="M894.4 184.6c2.3 2 6.2 3.3 8.4 1.3 1-1 1.2-6 1.2-4 0 14 2 29 3 43 .5 7 3.6 18-2.2 20-10.2 3-6.6-23-8-35-1-8-1.7-15-1.7-22 0-2 0-4 1-4"/><path stroke-linejoin="round" d="M894.4 184.6c2.3 2 6.2 3.3 8.4 1.3 1-1 1.2-6 1.2-4 0 14 2 29 3 43 .5 7 3.6 18-2.2 20-10.2 3-6.6-23-8-35-1-8-1.7-15-1.7-22 0-2 0-4 1-4" stroke="#000" stroke-linecap="butt"/><path d="M896 185c-3-.5-5.3-2.5-7.8-4"/><path stroke-linejoin="round" d="M896 185c-3-.5-5.3-2.5-7.8-4" stroke="#000" stroke-linecap="butt"/><path d="M904 182.8c-1.7-1.2-3.4-2.7-5.4-3.5"/><path stroke-linejoin="round" d="M904 182.8c-1.7-1.2-3.4-2.7-5.4-3.5" stroke="#000" stroke-linecap="butt"/><path d="M902.5 186c-1.6-.8-3.4-1.4-4.7-2.7"/><path stroke-linejoin="round" d="M902.5 186c-1.6-.8-3.4-1.4-4.7-2.7" stroke="#000" stroke-linecap="butt"/><path d="M903.2 184c-2-.8-3.5-2.3-5.4-3.4"/><path stroke-linejoin="round" d="M903.2 184c-2-.8-3.5-2.3-5.4-3.4" stroke="#000" stroke-linecap="butt"/><path d="M901 186.8c-3-1.5-5-5.3-8.2-5.3"/><path stroke-linejoin="round" d="M901 186.8c-3-1.5-5-5.3-8.2-5.3" stroke="#000" stroke-linecap="butt"/><path d="M900 245c-2-1.8-4-3.7-6.2-5"/><path stroke-linejoin="round" d="M900 245c-2-1.8-4-3.7-6.2-5" stroke="#000" stroke-linecap="butt"/><path d="M912.3 195.7c2.4 1.2 6.7 2 9 .8 1-.5 1.3-3.3 1.3-2.5 0 9 2.3 18.2 3.4 27.2.4 4.3 3.7 11.7-2.5 12.7-11 1-7-15-8.7-22-1-5-1.7-9-1.7-14 0-1 0-3 1-3"/><path stroke-linejoin="round" d="M912.3 195.7c2.4 1.2 6.7 2 9 .8 1-.5 1.3-3.3 1.3-2.5 0 9 2.3 18.2 3.4 27.2.4 4.3 3.7 11.7-2.5 12.7-11 1-7-15-8.7-22-1-5-1.7-9-1.7-14 0-1 0-3 1-3" stroke="#000" stroke-linecap="butt"/><path d="M914 196c-3-.4-5.7-1.6-8.4-2.5"/><path stroke-linejoin="round" d="M914 196c-3-.4-5.7-1.6-8.4-2.5" stroke="#000" stroke-linecap="butt"/><path d="M922.6 194.6c-2-.8-3.7-1.7-5.8-2.2"/><path stroke-linejoin="round" d="M922.6 194.6c-2-.8-3.7-1.7-5.8-2.2" stroke="#000" stroke-linecap="butt"/><path d="M921 196.5c-1.8-.4-3.7-.8-5-1.6"/><path stroke-linejoin="round" d="M921 196.5c-1.8-.4-3.7-.8-5-1.6" stroke="#000" stroke-linecap="butt"/><path d="M921.8 195.4c-2-.6-3.8-1.5-5.8-2.2"/><path stroke-linejoin="round" d="M921.8 195.4c-2-.6-3.8-1.5-5.8-2.2" stroke="#000" stroke-linecap="butt"/><path d="M919.3 197c-3-.8-5.4-3.2-8.7-3.2"/><path stroke-linejoin="round" d="M919.3 197c-3-.8-5.4-3.2-8.7-3.2" stroke="#000" stroke-linecap="butt"/><path d="M918.3 233.4c-2.2-1-4.3-2.2-6.7-3"/><path stroke-linejoin="round" d="M918.3 233.4c-2.2-1-4.3-2.2-6.7-3" stroke="#000" stroke-linecap="butt"/><path d="M929 187.6c3.4 1.3 9.2 2.3 12.5 1 1.4-.7 1.7-4 1.7-3 0 10.4 3 20.6 4.6 31 .6 4.7 5 13-3.5 14.2-15 2-9.7-16.2-12-24.6-1.2-5-2.2-10.3-2.2-15.5 0-1 0-2.8 2-2.8"/><path stroke-linejoin="round" d="M929 187.6c3.4 1.3 9.2 2.3 12.5 1 1.4-.7 1.7-4 1.7-3 0 10.4 3 20.6 4.6 31 .6 4.7 5 13-3.5 14.2-15 2-9.7-16.2-12-24.6-1.2-5-2.2-10.3-2.2-15.5 0-1 0-2.8 2-2.8" stroke="#000" stroke-linecap="butt"/><path d="M931.3 188c-4-.5-7.7-2-11.4-3"/><path stroke-linejoin="round" d="M931.3 188c-4-.5-7.7-2-11.4-3" stroke="#000" stroke-linecap="butt"/><path d="M943.2 186.3c-2.6-1-5-2-8-2.5"/><path stroke-linejoin="round" d="M943.2 186.3c-2.6-1-5-2-8-2.5" stroke="#000" stroke-linecap="butt"/><path d="M941 188.5c-2.4-.5-5-1-7-2"/><path stroke-linejoin="round" d="M941 188.5c-2.4-.5-5-1-7-2" stroke="#000" stroke-linecap="butt"/><path d="M942 187.3c-2.7-.7-5-1.8-8-2.5"/><path stroke-linejoin="round" d="M942 187.3c-2.7-.7-5-1.8-8-2.5" stroke="#000" stroke-linecap="butt"/><path d="M938.7 189c-4.2-1-7.4-3.6-12-3.6"/><path stroke-linejoin="round" d="M938.7 189c-4.2-1-7.4-3.6-12-3.6" stroke="#000" stroke-linecap="butt"/><path d="M937.3 230.3c-3-1.3-5.8-2.6-9-3.5"/><path stroke-linejoin="round" d="M937.3 230.3c-3-1.3-5.8-2.6-9-3.5" stroke="#000" stroke-linecap="butt"/><path d="M239.7 477.8c70.5-34.2 143.8-52.7 216.6-69.5 38-8.7 74-32 112-40.8 66.7-15.4 132.7-38.5 198-65 16.6-6.7 34.6 1.8 51.3-4.5 30.6-11.4 59.8-30.7 89.6-46.8 24.3-13 51.8-10.2 74.7-28.7"/><path stroke-linejoin="round" d="M239.7 477.8c70.5-34.2 143.8-52.7 216.6-69.5 38-8.7 74-32 112-40.8 66.7-15.4 132.7-38.5 198-65 16.6-6.7 34.6 1.8 51.3-4.5 30.6-11.4 59.8-30.7 89.6-46.8 24.3-13 51.8-10.2 74.7-28.7" stroke="#000" stroke-linecap="butt"/><path d="M1134.6 492c-33.6-22-75.6-25.2-111.6-42.6-23.6-11.4-39.7-37.4-51.3-62-6.6-14-14.6-32-8-46 3.6-7.8 16.7-14 23-8.6 12 10.2 9.5 33.8 22.2 42.8 7 5 17 2.4 24 7.5 11 9 20 23 34 25 23 3 53-1 67-21 12-17 3-49-11-64-10-10-26-7-40-9-9-1-13-14-21-15-27-3-84 7-78-20 4-17 32-13 49-16 27-3 55-12 81-5 19 6 36 20 54 29 5 3 11 12 16 8 14-12-23-33-40-38-29-9-61-5-91-2-6 1-13 2-17-2-4-3-3-12 1-15 10-8 25-5 38-6 32-3 66-3 95 10 15.6 6 26 27.7 42.4 27.7 9.4 0-11-16-15-24.5-.6-1 3 1 16 4 14 2.5 21 20 32 29.7 29.7 25.5 38 70 54.7 106"/><path stroke-linejoin="round" d="M1134.6 492c-33.6-22-75.6-25.2-111.6-42.6-23.6-11.4-39.7-37.4-51.3-62-6.6-14-14.6-32-8-46 3.6-7.8 16.7-14 23-8.6 12 10.2 9.5 33.8 22.2 42.8 7 5 17 2.4 24 7.5 11 9 20 23 34 25 23 3 53-1 67-21 12-17 3-49-11-64-10-10-26-7-40-9-9-1-13-14-21-15-27-3-84 7-78-20 4-17 32-13 49-16 27-3 55-12 81-5 19 6 36 20 54 29 5 3 11 12 16 8 14-12-23-33-40-38-29-9-61-5-91-2-6 1-13 2-17-2-4-3-3-12 1-15 10-8 25-5 38-6 32-3 66-3 95 10 15.6 6 26 27.7 42.4 27.7 9.4 0-11-16-15-24.5-.6-1 3 1 16 4 14 2.5 21 20 32 29.7 29.7 25.5 38 70 54.7 106" stroke="#000" stroke-linecap="butt"/><path d="M973.5 338.6c-9.7.5-11.2 29-1.5 29 9.2 0 6.8-20.7.7-27.7"/><path stroke-linejoin="round" d="M973.5 338.6c-9.7.5-11.2 29-1.5 29 9.2 0 6.8-20.7.7-27.7" stroke="#e60000" stroke-linecap="butt" stroke-width="8"/><path d="M1020.8 267c-9-2.4-27-3-27 6.4 0 8.6 17-2.4 25.5-4.5"/><path stroke-linejoin="round" d="M1020.8 267c-9-2.4-27-3-27 6.4 0 8.6 17-2.4 25.5-4.5" stroke="#e60000" stroke-linecap="butt" stroke-width="4"/><path d="M1064.2 233.7c-7.2-1.8-21.7-2.2-21.7 5.2 0 6 13.8-2 20.5-4"/><path stroke-linejoin="round" d="M1064.2 233.7c-7.2-1.8-21.7-2.2-21.7 5.2 0 6 13.8-2 20.5-4" stroke="#e60000" stroke-linecap="butt" stroke-width="4"/></g></svg>