<svg xmlns="http://www.w3.org/2000/svg" viewBox="0 0 1333.3 533.3" fill="none" stroke-linecap="square" stroke-miterlimit="10"><clipPath id="a"><path d="M0 0h1333.3v533.3H0V0z"/></clipPath><g clip-path="url(#a)"><path d="M0 0h1333.3v533.3H0zm20.3 21.4"/><path d="M20.3 21.4c26.5 3.8 53.6-2.7 80.3-1 36 2.2 71 11 107 12.8 70 3 139.8-9.2 209.7-11.8 96-3.5 192 2.4 288 5.4 74 2.2 148.3-1 222.5 1 86.3 2.4 172.8-4.3 259 1 31.6 2 63.5-.3 95.2-3 9-1 23.4-11.7 26.7-3.3 4.2 10.5-10.3 20.3-14 31-7 21.6-7.8 44.8-10.6 67.4-1 12 5 24 6 37 3 44 7 87 9 131 1 20 4 41 4 62s-6 42-2 63c4 20 5 41 9 61 2 10 9 26 0 32-15.2 11-38-4-56.3-10-25-8-52-11-78.2-11-69 0-137.3 11-206.2 17-25.4 2-51.2-2-77 0-77.5 4-155.5 7-233 2-52.7-3-105.6-14-158.3-10-42.6 3-84.7 12-127.3 14-75.6 3-151-9-227-9-30 0-60-2-90 1-8.5 1-17 8-25.4 6.2-6-1.3.6-12 1-18.3 1.8-13-2-26.4-1-39.5 3.5-35.8-5-71.5-5-107 0-25-3-50-3-75 0-30.6 10-60.8 7.5-91-4-53-7.3-106.4-7.3-159.6"/><path stroke="#888" stroke-width="4" stroke-linejoin="round" stroke-linecap="butt" d="M20.3 21.4c26.5 3.8 53.6-2.7 80.3-1 36 2.2 71 11 107 12.8 70 3 139.8-9.2 209.7-11.8 96-3.5 192 2.4 288 5.4 74 2.2 148.3-1 222.5 1 86.3 2.4 172.8-4.3 259 1 31.6 2 63.5-.3 95.2-3 9-1 23.4-11.7 26.7-3.3 4.2 10.5-10.3 20.3-14 31-7 21.6-7.8 44.8-10.6 67.4-1 12 5 24 6 37 3 44 7 87 9 131 1 20 4 41 4 62s-6 42-2 63c4 20 5 41 9 61 2 10 9 26 0 32-15.2 11-38-4-56.3-10-25-8-52-11-78.2-11-69 0-137.3 11-206.2 17-25.4 2-51.2-2-77 0-77.5 4-155.5 7-233 2-52.7-3-105.6-14-158.3-10-42.6 3-84.7 12-127.3 14-75.6 3-151-9-227-9-30 0-60-2-90 1-8.5 1-17 8-25.4 6.2-6-1.3.6-12 1-18.3 1.8-13-2-26.4-1-39.5 3.5-35.8-5-71.5-5-107 0-25-3-50-3-75 0-30.6 10-60.8 7.5-91-4-53-7.3-106.4-7.3-159.6"/><path d="M616.4 173c-15.4-11.2-28.6-25.2-43-37.7-3.7-3.3-7-10-12-9.3-11.4 1.4 3.8 1.6-13.3 10.7-17 9.4-34 19.7-52 29.5-50 28.2-103 50.6-158 69.6-41 14.5-81 37.2-124 41.6-13 1.3-26 4-39 5.3-6 .8-21-2-18 4 3 8.5 13 12.7 19 18.8 13 12.4 25 26 38 39 54 54 104 112 158 166"/><path stroke="#000" stroke-linejoin="round" stroke-linecap="butt" d="M616.4 173c-15.4-11.2-28.6-25.2-43-37.7-3.7-3.3-7-10-12-9.3-11.4 1.4 3.8 1.6-13.3 10.7-17 9.4-34 19.7-52 29.5-50 28.2-103 50.6-158 69.6-41 14.5-81 37.2-124 41.6-13 1.3-26 4-39 5.3-6 .8-21-2-18 4 3 8.5 13 12.7 19 18.8 13 12.4 25 26 38 39 54 54 104 112 158 166"/><path d="M244 325.6c32.3-24.3 68-46.5 107-57.6 15.3-4.4 32.8-1 47-8 24-12 46-28.4 71-39 29.8-12.5 66.4-18 87-42.8"/><path stroke="#000" stroke-width="3" stroke-linejoin="round" stroke-linecap="butt" d="M244 325.6c32.3-24.3 68-46.5 107-57.6 15.3-4.4 32.8-1 47-8 24-12 46-28.4 71-39 29.8-12.5 66.4-18 87-42.8"/><path d="M297.5 355c21.6-27.6 61-35.3 93.8-48 28.8-11.4 55-28.5 83-41.7 9.7-4.5 21.5-3 31-8 20.4-11 36.2-32 58.8-37.5"/><path stroke="#000" stroke-width="3" stroke-linejoin="round" stroke-linecap="butt" d="M297.5 355c21.6-27.6 61-35.3 93.8-48 28.8-11.4 55-28.5 83-41.7 9.7-4.5 21.5-3 31-8 20.4-11 36.2-32 58.8-37.5"/><path d="M335 384.6c59-27.2 113.4-63.5 171.5-92.5"/><path stroke="#000" stroke-width="2" stroke-linejoin="round" stroke-linecap="butt" d="M335 384.6c59-27.2 113.4-63.5 171.5-92.5"/><path d="M364.5 414c9 18 37-16 55-25.4 18.4-9.6 35.8-21.3 55-29.5 13.6-5 29.5-9 40-20"/><path stroke="#000" stroke-linejoin="round" stroke-linecap="butt" d="M364.5 414c9 18 37-16 55-25.4 18.4-9.6 35.8-21.3 55-29.5 13.6-5 29.5-9 40-20"/><path d="M398 453c31-16.8 61.6-35 88.4-57.7 13.5-11.4 34.5-11.7 47-24"/><path stroke="#000" stroke-linejoin="round" stroke-linecap="butt" d="M398 453c31-16.8 61.6-35 88.4-57.7 13.5-11.4 34.5-11.7 47-24"/><path d="M432.8 469c16.2-9.7 31-21.5 45.6-33.5 7.3-6 19.4.7 28-2.7 14.2-5.5 25-17.4 37.6-25.4 9-5.6 22.2-6.8 26.8-16"/><path stroke="#000" stroke-linejoin="round" stroke-linecap="butt" d="M432.8 469c16.2-9.7 31-21.5 45.6-33.5 7.3-6 19.4.7 28-2.7 14.2-5.5 25-17.4 37.6-25.4 9-5.6 22.2-6.8 26.8-16"/><path d="M179.6 272c3.8 2.6 8.8 10 12 6.7 3.6-3.5-14.8-7.8-10.7-10.7 4-3.3 5-1.8 10-4 18-8 35-21.2 55-25.5 34-7.3 65-25 99-36.2 22-7.3 46-10.2 67-20 8-4 15-11.5 23-16 25-14.6 56-18.8 80-35 8-5.3 18 5.4 28 5.4"/><path stroke="#666" stroke-linejoin="round" stroke-linecap="butt" d="M179.6 272c3.8 2.6 8.8 10 12 6.7 3.6-3.5-14.8-7.8-10.7-10.7 4-3.3 5-1.8 10-4 18-8 35-21.2 55-25.5 34-7.3 65-25 99-36.2 22-7.3 46-10.2 67-20 8-4 15-11.5 23-16 25-14.6 56-18.8 80-35 8-5.3 18 5.4 28 5.4"/><path d="M199.7 257.3c-4-1-12-4.8-9.4-8 5.5-7.4 16.8-7.5 25.4-10.8 14.3-5.4 30-7 44.3-12 17.7-6.3 31.5-21.7 49.5-26.8 47.4-13.6 90.6-39 136.7-56.3 15.2-5.7 30.2-12.3 45.6-17.4 10.6-3.6 19.6-13.4 30.8-13.4 12.2 0 21.3 14.7 33.5 14.7"/><path stroke="#999" stroke-linejoin="round" stroke-linecap="butt" d="M199.7 257.3c-4-1-12-4.8-9.4-8 5.5-7.4 16.8-7.5 25.4-10.8 14.3-5.4 30-7 44.3-12 17.7-6.3 31.5-21.7 49.5-26.8 47.4-13.6 90.6-39 136.7-56.3 15.2-5.7 30.2-12.3 45.6-17.4 10.6-3.6 19.6-13.4 30.8-13.4 12.2 0 21.3 14.7 33.5 14.7"/><path d="M210.4 240c-3.2-2.7-12.3-5.3-9.4-8.2 11-11 28.5-11.8 43-17.4 21.7-8.5 41-22.6 63-30.8 29.5-11 61.6-16 89.6-30.8 32.5-17 69.7-46.5 104.6-35"/><path stroke="#b7b7b7" stroke-linejoin="round" stroke-linecap="butt" d="M210.4 240c-3.2-2.7-12.3-5.3-9.4-8.2 11-11 28.5-11.8 43-17.4 21.7-8.5 41-22.6 63-30.8 29.5-11 61.6-16 89.6-30.8 32.5-17 69.7-46.5 104.6-35"/><path d="M769.4 129.7C720 141 668 144.5 620.8 164c-24.7 10.3-37.8 39-54.4 60.6-12 15.7-23.2 32.3-33.2 49.6-3.4 6-10.6 9.8-12 16.5-1.5 8.3 16.4-8.6 24-5.5 7.8 3.3 17.6 6.7 25.2 2.8 12.3-6.4 19.4-20.2 29.2-30.3 22.3-23.2 41.3-50.3 66.3-70.2 18-15 42-20.8 63-31.7"/><path stroke="#000" stroke-linejoin="round" stroke-linecap="butt" d="M769.4 129.7C720 141 668 144.5 620.8 164c-24.7 10.3-37.8 39-54.4 60.6-12 15.7-23.2 32.3-33.2 49.6-3.4 6-10.6 9.8-12 16.5-1.5 8.3 16.4-8.6 24-5.5 7.8 3.3 17.6 6.7 25.2 2.8 12.3-6.4 19.4-20.2 29.2-30.3 22.3-23.2 41.3-50.3 66.3-70.2 18-15 42-20.8 63-31.7"/><path d="M551.7 290.8c-13.4-7.2-38.4 10-38.4 23.8 0 10.8-2 23.8 6 32 8.8 9 22 15.3 35.3 17 13.7 2 27.6 2.3 41.4 4 10 1.4 16 11.5 25 16 22 11 48 16.8 66.5 31.8 17.8 14.4 36.2 29 57.6 38.5 55 24 121 24 176 49"/><path stroke="#000" stroke-linejoin="round" stroke-linecap="butt" d="M551.7 290.8c-13.4-7.2-38.4 10-38.4 23.8 0 10.8-2 23.8 6 32 8.8 9 22 15.3 35.3 17 13.7 2 27.6 2.3 41.4 4 10 1.4 16 11.5 25 16 22 11 48 16.8 66.5 31.8 17.8 14.4 36.2 29 57.6 38.5 55 24 121 24 176 49"/><path d="M575 286.8c31.2 0 61.3 12.8 91 22.7 12 4 27.5 10.2 37.5 2.7 18-13.5 17.7-41.4 24-63C735 224.6 753 200.4 776 189"/><path stroke="#000" stroke-linejoin="round" stroke-linecap="butt" d="M575 286.8c31.2 0 61.3 12.8 91 22.7 12 4 27.5 10.2 37.5 2.7 18-13.5 17.7-41.4 24-63C735 224.6 753 200.4 776 189"/><path d="M814.2 152.7c20.6 20.5 30.5 49.5 44.2 75 5.8 10.7 18 18 21.5 29.5 6 20 3 45.4 18 60.3 27 27.3 67 38.7 98 61.7 16 11.6 29 26.6 45 37.5 6 4.4 16 2.8 22 6.7 34 19 74 32.4 102 60.3"/><path stroke="#000" stroke-linejoin="round" stroke-linecap="butt" d="M814.2 152.7c20.6 20.5 30.5 49.5 44.2 75 5.8 10.7 18 18 21.5 29.5 6 20 3 45.4 18 60.3 27 27.3 67 38.7 98 61.7 16 11.6 29 26.6 45 37.5 6 4.4 16 2.8 22 6.7 34 19 74 32.4 102 60.3"/><path d="M895 32.2c9.8-7.3-18.8 15-28 22.7-24 20-48.8 40-75 57-40.6 27-72.5 65-110 96-16.2 13-36 22-52.2 36-16 14-29.2 32-48.2 41"/><path stroke="#000" stroke-linejoin="round" stroke-linecap="butt" d="M895 32.2c9.8-7.3-18.8 15-28 22.7-24 20-48.8 40-75 57-40.6 27-72.5 65-110 96-16.2 13-36 22-52.2 36-16 14-29.2 32-48.2 41"/><path d="M971.5 32c-29.3 12.8-53 36-78 55.8-49.7 39.3-98.8 79-148.4 118.4-25 20.4-53 38.7-76 62-8 8.4-15 19-25 25.7-2 1-6 8-3 7"/><path stroke="#000" stroke-linejoin="round" stroke-linecap="butt" d="M971.5 32c-29.3 12.8-53 36-78 55.8-49.7 39.3-98.8 79-148.4 118.4-25 20.4-53 38.7-76 62-8 8.4-15 19-25 25.7-2 1-6 8-3 7"/><path d="M549.4 297.5c-16 2.6-29 36-16 45.6 12.3 10 32.8-42 17.3-42"/><path stroke="#e60000" stroke-width="8" stroke-linejoin="round" stroke-linecap="butt" d="M549.4 297.5c-16 2.6-29 36-16 45.6 12.3 10 32.8-42 17.3-42"/><path d="M545.4 257.3c2.3-4.6-4 9.6-4 14.7 0 .3-8.4 6.4-6.7 8 7.4 7.4 11.4-17.4 16-26.7"/><path stroke="#e60000" stroke-width="4" stroke-linejoin="round" stroke-linecap="butt" d="M545.4 257.3c2.3-4.6-4 9.6-4 14.7 0 .3-8.4 6.4-6.7 8 7.4 7.4 11.4-17.4 16-26.7"/><path d="M911.7 45.2c9-6.7-17.8 13.7-26.5 21-22.5 19-46 37-70.6 53-38.2 25-68.3 60.2-103.5 89-15 12.4-34 20.5-49 33.2-15 12.7-27 29.6-45 38.3"/><path stroke="#ccc" stroke-width="24" stroke-linejoin="round" stroke-linecap="round" d="M911.7 45.2c9-6.7-17.8 13.7-26.5 21-22.5 19-46 37-70.6 53-38.2 25-68.3 60.2-103.5 89-15 12.4-34 20.5-49 33.2-15 12.7-27 29.6-45 38.3"/></g></svg>