<svg xmlns="http://www.w3.org/2000/svg" stroke-linecap="square" stroke-miterlimit="10" viewBox="0 0 1333.3 266.7" fill="none"><clipPath id="a"><path d="M0 0h1333.3v266.7H0V0z"/></clipPath><g clip-path="url(#a)"><path d="M0 0h1333.3v266.7H0z"/><path d="M859.6 138.3c52.5-9.8 105.2-19 157.6-29 19.3-3.8 38.2-8.8 57-13.6 7.4-1.8 14.5-4 21.8-5.5 2-.4 5.6 0 5.6-1.5"/><path stroke-linejoin="round" d="M859.6 138.3c52.5-9.8 105.2-19 157.6-29 19.3-3.8 38.2-8.8 57-13.6 7.4-1.8 14.5-4 21.8-5.5 2-.4 5.6 0 5.6-1.5" stroke="#ccc" stroke-linecap="round" stroke-width="12"/><path d="M1081.8 17.4c0 19.8 5.2 39.5 11.2 58.7 1.5 5 7 13 1.8 16-10.4 6-24.4 4-36.6 7-28 6-56.5 9-84.4 15-29 6-57.3 15-87 18-7.8 1-15.6 3-23.4 4-2.8 1-4.8 4-7.5 3-2 0-1-3-2-5-2-8-2-16-5-23-10-22-17-44-22-66-2-7 0-14-3-20"/><path stroke-linejoin="round" d="M1081.8 17.4c0 19.8 5.2 39.5 11.2 58.7 1.5 5 7 13 1.8 16-10.4 6-24.4 4-36.6 7-28 6-56.5 9-84.4 15-29 6-57.3 15-87 18-7.8 1-15.6 3-23.4 4-2.8 1-4.8 4-7.5 3-2 0-1-3-2-5-2-8-2-16-5-23-10-22-17-44-22-66-2-7 0-14-3-20" stroke="#000" stroke-linecap="butt" stroke-width="2"/><path d="M1131.4 105.2c-9.6-5.8-20.2-11-31.6-14-18.8-5-38.4 8-57.8 11.5-31.8 6-64.3 10.3-95 19.6-19 5.8-40 7.3-59.5 12.5-6 1.7-12.2 4-18.6 4.6-4 .3-12-1.5-10 1 2 3.2 7 4.5 10 7.5 8 9 15 18 22 28 8 11 11 24 20 35 6 8 12 17 20 24 3 3 12 10 7 10"/><path stroke-linejoin="round" d="M1131.4 105.2c-9.6-5.8-20.2-11-31.6-14-18.8-5-38.4 8-57.8 11.5-31.8 6-64.3 10.3-95 19.6-19 5.8-40 7.3-59.5 12.5-6 1.7-12.2 4-18.6 4.6-4 .3-12-1.5-10 1 2 3.2 7 4.5 10 7.5 8 9 15 18 22 28 8 11 11 24 20 35 6 8 12 17 20 24 3 3 12 10 7 10" stroke="#000" stroke-linecap="butt"/><path d="M1055 242.2c40.3-14.2 79.2-31 116-49.7"/><path stroke-linejoin="round" d="M1055 242.2c40.3-14.2 79.2-31 116-49.7" stroke="#000" stroke-linecap="butt"/><path d="M1307.6 130.8c-26.7-2.7-54-.6-80.7-3.5-27-3-52-9-78-15-28-6.6-60-1-88 7.5-8 2.3-19 5-20 11.5-2 6.5 17 1 24-1.5 15-5.4 34-4.4 51-3 4 .3 8 1 12 1 2 0 7-1 5 0-3 2-7 .7-10 0-8-1.7-16-1.5-24-1.5-11 0-20 5.3-31 8-10 2.8-26 4.5-28 13-3 12 30 3 44 3 27 0 59 6.6 77 23.7 4 4 3 10 5 15 1 3.6 2 8.8-2 11-7.6 4.8-18 4.8-26 8.6-10 4.5-27 17.6-18 23 7 4.4 18 0 26-3 15.5-5.4 31-11.8 46-19 14-6.6 24-18.6 39-22.6 16.4-4.5 36 .8 52 6.6 7.3 2.7 18.5 2.5 22.2 8.5"/><path stroke-linejoin="round" d="M1307.6 130.8c-26.7-2.7-54-.6-80.7-3.5-27-3-52-9-78-15-28-6.6-60-1-88 7.5-8 2.3-19 5-20 11.5-2 6.5 17 1 24-1.5 15-5.4 34-4.4 51-3 4 .3 8 1 12 1 2 0 7-1 5 0-3 2-7 .7-10 0-8-1.7-16-1.5-24-1.5-11 0-20 5.3-31 8-10 2.8-26 4.5-28 13-3 12 30 3 44 3 27 0 59 6.6 77 23.7 4 4 3 10 5 15 1 3.6 2 8.8-2 11-7.6 4.8-18 4.8-26 8.6-10 4.5-27 17.6-18 23 7 4.4 18 0 26-3 15.5-5.4 31-11.8 46-19 14-6.6 24-18.6 39-22.6 16.4-4.5 36 .8 52 6.6 7.3 2.7 18.5 2.5 22.2 8.5" stroke="#000" stroke-linecap="butt"/><path d="M866.2 52c-3.4.3-10 2-8.4 4.4 2.4 4 12 2.2 14 6.2 1.5 3-6 7.7-9.8 6.2"/><path stroke-linejoin="round" d="M866.2 52c-3.4.3-10 2-8.4 4.4 2.4 4 12 2.2 14 6.2 1.5 3-6 7.7-9.8 6.2" stroke="#e60000" stroke-linecap="butt" stroke-width="2"/><path d="M860 48c2.3 6.7 8.6 12.7 9.7 19.7 0 1 0 3.5-.7 2.8"/><path stroke-linejoin="round" d="M860 48c2.3 6.7 8.6 12.7 9.7 19.7 0 1 0 3.5-.7 2.8" stroke="#e60000" stroke-linecap="butt" stroke-width="2"/><path d="M859.2 49c-1 8.5 11 15.3 11 23.8"/><path stroke-linejoin="round" d="M859.2 49c-1 8.5 11 15.3 11 23.8" stroke="#e60000" stroke-linecap="butt" stroke-width="2"/><path d="M881.5 58c1.3 2.3 2 7 5 6.3 3.8-1 2.7-6.3 2.7-9.6"/><path stroke-linejoin="round" d="M881.5 58c1.3 2.3 2 7 5 6.3 3.8-1 2.7-6.3 2.7-9.6" stroke="#e60000" stroke-linecap="butt" stroke-width="2"/><path d="M900.4 54c-2.8 1.3-5.8 4.8-4.2 7 1.6 2 2-7 5-6.3 3.2.7 4.7 4 7 6.2"/><path stroke-linejoin="round" d="M900.4 54c-2.8 1.3-5.8 4.8-4.2 7 1.6 2 2-7 5-6.3 3.2.7 4.7 4 7 6.2" stroke="#e60000" stroke-linecap="butt" stroke-width="2"/><path d="M912.3 54c1 2.7 0 3 2 5.2 1 1.2-.2-1.4 0-2.8.7-3 4.4-5.4 7.8-6.8"/><path stroke-linejoin="round" d="M912.3 54c1 2.7 0 3 2 5.2 1 1.2-.2-1.4 0-2.8.7-3 4.4-5.4 7.8-6.8" stroke="#e60000" stroke-linecap="butt" stroke-width="2"/><path d="M945.8 48c-2.7 1-7.2 3.5-5.6 5.6 1.6 2 5.4-7.4 6.3-5 1.2 3 4.5 5.6 7.7 7.8"/><path stroke-linejoin="round" d="M945.8 48c-2.7 1-7.2 3.5-5.6 5.6 1.6 2 5.4-7.4 6.3-5 1.2 3 4.5 5.6 7.7 7.8" stroke="#e60000" stroke-linecap="butt" stroke-width="2"/><path d="M965.4 50.8c4-.8 8.3-1.7 12.5-1.7"/><path stroke-linejoin="round" d="M965.4 50.8c4-.8 8.3-1.7 12.5-1.7" stroke="#e60000" stroke-linecap="butt" stroke-width="2"/><path d="M985.6 37.2c2 4.3 2.4 9 5 13 1 1.6-3-3.4-2.2-5 1.7-3.7 9.7-7.2 13.3-4.6 3.6 2.6-3.6 8.8-8.4 9.6"/><path stroke-linejoin="round" d="M985.6 37.2c2 4.3 2.4 9 5 13 1 1.6-3-3.4-2.2-5 1.7-3.7 9.7-7.2 13.3-4.6 3.6 2.6-3.6 8.8-8.4 9.6" stroke="#e60000" stroke-linecap="butt" stroke-width="2"/><path d="M995 25.4c-.3.2-.4.5-.7.5"/><path stroke-linejoin="round" d="M995 25.4c-.3.2-.4.5-.7.5" stroke="#ccc" stroke-linecap="butt" stroke-width="2"/><path d="M1053.8 142.4c-3.6 1-11.4 3.8-8.7 6 3 2.2 10-2 10-5"/><path stroke-linejoin="round" d="M1053.8 142.4c-3.6 1-11.4 3.8-8.7 6 3 2.2 10-2 10-5" stroke="#e60000" stroke-linecap="butt" stroke-width="4"/><path d="M1053.8 125c-3.6 1.2-11.4 4-8.7 6 3 2.4 10-1.7 10-5"/><path stroke-linejoin="round" d="M1053.8 125c-3.6 1.2-11.4 4-8.7 6 3 2.4 10-1.7 10-5" stroke="#e60000" stroke-linecap="butt" stroke-width="4"/><path d="M1133.7 218.6c-4.4 2.6-11.4 8-7.3 11 4.2 2.8 14.8.5 17.5-3.2"/><path stroke-linejoin="round" d="M1133.7 218.6c-4.4 2.6-11.4 8-7.3 11 4.2 2.8 14.8.5 17.5-3.2" stroke="#e60000" stroke-linecap="butt" stroke-width="8"/><path d="M904.3 143.4c5.6-1.6 14.7-4.6 18-1 1.2 1 5.5 2.5 3.8 3.3-4 2-10 5-13 3-3-1.6-5-3.4-7-5.7"/><path stroke-linejoin="round" d="M904.3 143.4c5.6-1.6 14.7-4.6 18-1 1.2 1 5.5 2.5 3.8 3.3-4 2-10 5-13 3-3-1.6-5-3.4-7-5.7" stroke="#000" stroke-linecap="butt"/><path d="M927.5 151c5.6-1.7 14.7-4.7 18-1.2 1.2 1.2 5.5 2.6 3.8 3.4-4 2-10 5-13.8 3-2.8-1.6-5.4-3.4-7-5.7"/><path stroke-linejoin="round" d="M927.5 151c5.6-1.7 14.7-4.7 18-1.2 1.2 1.2 5.5 2.6 3.8 3.4-4 2-10 5-13.8 3-2.8-1.6-5.4-3.4-7-5.7" stroke="#000" stroke-linecap="butt"/><path d="M941.4 158.4c5.6-1.6 14.7-4.6 18-1 1.2 1 5.5 2.5 3.8 3.3-4 2-10 5-13.8 3-2.8-1.6-5.4-3.4-7-5.7"/><path stroke-linejoin="round" d="M941.4 158.4c5.6-1.6 14.7-4.6 18-1 1.2 1 5.5 2.5 3.8 3.3-4 2-10 5-13.8 3-2.8-1.6-5.4-3.4-7-5.7" stroke="#000" stroke-linecap="butt"/><path d="M955.3 166c5.6-1.7 14.8-4.7 18-1.2 1.3 1.2 5.5 2.6 4 3.4-4.2 2-10.2 5-14 3-2.8-1.6-5.4-3.4-7-5.6"/><path stroke-linejoin="round" d="M955.3 166c5.6-1.7 14.8-4.7 18-1.2 1.3 1.2 5.5 2.6 4 3.4-4.2 2-10.2 5-14 3-2.8-1.6-5.4-3.4-7-5.6" stroke="#000" stroke-linecap="butt"/><path d="M946 147.2c5.6-1.7 14.8-4.7 18.2-1.2 1 1.2 5.4 2.6 3.7 3.4-4 2-11 5-14 3-3-1.5-6-3.4-7-5.6"/><path stroke-linejoin="round" d="M946 147.2c5.6-1.7 14.8-4.7 18.2-1.2 1 1.2 5.4 2.6 3.7 3.4-4 2-11 5-14 3-3-1.5-6-3.4-7-5.6" stroke="#000" stroke-linecap="butt"/><path d="M927.5 139.7c5.6-1.7 14.7-4.7 18-1.2 1.2 1.2 5.5 2.6 3.8 3.4-4 1-10 5-13.8 3-2.8-2-5.4-4-7-6"/><path stroke-linejoin="round" d="M927.5 139.7c5.6-1.7 14.7-4.7 18-1.2 1.2 1.2 5.5 2.6 3.8 3.4-4 1-10 5-13.8 3-2.8-2-5.4-4-7-6" stroke="#000" stroke-linecap="butt"/><path d="M960 154.7c5.5-1.7 14.7-4.7 18-1.2 1.2 1.2 5.5 2.6 3.8 3.4-4 1-10 5-14 3-2.6-2-5.2-4-6.8-6"/><path stroke-linejoin="round" d="M960 154.7c5.5-1.7 14.7-4.7 18-1.2 1.2 1.2 5.5 2.6 3.8 3.4-4 1-10 5-14 3-2.6-2-5.2-4-6.8-6" stroke="#000" stroke-linecap="butt"/><path d="M974 162.2c5.5-1.6 14.6-4.7 18-1 1 1 5.4 2.4 3.7 3.2-4 2-10 5-14 3-2.6-1.5-5.2-3.4-6.8-5.6"/><path stroke-linejoin="round" d="M974 162.2c5.5-1.6 14.6-4.7 18-1 1 1 5.4 2.4 3.7 3.2-4 2-10 5-14 3-2.6-1.5-5.2-3.4-6.8-5.6" stroke="#000" stroke-linecap="butt"/><path d="M946 135.4c5.3-1.5 13.7-4.3 16.8-1 1 1 5 2.3 3.5 3-3.8 1.8-9.4 4.8-12.8 2.8-2.6-1.4-5-3-6.4-5.2"/><path stroke-linejoin="round" d="M946 135.4c5.3-1.5 13.7-4.3 16.8-1 1 1 5 2.3 3.5 3-3.8 1.8-9.4 4.8-12.8 2.8-2.6-1.4-5-3-6.4-5.2" stroke="#000" stroke-linecap="butt"/><path d="M967.5 142.3c5.2-1.5 13.6-4.3 16.7-1 1 1 5 2.3 3.5 3-3.7 1.8-9.3 4.8-12.8 2.8-3-1-5-3-7-5"/><path stroke-linejoin="round" d="M967.5 142.3c5.2-1.5 13.6-4.3 16.7-1 1 1 5 2.3 3.5 3-3.7 1.8-9.3 4.8-12.8 2.8-3-1-5-3-7-5" stroke="#000" stroke-linecap="butt"/><path d="M980.3 149.2c5.2-1.5 13.7-4.3 16.8-1 1 1 5 2.4 4 3-3 1.8-9 4.8-13 3-2-1.6-5-3.3-6-5.3"/><path stroke-linejoin="round" d="M980.3 149.2c5.2-1.5 13.7-4.3 16.8-1 1 1 5 2.4 4 3-3 1.8-9 4.8-13 3-2-1.6-5-3.3-6-5.3" stroke="#000" stroke-linecap="butt"/><path d="M993.2 156c5-1.4 13.6-4.2 16.7-1 1 1.2 5 2.5 3 3.2-4 1.8-10 4.7-13 2.8-3-1.5-5-3.2-7-5.2"/><path stroke-linejoin="round" d="M993.2 156c5-1.4 13.6-4.2 16.7-1 1 1.2 5 2.5 3 3.2-4 1.8-10 4.7-13 2.8-3-1.5-5-3.2-7-5.2" stroke="#000" stroke-linecap="butt"/><path d="M984.6 138.8c5.2-1.5 13.6-4.3 16.7-1 1 1 5 2.4 3.5 3-3.7 2-9.3 4.8-12.8 3-2.6-1.6-5-3.3-6.4-5.3"/><path stroke-linejoin="round" d="M984.6 138.8c5.2-1.5 13.6-4.3 16.7-1 1 1 5 2.4 3.5 3-3.7 2-9.3 4.8-12.8 3-2.6-1.6-5-3.3-6.4-5.3" stroke="#000" stroke-linecap="butt"/><path d="M967.5 132c5.2-1.6 13.6-4.4 16.7-1 1 1 5 2.3 3.5 3-3.7 1.7-9.3 4.7-12.8 2.8-3-1.5-5-3.2-7-5.2"/><path stroke-linejoin="round" d="M967.5 132c5.2-1.6 13.6-4.4 16.7-1 1 1 5 2.3 3.5 3-3.7 1.7-9.3 4.7-12.8 2.8-3-1.5-5-3.2-7-5.2" stroke="#000" stroke-linecap="butt"/><path d="M997.5 145.8c5-1.5 13.6-4.3 16.7-1 1 1 5 2.3 3.4 3-3.7 1.8-9.3 4.8-12.8 2.8-2.5-1.4-5-3-6.4-5.2"/><path stroke-linejoin="round" d="M997.5 145.8c5-1.5 13.6-4.3 16.7-1 1 1 5 2.3 3.4 3-3.7 1.8-9.3 4.8-12.8 2.8-2.5-1.4-5-3-6.4-5.2" stroke="#000" stroke-linecap="butt"/><path d="M1010.3 152.7c5.2-1.5 13.6-4.3 16.7-1 1 1 5 2.3 3.5 3-3.7 1.8-9.3 4.8-12.8 2.8-2.6-1.4-5-3-6.4-5.2"/><path stroke-linejoin="round" d="M1010.3 152.7c5.2-1.5 13.6-4.3 16.7-1 1 1 5 2.3 3.5 3-3.7 1.8-9.3 4.8-12.8 2.8-2.6-1.4-5-3-6.4-5.2" stroke="#000" stroke-linecap="butt"/><path d="M983 127.5c5-1.4 12.8-4 15.7-1 1 1 4.6 2.2 3.2 3-4 1.5-9 4.3-12 2.4-3-2-5-3-6-5"/><path stroke-linejoin="round" d="M983 127.5c5-1.4 12.8-4 15.7-1 1 1 4.6 2.2 3.2 3-4 1.5-9 4.3-12 2.4-3-2-5-3-6-5" stroke="#000" stroke-linecap="butt"/><path d="M1003 134c4.8-1.5 12.7-4 15.6-1 1 1 4.6 2 3.2 2.8-3.5 1.6-8.7 4.4-12 2.6-2.3-1.4-4.5-3-6-4.8"/><path stroke-linejoin="round" d="M1003 134c4.8-1.5 12.7-4 15.6-1 1 1 4.6 2 3.2 2.8-3.5 1.6-8.7 4.4-12 2.6-2.3-1.4-4.5-3-6-4.8" stroke="#000" stroke-linecap="butt"/><path d="M1015 140.3c4.8-1.4 12.7-4 15.6-1 1 1 4.6 2.3 3.2 3-3.5 1.6-8.7 4.3-12 2.5-2.3-1.3-4.5-3-6-4.8"/><path stroke-linejoin="round" d="M1015 140.3c4.8-1.4 12.7-4 15.6-1 1 1 4.6 2.3 3.2 3-3.5 1.6-8.7 4.3-12 2.5-2.3-1.3-4.5-3-6-4.8" stroke="#000" stroke-linecap="butt"/><path d="M1026.6 148c3.8-1.3 10-3.6 12.4-1 .8 1 3.7 2 2.6 2.7-2.8 1.4-7 4-9.5 2.3-1-1.2-3-2.6-4-4.3"/><path stroke-linejoin="round" d="M1026.6 148c3.8-1.3 10-3.6 12.4-1 .8 1 3.7 2 2.6 2.7-2.8 1.4-7 4-9.5 2.3-1-1.2-3-2.6-4-4.3" stroke="#000" stroke-linecap="butt"/><path d="M1019 130.7c4.8-1.4 12.7-4 15.6-1 1 1 4.6 2.2 3.2 3-3.5 1.5-8.7 4.3-12 2.5-2.3-1.4-4.5-3-6-5"/><path stroke-linejoin="round" d="M1019 130.7c4.8-1.4 12.7-4 15.6-1 1 1 4.6 2.2 3.2 3-3.5 1.5-8.7 4.3-12 2.5-2.3-1.4-4.5-3-6-5" stroke="#000" stroke-linecap="butt"/><path d="M1003 124.2c4.8-1.4 12.7-4 15.6-1 1 1 4.6 2.3 3.2 3-3.5 1.6-8.7 4.3-12 2.5-2.3-1.3-4.5-3-6-4.8"/><path stroke-linejoin="round" d="M1003 124.2c4.8-1.4 12.7-4 15.6-1 1 1 4.6 2.3 3.2 3-3.5 1.6-8.7 4.3-12 2.5-2.3-1.3-4.5-3-6-4.8" stroke="#000" stroke-linecap="butt"/><path d="M1031 137c4.7-1.3 12.6-4 15.5-1 1 1.2 4.6 2.3 3.2 3-3.5 1.6-8.7 4.4-12 2.6-2.3-1.3-4.5-3-6-4.8"/><path stroke-linejoin="round" d="M1031 137c4.7-1.3 12.6-4 15.5-1 1 1.2 4.6 2.3 3.2 3-3.5 1.6-8.7 4.4-12 2.6-2.3-1.3-4.5-3-6-4.8" stroke="#000" stroke-linecap="butt"/><path d="M1019 120c4.7-1.4 12.4-4 15.2-1 1 1 4.6 2.2 3.2 2.8-3.4 1.6-8.5 4.3-11.7 2.5-2.3-1.3-4.5-2.8-5.8-4.7"/><path stroke-linejoin="round" d="M1019 120c4.7-1.4 12.4-4 15.2-1 1 1 4.6 2.2 3.2 2.8-3.4 1.6-8.5 4.3-11.7 2.5-2.3-1.3-4.5-2.8-5.8-4.7" stroke="#000" stroke-linecap="butt"/><path d="M1036 116.7c3.7-1 10-3.2 12.3-.8.8 0 3.7 1 2.6 2-3 1-7 3-10 2-2-1-4-2-5-4"/><path stroke-linejoin="round" d="M1036 116.7c3.7-1 10-3.2 12.3-.8.8 0 3.7 1 2.6 2-3 1-7 3-10 2-2-1-4-2-5-4" stroke="#000" stroke-linecap="butt"/><path d="M1050 114c3.4-1 8.8-2.7 10.7-.6.7.7 3.2 1.5 2.2 2-3 1-6 3-9 1.7-2 0-3-2-4-3"/><path stroke-linejoin="round" d="M1050 114c3.4-1 8.8-2.7 10.7-.6.7.7 3.2 1.5 2.2 2-3 1-6 3-9 1.7-2 0-3-2-4-3" stroke="#000" stroke-linecap="butt"/><path d="M1011.6 162c11.2-3.7 22.5-7.3 34.2-9.7"/><path stroke-linejoin="round" d="M1011.6 162c11.2-3.7 22.5-7.3 34.2-9.7" stroke="#000" stroke-linecap="butt"/><path d="M1012 162.2c3.5 1.4 6.2 4.2 8.6 6.8"/><path stroke-linejoin="round" d="M1012 162.2c3.5 1.4 6.2 4.2 8.6 6.8" stroke="#000" stroke-linecap="butt"/><path d="M1021.2 169.2c19.7-8.6 42.4-11.8 63.2-18.5"/><path stroke-linejoin="round" d="M1021.2 169.2c19.7-8.6 42.4-11.8 63.2-18.5" stroke="#000" stroke-linecap="butt"/><path d="M969 174c11.3-4.7 24.6-5.8 36-10.4"/><path stroke-linejoin="round" d="M969 174c11.3-4.7 24.6-5.8 36-10.4" stroke="#000" stroke-linecap="butt"/><path d="M1005.5 164c3.6 1.7 7.2 3.6 10 6"/><path stroke-linejoin="round" d="M1005.5 164c3.6 1.7 7.2 3.6 10 6" stroke="#000" stroke-linecap="butt"/><path d="M1016.5 170.2c-13.3 2.8-26.3 6.7-38.6 11.7"/><path stroke-linejoin="round" d="M1016.5 170.2c-13.3 2.8-26.3 6.7-38.6 11.7" stroke="#000" stroke-linecap="butt"/><path d="M979 182c-4.4-1.3-8.5-4.2-10.6-7.6"/><path stroke-linejoin="round" d="M979 182c-4.4-1.3-8.5-4.2-10.6-7.6" stroke="#000" stroke-linecap="butt"/><path d="M1103.6 155c-18.6 5.6-37.3 11-55.8 16.7-7.2 2-14.7 3.2-21.8 5.5-2.5.8-8.3.4-7.4 2.5 1.8 4.3 10 4 15 6.5 7.6 4 14.7 8.5 22.2 12.6 9.7 5.2 16.5 19 28 17 8.2-1.3 14.8-6.5 22.3-9.5 10-3.8 20-5.6 30-9 11-4 18-12 29-16"/><path stroke-linejoin="round" d="M1103.6 155c-18.6 5.6-37.3 11-55.8 16.7-7.2 2-14.7 3.2-21.8 5.5-2.5.8-8.3.4-7.4 2.5 1.8 4.3 10 4 15 6.5 7.6 4 14.7 8.5 22.2 12.6 9.7 5.2 16.5 19 28 17 8.2-1.3 14.8-6.5 22.3-9.5 10-3.8 20-5.6 30-9 11-4 18-12 29-16" stroke="#ccc" stroke-linecap="round" stroke-width="8"/><path d="M854.6 137.3c-2.3.4-4.7.7-6.8 1.5"/><path stroke-linejoin="round" d="M854.6 137.3c-2.3.4-4.7.7-6.8 1.5" stroke="#000" stroke-linecap="butt"/><path d="M847.2 138.4c-1.2-6.3-5-12-6.8-18-4.7-16.3-6.2-33.2-13-48.8-7-16-22.5-34.5-13-49.7"/><path stroke-linejoin="round" d="M847.2 138.4c-1.2-6.3-5-12-6.8-18-4.7-16.3-6.2-33.2-13-48.8-7-16-22.5-34.5-13-49.7" stroke="#000" stroke-linecap="butt"/><path d="M859 141.4c-1.3-3-1.2 7.4 1.8 9.5 9 6 11.6 16 19.3 23 12 11 19 25 24 39 5 12 19 19 26 30"/><path stroke-linejoin="round" d="M859 141.4c-1.3-3-1.2 7.4 1.8 9.5 9 6 11.6 16 19.3 23 12 11 19 25 24 39 5 12 19 19 26 30" stroke="#000" stroke-linecap="butt"/><path d="M17.2 250c20 1.8 40.7-.3 61 .4 70.2 2.4 140.6-3 210.8-4.7 59-1.3 117.6 5.2 176.6 5.2 128 0 256-7 384.2-5 104 1 208.3-2 312.4-2 37.5 0 75 3 112.4 2 12.5-1 25.2 1 37.4 2 2 0 5.5 1 6.5 0 8.3-8-6-18-4.3-27 1.3-8 6.5-16 7.5-23 2.3-18-7.5-36-7.5-53s2.3-34-1-51c-2.2-11-8.6-22-5.4-33 4-14 9.5-28 6.4-41-.7-3 3.8-6 1-9-1.4-2-6.6 0-9.6 1-11.4 3-24.7 3-37.4 4-34.8 1-70.2 1-105-1-42.8-3-86.2 0-129.4-1-86.6-1-173.3 1-260 1-134.6 0-269-9-403.5-7-45 0-89.8 4-134.8 6-28.4 1-57 1-85.6 0-32-1-64-6-96-3-13 1-29-6-41-2-6 2-1 7 0 10 3 9 8 18 8 27 0 25-5 50-1 75 1 7 8 14 10 22 8 24-4 47-12 70-3 7-1 15-5 23-1.7 3-4.6 9 2 11"/><path stroke-linejoin="round" d="M17.2 250c20 1.8 40.7-.3 61 .4 70.2 2.4 140.6-3 210.8-4.7 59-1.3 117.6 5.2 176.6 5.2 128 0 256-7 384.2-5 104 1 208.3-2 312.4-2 37.5 0 75 3 112.4 2 12.5-1 25.2 1 37.4 2 2 0 5.5 1 6.5 0 8.3-8-6-18-4.3-27 1.3-8 6.5-16 7.5-23 2.3-18-7.5-36-7.5-53s2.3-34-1-51c-2.2-11-8.6-22-5.4-33 4-14 9.5-28 6.4-41-.7-3 3.8-6 1-9-1.4-2-6.6 0-9.6 1-11.4 3-24.7 3-37.4 4-34.8 1-70.2 1-105-1-42.8-3-86.2 0-129.4-1-86.6-1-173.3 1-260 1-134.6 0-269-9-403.5-7-45 0-89.8 4-134.8 6-28.4 1-57 1-85.6 0-32-1-64-6-96-3-13 1-29-6-41-2-6 2-1 7 0 10 3 9 8 18 8 27 0 25-5 50-1 75 1 7 8 14 10 22 8 24-4 47-12 70-3 7-1 15-5 23-1.7 3-4.6 9 2 11" stroke="#888" stroke-linecap="butt" stroke-width="4"/><path d="M1063.7 110c4-1 10.3-2.6 12.6-.6.8.6 3.8 1.4 2.6 1.8-3 1-7 2.8-10 1.7-2-1-4-2-5-4"/><path stroke-linejoin="round" d="M1063.7 110c4-1 10.3-2.6 12.6-.6.8.6 3.8 1.4 2.6 1.8-3 1-7 2.8-10 1.7-2-1-4-2-5-4" stroke="#000" stroke-linecap="butt"/><path d="M1078 108c3.4-1 9-2.3 11-.6.5.5 3 1.2 2 1.5-2.3 0-6 2-8 1-1.8-1-3.3-2-4.3-3"/><path stroke-linejoin="round" d="M1078 108c3.4-1 9-2.3 11-.6.5.5 3 1.2 2 1.5-2.3 0-6 2-8 1-1.8-1-3.3-2-4.3-3" stroke="#000" stroke-linecap="butt"/><path d="M965.4 46.5c4-.7 8.3-1.7 12.5-1.7"/><path stroke-linejoin="round" d="M965.4 46.5c4-.7 8.3-1.7 12.5-1.7" stroke="#e60000" stroke-linecap="butt" stroke-width="2"/></g></svg>