<svg viewBox="0 0 1333.3 533.3" fill="none" stroke-linecap="square" stroke-miterlimit="10" xmlns="http://www.w3.org/2000/svg"><clipPath id="a"><path d="M0 0h1333.3v533.3H0V0z"/></clipPath><g clip-path="url(#a)"><path d="M0 0h1333.3v533.3H0z"/><path d="M540.4 277.2c90.5-21 181.4-40.4 271.8-62 33.3-8 65.8-18.8 98.4-29 12.5-4 24.8-8.6 37.5-11.8 4-.8 10 .2 10-3.2"/><path stroke="#ccc" stroke-width="12" stroke-linejoin="round" stroke-linecap="round" d="M540.4 277.2c90.5-21 181.4-40.4 271.8-62 33.3-8 65.8-18.8 98.4-29 12.5-4 24.8-8.6 37.5-11.8 4-.8 10 .2 10-3.2"/><path d="M923.5 19.3c0 42.2 9 84.2 19.3 125.2 2.6 10.4 12 26 3.2 32-18 12-42.2 9-63.2 14-48.4 11-97.5 19.4-145.5 32-50 13.2-98.8 31.3-149.8 38.6-13.7 2-27.2 5-40.7 8-4.7 1-8.3 8-12.8 7-3.5-1-1.6-7-2.2-10-2.8-17-2.2-34-8.5-50-18-44-29-92-38.5-139-3-14 1.2-30-5.4-44"/><path stroke="#000" stroke-width="2" stroke-linejoin="round" stroke-linecap="butt" d="M923.5 19.3c0 42.2 9 84.2 19.3 125.2 2.6 10.4 12 26 3.2 32-18 12-42.2 9-63.2 14-48.4 11-97.5 19.4-145.5 32-50 13.2-98.8 31.3-149.8 38.6-13.7 2-27.2 5-40.7 8-4.7 1-8.3 8-12.8 7-3.5-1-1.6-7-2.2-10-2.8-17-2.2-34-8.5-50-18-44-29-92-38.5-139-3-14 1.2-30-5.4-44"/><path d="M1009 206.5c-16.5-12.4-34.8-23.4-54.5-30-32.4-10.7-66.2 17-99.5 24.7-55 12.5-111 22-163.7 41.7-33.3 12-69.3 15-102.7 26-10.6 3-21 8-32.2 9-5.7 0-19.6-3-17 2 3.4 7 12.4 10 17 16 14 19 26.2 39 38.6 60 14.5 23 19.5 52 34.2 76 11 17 21 35 34.3 51 5.5 7 21.5 23 12.8 23"/><path stroke="#000" stroke-linejoin="round" stroke-linecap="butt" d="M1009 206.5c-16.5-12.4-34.8-23.4-54.5-30-32.4-10.7-66.2 17-99.5 24.7-55 12.5-111 22-163.7 41.7-33.3 12-69.3 15-102.7 26-10.6 3-21 8-32.2 9-5.7 0-19.6-3-17 2 3.4 7 12.4 10 17 16 14 19 26.2 39 38.6 60 14.5 23 19.5 52 34.2 76 11 17 21 35 34.3 51 5.5 7 21.5 23 12.8 23"/><path d="M861.4 513.6c75-34.6 147.5-75 216.2-121"/><path stroke="#000" stroke-linejoin="round" stroke-linecap="butt" d="M861.4 513.6c75-34.6 147.5-75 216.2-121"/><path d="M1313 261c-46-5.7-93-1-139-7.4-45.5-6.2-89.8-19.5-134-32-48.5-14-103.5-2.2-150.8 16-13 5-32 10.7-34.2 24.6-2.3 13.7 29 2.3 41.7-3.2 27-11.6 58.6-9.4 87.8-6.5 7 .8 14.2 2.2 21.4 2.2 3 0 11-2.3 9 0-4 4-12 1.5-17 0-13-3.8-27-3.2-41-3.2-19 0-35 11.3-53 17-18 6-45 9.6-48 28-4 25.3 51 6.3 77 6.3 47 0 102 14 132 50.3 7 9 5 22 8 33 2 8 4 19-2 24-13 10-31 10-45 18-17 10-47 38-31 50 12 9 31 0 45-6 27-12 54-25 79-41 23-14 40-39 66-48 29-9 62 2 90 14 13 6 32 6 38 18"/><path stroke="#000" stroke-linejoin="round" stroke-linecap="butt" d="M1313 261c-46-5.7-93-1-139-7.4-45.5-6.2-89.8-19.5-134-32-48.5-14-103.5-2.2-150.8 16-13 5-32 10.7-34.2 24.6-2.3 13.7 29 2.3 41.7-3.2 27-11.6 58.6-9.4 87.8-6.5 7 .8 14.2 2.2 21.4 2.2 3 0 11-2.3 9 0-4 4-12 1.5-17 0-13-3.8-27-3.2-41-3.2-19 0-35 11.3-53 17-18 6-45 9.6-48 28-4 25.3 51 6.3 77 6.3 47 0 102 14 132 50.3 7 9 5 22 8 33 2 8 4 19-2 24-13 10-31 10-45 18-17 10-47 38-31 50 12 9 31 0 45-6 27-12 54-25 79-41 23-14 40-39 66-48 29-9 62 2 90 14 13 6 32 6 38 18"/><path d="M551.7 92.8c-5.7 1-17 4.4-14.4 9.6 4 8.2 20.6 4.8 24 13.3 2.7 6.6-10.4 16.4-16.8 13.2"/><path stroke="#e60000" stroke-width="2" stroke-linejoin="round" stroke-linecap="butt" d="M551.7 92.8c-5.7 1-17 4.4-14.4 9.6 4 8.2 20.6 4.8 24 13.3 2.7 6.6-10.4 16.4-16.8 13.2"/><path d="M541 84.3c4 14.6 15 27.2 16.7 42.2.3 2 .3 7.5-1.2 6"/><path stroke="#e60000" stroke-width="2" stroke-linejoin="round" stroke-linecap="butt" d="M541 84.3c4 14.6 15 27.2 16.7 42.2.3 2 .3 7.5-1.2 6"/><path d="M539.7 86.7c-1.8 18 19.2 32.6 19.2 50.6"/><path stroke="#e60000" stroke-width="2" stroke-linejoin="round" stroke-linecap="butt" d="M539.7 86.7c-1.8 18 19.2 32.6 19.2 50.6"/><path d="M578.2 106c2 4.8 3.5 15 8.4 13.3 6.7-2.2 5-13.5 5-20.5"/><path stroke="#e60000" stroke-width="2" stroke-linejoin="round" stroke-linecap="butt" d="M578.2 106c2 4.8 3.5 15 8.4 13.3 6.7-2.2 5-13.5 5-20.5"/><path d="M610.7 97.6c-4.8 2.4-10 9.8-7.2 14.4 2.7 4.5 3.4-14.5 8.4-13.2 5 1.4 8 8.7 12 13.2"/><path stroke="#e60000" stroke-width="2" stroke-linejoin="round" stroke-linecap="butt" d="M610.7 97.6c-4.8 2.4-10 9.8-7.2 14.4 2.7 4.5 3.4-14.5 8.4-13.2 5 1.4 8 8.7 12 13.2"/><path d="M631.2 97.6c1.8 5.4.2 6.3 3.6 10.8 1.8 2.4-.5-3 0-6 1-6.4 7.4-11.5 13.3-14.4"/><path stroke="#e60000" stroke-width="2" stroke-linejoin="round" stroke-linecap="butt" d="M631.2 97.6c1.8 5.4.2 6.3 3.6 10.8 1.8 2.4-.5-3 0-6 1-6.4 7.4-11.5 13.3-14.4"/><path d="M689 84.3c-4.7 2-12.3 7.7-9.6 12 2.7 4.4 9.4-15.6 10.8-10.8 2 7 8 12.3 13.3 17"/><path stroke="#e60000" stroke-width="2" stroke-linejoin="round" stroke-linecap="butt" d="M689 84.3c-4.7 2-12.3 7.7-9.6 12 2.7 4.4 9.4-15.6 10.8-10.8 2 7 8 12.3 13.3 17"/><path d="M722.8 90.4c7-1.7 14.3-3.7 21.7-3.7"/><path stroke="#e60000" stroke-width="2" stroke-linejoin="round" stroke-linecap="butt" d="M722.8 90.4c7-1.7 14.3-3.7 21.7-3.7"/><path d="M757.7 61.5c3.3 9 4 19 8.4 27.7 2 3.4-4-7.3-3-11 3-7.6 17-15 23-9.5s-6 18.8-14 20.5"/><path stroke="#e60000" stroke-width="2" stroke-linejoin="round" stroke-linecap="butt" d="M757.7 61.5c3.3 9 4 19 8.4 27.7 2 3.4-4-7.3-3-11 3-7.6 17-15 23-9.5s-6 18.8-14 20.5"/><path d="M773.7 36.4c-.3.4-.6 1-1 1"/><path stroke="#ccc" stroke-width="2" stroke-linejoin="round" stroke-linecap="butt" d="M773.7 36.4c-.3.4-.6 1-1 1"/><path d="M875.3 285.7c-6 2.3-19.6 8.2-15 13 4.8 4.6 17.2-4 17.2-10.8"/><path stroke="#e60000" stroke-width="4" stroke-linejoin="round" stroke-linecap="butt" d="M875.3 285.7c-6 2.3-19.6 8.2-15 13 4.8 4.6 17.2-4 17.2-10.8"/><path d="M875.3 249c-6 2.2-19.6 8-15 12.8 4.8 4.7 17.2-4 17.2-10.7"/><path stroke="#e60000" stroke-width="4" stroke-linejoin="round" stroke-linecap="butt" d="M875.3 249c-6 2.2-19.6 8-15 12.8 4.8 4.7 17.2-4 17.2-10.7"/><path d="M1013 448.4c-7.6 5.5-19.8 17-12.7 23 7.4 6.3 25.5 1.4 30.2-6.5"/><path stroke="#e60000" stroke-width="8" stroke-linejoin="round" stroke-linecap="butt" d="M1013 448.4c-7.6 5.5-19.8 17-12.7 23 7.4 6.3 25.5 1.4 30.2-6.5"/><path d="M617.4 288c9.7-3.5 25.5-10 31.3-2.5 2 2.6 9.4 5.5 6.5 7.2-7 4-17.4 11-24 6.4-4.7-3-9.2-7-12-12"/><path stroke="#000" stroke-linejoin="round" stroke-linecap="butt" d="M617.4 288c9.7-3.5 25.5-10 31.3-2.5 2 2.6 9.4 5.5 6.5 7.2-7 4-17.4 11-24 6.4-4.7-3-9.2-7-12-12"/><path d="M657.4 304c9.7-3.5 25.5-10 31.3-2.5 2 2.6 9.4 5.5 6.5 7.2-7 4-17.4 11-24 6.4-4.7-3-9.2-7-12-12"/><path stroke="#000" stroke-linejoin="round" stroke-linecap="butt" d="M657.4 304c9.7-3.5 25.5-10 31.3-2.5 2 2.6 9.4 5.5 6.5 7.2-7 4-17.4 11-24 6.4-4.7-3-9.2-7-12-12"/><path d="M681.4 320c9.7-3.5 25.5-10 31.3-2.5 2 2.6 9.4 5.5 6.5 7.2-7 4-17.4 11-24 6.4-4.7-3-9.2-7-12-12"/><path stroke="#000" stroke-linejoin="round" stroke-linecap="butt" d="M681.4 320c9.7-3.5 25.5-10 31.3-2.5 2 2.6 9.4 5.5 6.5 7.2-7 4-17.4 11-24 6.4-4.7-3-9.2-7-12-12"/><path d="M705.4 336c9.7-3.5 25.5-10 31.3-2.5 2 2.6 9.4 5.5 6.5 7.2-7 4-17.4 11-24 6.4-4.7-3-9.2-7-12-12"/><path stroke="#000" stroke-linejoin="round" stroke-linecap="butt" d="M705.4 336c9.7-3.5 25.5-10 31.3-2.5 2 2.6 9.4 5.5 6.5 7.2-7 4-17.4 11-24 6.4-4.7-3-9.2-7-12-12"/><path d="M689.4 296c9.7-3.5 25.5-10 31.3-2.5 2 2.6 9.4 5.5 6.5 7.2-7 4-17.4 11-24 6.4-4.7-3-9.2-7-12-12"/><path stroke="#000" stroke-linejoin="round" stroke-linecap="butt" d="M689.4 296c9.7-3.5 25.5-10 31.3-2.5 2 2.6 9.4 5.5 6.5 7.2-7 4-17.4 11-24 6.4-4.7-3-9.2-7-12-12"/><path d="M657.4 280c9.7-3.5 25.5-10 31.3-2.5 2 2.6 9.4 5.5 6.5 7.2-7 4-17.4 11-24 6.4-4.7-3-9.2-7-12-12"/><path stroke="#000" stroke-linejoin="round" stroke-linecap="butt" d="M657.4 280c9.7-3.5 25.5-10 31.3-2.5 2 2.6 9.4 5.5 6.5 7.2-7 4-17.4 11-24 6.4-4.7-3-9.2-7-12-12"/><path d="M713.4 312c9.7-3.5 25.5-10 31.3-2.5 2 2.6 9.4 5.5 6.5 7.2-7 4-17.4 11-24 6.4-4.7-3-9.2-7-12-12"/><path stroke="#000" stroke-linejoin="round" stroke-linecap="butt" d="M713.4 312c9.7-3.5 25.5-10 31.3-2.5 2 2.6 9.4 5.5 6.5 7.2-7 4-17.4 11-24 6.4-4.7-3-9.2-7-12-12"/><path d="M737.4 328c9.7-3.5 25.5-10 31.3-2.5 2 2.6 9.4 5.5 6.5 7.2-7 4-17.4 11-24 6.4-4.7-3-9.2-7-12-12"/><path stroke="#000" stroke-linejoin="round" stroke-linecap="butt" d="M737.4 328c9.7-3.5 25.5-10 31.3-2.5 2 2.6 9.4 5.5 6.5 7.2-7 4-17.4 11-24 6.4-4.7-3-9.2-7-12-12"/><path d="M689.5 270.8c9-3 23.5-9 28.8-2.2 1.8 2.4 8.6 5 6 6.7-6.4 3.7-16 10-22 6-4.5-3.2-8.6-6.8-11-11.2"/><path stroke="#000" stroke-linejoin="round" stroke-linecap="butt" d="M689.5 270.8c9-3 23.5-9 28.8-2.2 1.8 2.4 8.6 5 6 6.7-6.4 3.7-16 10-22 6-4.5-3.2-8.6-6.8-11-11.2"/><path d="M726.4 285.6c9-3.2 23.5-9.2 28.8-2.2 1.8 2.3 8.6 5 6 6.6-6.4 3.7-16 10-22 6-4.5-3-8.6-6.8-11-11"/><path stroke="#000" stroke-linejoin="round" stroke-linecap="butt" d="M726.4 285.6c9-3.2 23.5-9.2 28.8-2.2 1.8 2.3 8.6 5 6 6.6-6.4 3.7-16 10-22 6-4.5-3-8.6-6.8-11-11"/><path d="M748.5 300.4c9-3.2 23.5-9.2 29-2.2 1.7 2.3 8.5 5 5.8 6.6-6.4 3.7-16 10-22 6-4.4-3.2-8.6-6.8-11-11.2"/><path stroke="#000" stroke-linejoin="round" stroke-linecap="butt" d="M748.5 300.4c9-3.2 23.5-9.2 29-2.2 1.7 2.3 8.5 5 5.8 6.6-6.4 3.7-16 10-22 6-4.4-3.2-8.6-6.8-11-11.2"/><path d="M770.7 315c9-3 23.5-9 28.8-2 1.8 2.2 8.6 5 6 6.5-6.5 3.8-16 10-22 6-4.5-3-8.6-6.8-11-11"/><path stroke="#000" stroke-linejoin="round" stroke-linecap="butt" d="M770.7 315c9-3 23.5-9 28.8-2 1.8 2.2 8.6 5 6 6.5-6.5 3.8-16 10-22 6-4.5-3-8.6-6.8-11-11"/><path d="M756 278.2c8.8-3.2 23.4-9.2 28.7-2.2 1.8 2.3 8.7 5 6 6.6-6.4 3.7-16 10-22 6-4.5-3-8.6-6.8-11-11"/><path stroke="#000" stroke-linejoin="round" stroke-linecap="butt" d="M756 278.2c8.8-3.2 23.4-9.2 28.7-2.2 1.8 2.3 8.7 5 6 6.6-6.4 3.7-16 10-22 6-4.5-3-8.6-6.8-11-11"/><path d="M726.4 263.5c9-3.2 23.5-9.2 28.8-2.2 1.8 2.3 8.6 5 6 6.6-6.4 3-16 10-22 5-4.5-3-8.6-7-11-11"/><path stroke="#000" stroke-linejoin="round" stroke-linecap="butt" d="M726.4 263.5c9-3.2 23.5-9.2 28.8-2.2 1.8 2.3 8.6 5 6 6.6-6.4 3-16 10-22 5-4.5-3-8.6-7-11-11"/><path d="M778 293c9-3.2 23.5-9.2 29-2.2 1.7 2.3 8.5 5 5.8 6.6-6.4 3.7-16 10-22 6-4.4-3-8.6-6.8-11-11.2"/><path stroke="#000" stroke-linejoin="round" stroke-linecap="butt" d="M778 293c9-3.2 23.5-9.2 29-2.2 1.7 2.3 8.5 5 5.8 6.6-6.4 3.7-16 10-22 6-4.4-3-8.6-6.8-11-11.2"/><path d="M800.2 307.7c9-3 23.5-9 28.8-2.2 1.8 2.4 8.7 5 6 6.7-6.4 3.7-16 10-22 6-4.5-3.2-8.6-6.8-11-11.2"/><path stroke="#000" stroke-linejoin="round" stroke-linecap="butt" d="M800.2 307.7c9-3 23.5-9 28.8-2.2 1.8 2.4 8.7 5 6 6.7-6.4 3.7-16 10-22 6-4.5-3.2-8.6-6.8-11-11.2"/><path d="M753.4 254c8.3-3 22-8.6 26.8-2 1.7 2 8 4.6 5.6 6-6 3.5-15 9.4-20.5 5.5-4-2.8-8-6.2-10.3-10.3"/><path stroke="#000" stroke-linejoin="round" stroke-linecap="butt" d="M753.4 254c8.3-3 22-8.6 26.8-2 1.7 2 8 4.6 5.6 6-6 3.5-15 9.4-20.5 5.5-4-2.8-8-6.2-10.3-10.3"/><path d="M787.7 267.6c8.3-3 22-8.5 27-2 1.5 2 8 4.7 5.4 6-6 3.6-14 9.5-20 5.6-4-2.8-8-6.2-10-10.3"/><path stroke="#000" stroke-linejoin="round" stroke-linecap="butt" d="M787.7 267.6c8.3-3 22-8.5 27-2 1.5 2 8 4.7 5.4 6-6 3.6-14 9.5-20 5.6-4-2.8-8-6.2-10-10.3"/><path d="M808.3 281.4c8.3-3 22-8.6 27-2 1.5 2 8 4.6 5.4 6-6 3.5-15 9.4-20.5 5.5-4-3-8-7-10.3-11"/><path stroke="#000" stroke-linejoin="round" stroke-linecap="butt" d="M808.3 281.4c8.3-3 22-8.6 27-2 1.5 2 8 4.6 5.4 6-6 3.5-15 9.4-20.5 5.5-4-3-8-7-10.3-11"/><path d="M828.4 297.7c6.6-2.7 17.4-7.6 21.4-2 1.3 2 6.4 4.3 4.4 5.6-4.8 3-12 8.4-16.4 5-3.3-2.6-6.3-5.6-8.2-9.2"/><path stroke="#000" stroke-linejoin="round" stroke-linecap="butt" d="M828.4 297.7c6.6-2.7 17.4-7.6 21.4-2 1.3 2 6.4 4.3 4.4 5.6-4.8 3-12 8.4-16.4 5-3.3-2.6-6.3-5.6-8.2-9.2"/><path d="M815.2 260.8c8.3-3 21.8-8.6 26.8-2 1.7 2 8 4.6 5.5 6-6 3.5-15 9.4-20.5 5.6-4-3-8-6.3-10.2-10.3"/><path stroke="#000" stroke-linejoin="round" stroke-linecap="butt" d="M815.2 260.8c8.3-3 21.8-8.6 26.8-2 1.7 2 8 4.6 5.5 6-6 3.5-15 9.4-20.5 5.6-4-3-8-6.3-10.2-10.3"/><path d="M787.7 247c8.3-3 22-8.5 27-2 1.5 2.2 8 4.7 5.4 6.2-6 3.4-14 9.3-20 5.4-4-2.8-8-6.2-10-10.2"/><path stroke="#000" stroke-linejoin="round" stroke-linecap="butt" d="M787.7 247c8.3-3 22-8.5 27-2 1.5 2.2 8 4.7 5.4 6.2-6 3.4-14 9.3-20 5.4-4-2.8-8-6.2-10-10.2"/><path d="M835.8 274.5c8.3-3 21.8-8.5 26.8-2 1.7 2 8 4.7 5.5 6-5 3.6-14 9.5-20 5.6-4-2-8-6-10-10"/><path stroke="#000" stroke-linejoin="round" stroke-linecap="butt" d="M835.8 274.5c8.3-3 21.8-8.5 26.8-2 1.7 2 8 4.7 5.5 6-5 3.6-14 9.5-20 5.6-4-2-8-6-10-10"/><path d="M815.2 238c8-3 21.4-8.5 26.3-2 1.6 2 7.8 4.5 5.4 6-6 3.3-15 9-21 5.3-4-2.8-8-6-10-10"/><path stroke="#000" stroke-linejoin="round" stroke-linecap="butt" d="M815.2 238c8-3 21.4-8.5 26.3-2 1.6 2 7.8 4.5 5.4 6-6 3.3-15 9-21 5.3-4-2.8-8-6-10-10"/><path d="M844.4 231c6.6-2.4 17.5-6.8 21.4-1.7 1.4 1.8 6.4 3.8 4.4 5-4.7 2.7-12 7.4-16.3 4.3-4-2.2-7-5-9-8.2"/><path stroke="#000" stroke-linejoin="round" stroke-linecap="butt" d="M844.4 231c6.6-2.4 17.5-6.8 21.4-1.7 1.4 1.8 6.4 3.8 4.4 5-4.7 2.7-12 7.4-16.3 4.3-4-2.2-7-5-9-8.2"/><path d="M868.8 225.3c5.7-2 15-5.8 18.3-1.4 2 1 6 3 4 4-4 2-10 6-14 4-3-2-5-5-7-7"/><path stroke="#000" stroke-linejoin="round" stroke-linecap="butt" d="M868.8 225.3c5.7-2 15-5.8 18.3-1.4 2 1 6 3 4 4-4 2-10 6-14 4-3-2-5-5-7-7"/><path d="M802.5 327.5c19.3-7.7 38.8-15.4 59-20.5"/><path stroke="#000" stroke-linejoin="round" stroke-linecap="butt" d="M802.5 327.5c19.3-7.7 38.8-15.4 59-20.5"/><path d="M803 328c6.2 3 10.8 9 15 14.5"/><path stroke="#000" stroke-linejoin="round" stroke-linecap="butt" d="M803 328c6.2 3 10.8 9 15 14.5"/><path d="M819 343c34-18.3 73-25 109-39.5"/><path stroke="#000" stroke-linejoin="round" stroke-linecap="butt" d="M819 343c34-18.3 73-25 109-39.5"/><path d="M729 353c19.6-9.8 42.4-12.2 62-22"/><path stroke="#000" stroke-linejoin="round" stroke-linecap="butt" d="M729 353c19.6-9.8 42.4-12.2 62-22"/><path d="M792 332c6.3 3.5 12.4 7.4 17.5 12.5"/><path stroke="#000" stroke-linejoin="round" stroke-linecap="butt" d="M792 332c6.3 3.5 12.4 7.4 17.5 12.5"/><path d="M811 345c-23 6-45.3 14.4-66.5 25"/><path stroke="#000" stroke-linejoin="round" stroke-linecap="butt" d="M811 345c-23 6-45.3 14.4-66.5 25"/><path d="M746.5 370c-7.7-2.6-15-8.7-18.5-16"/><path stroke="#000" stroke-linejoin="round" stroke-linecap="butt" d="M746.5 370c-7.7-2.6-15-8.7-18.5-16"/><path d="M961.2 313c-32 11.5-64.2 23-96.2 35-12.3 4.6-25.4 7-37.5 11.8-4.3 1.7-14.3 1-13 5.3 3.2 10 17.5 9 25.8 14 13.3 9 25.5 18 38.5 27 16.8 11 28.5 41 48.2 37 14.2-3 25.5-14 38.5-20 16-8 34-12 50.3-19 18.2-9 31.2-26 49.2-35"/><path stroke="#ccc" stroke-width="8" stroke-linejoin="round" stroke-linecap="round" d="M961.2 313c-32 11.5-64.2 23-96.2 35-12.3 4.6-25.4 7-37.5 11.8-4.3 1.7-14.3 1-13 5.3 3.2 10 17.5 9 25.8 14 13.3 9 25.5 18 38.5 27 16.8 11 28.5 41 48.2 37 14.2-3 25.5-14 38.5-20 16-8 34-12 50.3-19 18.2-9 31.2-26 49.2-35"/><path d="M531.8 275c-4 .8-8 1.4-11.7 3.2"/><path stroke="#000" stroke-linejoin="round" stroke-linecap="butt" d="M531.8 275c-4 .8-8 1.4-11.7 3.2"/><path d="M519 277.2c-2-13.3-8.8-25.5-11.8-38.6-8-34.5-10.5-70.4-22.4-103.8-12.2-34-38.6-73.6-22.5-106"/><path stroke="#000" stroke-linejoin="round" stroke-linecap="butt" d="M519 277.2c-2-13.3-8.8-25.5-11.8-38.6-8-34.5-10.5-70.4-22.4-103.8-12.2-34-38.6-73.6-22.5-106"/><path d="M539.3 283.6c-2-6.5-2 15.8 3.2 20.3 15.3 13 20 35 33.2 50 20.6 23 31.7 54 40.7 84 7.5 25 32 42 43.8 65"/><path stroke="#000" stroke-linejoin="round" stroke-linecap="butt" d="M539.3 283.6c-2-6.5-2 15.8 3.2 20.3 15.3 13 20 35 33.2 50 20.6 23 31.7 54 40.7 84 7.5 25 32 42 43.8 65"/><path d="M1320.5 19.3c-20-4-40.7.3-61-1-70.2-5-140.5 6.2-210.8 9.5C989.7 30.6 931 17 872 17c-128 0-256 14-384 10-104.2-3.6-208.3 4-312.5 4-37.5 0-75-7.4-112.4-4.2-12 1-25-2.3-37-5.4-2-.5-5-3-6-1-9 16.6 5 37 4 55.6-2 16.2-7 32-8 48-2 37 8 73.5 8 110.3 0 35.4-2 70.8 1 106 2 22.4 9 45 6 67.4-4 28.3-9 57.2-6 85.6 1 6-3 12.8-1 18.2 2 3 7-.7 10-2 12-6 25-7.4 38-8.7 35-3.7 70-2 105 2 43 5.3 87 0 130 1.2 87 2.4 174-2 260-2 135 0 269 19 404 15 45-1.5 89.6-10 134.6-14 28.4-2.6 57-2.8 85.6-1 31.7 1.7 64 12 95 6.3 13.5-2.4 29.5 11.8 40.8 4.3 6-3.8 2-13.7 0-20.4-3-18.4-8-36.8-8-55.6 0-52.4 4.6-105 1-157.3-1-15.7-8-30.5-10.6-46-8-47.4 4-96 11-143.4 2-16 1-33 4-49 2-8 4.8-19-2-24"/><path stroke="#888" stroke-width="4" stroke-linejoin="round" stroke-linecap="butt" d="M1320.5 19.3c-20-4-40.7.3-61-1-70.2-5-140.5 6.2-210.8 9.5C989.7 30.6 931 17 872 17c-128 0-256 14-384 10-104.2-3.6-208.3 4-312.5 4-37.5 0-75-7.4-112.4-4.2-12 1-25-2.3-37-5.4-2-.5-5-3-6-1-9 16.6 5 37 4 55.6-2 16.2-7 32-8 48-2 37 8 73.5 8 110.3 0 35.4-2 70.8 1 106 2 22.4 9 45 6 67.4-4 28.3-9 57.2-6 85.6 1 6-3 12.8-1 18.2 2 3 7-.7 10-2 12-6 25-7.4 38-8.7 35-3.7 70-2 105 2 43 5.3 87 0 130 1.2 87 2.4 174-2 260-2 135 0 269 19 404 15 45-1.5 89.6-10 134.6-14 28.4-2.6 57-2.8 85.6-1 31.7 1.7 64 12 95 6.3 13.5-2.4 29.5 11.8 40.8 4.3 6-3.8 2-13.7 0-20.4-3-18.4-8-36.8-8-55.6 0-52.4 4.6-105 1-157.3-1-15.7-8-30.5-10.6-46-8-47.4 4-96 11-143.4 2-16 1-33 4-49 2-8 4.8-19-2-24"/><path d="M892.4 216.7c6.7-2 17.7-5.4 21.7-1.3 2 1.4 7 3 5 4-5 2-12 6-16 3.4-3-1.8-6-4-8-6.5"/><path stroke="#000" stroke-linejoin="round" stroke-linecap="butt" d="M892.4 216.7c6.7-2 17.7-5.4 21.7-1.3 2 1.4 7 3 5 4-5 2-12 6-16 3.4-3-1.8-6-4-8-6.5"/><path d="M917.2 212.2c5.7-1.6 15-4.7 18.6-1.2 1 1.2 5.5 2.6 3.8 3.4-4 2-10.4 5-14.2 3-3-1.5-5.5-3.4-7-5.6"/><path stroke="#000" stroke-linejoin="round" stroke-linecap="butt" d="M917.2 212.2c5.7-1.6 15-4.7 18.6-1.2 1 1.2 5.5 2.6 3.8 3.4-4 2-10.4 5-14.2 3-3-1.5-5.5-3.4-7-5.6"/><path d="M722.8 81.4c7-1.7 14.3-3.7 21.7-3.7"/><path stroke="#e60000" stroke-width="2" stroke-linejoin="round" stroke-linecap="butt" d="M722.8 81.4c7-1.7 14.3-3.7 21.7-3.7"/></g></svg>