<svg xmlns="http://www.w3.org/2000/svg" stroke-linecap="square" stroke-miterlimit="10" viewBox="0 0 1333.3 533.3" fill="none"><clipPath id="a"><path d="M0 0h1333.3v533.3H0V0z"/></clipPath><g clip-path="url(#a)"><path d="M0 0h1333.3v533.3H0z"/><path d="M630.3 195.5c-11 2.6-33.2 12-26.3 20.5 12.8 16.2 38 19.5 58.5 25.3 26 7.3 51.4 17 78 22 14.8 2.8 32.6 4 45-3.8 7-4.3 12-16.5 6.6-22.4"/><path stroke-linejoin="round" d="M630.3 195.5c-11 2.6-33.2 12-26.3 20.5 12.8 16.2 38 19.5 58.5 25.3 26 7.3 51.4 17 78 22 14.8 2.8 32.6 4 45-3.8 7-4.3 12-16.5 6.6-22.4" stroke="#e60000" stroke-linecap="butt" stroke-width="24"/><path d="M654.5 216c2.4-15 2.3-34.3-9.5-44.4-33-28.4-133-52.5-133-10"/><path stroke-linejoin="round" d="M654.5 216c2.4-15 2.3-34.3-9.5-44.4-33-28.4-133-52.5-133-10" stroke="#d9d9d9" stroke-linecap="butt" stroke-width="24"/><path d="M19.3 513.6c-5-24 0-49.2 0-73.8 0-58-1-116.3-1-174.4 0-19.7 5.7-39.3 4.2-59C19 161.8 14 116.7 17 71.8 18 60 18 48 16 36.4c-1-7-7.8-19.2-1-21.4 29.8-10 62.8 5.6 94 3.2 82.4-6.3 165 5.6 247.3 8.5C419 29 481 15.2 543.6 12.7c82.8-3 165.5 9 248.3 13 43 2 87-8.3 131-10.7 71.2-4 143 6.4 215 6.4 41 0 82-1.6 123 2 14 1.4 28-3 42-3 2.3 0 7.3-2.8 8 0 3.5 14.2-5.4 29-5.4 43.8 0 39 6 77.8 3.2 116.6-4.3 58.4 6.6 117.7-2 175.5-2 10.8 3.7 21.5 6.2 32 7.2 31.4 3 64.6-1 96.4-1.4 10.4 12 25.3 3 31-14 9.5-33.3-6.8-50.2-8.5-21.3-2-43 3.2-64.2 4.3-103 5.2-206-8-309-4.3-204 7.6-408.2 9.7-612 0-52.6-2.5-105 18-157.3 13-34.5-3.6-69-7.6-103.8-7.6"/><path stroke-linejoin="round" d="M19.3 513.6c-5-24 0-49.2 0-73.8 0-58-1-116.3-1-174.4 0-19.7 5.7-39.3 4.2-59C19 161.8 14 116.7 17 71.8 18 60 18 48 16 36.4c-1-7-7.8-19.2-1-21.4 29.8-10 62.8 5.6 94 3.2 82.4-6.3 165 5.6 247.3 8.5C419 29 481 15.2 543.6 12.7c82.8-3 165.5 9 248.3 13 43 2 87-8.3 131-10.7 71.2-4 143 6.4 215 6.4 41 0 82-1.6 123 2 14 1.4 28-3 42-3 2.3 0 7.3-2.8 8 0 3.5 14.2-5.4 29-5.4 43.8 0 39 6 77.8 3.2 116.6-4.3 58.4 6.6 117.7-2 175.5-2 10.8 3.7 21.5 6.2 32 7.2 31.4 3 64.6-1 96.4-1.4 10.4 12 25.3 3 31-14 9.5-33.3-6.8-50.2-8.5-21.3-2-43 3.2-64.2 4.3-103 5.2-206-8-309-4.3-204 7.6-408.2 9.7-612 0-52.6-2.5-105 18-157.3 13-34.5-3.6-69-7.6-103.8-7.6" stroke="#888" stroke-linecap="butt" stroke-width="4"/><path d="M1276.6 402.4c-26.5 0-73.7 14.6-68.5 40.6 3 15 18 25.8 31 33.2 25 13.8 50 28 75 40.6"/><path stroke-linejoin="round" d="M1276.6 402.4c-26.5 0-73.7 14.6-68.5 40.6 3 15 18 25.8 31 33.2 25 13.8 50 28 75 40.6" stroke="#000" stroke-linecap="butt"/><path d="M1304.4 434.5c-13.4 0-41 4.5-36.4 17 6.4 17 27.7 24 44 32.2"/><path stroke-linejoin="round" d="M1304.4 434.5c-13.4 0-41 4.5-36.4 17 6.4 17 27.7 24 44 32.2" stroke="#000" stroke-linecap="butt"/><path d="M1298 458c43.8-43.8-90-91.7-148.7-111.3-21-7-71.2-4-64.2 17"/><path stroke-linejoin="round" d="M1298 458c43.8-43.8-90-91.7-148.7-111.3-21-7-71.2-4-64.2 17" stroke="#000" stroke-linecap="butt"/><path d="M1104.3 398c23.6 13.2 50.2 20 75 31 9.8 4.5 19 13 30 13"/><path stroke-linejoin="round" d="M1104.3 398c23.6 13.2 50.2 20 75 31 9.8 4.5 19 13 30 13" stroke="#000" stroke-linecap="butt"/><path d="M1276.7 499.7c-30.3-5.2-58.5-19.6-87-31.4-31.5-13-63.8-24-94-39.8-15.3-8-26.5-22.6-41.6-30.4"/><path stroke-linejoin="round" d="M1276.7 499.7c-30.3-5.2-58.5-19.6-87-31.4-31.5-13-63.8-24-94-39.8-15.3-8-26.5-22.6-41.6-30.4" stroke="#000" stroke-linecap="butt"/><path d="M1039 359.6c-3.8-23.8 23.2-54.6 47.2-54.6 44.4 0 87.4 17 129.5 31 21.4 7.2 43 14.5 63 24.6 10.7 5.3 26 6.6 31 17"/><path stroke-linejoin="round" d="M1039 359.6c-3.8-23.8 23.2-54.6 47.2-54.6 44.4 0 87.4 17 129.5 31 21.4 7.2 43 14.5 63 24.6 10.7 5.3 26 6.6 31 17" stroke="#000" stroke-linecap="butt"/><path d="M1098 352c8.2 14-32 16-47.2 10.8-37.7-12.6-78.7-14.2-115.6-29-9.2-3.6-16.3-11.5-24.6-17-4.3-3-12.2-2.5-14-7.5-1.8-5.7 11.6-7.3 17.2-5.4"/><path stroke-linejoin="round" d="M1098 352c8.2 14-32 16-47.2 10.8-37.7-12.6-78.7-14.2-115.6-29-9.2-3.6-16.3-11.5-24.6-17-4.3-3-12.2-2.5-14-7.5-1.8-5.7 11.6-7.3 17.2-5.4" stroke="#000" stroke-linecap="butt"/><path d="M957.7 304c20.2 6 40.5 11.2 61 16 7.8 1.8 30.5 8.5 22.5 8.5"/><path stroke-linejoin="round" d="M957.7 304c20.2 6 40.5 11.2 61 16 7.8 1.8 30.5 8.5 22.5 8.5" stroke="#000" stroke-linecap="butt"/><path d="M1073.3 307c-42-9.2-81.2-34-124-34"/><path stroke-linejoin="round" d="M1073.3 307c-42-9.2-81.2-34-124-34" stroke="#000" stroke-linecap="butt"/><path d="M897.8 274c-21.3 2.3-59 26-47 43.8 12.5 19 40.2 20.8 61 30 38.7 17.2 77.6 38 119.8 42.8 30.5 3.4 63.8 12 92 0 14.7-6.3 38.7-36.7 23.5-41.8"/><path stroke-linejoin="round" d="M897.8 274c-21.3 2.3-59 26-47 43.8 12.5 19 40.2 20.8 61 30 38.7 17.2 77.6 38 119.8 42.8 30.5 3.4 63.8 12 92 0 14.7-6.3 38.7-36.7 23.5-41.8" stroke="#000" stroke-linecap="butt"/><path d="M955.6 335c9-24.4 3-59.8-17-76-25-20-58.8-25.3-88-38.6-27.4-12.5-58-28.4-87.6-22.4-11.6 2.3-24.5 7.3-31 17-6 9-4.3 21.4-4.3 32.2"/><path stroke-linejoin="round" d="M955.6 335c9-24.4 3-59.8-17-76-25-20-58.8-25.3-88-38.6-27.4-12.5-58-28.4-87.6-22.4-11.6 2.3-24.5 7.3-31 17-6 9-4.3 21.4-4.3 32.2" stroke="#000" stroke-linecap="butt"/><path d="M737.3 278.2c20.4 27.2 57 38.4 88.8 50.3 29 10.7 59 22.5 89 22.5"/><path stroke-linejoin="round" d="M737.3 278.2c20.4 27.2 57 38.4 88.8 50.3 29 10.7 59 22.5 89 22.5" stroke="#000" stroke-linecap="butt"/><path d="M915 320c9-18.2-9-45-26.8-54.6-12.3-6.7-27-7.7-39.6-14-25-12.4-74.7-32.8-83.5-6.3"/><path stroke-linejoin="round" d="M915 320c9-18.2-9-45-26.8-54.6-12.3-6.7-27-7.7-39.6-14-25-12.4-74.7-32.8-83.5-6.3" stroke="#000" stroke-linecap="butt"/><path d="M781.2 271.8c2.4 17 27 24.4 43.8 27.8 6.8 1.4 26.6 7.4 20.4 4.3"/><path stroke-linejoin="round" d="M781.2 271.8c2.4 17 27 24.4 43.8 27.8 6.8 1.4 26.6 7.4 20.4 4.3" stroke="#000" stroke-linecap="butt"/><path d="M778 236.8c1 7-10.2 9.8-16.6 11.4-27.2 6.6-55.4-9-81.7-19.3-14-6-29-8-42.4-14-3.3-2-7.8-1-10.3-4-4.3-4.8 9.5-10.3 15.5-10.3"/><path stroke-linejoin="round" d="M778 236.8c1 7-10.2 9.8-16.6 11.4-27.2 6.6-55.4-9-81.7-19.3-14-6-29-8-42.4-14-3.3-2-7.8-1-10.3-4-4.3-4.8 9.5-10.3 15.5-10.3" stroke="#000" stroke-linecap="butt"/><path d="M678.4 208.7c16.4-2 31.7 11.7 48.2 11.7"/><path stroke-linejoin="round" d="M678.4 208.7c16.4-2 31.7 11.7 48.2 11.7" stroke="#000" stroke-linecap="butt"/><path d="M754.4 199.3c-17.7-5-35.6-9.2-53-15.6-10.3-4-22.4-12.7-32.2-7.2"/><path stroke-linejoin="round" d="M754.4 199.3c-17.7-5-35.6-9.2-53-15.6-10.3-4-22.4-12.7-32.2-7.2" stroke="#000" stroke-linecap="butt"/><path d="M630.7 182.5c-13.6 3.8-30 5-39 16-6.2 7.6-5.2 23 2 29.2 11 9.6 27.4 9.7 41.2 14 21 6.6 42 16 64 21.5 15 4 30 10.8 45 14 29 5.8 79-8.2 79-37.7"/><path stroke-linejoin="round" d="M630.7 182.5c-13.6 3.8-30 5-39 16-6.2 7.6-5.2 23 2 29.2 11 9.6 27.4 9.7 41.2 14 21 6.6 42 16 64 21.5 15 4 30 10.8 45 14 29 5.8 79-8.2 79-37.7" stroke="#000" stroke-linecap="butt"/><path d="M675.2 229c9.5-22-2.7-53.5-21.4-68.5-20.2-16.2-47.8-20.7-72.7-27.8-15-4.3-29-14-45-14-8 0-18 0-25 5.4-10.4 9-17 31-7.2 41"/><path stroke-linejoin="round" d="M675.2 229c9.5-22-2.7-53.5-21.4-68.5-20.2-16.2-47.8-20.7-72.7-27.8-15-4.3-29-14-45-14-8 0-18 0-25 5.4-10.4 9-17 31-7.2 41" stroke="#000" stroke-linecap="butt"/><path d="M510.4 190.5c6 17.8 28.7 27.3 47 31 31.3 6.3 60.3 25.7 92 25.7"/><path stroke-linejoin="round" d="M510.4 190.5c6 17.8 28.7 27.3 47 31 31.3 6.3 60.3 25.7 92 25.7" stroke="#000" stroke-linecap="butt"/><path d="M584.3 207.6c-14.2-5.3-26-15.7-39.6-22.5"/><path stroke-linejoin="round" d="M584.3 207.6c-14.2-5.3-26-15.7-39.6-22.5" stroke="#000" stroke-linecap="butt"/><path d="M535 159.4c-7.8-5.2 16.8-14.7 25.7-11.7 19.4 6.4 41.5 8 57.8 20.3 15 11.2 30.8 34.7 22.5 51.4"/><path stroke-linejoin="round" d="M535 159.4c-7.8-5.2 16.8-14.7 25.7-11.7 19.4 6.4 41.5 8 57.8 20.3 15 11.2 30.8 34.7 22.5 51.4" stroke="#000" stroke-linecap="butt"/><path d="M584.3 159.4c-18 29-65.7 27.3-99.5 23.6-28.2-3-57.8-9-81.4-24.6-8.4-5.6-19.8-16.3-16-25.7 4-9.8 18-10.8 27.8-15 3.3-1.4 9-4.3 10.7-1"/><path stroke-linejoin="round" d="M584.3 159.4c-18 29-65.7 27.3-99.5 23.6-28.2-3-57.8-9-81.4-24.6-8.4-5.6-19.8-16.3-16-25.7 4-9.8 18-10.8 27.8-15 3.3-1.4 9-4.3 10.7-1" stroke="#000" stroke-linecap="butt"/><path d="M438.7 132.7c-5.2.6-15.8 2.6-14 7.5 9.2 22.7 46 17.6 69.7 23.5 14 3.5 29.4-1 42.8-6.4 4-1.6 11-7.2 12.8-3.2"/><path stroke-linejoin="round" d="M438.7 132.7c-5.2.6-15.8 2.6-14 7.5 9.2 22.7 46 17.6 69.7 23.5 14 3.5 29.4-1 42.8-6.4 4-1.6 11-7.2 12.8-3.2" stroke="#000" stroke-linecap="butt"/><path d="M498.7 142.3c-9.2-4-19.5-4.3-29-7.5"/><path stroke-linejoin="round" d="M498.7 142.3c-9.2-4-19.5-4.3-29-7.5" stroke="#000" stroke-linecap="butt"/><path d="M459 112.4c18.2-3.7 38 2.4 54.6 10.7"/><path stroke-linejoin="round" d="M459 112.4c18.2-3.7 38 2.4 54.6 10.7" stroke="#000" stroke-linecap="butt"/><path d="M468.7 154c0-19-4.2-39.7-16-54.5-5.5-6.8-16-7.2-23.6-11.8-20-12.4-43-23.3-67-26.7-16-2.3-37 24-30 38.5"/><path stroke-linejoin="round" d="M468.7 154c0-19-4.2-39.7-16-54.5-5.5-6.8-16-7.2-23.6-11.8-20-12.4-43-23.3-67-26.7-16-2.3-37 24-30 38.5" stroke="#000" stroke-linecap="butt"/><path d="M357.4 99.5C353 82 394.4 85 411 92c14.3 6.2 19.7 25.5 23.5 40.7 1 4 5 8 3.2 11.8"/><path stroke-linejoin="round" d="M357.4 99.5C353 82 394.4 85 411 92c14.3 6.2 19.7 25.5 23.5 40.7 1 4 5 8 3.2 11.8" stroke="#000" stroke-linecap="butt"/><path d="M389.5 136c-9-4.7-20-9.2-24.6-18.3"/><path stroke-linejoin="round" d="M389.5 136c-9-4.7-20-9.2-24.6-18.3" stroke="#000" stroke-linecap="butt"/><path d="M342.4 121c4 31 50.7 38.2 80.3 48"/><path stroke-linejoin="round" d="M342.4 121c4 31 50.7 38.2 80.3 48" stroke="#000" stroke-linecap="butt"/><path d="M347.8 65.3c-16.2 0-32-5.4-48.2-5.4"/><path stroke-linejoin="round" d="M347.8 65.3c-16.2 0-32-5.4-48.2-5.4" stroke="#000" stroke-linecap="butt"/><path d="M307 78c9.4-1.2 18.6 4.4 28 4.4"/><path stroke-linejoin="round" d="M307 78c9.4-1.2 18.6 4.4 28 4.4" stroke="#000" stroke-linecap="butt"/><path d="M270.7 65.3c-11 1.4-23.6 1.4-32 8.5-4.7 4-4.4 14 0 18.2 5.7 5.8 15.3 5.6 22.4 9.7 24 13.5 54 20 81 17 22-2.4 52-4.6 62-24.5"/><path stroke-linejoin="round" d="M270.7 65.3c-11 1.4-23.6 1.4-32 8.5-4.7 4-4.4 14 0 18.2 5.7 5.8 15.3 5.6 22.4 9.7 24 13.5 54 20 81 17 22-2.4 52-4.6 62-24.5" stroke="#000" stroke-linecap="butt"/><path d="M368 91c-18.6 18-55 13.2-79.4 3.2-8.8-3.6-25-.7-26.8-9.7-1-4.5 8.5-5.3 13.4-5.3"/><path stroke-linejoin="round" d="M368 91c-18.6 18-55 13.2-79.4 3.2-8.8-3.6-25-.7-26.8-9.7-1-4.5 8.5-5.3 13.4-5.3" stroke="#000" stroke-linecap="butt"/><path d="M195.3 48.3c-4.3-16.4 37-13.7 53.5-7 14.4 5.7 19.8 23.8 23.6 38 1 3.7 5 7.6 3.2 11"/><path stroke-linejoin="round" d="M195.3 48.3c-4.3-16.4 37-13.7 53.5-7 14.4 5.7 19.8 23.8 23.6 38 1 3.7 5 7.6 3.2 11" stroke="#000" stroke-linecap="butt"/><path d="M239.8 74.7c-9.2-3-20-6-24.6-12"/><path stroke-linejoin="round" d="M239.8 74.7c-9.2-3-20-6-24.6-12" stroke="#000" stroke-linecap="butt"/><path d="M522.6 190.5c16.6 13.2 37.8 19.4 56.7 29"/><path stroke-linejoin="round" d="M522.6 190.5c16.6 13.2 37.8 19.4 56.7 29" stroke="#d9d9d9" stroke-linecap="butt" stroke-width="16"/><path d="M568 157c-33.2 19.8-78.6 20.5-115.5 9.4-14-4.2-30.5-5.3-41.6-15-5-4.3-6-14.3-2-19.5 4-7 14-7 22-8"/><path stroke-linejoin="round" d="M568 157c-33.2 19.8-78.6 20.5-115.5 9.4-14-4.2-30.5-5.3-41.6-15-5-4.3-6-14.3-2-19.5 4-7 14-7 22-8" stroke="#e60000" stroke-linecap="butt" stroke-width="12"/><path d="M465.2 125c11.6-4.2 29-1.2 38 5.6"/><path stroke-linejoin="round" d="M465.2 125c11.6-4.2 29-1.2 38 5.6" stroke="#e60000" stroke-linecap="butt" stroke-width="12"/><path d="M677.4 191.4c20 .6 48.4 7.4 55.5 20.4"/><path stroke-linejoin="round" d="M677.4 191.4c20 .6 48.4 7.4 55.5 20.4" stroke="#e60000" stroke-linecap="butt" stroke-width="16"/><path d="M246 39.6c-24.6 24.8-69 41.7-101.4 27.8-18-7.7-53-42-34.3-48"/><path stroke-linejoin="round" d="M246 39.6c-24.6 24.8-69 41.7-101.4 27.8-18-7.7-53-42-34.3-48" stroke="#000" stroke-linecap="butt"/><path d="M208.7 38.5c-13.8 23-97-.3-78-19.2"/><path stroke-linejoin="round" d="M208.7 38.5c-13.8 23-97-.3-78-19.2" stroke="#000" stroke-linecap="butt"/><path d="M184 71.7c18.5 9.2 37.2 22.5 57.8 22.5"/><path stroke-linejoin="round" d="M184 71.7c18.5 9.2 37.2 22.5 57.8 22.5" stroke="#000" stroke-linecap="butt"/><path d="M171.2 48.2c5.4-13.4 19.2-24.4 33.2-28C226 15 249 24.6 270.7 29c24.3 4.7 42 45.2 31 67.3"/><path stroke-linejoin="round" d="M171.2 48.2c5.4-13.4 19.2-24.4 33.2-28C226 15 249 24.6 270.7 29c24.3 4.7 42 45.2 31 67.3" stroke="#000" stroke-linecap="butt"/></g></svg>