<svg viewBox="0 0 439.835 177.522" fill="none" stroke-linecap="square" stroke-miterlimit="10" xmlns="http://www.w3.org/2000/svg"><clipPath id="a"><path d="M0 0h439.835v177.522H0V0z"/></clipPath><g clip-path="url(#a)"><path d="M0 0h439.835v177.522H0z"/><path d="M70.71-13.748h376v128h-376z"/><path fill="#000" d="M119.586 92.413v10.36h-13.343q-3.33 0-5.33-.126-2-.125-5.06-1.047-3.064-.922-5.282-2.844-3.34-3.078-4.31-7.218-.95-4.157-.95-9.47V43.46h10.84v38.455q0 4.328.91 6.656 1.64 3.85 7.19 3.85h15.35zm19.967 10.36h-9.86v-44.36h-9.187l4.484-9.407h14.563v53.766zM129.24 37.82q-1.453-1.907-1.453-4.142 0-2.25 1.453-4.094 1.47-1.86 4.484-1.86 3.032 0 4.485 1.86 1.45 1.844 1.45 4.094 0 2.235-1.46 4.078-1.46 1.844-4.49 1.844-3.02 0-4.49-1.78zm45.6 33.264h-9.204v31.688H155.12V71.084h-6.406l4.78-10.03h1.626q0-7.266 6.032-12.47 6.047-5.203 16.875-5.203v10.04q-12.39 0-12.39 7.64h9.202v10.03zm46.095 31.688h-35.157V58.475q0-6.625 4.266-10.72 2.906-2.717 6.406-3.5 3.516-.796 8.344-.796h16.14v10.36h-17.187q-7.14 0-7.14 5.7v7.45h18.484v10.36h-18.48v15.08h24.33v10.36z"/><path fill="#e60000" d="M252.653 64.366v6.718h-14.157q-2.328 0-4.015.89-1.67.876-1.67 2.485 0 .95.41 1.71.41.75.92 1.23.52.48 1.6 1 1.08.51 1.68.72.61.2 5.1 1.64 4.49 1.43 6.64 2.4 2.16.95 3.32 2.59 1.17 1.64 1.484 3.2.326 1.56.326 3.08 0 10.72-14.74 10.72H225.7v-6.72h13.828q7.53 0 7.53-4 0-1.92-2.202-3.207-2.203-1.28-5.36-2.157-3.156-.874-6.328-2.03-3.156-1.17-5.36-3.766-2.187-2.61-2.187-6.44 0-4.89 3.75-7.485 3.77-2.61 9.13-2.61h14.16zm5.6 6.718l14.327-14.312v7.594h10.797v6.718H272.58V87.57q0 2.796.906 4.64.922 1.843 2.688 2.61 1.766.75 3.312 1 1.563.233 3.89.233v6.72q-9.202 0-13.608-3.517-4.39-3.53-4.39-11.687V71.08h-7.126zm54.078 9.125v7.2q-3.03-2.33-7.43-2.33-3.76 0-5.84 1.48-2.07 1.48-2.07 4.2 0 5.28 7.85 5.28h10.56V80.77q0-9.688-9.43-9.688h-12.82v-6.718h13.206q7.768 0 11.924 3.843t4.157 11.046v23.516H304.6q-6.81 0-10.81-3.03-4-3.05-4-8.9t4.234-8.88q4.25-3.05 10.654-3.05 3.594 0 7.67 1.28zm45.14 14.15l4.8 4.72q-5.53 4.48-12.64 4.48-8.89 0-14.25-5.72-5.36-5.72-5.36-14.28 0-8.39 5.64-14.19 5.64-5.81 13.97-5.81 7.11 0 12.64 4.48l-4.72 4.79q-3.36-2.56-7.92-2.56-5.51 0-8.76 3.64-3.23 3.64-3.23 9.64t3.24 9.64q3.25 3.64 8.767 3.64 4.64 0 7.844-2.49zm33.67-30h7.77l-9.69 16.72q9.85 2.64 9.85 15.92v5.76h-7.03v-5.84q0-5.36-3.17-8.28-3.15-2.93-9-2.93-1.83 0-3.75.25v16.79h-7.04v-56h7.05v32.88q3.36-.47 6.72 0l8.31-15.28z"/><path d="M395.546 20.572h47.905v57.386h-47.9z"/><path fill="#888" d="M410.624 60.292h-2.812V47.62h-2.625l1.28-2.687h4.157v15.36zm-2.937-18.562q-.422-.547-.422-1.188 0-.64.406-1.156.43-.53 1.29-.53.88 0 1.28.53.43.516.43 1.156 0 .64-.42 1.172-.4.53-1.28.53-.86 0-1.26-.514zm8.994 5.218q2.24-2.343 5.6-2.343 1.63 0 3.05.625 1.44.625 2.5 1.718 1.08 1.094 1.69 2.547.61 1.453.61 3.11 0 1.672-.59 3.125t-1.65 2.547q-1.05 1.093-2.5 1.718-1.44.61-3.09.61-1.7 0-3.12-.61-1.423-.625-2.485-1.718-1.05-1.094-1.64-2.547-.596-1.453-.596-3.125 0-3.39 2.25-5.657zm5.6.36q-2.23 0-3.61 1.47-1.36 1.467-1.36 3.842 0 2.36 1.36 3.828 1.38 1.47 3.61 1.47 2.27 0 3.61-1.485 1.35-1.485 1.35-3.813 0-2.343-1.34-3.828-1.34-1.484-3.61-1.484z"/><path fill="#000" d="M85.413 101.218l-50.68 21.748v50.75l50.816-21.75z"/><path fill="#000" d="M5.768 87.59v50.783l29.084 35.312v-50.688z"/><path fill="#fff" d="M16.6 100.738v29.372l-7.87 11.782 3.885 4.75 6.276-8.374 7.72 25.47 4.34 5.186-9.51-32.814v-29.656zm38.67 13.28l-20.37 47.19 11.048-4.814v12.593l9.322-4v-12.81l9.043-3.875v12.748l9.322-4v-12.688l11.842-5-21.198-28.874z"/><path fill="#000" d="M58.718 66.75v50.75L15.09 91.253V40.375z"/><path fill="#000" d="M76.227 34.688v50.75L58.653 117.5V66.878"/><path fill="#fff" d="M31.312 50.647v20.46l-16.19.927V82.48l16.25-.743-.06 19.07 9.06 5.408V97.5l-.06-10.447 18.373 21.51v-10.57L40.373 76.61V55.963z"/><path fill="#000" d="M19.51 13.108h47.795v47.796H19.51z"/><path stroke="#fff" stroke-linejoin="round" stroke-linecap="butt" d="M19.51 13.108h47.795v47.796H19.51z"/><path fill="#fff" d="M24.21 37.006h-.003c0-10.13 8.212-18.342 18.342-18.342 4.86 0 9.53 1.933 12.97 5.372 3.44 3.44 5.37 8.106 5.37 12.97 0 10.13-8.21 18.342-18.34 18.342-10.13 0-18.34-8.212-18.34-18.342z"/><path stroke="#fff" stroke-linejoin="round" stroke-linecap="butt" d="M24.21 37.006h-.003c0-10.13 8.212-18.342 18.342-18.342 4.86 0 9.53 1.933 12.97 5.372 3.44 3.44 5.37 8.106 5.37 12.97 0 10.13-8.21 18.342-18.34 18.342-10.13 0-18.34-8.212-18.34-18.342z"/><path fill="#fff" d="M96.717 44.39V-3.24L67.305 13.105v47.687z"/><path stroke="#fff" stroke-linejoin="round" stroke-linecap="butt" d="M96.717 44.39V-3.24L67.305 13.105v47.687z"/><path d="M214.374 108.667l59.37-59.37"/><path stroke="#fff" stroke-width="12" stroke-linejoin="round" stroke-linecap="butt" d="M214.374 108.667l59.37-59.37"/><path fill="#888" d="M392.307 57.155c0-2.07 1.678-3.748 3.748-3.748.994 0 1.947.395 2.65 1.098.703.702 1.098 1.656 1.098 2.65 0 2.07-1.678 3.748-3.748 3.748-2.07 0-3.748-1.678-3.748-3.748z"/><path d="M206.293 60.903l23.275-23.276"/><path stroke="#fff" stroke-width="12" stroke-linejoin="round" stroke-linecap="butt" d="M206.293 60.903l23.275-23.276"/></g></svg>