<svg viewBox="0 0 960 171.8" fill="none" stroke-linecap="square" stroke-miterlimit="10" xmlns="http://www.w3.org/2000/svg"><clipPath id="a"><path d="M0 0h960v171.8H0V0z"/></clipPath><g clip-path="url(#a)"><path d="M0 0h960v171.8H0z"/><path d="M9.7 14.7C11 32 14 49 17.4 66.3c2.8 13.6-2.7 27.5 5.4 41C29.3 118 15 129 15 140c0 3.7-1 7.6 1 11.4.2.7-2.6 2 0 2.2 32 3 67.7-1.2 101.6-1.7 96.6-2 96.7-2 193.4-3 66-1 130.8 4 195.7 8 18.6 1 37.6-2 56.2-2 30-2 61-2 92-2 50-1 100-1 150-2l120-2c11-1 11 0 21 0 2 0 8-1 6 0-6 1-19 3-22 2-1-1 0-1 0-2 .3-5 2-5 1.2-9-1-8-2.6-8-4.4-16-3-12.8-2.6-12.8-4.5-25-3-20-5-40-5-60 0-6.7 7-13 7-19.6 0-2 4-4 0-5.4-21-7-66.6-1-100-1-71.4 0-142 5.4-213.3 6-124 1-248.7.7-372-2.6-76.5-2-157 2.6-230-4"/><path stroke="#999" stroke-width="3" stroke-linejoin="round" stroke-linecap="butt" d="M9.7 14.7C11 32 14 49 17.4 66.3c2.8 13.6-2.7 27.5 5.4 41C29.3 118 15 129 15 140c0 3.7-1 7.6 1 11.4.2.7-2.6 2 0 2.2 32 3 67.7-1.2 101.6-1.7 96.6-2 96.7-2 193.4-3 66-1 130.8 4 195.7 8 18.6 1 37.6-2 56.2-2 30-2 61-2 92-2 50-1 100-1 150-2l120-2c11-1 11 0 21 0 2 0 8-1 6 0-6 1-19 3-22 2-1-1 0-1 0-2 .3-5 2-5 1.2-9-1-8-2.6-8-4.4-16-3-12.8-2.6-12.8-4.5-25-3-20-5-40-5-60 0-6.7 7-13 7-19.6 0-2 4-4 0-5.4-21-7-66.6-1-100-1-71.4 0-142 5.4-213.3 6-124 1-248.7.7-372-2.6-76.5-2-157 2.6-230-4"/><path d="M52 53c25.4 8.8 23.5 11.2 50.7 17.5 11.8 2.8 14.2 4 25.3.3 9.2-3 18.8-11.3 14.3-17-4-5-20.2 15.8-10.7 16 11 0 21-7.6 31.4-5.7 7 2 13.6 5 21 5h9.6c5.2 3 4 4 8 8 4.5 5 4.7 3 4 4-2 5-2.3 5-6 9-6 7 0 14-13 14-42.3-1-40.2-8-79.6-17-13.4-3-12.7-4-26-7-2 0-8-1-6.8 0 3.3 3 5.2 7 10.3 9 33 11.7 33 12 68.5 20.6 14 3.4 30.2-2.3 45.3-3.6 5-.4 14.3 2 16.4 1 15.3-7 21.8-19 35.3-27 3-1.7 9.7 5 12.4 3 10-8 17.5-17.4 29-24.7 1.7-1 2.6-2 5-1 3.6 1.4 4.5 4.6 5.6 7"/><path stroke="#000" stroke-linejoin="round" stroke-linecap="butt" d="M52 53c25.4 8.8 23.5 11.2 50.7 17.5 11.8 2.8 14.2 4 25.3.3 9.2-3 18.8-11.3 14.3-17-4-5-20.2 15.8-10.7 16 11 0 21-7.6 31.4-5.7 7 2 13.6 5 21 5h9.6c5.2 3 4 4 8 8 4.5 5 4.7 3 4 4-2 5-2.3 5-6 9-6 7 0 14-13 14-42.3-1-40.2-8-79.6-17-13.4-3-12.7-4-26-7-2 0-8-1-6.8 0 3.3 3 5.2 7 10.3 9 33 11.7 33 12 68.5 20.6 14 3.4 30.2-2.3 45.3-3.6 5-.4 14.3 2 16.4 1 15.3-7 21.8-19 35.3-27 3-1.7 9.7 5 12.4 3 10-8 17.5-17.4 29-24.7 1.7-1 2.6-2 5-1 3.6 1.4 4.5 4.6 5.6 7"/><path d="M655.2 53c25.3 8.8 23.4 11.2 50.6 17.5 11.8 2.8 14.2 4 25.3.3 10-3 19-11.3 15-17-4-5-20 15.8-10 16 11 0 21-7.6 32-5.7 7 2 14 5 21 5h10c5 3 4 4 8 8 4.5 5 4.7 3 4 4-2 5-2.3 5-6 9-6 7 0 14-13 14-42.3-1-40.2-8-79.6-17-13.3-3-12.6-4-26-7-2 0-8-1-6.7 0 3.4 3 5.3 7 10.4 9 33 11.7 33 12 68.3 20.6 14 3.4 30-2.3 45-3.6 5-.4 14 2 16 1 15-7 21.7-19 35-27 3-1.6 9.8 5 12.5 3 10-8 17.2-17.3 29-24.6 1.4-1 2.3-2 5-1 3.3 1.3 4.2 4.5 5.3 7"/><path stroke="#000" stroke-linejoin="round" stroke-linecap="butt" d="M655.2 53c25.3 8.8 23.4 11.2 50.6 17.5 11.8 2.8 14.2 4 25.3.3 10-3 19-11.3 15-17-4-5-20 15.8-10 16 11 0 21-7.6 32-5.7 7 2 14 5 21 5h10c5 3 4 4 8 8 4.5 5 4.7 3 4 4-2 5-2.3 5-6 9-6 7 0 14-13 14-42.3-1-40.2-8-79.6-17-13.3-3-12.6-4-26-7-2 0-8-1-6.7 0 3.4 3 5.3 7 10.4 9 33 11.7 33 12 68.3 20.6 14 3.4 30-2.3 45-3.6 5-.4 14 2 16 1 15-7 21.7-19 35-27 3-1.6 9.8 5 12.5 3 10-8 17.2-17.3 29-24.6 1.4-1 2.3-2 5-1 3.3 1.3 4.2 4.5 5.3 7"/><path d="M363.8 58c25.3 8.8 23.4 11.2 50.6 17.6 11.8 2.8 14.2 4 25.3.2 9.2-3 18.8-11.2 14.3-17-4-5-20.2 15.8-10.7 16 11 0 21-7.5 31.3-5.6 7.2 1.3 13.7 4 21 4.5h9.7c5 3 4 3.7 7.8 7.5 5 4.5 5 2.5 5 3.6-2 4.7-2 4.7-6 9-6 7 0 14.2-13 13.7-42-1.7-40-8-79-17.3-13-3.2-13-4.2-26-7.2-2-.8-8-1.7-7-.5 4 3 5 7 11 8.7 33 11.6 33 12 68.7 20.6 14 3.3 30-2.4 45-3.8 5-.4 14 2 16.4 1 15.6-6 21.8-18 35.4-26 3.4-2 10 4.8 12.7 2.7 10.4-8 17.7-17.3 29-24.7 2-1 3-1.8 5-1 4 1.3 5 4.5 6 7"/><path stroke="#000" stroke-linejoin="round" stroke-linecap="butt" d="M363.8 58c25.3 8.8 23.4 11.2 50.6 17.6 11.8 2.8 14.2 4 25.3.2 9.2-3 18.8-11.2 14.3-17-4-5-20.2 15.8-10.7 16 11 0 21-7.5 31.3-5.6 7.2 1.3 13.7 4 21 4.5h9.7c5 3 4 3.7 7.8 7.5 5 4.5 5 2.5 5 3.6-2 4.7-2 4.7-6 9-6 7 0 14.2-13 13.7-42-1.7-40-8-79-17.3-13-3.2-13-4.2-26-7.2-2-.8-8-1.7-7-.5 4 3 5 7 11 8.7 33 11.6 33 12 68.7 20.6 14 3.3 30-2.4 45-3.8 5-.4 14 2 16.4 1 15.6-6 21.8-18 35.4-26 3.4-2 10 4.8 12.7 2.7 10.4-8 17.7-17.3 29-24.7 2-1 3-1.8 5-1 4 1.3 5 4.5 6 7"/><path d="M326.7 21.6c0 30.3 7 60.6 4.6 91-1 12.6-5.4 25-5.4 37.6"/><path stroke="#999" stroke-linejoin="round" stroke-linecap="butt" d="M326.7 21.6c0 30.3 7 60.6 4.6 91-1 12.6-5.4 25-5.4 37.6"/><path d="M634 20c0 18.8-6.6 38.8 0 56.3 7 17.6 11 37.8 7 56.2-1.4 6.3 2.3 14.7-2.3 19.3"/><path stroke="#999" stroke-linejoin="round" stroke-linecap="butt" d="M634 20c0 18.8-6.6 38.8 0 56.3 7 17.6 11 37.8 7 56.2-1.4 6.3 2.3 14.7-2.3 19.3"/></g></svg>