<svg version="1.1" viewBox="0.0 0.0 960.0 171.81364829396327" fill="none" stroke="none" stroke-linecap="square" stroke-miterlimit="10" xmlns="http://www.w3.org/2000/svg" xmlns:xlink="http://www.w3.org/1999/xlink"><clipPath id="p.0"><path d="m0 0l960.0 0l0 171.81364l-960.0 0l0 -171.81364z" clip-rule="nonzero"></path></clipPath><g clip-path="url(#p.0)"><path fill="#000000" fill-opacity="0.0" d="m0 0l960.0 0l0 171.81364l-960.0 0z" fill-rule="nonzero"></path><path fill="#000000" fill-opacity="0.0" d="m9.721785 14.6712885c1.3736658 17.20475 4.169842 34.40161 7.703413 51.582573c2.8145676 13.685028 -2.7211409 27.57402 5.3936996 41.09472c6.4338493 10.719879 -7.7060366 21.665367 -7.7060366 32.533226c0 3.8533936 -1.1928301 7.7436523 0.7716541 11.558228c0.36366177 0.70614624 -2.4362173 1.9145813 0 2.1399994c32.222042 2.9815063 67.78628 -1.2108917 101.70079 -1.7120056c96.634315 -1.4278412 96.68191 -1.1596832 193.38846 -2.1399994c65.87732 -0.6678009 130.87057 4.5973053 195.69815 7.919113c18.609283 0.95355225 37.59079 -1.256134 56.24411 -2.1407318c30.463867 -1.4447021 61.629456 -1.3090515 92.45404 -1.9263763c49.99286 -1.0011902 100.21991 -0.8284302 150.24152 -1.7120056c60.053467 -1.0607605 60.07361 -0.9860077 120.19159 -1.7120056c10.777222 -0.13014221 10.787415 0 21.574768 0c2.0542603 0 7.7843018 -0.3503418 6.162781 0c-5.962219 1.2881622 -18.598938 3.8552094 -21.572205 1.9263763c-1.0616455 -0.6886902 -0.11462402 -0.7498627 0 -1.4983673c0.65582275 -4.2822266 2.0769043 -4.2779846 1.5407104 -8.561493c-1.0074463 -8.047073 -2.8138428 -8.016357 -4.6220703 -16.052612c-2.8155518 -12.513092 -2.6635132 -12.516426 -4.624695 -25.042099c-3.11438 -19.891151 -4.6220093 -39.80611 -4.6220093 -59.716064c0 -6.453026 6.934387 -12.809965 6.934387 -19.262989c0 -1.7122478 3.8511353 -3.799883 0 -5.1367474c-20.883118 -7.249174 -66.73822 -1.329503 -100.16016 -1.2847338c-71.47632 0.09574318 -141.97992 5.1390257 -213.41992 5.7791147c-124.0184 1.1111813 -248.6171 0.7209358 -372.13385 -2.5680084c-76.628006 -2.0404148 -157.34946 2.274273 -230.37007 -4.4951105" fill-rule="evenodd"></path><path stroke="#999999" stroke-width="3.0" stroke-linejoin="round" stroke-linecap="butt" d="m9.721785 14.6712885c1.3736658 17.20475 4.169842 34.40161 7.703413 51.582573c2.8145676 13.685028 -2.7211409 27.57402 5.3936996 41.09472c6.4338493 10.719879 -7.7060366 21.665367 -7.7060366 32.533226c0 3.8533936 -1.1928301 7.7436523 0.7716541 11.558228c0.36366177 0.70614624 -2.4362173 1.9145813 0 2.1399994c32.222042 2.9815063 67.78628 -1.2108917 101.70079 -1.7120056c96.634315 -1.4278412 96.68191 -1.1596832 193.38846 -2.1399994c65.87732 -0.6678009 130.87057 4.5973053 195.69815 7.919113c18.609283 0.95355225 37.59079 -1.256134 56.24411 -2.1407318c30.463867 -1.4447021 61.629456 -1.3090515 92.45404 -1.9263763c49.99286 -1.0011902 100.21991 -0.8284302 150.24152 -1.7120056c60.053467 -1.0607605 60.07361 -0.9860077 120.19159 -1.7120056c10.777222 -0.13014221 10.787415 0 21.574768 0c2.0542603 0 7.7843018 -0.3503418 6.162781 0c-5.962219 1.2881622 -18.598938 3.8552094 -21.572205 1.9263763c-1.0616455 -0.6886902 -0.11462402 -0.7498627 0 -1.4983673c0.65582275 -4.2822266 2.0769043 -4.2779846 1.5407104 -8.561493c-1.0074463 -8.047073 -2.8138428 -8.016357 -4.6220703 -16.052612c-2.8155518 -12.513092 -2.6635132 -12.516426 -4.624695 -25.042099c-3.11438 -19.891151 -4.6220093 -39.80611 -4.6220093 -59.716064c0 -6.453026 6.934387 -12.809965 6.934387 -19.262989c0 -1.7122478 3.8511353 -3.799883 0 -5.1367474c-20.883118 -7.249174 -66.73822 -1.329503 -100.16016 -1.2847338c-71.47632 0.09574318 -141.97992 5.1390257 -213.41992 5.7791147c-124.0184 1.1111813 -248.6171 0.7209358 -372.13385 -2.5680084c-76.628006 -2.0404148 -157.34946 2.274273 -230.37007 -4.4951105" fill-rule="evenodd"></path><path fill="#000000" fill-opacity="0.0" d="m52.09449 52.989502c25.311264 8.77549 23.388824 11.179428 50.622536 17.55098c11.793137 2.7591019 14.22332 3.8789215 25.311264 0.2143631c9.218201 -3.0466003 18.782394 -11.205311 14.2586975 -16.90934c-4.0792847 -5.1436462 -20.18077 15.712212 -10.694321 15.838974c10.901245 0.14566803 20.949554 -7.4900436 31.371292 -5.5647507c7.113022 1.3140488 13.622467 4.0899124 21.034027 4.494385c0.8802185 0.048034668 9.562241 -0.03842926 9.624405 0c5.134262 3.173355 3.9951172 3.7181091 7.8428345 7.4911194c4.668915 4.5782547 4.813385 2.5273132 4.2784576 3.6391068c-2.2413788 4.6584625 -2.3939056 4.6689224 -6.0600433 8.989494c-5.9816284 7.0493927 -0.042037964 14.214485 -13.191193 13.698235c-42.200043 -1.6568298 -40.078552 -8.142334 -79.49818 -17.337341c-13.379715 -3.1209488 -12.665962 -4.1227493 -26.024147 -7.2767563c-2.10392 -0.49676514 -8.026955 -1.3437424 -6.7729034 -0.21437073c3.310196 2.9811096 5.1873856 6.966202 10.338486 8.775131c33.028175 11.598579 32.939796 11.986885 68.44681 20.547722c14.129272 3.406601 30.206131 -2.325119 45.27417 -3.638382c5.0451965 -0.43971252 14.308212 1.9485931 16.399734 1.0696411c15.446899 -6.4915237 21.807648 -18.627747 35.292725 -26.539742c3.1730804 -1.8617249 9.794327 4.9039307 12.477097 2.7823715c10.107361 -7.9929733 17.44345 -17.292824 28.87564 -24.614101c1.8125305 -1.1607437 2.7115173 -1.8815193 4.991333 -1.0703659c3.7492065 1.3339386 4.6466675 4.524788 5.7042236 7.063118" fill-rule="evenodd"></path><path stroke="#000000" stroke-width="1.0" stroke-linejoin="round" stroke-linecap="butt" d="m52.09449 52.989502c25.311264 8.77549 23.388824 11.179428 50.622536 17.55098c11.793137 2.7591019 14.22332 3.8789215 25.311264 0.2143631c9.218201 -3.0466003 18.782394 -11.205311 14.2586975 -16.90934c-4.0792847 -5.1436462 -20.18077 15.712212 -10.694321 15.838974c10.901245 0.14566803 20.949554 -7.4900436 31.371292 -5.5647507c7.113022 1.3140488 13.622467 4.0899124 21.034027 4.494385c0.8802185 0.048034668 9.562241 -0.03842926 9.624405 0c5.134262 3.173355 3.9951172 3.7181091 7.8428345 7.4911194c4.668915 4.5782547 4.813385 2.5273132 4.2784576 3.6391068c-2.2413788 4.6584625 -2.3939056 4.6689224 -6.0600433 8.989494c-5.9816284 7.0493927 -0.042037964 14.214485 -13.191193 13.698235c-42.200043 -1.6568298 -40.078552 -8.142334 -79.49818 -17.337341c-13.379715 -3.1209488 -12.665962 -4.1227493 -26.024147 -7.2767563c-2.10392 -0.49676514 -8.026955 -1.3437424 -6.7729034 -0.21437073c3.310196 2.9811096 5.1873856 6.966202 10.338486 8.775131c33.028175 11.598579 32.939796 11.986885 68.44681 20.547722c14.129272 3.406601 30.206131 -2.325119 45.27417 -3.638382c5.0451965 -0.43971252 14.308212 1.9485931 16.399734 1.0696411c15.446899 -6.4915237 21.807648 -18.627747 35.292725 -26.539742c3.1730804 -1.8617249 9.794327 4.9039307 12.477097 2.7823715c10.107361 -7.9929733 17.44345 -17.292824 28.87564 -24.614101c1.8125305 -1.1607437 2.7115173 -1.8815193 4.991333 -1.0703659c3.7492065 1.3339386 4.6466675 4.524788 5.7042236 7.063118" fill-rule="evenodd"></path><path fill="#000000" fill-opacity="0.0" d="m655.1916 52.989502c25.31128 8.77549 23.388855 11.179428 50.62256 17.55098c11.793152 2.7591019 14.223328 3.8789215 25.31128 0.2143631c9.218201 -3.0466003 18.782349 -11.205311 14.258667 -16.90934c-4.0792847 -5.1436462 -20.180786 15.712212 -10.694336 15.838974c10.901245 0.14566803 20.949585 -7.4900436 31.371338 -5.5647507c7.112976 1.3140488 13.622437 4.0899124 21.033997 4.494385c0.880188 0.048034668 9.562256 -0.03842926 9.62439 0c5.1342773 3.173355 3.9951172 3.7181091 7.8428345 7.4911194c4.6689453 4.5782547 4.8134155 2.5273132 4.2785034 3.6391068c-2.241394 4.6584625 -2.393921 4.6689224 -6.0600586 8.989494c-5.9816284 7.0493927 -0.042053223 14.214485 -13.191223 13.698235c-42.200012 -1.6568298 -40.078552 -8.142334 -79.49817 -17.337341c-13.3797 -3.1209488 -12.665955 -4.1227493 -26.024109 -7.2767563c-2.1039429 -0.49676514 -8.026978 -1.3437424 -6.772949 -0.21437073c3.3102417 2.9811096 5.187378 6.966202 10.338501 8.775131c33.0282 11.598579 32.93982 11.986885 68.44684 20.547722c14.129272 3.406601 30.206116 -2.325119 45.27417 -3.638382c5.045166 -0.43971252 14.3081665 1.9485931 16.39972 1.0696411c15.446899 -6.4915237 21.807617 -18.627747 35.292725 -26.539742c3.1730957 -1.8617249 9.794312 4.9039307 12.477112 2.7823715c10.107361 -7.9929733 17.44342 -17.292824 28.87561 -24.614101c1.8125 -1.1607437 2.7114868 -1.8815193 4.991333 -1.0703659c3.7492065 1.3339386 4.6466675 4.524788 5.7042236 7.063118" fill-rule="evenodd"></path><path stroke="#000000" stroke-width="1.0" stroke-linejoin="round" stroke-linecap="butt" d="m655.1916 52.989502c25.31128 8.77549 23.388855 11.179428 50.62256 17.55098c11.793152 2.7591019 14.223328 3.8789215 25.31128 0.2143631c9.218201 -3.0466003 18.782349 -11.205311 14.258667 -16.90934c-4.0792847 -5.1436462 -20.180786 15.712212 -10.694336 15.838974c10.901245 0.14566803 20.949585 -7.4900436 31.371338 -5.5647507c7.112976 1.3140488 13.622437 4.0899124 21.033997 4.494385c0.880188 0.048034668 9.562256 -0.03842926 9.62439 0c5.1342773 3.173355 3.9951172 3.7181091 7.8428345 7.4911194c4.6689453 4.5782547 4.8134155 2.5273132 4.2785034 3.6391068c-2.241394 4.6584625 -2.393921 4.6689224 -6.0600586 8.989494c-5.9816284 7.0493927 -0.042053223 14.214485 -13.191223 13.698235c-42.200012 -1.6568298 -40.078552 -8.142334 -79.49817 -17.337341c-13.3797 -3.1209488 -12.665955 -4.1227493 -26.024109 -7.2767563c-2.1039429 -0.49676514 -8.026978 -1.3437424 -6.772949 -0.21437073c3.3102417 2.9811096 5.187378 6.966202 10.338501 8.775131c33.0282 11.598579 32.93982 11.986885 68.44684 20.547722c14.129272 3.406601 30.206116 -2.325119 45.27417 -3.638382c5.045166 -0.43971252 14.3081665 1.9485931 16.39972 1.0696411c15.446899 -6.4915237 21.807617 -18.627747 35.292725 -26.539742c3.1730957 -1.8617249 9.794312 4.9039307 12.477112 2.7823715c10.107361 -7.9929733 17.44342 -17.292824 28.87561 -24.614101c1.8125 -1.1607437 2.7114868 -1.8815193 4.991333 -1.0703659c3.7492065 1.3339386 4.6466675 4.524788 5.7042236 7.063118" fill-rule="evenodd"></path><path fill="#000000" fill-opacity="0.0" d="m363.7743 58.04987c25.311249 8.775486 23.388794 11.179424 50.622528 17.550983c11.793121 2.7591019 14.223328 3.8789215 25.31128 0.2143631c9.21817 -3.046608 18.78238 -11.205315 14.258667 -16.909344c-4.0792847 -5.1436462 -20.180756 15.712215 -10.694305 15.838978c10.901245 0.1456604 20.949554 -7.4900513 31.371307 -5.5647507c7.1130066 1.3140411 13.622437 4.0899124 21.034027 4.494377c0.880188 0.048034668 9.562225 -0.03842163 9.62439 0c5.134247 3.173355 3.9951172 3.7181168 7.8428345 7.4911194c4.6688843 4.5782623 4.8133545 2.5273132 4.2784424 3.6391068c-2.241394 4.65847 -2.393921 4.66893 -6.060028 8.989494c-5.9816284 7.0493927 -0.042022705 14.214493 -13.191193 13.698242c-42.200043 -1.6568298 -40.078552 -8.142342 -79.49817 -17.337349c-13.37973 -3.1209488 -12.665985 -4.1227417 -26.02417 -7.2767563c-2.1039124 -0.4967575 -8.026947 -1.3437424 -6.772888 -0.2143631c3.3101807 2.9811096 5.187378 6.966202 10.33847 8.775124c33.0282 11.598579 32.93979 11.986885 68.44684 20.547722c14.129242 3.406601 30.206116 -2.325119 45.27414 -3.6383743c5.045227 -0.43972015 14.308228 1.9485931 16.39972 1.0696335c15.446899 -6.4915237 21.807678 -18.627739 35.292725 -26.539742c3.1730957 -1.8617249 9.794373 4.9039307 12.477112 2.7823792c10.107361 -7.992981 17.443481 -17.292824 28.875671 -24.614105c1.8125 -1.1607437 2.7114868 -1.8815193 4.991333 -1.0703659c3.7492065 1.3339386 4.6466064 4.524788 5.7041626 7.063118" fill-rule="evenodd"></path><path stroke="#000000" stroke-width="1.0" stroke-linejoin="round" stroke-linecap="butt" d="m363.7743 58.04987c25.311249 8.775486 23.388794 11.179424 50.622528 17.550983c11.793121 2.7591019 14.223328 3.8789215 25.31128 0.2143631c9.21817 -3.046608 18.78238 -11.205315 14.258667 -16.909344c-4.0792847 -5.1436462 -20.180756 15.712215 -10.694305 15.838978c10.901245 0.1456604 20.949554 -7.4900513 31.371307 -5.5647507c7.1130066 1.3140411 13.622437 4.0899124 21.034027 4.494377c0.880188 0.048034668 9.562225 -0.03842163 9.62439 0c5.134247 3.173355 3.9951172 3.7181168 7.8428345 7.4911194c4.6688843 4.5782623 4.8133545 2.5273132 4.2784424 3.6391068c-2.241394 4.65847 -2.393921 4.66893 -6.060028 8.989494c-5.9816284 7.0493927 -0.042022705 14.214493 -13.191193 13.698242c-42.200043 -1.6568298 -40.078552 -8.142342 -79.49817 -17.337349c-13.37973 -3.1209488 -12.665985 -4.1227417 -26.02417 -7.2767563c-2.1039124 -0.4967575 -8.026947 -1.3437424 -6.772888 -0.2143631c3.3101807 2.9811096 5.187378 6.966202 10.33847 8.775124c33.0282 11.598579 32.93979 11.986885 68.44684 20.547722c14.129242 3.406601 30.206116 -2.325119 45.27414 -3.6383743c5.045227 -0.43972015 14.308228 1.9485931 16.39972 1.0696335c15.446899 -6.4915237 21.807678 -18.627739 35.292725 -26.539742c3.1730957 -1.8617249 9.794373 4.9039307 12.477112 2.7823792c10.107361 -7.992981 17.443481 -17.292824 28.875671 -24.614105c1.8125 -1.1607437 2.7114868 -1.8815193 4.991333 -1.0703659c3.7492065 1.3339386 4.6466064 4.524788 5.7041626 7.063118" fill-rule="evenodd"></path><path fill="#000000" fill-opacity="0.0" d="m326.67715 21.572178c0 30.344475 7.1370544 60.675938 4.6220703 90.916016c-1.0536194 12.66835 -5.391083 25.041199 -5.391083 37.75328" fill-rule="evenodd"></path><path stroke="#999999" stroke-width="1.0" stroke-linejoin="round" stroke-linecap="butt" d="m326.67715 21.572178c0 30.344475 7.1370544 60.675938 4.6220703 90.916016c-1.0536194 12.66835 -5.391083 25.041199 -5.391083 37.75328" fill-rule="evenodd"></path><path fill="#000000" fill-opacity="0.0" d="m634.0914 20.031496c0 18.74803 -6.7313843 38.746178 0 56.244095c6.7823486 17.63041 11.031494 37.803772 6.934387 56.244095c-1.4025879 6.3128815 2.2630005 14.689743 -2.3096924 19.262466" fill-rule="evenodd"></path><path stroke="#999999" stroke-width="1.0" stroke-linejoin="round" stroke-linecap="butt" d="m634.0914 20.031496c0 18.74803 -6.7313843 38.746178 0 56.244095c6.7823486 17.63041 11.031494 37.803772 6.934387 56.244095c-1.4025879 6.3128815 2.2630005 14.689743 -2.3096924 19.262466" fill-rule="evenodd"></path></g></svg>