<svg viewBox="0.0 0.0 1333.3333333333333 533.3333333333334" fill="none" stroke-linecap="square" stroke-miterlimit="10" xmlns="http://www.w3.org/2000/svg"><clipPath id="a"><path d="M0 0h1333.3v533.3H0V0z"/></clipPath><g clip-path="url(#a)"><path d="M0 0h1333.3v533.3H0z"/><path d="M1311.7 513.6c5-24 0-49.2 0-73.8 0-58 1-116.3 1-174.4 0-19.7-5.7-39.3-4.2-59 3.5-44.7 8.6-89.8 5.4-134.7-1-11.8-1-23.7 1-35.3 1-7 7-19.2 1-21.4-30-10-63 5.6-95 3.2-82-6.3-165 5.6-247 8.6-63 2.2-125-11.6-188-14-83-3-166 9-249 13-44 2-87.6-8.4-131.6-10.8-71.6-4-143.3 6.4-215 6.4-41 0-82.3-1.6-123 2-14 1.4-28-3-42-3-2.7 0-7.7-2.8-8.4 0-3 14.2 6 29 6 43.8 0 39-6 77.8-3 116.6 4.4 58.4-6.5 117.7 2 175.5 2 10.8-3.6 21.5-6 32-7.4 31.4-3 64.6 1 96.4 1 10.4-12 25.3-3.3 31 14 9.5 33.3-6.8 50.2-8.5 21-2 43 3.2 64 4.3 103 5.2 206.5-8 309.5-4.3 204 7.6 408.2 9.7 612 0 52.6-2.5 105 18 157.3 13 34.4-3.6 69-7.6 103.6-7.6"/><path stroke="#888" stroke-width="4" stroke-linejoin="round" stroke-linecap="butt" d="M1311.7 513.6c5-24 0-49.2 0-73.8 0-58 1-116.3 1-174.4 0-19.7-5.7-39.3-4.2-59 3.5-44.7 8.6-89.8 5.4-134.7-1-11.8-1-23.7 1-35.3 1-7 7-19.2 1-21.4-30-10-63 5.6-95 3.2-82-6.3-165 5.6-247 8.6-63 2.2-125-11.6-188-14-83-3-166 9-249 13-44 2-87.6-8.4-131.6-10.8-71.6-4-143.3 6.4-215 6.4-41 0-82.3-1.6-123 2-14 1.4-28-3-42-3-2.7 0-7.7-2.8-8.4 0-3 14.2 6 29 6 43.8 0 39-6 77.8-3 116.6 4.4 58.4-6.5 117.7 2 175.5 2 10.8-3.6 21.5-6 32-7.4 31.4-3 64.6 1 96.4 1 10.4-12 25.3-3.3 31 14 9.5 33.3-6.8 50.2-8.5 21-2 43 3.2 64 4.3 103 5.2 206.5-8 309.5-4.3 204 7.6 408.2 9.7 612 0 52.6-2.5 105 18 157.3 13 34.4-3.6 69-7.6 103.6-7.6"/><path d="M329.6 220.4c-18-4.4-30.6-20.6-47-29-40.6-20-88.7-28-134-24.5-50 3-124.3 41-119.6 92 2 25 19 56 43.2 62 22.2 5 45.8-11 68.5-7 9 1 14.2 15 23.5 15 11.6 0 15.4-20 26.7-23 29-8 59-14 90-16 20-2 47-4 57-22 8-14.7 4-48-13-48"/><path stroke="#000" stroke-linejoin="round" stroke-linecap="butt" d="M329.6 220.4c-18-4.4-30.6-20.6-47-29-40.6-20-88.7-28-134-24.5-50 3-124.3 41-119.6 92 2 25 19 56 43.2 62 22.2 5 45.8-11 68.5-7 9 1 14.2 15 23.5 15 11.6 0 15.4-20 26.7-23 29-8 59-14 90-16 20-2 47-4 57-22 8-14.7 4-48-13-48"/><path d="M236.5 203.2c-61-12-195 3.2-175.5 62 8.8 26.5 53.6 21.7 81.3 19.4 29-2.4 57.3-8.7 85.6-15 14-3 30-2.5 41-11.8 17-14.3-15-55.6-38-55.6"/><path stroke="#000" stroke-width="3" stroke-linejoin="round" stroke-linecap="butt" d="M236.5 203.2c-61-12-195 3.2-175.5 62 8.8 26.5 53.6 21.7 81.3 19.4 29-2.4 57.3-8.7 85.6-15 14-3 30-2.5 41-11.8 17-14.3-15-55.6-38-55.6"/><path d="M222.6 510.4c9-10.7 8.6-33.3 22.4-35.3 6.5 0 10.8 9 17.2 10 6.5 2 12.2-5 18.2-8 10.5-5 21.3-10 31-17 13.5-9 27.4-18 40.7-28 17-12 39-35 58-25 29 15 7 68-7 98"/><path stroke="#000" stroke-linejoin="round" stroke-linecap="butt" d="M222.6 510.4c9-10.7 8.6-33.3 22.4-35.3 6.5 0 10.8 9 17.2 10 6.5 2 12.2-5 18.2-8 10.5-5 21.3-10 31-17 13.5-9 27.4-18 40.7-28 17-12 39-35 58-25 29 15 7 68-7 98"/><path d="M386.3 504c0-17.3-10.7-41.4-27.8-44-33.8-4.7-60.4 32-91 47.2"/><path stroke="#000" stroke-width="4" stroke-linejoin="round" stroke-linecap="butt" d="M386.3 504c0-17.3-10.7-41.4-27.8-44-33.8-4.7-60.4 32-91 47.2"/><path d="M820.2 34c-19-4.7-37.3 11.7-54.6 20.4C724 75.2 683.2 99 646.8 128.2 619.4 150.2 587 165 559 186c-17 12.8-28.4 32.3-45 46-36 30-71.2 62.6-97.3 101.6-10.7 16.2-18.6 34.4-31 49.3-18.5 22-46 35-66.3 55-12.2 12-25.2 23-38.6 34-4.7 4-17.5 16-11.7 14"/><path stroke="#000" stroke-linejoin="round" stroke-linecap="butt" d="M820.2 34c-19-4.7-37.3 11.7-54.6 20.4C724 75.2 683.2 99 646.8 128.2 619.4 150.2 587 165 559 186c-17 12.8-28.4 32.3-45 46-36 30-71.2 62.6-97.3 101.6-10.7 16.2-18.6 34.4-31 49.3-18.5 22-46 35-66.3 55-12.2 12-25.2 23-38.6 34-4.7 4-17.5 16-11.7 14"/><path d="M817.5 33.2c-9.7 19.4-29 32.4-46 46-25.8 20.7-50.4 43-73.8 66.3-33.2 33.2-79 52.7-110.2 87.8-15.8 17.8-27.8 39.3-46 54.6-33 27-70.6 49-98.5 82-13.3 15-9 40-18.2 59"/><path stroke="#000" stroke-linejoin="round" stroke-linecap="butt" d="M817.5 33.2c-9.7 19.4-29 32.4-46 46-25.8 20.7-50.4 43-73.8 66.3-33.2 33.2-79 52.7-110.2 87.8-15.8 17.8-27.8 39.3-46 54.6-33 27-70.6 49-98.5 82-13.3 15-9 40-18.2 59"/><path d="M344.6 236.5c-2.6-7.6 13.4 8.7 20.3 12.8 17 10.5 39 13 59 13 11 0 23 0 34-2.3 5-1 19-7.6 17-2-4 12.8-22 17-31 26.6-9 8.7-11 25-23 29-5 1.7-10-5.4-15-6.5-14-2-27.8-10-42-10-13.7 0-26.6 6-39.8 8-21.7 4-44 2-65.4 7-17.7 4-36.6 0-54.5 3-6.6 1.8-24.8 0-19.4 3"/><path stroke="#d9d9d9" stroke-width="4" stroke-linejoin="round" stroke-linecap="butt" d="M344.6 236.5c-2.6-7.6 13.4 8.7 20.3 12.8 17 10.5 39 13 59 13 11 0 23 0 34-2.3 5-1 19-7.6 17-2-4 12.8-22 17-31 26.6-9 8.7-11 25-23 29-5 1.7-10-5.4-15-6.5-14-2-27.8-10-42-10-13.7 0-26.6 6-39.8 8-21.7 4-44 2-65.4 7-17.7 4-36.6 0-54.5 3-6.6 1.8-24.8 0-19.4 3"/><path d="M580 250.4c71.8-10.3 144.6-15 217.2-15 22.8 0 45.7 1 68.5 1 8.2 0 18.8 6 24.6 0"/><path stroke="#000" stroke-linejoin="round" stroke-linecap="butt" d="M580 250.4c71.8-10.3 144.6-15 217.2-15 22.8 0 45.7 1 68.5 1 8.2 0 18.8 6 24.6 0"/><path d="M892.5 239.7c-2.2-6.5-11.7 7.5-18.2 9.6-24 8-48.7 13-72.8 20.4-61.7 18.5-126.7 23.6-190.5 32-22.7 3-46.4 1.3-68.5 7.6-9.7 2.7-22.8 11.4-30 4.2-1.8-2 5-2.2 7.6-3.2 7-2.3 13-5 19-8.5 18-11 31-30.2 41-49.3"/><path stroke="#000" stroke-linejoin="round" stroke-linecap="butt" d="M892.5 239.7c-2.2-6.5-11.7 7.5-18.2 9.6-24 8-48.7 13-72.8 20.4-61.7 18.5-126.7 23.6-190.5 32-22.7 3-46.4 1.3-68.5 7.6-9.7 2.7-22.8 11.4-30 4.2-1.8-2 5-2.2 7.6-3.2 7-2.3 13-5 19-8.5 18-11 31-30.2 41-49.3"/><path d="M507 282.3c-3.6-4.8-10-9.4-16-8.5-8 1-15.5 11.5-14 19.3 1.6 8 16.2 13 22.5 8 5.5-4 4.3-13 4.3-20"/><path stroke="#e60000" stroke-width="3" stroke-linejoin="round" stroke-linecap="butt" d="M507 282.3c-3.6-4.8-10-9.4-16-8.5-8 1-15.5 11.5-14 19.3 1.6 8 16.2 13 22.5 8 5.5-4 4.3-13 4.3-20"/><path d="M574.3 282.6c48-1.7 94.5-19.8 142.2-24.8 33.3-3.6 69 8 100.2-7.8"/><path stroke="#b7b7b7" stroke-width="24" stroke-linejoin="round" stroke-linecap="butt" d="M574.3 282.6c48-1.7 94.5-19.8 142.2-24.8 33.3-3.6 69 8 100.2-7.8"/><path d="M774.8 63c-16.5 17.2-37.3 29.3-56.4 43.2-41.5 30.2-78.2 67-117.5 100.4-19 16-37 33.2-56 49.2-8 6.4-14 14-22 20.5-2 1.4-5 5-6 3"/><path stroke="#888" stroke-width="16" stroke-linejoin="round" d="M774.8 63c-16.5 17.2-37.3 29.3-56.4 43.2-41.5 30.2-78.2 67-117.5 100.4-19 16-37 33.2-56 49.2-8 6.4-14 14-22 20.5-2 1.4-5 5-6 3"/></g></svg>