<svg xmlns="http://www.w3.org/2000/svg" stroke-linecap="square" stroke-miterlimit="10" viewBox="0 0 1333.3 533.3" fill="none"><clipPath id="a"><path d="M0 0h1333.3v533.3H0V0z"/></clipPath><g clip-path="url(#a)"><path d="M0 0h1333.3v533.3H0z"/><path d="M1318.4 16c-45-4.5-90.7 9-136 5.4-105.5-8-211.8-4.7-317.7-1-43.6 1.4-87-10-130.6-7.6-74 4.4-149 16.2-224 13-72-3.4-145 1.4-218-2.3-44-2.2-89-8.8-132-2-34 5-68 2-102 2-12.2 0-32-9-37.2 2.2-4.2 8.7 1.8 19.3 3.3 29 2.6 15.4 0 31.3 0 47 0 45-6.4 89.8-6.4 134.8 0 25 10.3 49.8 8.7 75-1.4 20.8-9 41-11 62-2 27.5 8 55 12 82.5 2.4 15.7 3 32 1 48-.4 5.2-6 14.3-1 16 6.8 2.2 12.7-6.6 19.4-8.6 8.8-2.7 18.5-1 27.7-1 51.5 0 103-3.5 154-1 187 8.4 375-12 562-2.3 116.5 7 233.5 6 350 0 46-2 92 0 138 0 11.8 0 23.5 3 35 3 3.7 0 8 5 10.8 2 5.8-5-1.2-16-4-23-5.3-13-7.6-28-7.6-43 0-32 8.5-64 5.3-96-1.7-16-6.7-32-8.7-48s3-32 4-48c2-30 2-61 7.4-92 8-47 1-96 1-144"/><path stroke-linejoin="round" d="M1318.4 16c-45-4.5-90.7 9-136 5.4-105.5-8-211.8-4.7-317.7-1-43.6 1.4-87-10-130.6-7.6-74 4.4-149 16.2-224 13-72-3.4-145 1.4-218-2.3-44-2.2-89-8.8-132-2-34 5-68 2-102 2-12.2 0-32-9-37.2 2.2-4.2 8.7 1.8 19.3 3.3 29 2.6 15.4 0 31.3 0 47 0 45-6.4 89.8-6.4 134.8 0 25 10.3 49.8 8.7 75-1.4 20.8-9 41-11 62-2 27.5 8 55 12 82.5 2.4 15.7 3 32 1 48-.4 5.2-6 14.3-1 16 6.8 2.2 12.7-6.6 19.4-8.6 8.8-2.7 18.5-1 27.7-1 51.5 0 103-3.5 154-1 187 8.4 375-12 562-2.3 116.5 7 233.5 6 350 0 46-2 92 0 138 0 11.8 0 23.5 3 35 3 3.7 0 8 5 10.8 2 5.8-5-1.2-16-4-23-5.3-13-7.6-28-7.6-43 0-32 8.5-64 5.3-96-1.7-16-6.7-32-8.7-48s3-32 4-48c2-30 2-61 7.4-92 8-47 1-96 1-144" stroke="#888" stroke-linecap="butt" stroke-width="4"/><path d="M345.6 44c41.7 8.2 85.2 1 127.4-4.4 14.5-1.8 31.3-10.8 44-3.2 18 10.8-4 42-5.5 63-1 16.5 0 33-1 49.3-.5 5.7 6 14.6 1 17.2-28.8 14-64.4 2-96.3 6-19 2-38 5-56.7 8-4.3 1-10.5 6-13 2-4-6 3-15 3.4-22 1-23 5-47 2-70-2-12-1-24.8-1-37 0-2.8-2-11.3-1-8.5"/><path stroke-linejoin="round" d="M345.6 44c41.7 8.2 85.2 1 127.4-4.4 14.5-1.8 31.3-10.8 44-3.2 18 10.8-4 42-5.5 63-1 16.5 0 33-1 49.3-.5 5.7 6 14.6 1 17.2-28.8 14-64.4 2-96.3 6-19 2-38 5-56.7 8-4.3 1-10.5 6-13 2-4-6 3-15 3.4-22 1-23 5-47 2-70-2-12-1-24.8-1-37 0-2.8-2-11.3-1-8.5" stroke="#000" stroke-linecap="butt" stroke-width="2"/><path d="M459 110.2c-4-5-17.6-4-19.2 2.2-1.6 6.5 11.3 14 17 10.7 7.2-4 .7-19-6.3-23"/><path stroke-linejoin="round" d="M459 110.2c-4-5-17.6-4-19.2 2.2-1.6 6.5 11.3 14 17 10.7 7.2-4 .7-19-6.3-23" stroke="#000" stroke-linecap="butt" stroke-width="12"/><path d="M402.4 70.6c22.7 1.4 45.6 0 68.4 0"/><path stroke-linejoin="round" d="M402.4 70.6c22.7 1.4 45.6 0 68.4 0" stroke="#ccc" stroke-linecap="butt" stroke-width="24"/><path d="M677.3 70.6c22.8 1.4 45.7 0 68.5 0"/><path stroke-linejoin="round" d="M677.3 70.6c22.8 1.4 45.7 0 68.5 0" stroke="#ccc" stroke-linecap="butt" stroke-width="24"/><path d="M517 258.6c23.8-1 47-7 70.3-10.6"/><path stroke-linejoin="round" d="M517 258.6c23.8-1 47-7 70.3-10.6" stroke="#ccc" stroke-linecap="butt" stroke-width="24"/><path d="M564 444.5c22.2-4.7 44-12.2 66-18.2"/><path stroke-linejoin="round" d="M564 444.5c22.2-4.7 44-12.2 66-18.2" stroke="#ccc" stroke-linecap="butt" stroke-width="24"/><path d="M684.3 369.7c18.3-8.3 38.5-8.2 57.7-12.3"/><path stroke-linejoin="round" d="M684.3 369.7c18.3-8.3 38.5-8.2 57.7-12.3" stroke="#ccc" stroke-linecap="butt" stroke-width="24"/><path d="M636.7 47c33.5 2.3 67 2.2 100.6 0 13.6-.8 31-12.7 40.7-3 12.4 12.3-5.4 34.7-5.4 52.3 0 18-1.7 35.8-4.3 53.5-1 7.4 4.3 17.2-1 22.5-4.4 4.3-12.2 1.5-18.2 2-19 2.3-38 3.3-57 5.5-14 1.6-28 4.4-43 6.4-5 .8-13 8-16 3.2-3-6.4 5-14.3 3-21.4-6-39.4 1-80 1-119.8"/><path stroke-linejoin="round" d="M636.7 47c33.5 2.3 67 2.2 100.6 0 13.6-.8 31-12.7 40.7-3 12.4 12.3-5.4 34.7-5.4 52.3 0 18-1.7 35.8-4.3 53.5-1 7.4 4.3 17.2-1 22.5-4.4 4.3-12.2 1.5-18.2 2-19 2.3-38 3.3-57 5.5-14 1.6-28 4.4-43 6.4-5 .8-13 8-16 3.2-3-6.4 5-14.3 3-21.4-6-39.4 1-80 1-119.8" stroke="#000" stroke-linecap="butt"/><path d="M538.3 96.3c31.3 1.4 62.7 2 94 2"/><path stroke-linejoin="round" d="M538.3 96.3c31.3 1.4 62.7 2 94 2" stroke="#000" stroke-linecap="butt"/><path d="M528.6 168c34.2 3.4 72-6.8 102.7 8.6"/><path stroke-linejoin="round" d="M528.6 168c34.2 3.4 72-6.8 102.7 8.6" stroke="#000" stroke-linecap="butt"/><path d="M537.2 37.5c31 2 62 .5 93-1 15.3-1 51.8-5.2 45 8.4"/><path stroke-linejoin="round" d="M537.2 37.5c31 2 62 .5 93-1 15.3-1 51.8-5.2 45 8.4" stroke="#666" stroke-linecap="butt" stroke-width="4"/><path d="M539.3 40.7c0-3.3 1 6.4 1 9.6V92"/><path stroke-linejoin="round" d="M539.3 40.7c0-3.3 1 6.4 1 9.6V92" stroke="#666" stroke-linecap="butt" stroke-width="3"/><path d="M688 19.3c0 10-2 20-2 30"/><path stroke-linejoin="round" d="M688 19.3c0 10-2 20-2 30" stroke="#000" stroke-linecap="butt"/><path d="M680.6 185c1-1.5 2 3.6 2 5.5.7 11 1.2 22 1.2 33.2 0 30.3-2.6 60.7-5.4 91-.7 8-1 32.7-1 24.5"/><path stroke-linejoin="round" d="M680.6 185c1-1.5 2 3.6 2 5.5.7 11 1.2 22 1.2 33.2 0 30.3-2.6 60.7-5.4 91-.7 8-1 32.7-1 24.5" stroke="#000" stroke-linecap="butt"/><path d="M322 27.8c1.4 22.6 6.5 45 8.7 67.4 1.7 18.2-4.5 36.4-5.4 54.6-3.2 64-1.7 128.6 3.2 192.6 3 37.4 2.2 75 2.2 112.4 0 12.8-.4 26 2 38.5 1 4.7 5.4 18.2 3.3 14"/><path stroke-linejoin="round" d="M322 27.8c1.4 22.6 6.5 45 8.7 67.4 1.7 18.2-4.5 36.4-5.4 54.6-3.2 64-1.7 128.6 3.2 192.6 3 37.4 2.2 75 2.2 112.4 0 12.8-.4 26 2 38.5 1 4.7 5.4 18.2 3.3 14" stroke="#000" stroke-linecap="butt" stroke-width="4"/><path d="M454.8 232.2c41-7.8 83-12 124-19.3 18.6-4 37.4-12 55.8-8 3.8 0 1.3 8 1 11-1 13-3.2 26-3.2 39 0 23 1.3 47-1 70-.7 6.5 1.4 16-4.3 19.2-31 17.4-71 14-107 21-22 4.7-45 19.7-68 14-11-2.7-2-23-1-34.2 3-22.6-7-46-2-68.4 4-15-7-48.8 8-45"/><path stroke-linejoin="round" d="M454.8 232.2c41-7.8 83-12 124-19.3 18.6-4 37.4-12 55.8-8 3.8 0 1.3 8 1 11-1 13-3.2 26-3.2 39 0 23 1.3 47-1 70-.7 6.5 1.4 16-4.3 19.2-31 17.4-71 14-107 21-22 4.7-45 19.7-68 14-11-2.7-2-23-1-34.2 3-22.6-7-46-2-68.4 4-15-7-48.8 8-45" stroke="#000" stroke-linecap="butt" stroke-width="2"/><path d="M506 507.2c0-16.4-2-32.8-2-49.2 0-10-8-23-1-30 9.7-9.7 26.2-8.4 39.5-11.7 22-5.5 44-11.3 66.4-15 18-3 36-7.5 54-13 8-2.3 15-11 23-8.4 7 2-2 16-1 24 3 32-1 64-1 96"/><path stroke-linejoin="round" d="M506 507.2c0-16.4-2-32.8-2-49.2 0-10-8-23-1-30 9.7-9.7 26.2-8.4 39.5-11.7 22-5.5 44-11.3 66.4-15 18-3 36-7.5 54-13 8-2.3 15-11 23-8.4 7 2-2 16-1 24 3 32-1 64-1 96" stroke="#000" stroke-linecap="butt" stroke-width="3"/><path d="M642 388.4c1.7-11.3-6-26 2.2-34.2 3.8-3.8 10.8-1 16-2 19-4.5 38-8.6 56.8-13 12.4-3 25-5 37.4-8.5 7.5-2.2 15.2-9.4 22.5-6.5 14 6-7 31.4-6 47 1 16.8 3 33.8 1 50.4-1 5 2 12-2 15-23 17-56 14-82 26.7"/><path stroke-linejoin="round" d="M642 388.4c1.7-11.3-6-26 2.2-34.2 3.8-3.8 10.8-1 16-2 19-4.5 38-8.6 56.8-13 12.4-3 25-5 37.4-8.5 7.5-2.2 15.2-9.4 22.5-6.5 14 6-7 31.4-6 47 1 16.8 3 33.8 1 50.4-1 5 2 12-2 15-23 17-56 14-82 26.7" stroke="#000" stroke-linecap="butt"/><path d="M723 118.2c-4-5-17.6-4-19.2 2.2-1.6 6.5 11.3 14 17 10.7 7.2-4 .7-19-6.3-23"/><path stroke-linejoin="round" d="M723 118.2c-4-5-17.6-4-19.2 2.2-1.6 6.5 11.3 14 17 10.7 7.2-4 .7-19-6.3-23" stroke="#000" stroke-linecap="butt" stroke-width="12"/><path d="M571 302.2c-4-5-17.6-4-19.2 2.2-1.6 6.5 11.3 14 17 10.7 7.2-4 .7-19-6.3-23"/><path stroke-linejoin="round" d="M571 302.2c-4-5-17.6-4-19.2 2.2-1.6 6.5 11.3 14 17 10.7 7.2-4 .7-19-6.3-23" stroke="#000" stroke-linecap="butt" stroke-width="12"/><path d="M623.4 472.6c-5-6.2-21.6-5-23.5 2.6-2 8 13 17 20 13 8-5 0-23.6-8-28.7"/><path stroke-linejoin="round" d="M623.4 472.6c-5-6.2-21.6-5-23.5 2.6-2 8 13 17 20 13 8-5 0-23.6-8-28.7" stroke="#000" stroke-linecap="butt" stroke-width="12"/><path d="M731 406.2c-4-5-17.6-4-19.2 2.2-1.6 6.5 11.3 14 17 10.7 7.2-4 .7-19-6.3-23"/><path stroke-linejoin="round" d="M731 406.2c-4-5-17.6-4-19.2 2.2-1.6 6.5 11.3 14 17 10.7 7.2-4 .7-19-6.3-23" stroke="#000" stroke-linecap="butt" stroke-width="8"/><path d="M590.7 170c-59 6.7-118 12-176.6 20.5-16 2.4-34 1-50 6.4-6 2-15-3-20 2-8 8 0 23 0 34 0 34 4 68 8 101 4 30 8 61 6 92-1 20 0 41 2 62 1 7-2 15 1 21"/><path stroke-linejoin="round" d="M590.7 170c-59 6.7-118 12-176.6 20.5-16 2.4-34 1-50 6.4-6 2-15-3-20 2-8 8 0 23 0 34 0 34 4 68 8 101 4 30 8 61 6 92-1 20 0 41 2 62 1 7-2 15 1 21" stroke="#000" stroke-linecap="butt"/><path d="M500.3 479.4c-43.7-30.7-93-54.2-141.8-77"/><path stroke-linejoin="round" d="M500.3 479.4c-43.7-30.7-93-54.2-141.8-77" stroke="#666" stroke-linecap="butt" stroke-width="4"/><path d="M448.4 291c-20.4-7.6-43-8.5-63.2-17-13.4-5.8-26-16-40.6-16"/><path stroke-linejoin="round" d="M448.4 291c-20.4-7.6-43-8.5-63.2-17-13.4-5.8-26-16-40.6-16" stroke="#000" stroke-linecap="butt"/><path d="M354.2 334c-9.6-3.3 19.8 5 29 9.5 22 11 46.7 19 64 36.4"/><path stroke-linejoin="round" d="M354.2 334c-9.6-3.3 19.8 5 29 9.5 22 11 46.7 19 64 36.4" stroke="#000" stroke-linecap="butt" stroke-width="4"/><path d="M359.6 484.8c12 12 29.8 16 45 23.5"/><path stroke-linejoin="round" d="M359.6 484.8c12 12 29.8 16 45 23.5" stroke="#000" stroke-linecap="butt"/><path d="M633.5 325.3c18.6 8 39.7 9.2 57.8 18.2"/><path stroke-linejoin="round" d="M633.5 325.3c18.6 8 39.7 9.2 57.8 18.2" stroke="#000" stroke-linecap="butt"/><path d="M426 282.5c-11-9-29-17-29-31 0-4.2 7-4.3 10.7-6.5 9.8-5.8 19-12.3 29-18 17.2-10.5 35-20 51.3-32.2 5-3.7 9.2-13 15-10.7 16.8 7 31 20 43.8 33"/><path stroke-linejoin="round" d="M426 282.5c-11-9-29-17-29-31 0-4.2 7-4.3 10.7-6.5 9.8-5.8 19-12.3 29-18 17.2-10.5 35-20 51.3-32.2 5-3.7 9.2-13 15-10.7 16.8 7 31 20 43.8 33" stroke="#e60000" stroke-linecap="butt" stroke-width="3"/><path d="M470 204.3c-22 3.7-42.4 13.4-64.3 16-.8.2-21.4 4-21.4 4.4 0 11.3 5.6 22 7.5 33 .6 4 1.2 15.6 0 12"/><path stroke-linejoin="round" d="M470 204.3c-22 3.7-42.4 13.4-64.3 16-.8.2-21.4 4-21.4 4.4 0 11.3 5.6 22 7.5 33 .6 4 1.2 15.6 0 12" stroke="#e60000" stroke-linecap="butt" stroke-width="3"/><path d="M372.4 267.5c-2.3-8-11-19.6-4.3-24.6 4-3 10-3 14-3"/><path stroke-linejoin="round" d="M372.4 267.5c-2.3-8-11-19.6-4.3-24.6 4-3 10-3 14-3" stroke="#e60000" stroke-linecap="butt" stroke-width="3"/><path d="M513.3 197.2c-8.4 6-17.8 11-25.3 18.2"/><path stroke-linejoin="round" d="M513.3 197.2c-8.4 6-17.8 11-25.3 18.2" stroke="#d9d9d9" stroke-linecap="butt" stroke-width="24"/><path d="M417.7 229c-10 2.8-20.6 4-30.2 8"/><path stroke-linejoin="round" d="M417.7 229c-10 2.8-20.6 4-30.2 8" stroke="#d9d9d9" stroke-linecap="butt" stroke-width="12"/><path d="M486 446.4c-36.3-26-78.6-37.6-113.3-67.2"/><path stroke-linejoin="round" d="M486 446.4c-36.3-26-78.6-37.6-113.3-67.2" stroke="#d9d9d9" stroke-linecap="butt" stroke-width="24"/><path d="M554.3 293.2c-5.6-1-11.4-2-17-2"/><path stroke-linejoin="round" d="M554.3 293.2c-5.6-1-11.4-2-17-2" stroke="#000" stroke-linecap="butt"/><path d="M553.2 315.7c-6-.5-12-2.2-18.2-2.2"/><path stroke-linejoin="round" d="M553.2 315.7c-6-.5-12-2.2-18.2-2.2" stroke="#000" stroke-linecap="butt"/><path d="M710.5 108c-4.6-.4-9.7-2-14 0"/><path stroke-linejoin="round" d="M710.5 108c-4.6-.4-9.7-2-14 0" stroke="#000" stroke-linecap="butt"/><path d="M703 130.6c-3.2-.5-6.6-.7-9.6-2.2"/><path stroke-linejoin="round" d="M703 130.6c-3.2-.5-6.6-.7-9.6-2.2" stroke="#000" stroke-linecap="butt"/><path d="M541.5 291c-7 4.8-9 16.6-6.5 24.7"/><path stroke-linejoin="round" d="M541.5 291c-7 4.8-9 16.6-6.5 24.7" stroke="#000" stroke-linecap="butt"/><path d="M698.8 108c-5.4 5.5-11 19-4.3 22.6"/><path stroke-linejoin="round" d="M698.8 108c-5.4 5.5-11 19-4.3 22.6" stroke="#000" stroke-linecap="butt"/></g></svg>