<svg xmlns="http://www.w3.org/2000/svg" stroke-linecap="square" stroke-miterlimit="10" viewBox="0 0 1333.3 533.3" fill="none"><clipPath id="a"><path d="M0 0h1333.3v533.3H0V0z"/></clipPath><g clip-path="url(#a)"><path d="M0 0h1333.3v533.3H0z"/><path d="M1312 512.6c-29.6-10-62.2-2.4-93.2-4.3-118.6-7.2-238-6.5-356.3 2-147.7 11-296.7-16.5-444-3-89 8-178.4 6.3-267.6 6.3-33 0-65 1-97 1-13 0-30 9-38-1-6-8.2-1-20.8 1-31 2-14.8 2-30 2-45 0-45.3-8-90.6-5-135.8 3-65 4-130 4-194.8 0-29.6-8-59.8-2-88.8 0-3.5 7-.6 10-1 20-2.6 41-.4 62 1C130 21 170 15 211 15c126.5 0 253 7.5 380 7.5 107 0 214.5-2.2 322-2.2 45.6 0 91.3 9.7 137 5.4 41.5-4 83.2-7.5 125-9.7 18-1 36 4.7 53.5 2.2 22-3 44.3 1 66.4 1 8 0 20-9 23-2 7 13.3-12 29-10 43.8 7 41.5 6 84.5 1 126.3-4 26 15 52 11 78-2 18.2-10 35.4-12 53.6-3 22 5 45 8 68 2 17-6 35-8 52-3 23 1 47 1 70"/><path stroke-linejoin="round" d="M1312 512.6c-29.6-10-62.2-2.4-93.2-4.3-118.6-7.2-238-6.5-356.3 2-147.7 11-296.7-16.5-444-3-89 8-178.4 6.3-267.6 6.3-33 0-65 1-97 1-13 0-30 9-38-1-6-8.2-1-20.8 1-31 2-14.8 2-30 2-45 0-45.3-8-90.6-5-135.8 3-65 4-130 4-194.8 0-29.6-8-59.8-2-88.8 0-3.5 7-.6 10-1 20-2.6 41-.4 62 1C130 21 170 15 211 15c126.5 0 253 7.5 380 7.5 107 0 214.5-2.2 322-2.2 45.6 0 91.3 9.7 137 5.4 41.5-4 83.2-7.5 125-9.7 18-1 36 4.7 53.5 2.2 22-3 44.3 1 66.4 1 8 0 20-9 23-2 7 13.3-12 29-10 43.8 7 41.5 6 84.5 1 126.3-4 26 15 52 11 78-2 18.2-10 35.4-12 53.6-3 22 5 45 8 68 2 17-6 35-8 52-3 23 1 47 1 70" stroke="#888" stroke-linecap="butt" stroke-width="4"/><path d="M85 22.7c31.2 12.5 55 37 82.7 55.6C193 95 220 109.3 244.5 127c14.2 10.4 26.8 23.7 43.5 30 17.3 6.4 36.6 6.3 55 8 55.4 5.2 109-22 164-28.4 16.8-2 33.8-2.7 50.7-2.7 5.4 0 13-7 16-3 13.3 18-18.7 46-40.7 55-14 6-32.2 1-46 9-8.2 4-15 17-10 25 16 27 53.4 38 84 50 19.5 7 36.8 19 55 28 25 12 72 44 52 62-10 9-28.4 0-42-4-32-10-59.4-30-91.2-40-5-2-13.5-8-16-3-7.7 14 29.8 16 45 24 20.5 10 34 30 53.7 42 14.8 8 31.2 15 43.5 27 6 5 2 18-4.5 23-18 13-45.2-11-65.2-22-18.4-10-37.6-19-56.4-28.7-10-5-19-12-29-16.8-6-3-18-14-18-8 0 13 24 14 36 20 23 12 39 33 59 49 11 8.7 30 19.7 24 30.7-8 14.7-35-5.5-51-12-22-9-47-15-64-31-10-8.5-20-16-31-23-5-3-10-14-13-9.4-3 5 6 10 10 14 9 10 18 19 26 29 14 19 42 68 17 68-27 0-43-33-53-56-5-11-4-24-13-32-18-16.6-46-20-65-35s-42-26.5-59-43c-15-13.4-26-30-42-42-31-23-72-30.4-106-48.7-50-26-86-75-139-100"/><path stroke-linejoin="round" d="M85 22.7c31.2 12.5 55 37 82.7 55.6C193 95 220 109.3 244.5 127c14.2 10.4 26.8 23.7 43.5 30 17.3 6.4 36.6 6.3 55 8 55.4 5.2 109-22 164-28.4 16.8-2 33.8-2.7 50.7-2.7 5.4 0 13-7 16-3 13.3 18-18.7 46-40.7 55-14 6-32.2 1-46 9-8.2 4-15 17-10 25 16 27 53.4 38 84 50 19.5 7 36.8 19 55 28 25 12 72 44 52 62-10 9-28.4 0-42-4-32-10-59.4-30-91.2-40-5-2-13.5-8-16-3-7.7 14 29.8 16 45 24 20.5 10 34 30 53.7 42 14.8 8 31.2 15 43.5 27 6 5 2 18-4.5 23-18 13-45.2-11-65.2-22-18.4-10-37.6-19-56.4-28.7-10-5-19-12-29-16.8-6-3-18-14-18-8 0 13 24 14 36 20 23 12 39 33 59 49 11 8.7 30 19.7 24 30.7-8 14.7-35-5.5-51-12-22-9-47-15-64-31-10-8.5-20-16-31-23-5-3-10-14-13-9.4-3 5 6 10 10 14 9 10 18 19 26 29 14 19 42 68 17 68-27 0-43-33-53-56-5-11-4-24-13-32-18-16.6-46-20-65-35s-42-26.5-59-43c-15-13.4-26-30-42-42-31-23-72-30.4-106-48.7-50-26-86-75-139-100" stroke="#000" stroke-linecap="butt"/><path d="M1270.4 25.5c-19.8 18.5-36.8 40.6-59 56.2C1174 108 1131 126 1088.2 142c-33.4 12.6-65 36.2-100.5 36.2-23 0-45.3-8.8-67-16-30.2-10-63.8-3-95.2-8-13.2-2.3-25.8-7.6-38.8-10.8-5.8-1.5-12.5-7.3-17.5-4-6 4-2.8 14.8 0 21.4 8.8 20.4 34.6 28.8 55 37.5 12.6 5.4 29 3.7 38.8 13.4 6.4 6.4 4.2 18 2.7 26.8-2.5 15.2-23.8 20-37.5 26.8-24 12-47 26.8-71 39-12.3 6-28 5-39 13.3-18.6 14-56.7 41-40 57.6 7.6 7.7 22.2-4 30.7-10.7 23-18.5 53-24.2 81-33.5 8-3 24-12.6 26-4 3 9.6-15 14.8-24 18.7-35 14.6-66 37.5-95 61.7-10 8-30 18-24 29.5 3 6 14 4 21 2 37-9 71-30 103-51 11-7 22-15 35-18 4-1 12-7 12-3 0 13-21 15-31 23-27 18-53 37-78 57-7 5-15 19-8 25 11 11 32-5 47-12 25-13 50-29 72-47 8-8 17-15 28-19 3-2 6-8 9-6 5 4-4 13-10 16-26 16-47 39-66 63-5 6-13 21-6 23 40 10 71-44 106-69 41-30 87-58 113-102 22.2-38 81.3-34 119-57.8 59-36.6 106-92 168-123"/><path stroke-linejoin="round" d="M1270.4 25.5c-19.8 18.5-36.8 40.6-59 56.2C1174 108 1131 126 1088.2 142c-33.4 12.6-65 36.2-100.5 36.2-23 0-45.3-8.8-67-16-30.2-10-63.8-3-95.2-8-13.2-2.3-25.8-7.6-38.8-10.8-5.8-1.5-12.5-7.3-17.5-4-6 4-2.8 14.8 0 21.4 8.8 20.4 34.6 28.8 55 37.5 12.6 5.4 29 3.7 38.8 13.4 6.4 6.4 4.2 18 2.7 26.8-2.5 15.2-23.8 20-37.5 26.8-24 12-47 26.8-71 39-12.3 6-28 5-39 13.3-18.6 14-56.7 41-40 57.6 7.6 7.7 22.2-4 30.7-10.7 23-18.5 53-24.2 81-33.5 8-3 24-12.6 26-4 3 9.6-15 14.8-24 18.7-35 14.6-66 37.5-95 61.7-10 8-30 18-24 29.5 3 6 14 4 21 2 37-9 71-30 103-51 11-7 22-15 35-18 4-1 12-7 12-3 0 13-21 15-31 23-27 18-53 37-78 57-7 5-15 19-8 25 11 11 32-5 47-12 25-13 50-29 72-47 8-8 17-15 28-19 3-2 6-8 9-6 5 4-4 13-10 16-26 16-47 39-66 63-5 6-13 21-6 23 40 10 71-44 106-69 41-30 87-58 113-102 22.2-38 81.3-34 119-57.8 59-36.6 106-92 168-123" stroke="#000" stroke-linecap="butt"/><path d="M568.2 134c-8 6.7-29.5 19.4-20 24 5.8 3 11.6-7.3 14.6-13.3"/><path stroke-linejoin="round" d="M568.2 134c-8 6.7-29.5 19.4-20 24 5.8 3 11.6-7.3 14.6-13.3" stroke="#e60000" stroke-linecap="butt" stroke-width="4"/><path d="M651.3 343c5.5 0 12 10.8 8 14.8-4.8 4.7-13.7.8-20-1.3"/><path stroke-linejoin="round" d="M651.3 343c5.5 0 12 10.8 8 14.8-4.8 4.7-13.7.8-20-1.3" stroke="#e60000" stroke-linecap="butt" stroke-width="4"/><path d="M647.2 408.7c5 1.2 6.7 11.8 2.7 14.7-5 3.5-13 4-18 1.4"/><path stroke-linejoin="round" d="M647.2 408.7c5 1.2 6.7 11.8 2.7 14.7-5 3.5-13 4-18 1.4" stroke="#e60000" stroke-linecap="butt" stroke-width="4"/><path d="M589.6 442.3c4.7 1 14.2 3.7 12 8-4 8-17.8-2.7-26.7-2.7"/><path stroke-linejoin="round" d="M589.6 442.3c4.7 1 14.2 3.7 12 8-4 8-17.8-2.7-26.7-2.7" stroke="#e60000" stroke-linecap="butt" stroke-width="4"/><path d="M498.5 464c1.7 6 6.2 13.4 2.7 18.6-3.2 4.7-10.5-5.3-16-5.3"/><path stroke-linejoin="round" d="M498.5 464c1.7 6 6.2 13.4 2.7 18.6-3.2 4.7-10.5-5.3-16-5.3" stroke="#e60000" stroke-linecap="butt" stroke-width="4"/><path d="M777.2 144.7c6.4 4.8 19.5 12.4 14.8 18.8-3.7 4.8-12-5.3-14.8-10.7"/><path stroke-linejoin="round" d="M777.2 144.7c6.4 4.8 19.5 12.4 14.8 18.8-3.7 4.8-12-5.3-14.8-10.7" stroke="#e60000" stroke-linecap="butt" stroke-width="8"/><path d="M690 352.4c-4.7 3.3-12.5 10-9.3 14.8 3.7 5.5 15.8-.8 18.8-6.7"/><path stroke-linejoin="round" d="M690 352.4c-4.7 3.3-12.5 10-9.3 14.8 3.7 5.5 15.8-.8 18.8-6.7" stroke="#e60000" stroke-linecap="butt" stroke-width="8"/><path d="M700.8 418c-7.7 3.4-24 5.5-21.4 13.5 2.3 6.8 14.3-1.3 21.4-1.3"/><path stroke-linejoin="round" d="M700.8 418c-7.7 3.4-24 5.5-21.4 13.5 2.3 6.8 14.3-1.3 21.4-1.3" stroke="#e60000" stroke-linecap="butt" stroke-width="8"/><path d="M749 450.3c-6.4 5.3-16.6 16.8-10.6 22.7 4.4 4.4 11.8-4 17.4-6.7"/><path stroke-linejoin="round" d="M749 450.3c-6.4 5.3-16.6 16.8-10.6 22.7 4.4 4.4 11.8-4 17.4-6.7" stroke="#e60000" stroke-linecap="butt" stroke-width="8"/><path d="M821.4 474.4c-4.4 3.5-14 8.6-10.7 13.4 4 6 18.2 1.2 21.5-5.4 1.2-2.5-2.7-5.8-5.4-6.7"/><path stroke-linejoin="round" d="M821.4 474.4c-4.4 3.5-14 8.6-10.7 13.4 4 6 18.2 1.2 21.5-5.4 1.2-2.5-2.7-5.8-5.4-6.7" stroke="#e60000" stroke-linecap="butt" stroke-width="8"/></g></svg>