<svg xmlns="http://www.w3.org/2000/svg" stroke-linecap="square" stroke-miterlimit="10" viewBox="0 0 1333.3 266.7" fill="none"><clipPath id="a"><path d="M0 0h1333.3v266.7H0V0z"/></clipPath><g clip-path="url(#a)"><path d="M0 0h1333.3v266.7H0z"/><path d="M1312 250.8c-29.6-4.7-62.2-1.2-93.2-2-118.6-3.5-238-3.2-356.3 1-147.7 5-296.7-8-444-1.6-89 4-178.4 3-267.6 3-33 0-65 .6-97 .6-13 0-30 4.2-38-.5-6-4-1-10 1-14.8 2-7 2-14.2 2-21.3 0-21.5-8-43-5-64.5 4-30.7 4-61.7 4-92.4 0-14-8-28.3-2-42 0-1.8 7-.4 10-.6 20-1.2 41-.2 62 .5 40 1.2 80-1.5 121-1.5 126 0 253 3.5 380 3.5 107 0 214-1 322-1 45 0 91 4.6 137 2.5 41-2 83-3.5 125-4.5 18-.5 36 2.2 53 1 22-1.5 44 .5 66 .5 8 0 20-4.4 23-1 6 6.3-12 13.8-10 20.8 7 19.7 6 40 1 60-3 12.3 15 24.6 12 37-2 8.6-10 16.7-12 25.4-3 10 6 21 8 32 2 8-5 16-7.3 25-3 11 1 22 1 33"/><path stroke-linejoin="round" d="M1312 250.8c-29.6-4.7-62.2-1.2-93.2-2-118.6-3.5-238-3.2-356.3 1-147.7 5-296.7-8-444-1.6-89 4-178.4 3-267.6 3-33 0-65 .6-97 .6-13 0-30 4.2-38-.5-6-4-1-10 1-14.8 2-7 2-14.2 2-21.3 0-21.5-8-43-5-64.5 4-30.7 4-61.7 4-92.4 0-14-8-28.3-2-42 0-1.8 7-.4 10-.6 20-1.2 41-.2 62 .5 40 1.2 80-1.5 121-1.5 126 0 253 3.5 380 3.5 107 0 214-1 322-1 45 0 91 4.6 137 2.5 41-2 83-3.5 125-4.5 18-.5 36 2.2 53 1 22-1.5 44 .5 66 .5 8 0 20-4.4 23-1 6 6.3-12 13.8-10 20.8 7 19.7 6 40 1 60-3 12.3 15 24.6 12 37-2 8.6-10 16.7-12 25.4-3 10 6 21 8 32 2 8-5 16-7.3 25-3 11 1 22 1 33" stroke="#888" stroke-linecap="butt" stroke-width="3"/><path d="M61.6 17C81 23 96 34.6 113.2 43.4c15.8 8 32.8 14.7 48 23 9 5 16.8 11.3 27.3 14.3 10.7 3 22.8 3 34.4 3.8C257 87 290 74 325 71c10.5-1 21-1.3 31.7-1.3 3.3 0 8-3.2 10-1.2 8.2 8.8-11.8 22-25.5 26.3-9 3-20.5 1-29 4.5-5.3 2.2-9.3 8.4-6.3 12.2 10 13 33 18.2 52 23.8 12 3.5 23 9 34 13.5 15 6 45 20.7 33 29.6-7 4.4-18 0-27-2-20-4.7-37-14-57-18.6-4-.8-9-3.4-10-1.3-5 7 18 8 28 11.6 13 5 21 15 33 20 9 4 19 8 27 13 3 3 1 9-3 11-12 7-28-5-41-10-12-4-24-9-35-13-6-2-12-5-18-7-4-1-11-6-11-4 0 7 15 7 22 10 14 6 24 16 37 24 6 4 18 9 14 14-5 7-22-3-32-6-14-4-29-7-40-14-6-4-13-7-19-11-3-1-7-6-9-4s4 4 6.6 6c6 4 12 8 17 13 9 9 26.2 32 11 32-16.8 0-26.8-15-33-26-3-5-2.8-11-8.3-15-11-8-28.5-9-41-16-12-7-26-12-37-20-9-6-16-14-26-20-19-11-44.6-14-66-23-32-13-55-36-88-48"/><path stroke-linejoin="round" d="M61.6 17C81 23 96 34.6 113.2 43.4c15.8 8 32.8 14.7 48 23 9 5 16.8 11.3 27.3 14.3 10.7 3 22.8 3 34.4 3.8C257 87 290 74 325 71c10.5-1 21-1.3 31.7-1.3 3.3 0 8-3.2 10-1.2 8.2 8.8-11.8 22-25.5 26.3-9 3-20.5 1-29 4.5-5.3 2.2-9.3 8.4-6.3 12.2 10 13 33 18.2 52 23.8 12 3.5 23 9 34 13.5 15 6 45 20.7 33 29.6-7 4.4-18 0-27-2-20-4.7-37-14-57-18.6-4-.8-9-3.4-10-1.3-5 7 18 8 28 11.6 13 5 21 15 33 20 9 4 19 8 27 13 3 3 1 9-3 11-12 7-28-5-41-10-12-4-24-9-35-13-6-2-12-5-18-7-4-1-11-6-11-4 0 7 15 7 22 10 14 6 24 16 37 24 6 4 18 9 14 14-5 7-22-3-32-6-14-4-29-7-40-14-6-4-13-7-19-11-3-1-7-6-9-4s4 4 6.6 6c6 4 12 8 17 13 9 9 26.2 32 11 32-16.8 0-26.8-15-33-26-3-5-2.8-11-8.3-15-11-8-28.5-9-41-16-12-7-26-12-37-20-9-6-16-14-26-20-19-11-44.6-14-66-23-32-13-55-36-88-48" stroke="#000" stroke-linecap="butt"/><path d="M802.3 18.3c-12.4 9-23 19.3-36.8 26.7-23.4 12.5-50.3 21-77 28.6-21 6-40.6 17.2-63 17.2-14.2 0-28-4.2-41.7-7.7-19-4-40-1-59.5-3-8.3-1-16-3-24.3-5-3.6 0-7.8-3-11-2-3.6 2-1.6 7 0 10 5.6 10 21.7 14 34.5 18 7.8 3 18.2 2 24.3 7 4 3 2.6 9 1.6 13-1.5 7-14.8 10-23.4 13-15 6-29.3 13-44.4 19-7.7 3-17.4 2-24.3 6-11.7 7-35.5 20-25 28 4.7 4 13.8-2 19.2-5 14.3-8 33.6-11 51-16 5.4-1 15-6 16.8-2 2 5-9.2 7-15 9-22 7-41.4 18-59.5 30-6 4-18.7 9-15 14 2 3 9 2 13.3 1 24-4 45-14 65-24 7-4 14-7 22-8 3 0 8-3 8-1 0 6-13 7-19 11-16 8.7-33 17-48 27-4 3-9 9-5 12 7 6 21-2 30-5 16-6 32-13 46-22 5-3.4 11-6.7 18-9 3-.5 5-3.3 6-2.3 3 2-2 6-6 8-16 7.5-29 18.6-41 30-3 3-8 10-3 10.8 26 5 45-20.3 67-32 26-14 55-27 71-48 14-18 51-16 75-27 37-17 66-43.3 105-58"/><path stroke-linejoin="round" d="M802.3 18.3c-12.4 9-23 19.3-36.8 26.7-23.4 12.5-50.3 21-77 28.6-21 6-40.6 17.2-63 17.2-14.2 0-28-4.2-41.7-7.7-19-4-40-1-59.5-3-8.3-1-16-3-24.3-5-3.6 0-7.8-3-11-2-3.6 2-1.6 7 0 10 5.6 10 21.7 14 34.5 18 7.8 3 18.2 2 24.3 7 4 3 2.6 9 1.6 13-1.5 7-14.8 10-23.4 13-15 6-29.3 13-44.4 19-7.7 3-17.4 2-24.3 6-11.7 7-35.5 20-25 28 4.7 4 13.8-2 19.2-5 14.3-8 33.6-11 51-16 5.4-1 15-6 16.8-2 2 5-9.2 7-15 9-22 7-41.4 18-59.5 30-6 4-18.7 9-15 14 2 3 9 2 13.3 1 24-4 45-14 65-24 7-4 14-7 22-8 3 0 8-3 8-1 0 6-13 7-19 11-16 8.7-33 17-48 27-4 3-9 9-5 12 7 6 21-2 30-5 16-6 32-13 46-22 5-3.4 11-6.7 18-9 3-.5 5-3.3 6-2.3 3 2-2 6-6 8-16 7.5-29 18.6-41 30-3 3-8 10-3 10.8 26 5 45-20.3 67-32 26-14 55-27 71-48 14-18 51-16 75-27 37-17 66-43.3 105-58" stroke="#000" stroke-linecap="butt"/><path d="M363.5 69.8C358.5 73 345 79 351 81.2c3.7 1.4 7.3-3.5 9.2-6.3"/><path stroke-linejoin="round" d="M363.5 69.8C358.5 73 345 79 351 81.2c3.7 1.4 7.3-3.5 9.2-6.3" stroke="#e60000" stroke-linecap="butt" stroke-width="4"/><path d="M415.4 169c3.5 0 7.5 5 5 7-3 2-8.5.3-12.5-.7"/><path stroke-linejoin="round" d="M415.4 169c3.5 0 7.5 5 5 7-3 2-8.5.3-12.5-.7" stroke="#e60000" stroke-linecap="butt" stroke-width="4"/><path d="M413 200c3 .6 4 5.6 1.6 7-3 1.7-7.6 2-11 .7"/><path stroke-linejoin="round" d="M413 200c3 .6 4 5.6 1.6 7-3 1.7-7.6 2-11 .7" stroke="#e60000" stroke-linecap="butt" stroke-width="4"/><path d="M377 216c3 .4 8.8 1.7 7.5 3.7-2.5 3.8-11.2-1.2-16.8-1.2"/><path stroke-linejoin="round" d="M377 216c3 .4 8.8 1.7 7.5 3.7-2.5 3.8-11.2-1.2-16.8-1.2" stroke="#e60000" stroke-linecap="butt" stroke-width="4"/><path d="M320 226.2c1 2.8 4 6.4 1.7 9-2 2-6.6-2.7-10-2.7"/><path stroke-linejoin="round" d="M320 226.2c1 2.8 4 6.4 1.7 9-2 2-6.6-2.7-10-2.7" stroke="#e60000" stroke-linecap="butt" stroke-width="4"/><path d="M494.2 75c4 2 12.2 5.8 9.2 8.8-2.3 2.3-7.5-2.5-9.2-5"/><path stroke-linejoin="round" d="M494.2 75c4 2 12.2 5.8 9.2 8.8-2.3 2.3-7.5-2.5-9.2-5" stroke="#e60000" stroke-linecap="butt" stroke-width="8"/><path d="M439.7 173.3c-3 1.6-8 4.7-5.8 7 2 2.6 9-.3 11-3"/><path stroke-linejoin="round" d="M439.7 173.3c-3 1.6-8 4.7-5.8 7 2 2.6 9-.3 11-3" stroke="#e60000" stroke-linecap="butt" stroke-width="8"/><path d="M446.4 204.5c-4.8 1.5-15 2.5-13.4 6.3 1.4 3.2 9-.6 13.4-.6"/><path stroke-linejoin="round" d="M446.4 204.5c-4.8 1.5-15 2.5-13.4 6.3 1.4 3.2 9-.6 13.4-.6" stroke="#e60000" stroke-linecap="butt" stroke-width="8"/><path d="M476.6 219.7c-4 2.6-10.4 8-6.7 10.8 2 2 7-1.8 10-3.2"/><path stroke-linejoin="round" d="M476.6 219.7c-4 2.6-10.4 8-6.7 10.8 2 2 7-1.8 10-3.2" stroke="#e60000" stroke-linecap="butt" stroke-width="8"/><path d="M521.8 231.2c-2.8 1.6-8.7 4-6.7 6.3 3 3 12 .6 14-2.5 1-1.3-1-2.8-3-3.2"/><path stroke-linejoin="round" d="M521.8 231.2c-2.8 1.6-8.7 4-6.7 6.3 3 3 12 .6 14-2.5 1-1.3-1-2.8-3-3.2" stroke="#e60000" stroke-linecap="butt" stroke-width="8"/><path d="M828.3 73.2c24.3-7.8 44.3-32 62-55"/><path stroke-linejoin="round" d="M828.3 73.2c24.3-7.8 44.3-32 62-55" stroke="#000" stroke-linecap="butt"/></g></svg>